# Aspose.3D Wavefront OBJ Exporter
# Copyright 2004-2024 Aspose Pty Ltd.
# File created: 12/18/2024 15:40:12

mtllib material.lib
g head

#
# object head
#

v 0.25 1.125 0.296875
v 0.25 1.125 -0.203125
v 0.25 0.625 0.296875
v 0.25 0.625 -0.203125
v -0.25 1.125 -0.203125
v -0.25 1.125 0.296875
v -0.25 0.625 -0.203125
v -0.25 0.625 0.296875
v -0.25 1.125 -0.203125
v 0.25 1.125 -0.203125
v -0.25 1.125 0.296875
v 0.25 1.125 0.296875
v -0.25 0.625 0.296875
v 0.25 0.625 0.296875
v -0.25 0.625 -0.203125
v 0.25 0.625 -0.203125
v -0.25 1.125 0.296875
v 0.25 1.125 0.296875
v -0.25 0.625 0.296875
v 0.25 0.625 0.296875
v 0.25 1.125 -0.203125
v -0.25 1.125 -0.203125
v 0.25 0.625 -0.203125
v -0.25 0.625 -0.203125
# 24 vertices

vn 1 0 0
vn 1 0 0
vn 1 0 0
vn 1 0 0
vn -1 0 0
vn -1 0 0
vn -1 0 0
vn -1 0 0
vn 0 1 0
vn 0 1 0
vn 0 1 0
vn 0 1 0
vn 0 -1 0
vn 0 -1 0
vn 0 -1 0
vn 0 -1 0
vn 0 0 1
vn 0 0 1
vn 0 0 1
vn 0 0 1
vn 0 0 -1
vn 0 0 -1
vn 0 0 -1
vn 0 0 -1
# 24 vertex normals

vt 0.00024414062 -0.87475586 0
vt 0.12475586 -0.87475586 0
vt 0.00024414062 -0.75024414 0
vt 0.12475586 -0.75024414 0
vt 0.25024414 -0.87475586 0
vt 0.37475586 -0.87475586 0
vt 0.25024414 -0.75024414 0
vt 0.37475586 -0.75024414 0
vt 0.24975586 -0.87524414 0
vt 0.12524414 -0.87524414 0
vt 0.24975586 -0.99975586 0
vt 0.12524414 -0.99975586 0
vt 0.37475586 -0.99975586 0
vt 0.25024414 -0.99975586 0
vt 0.37475586 -0.87524414 0
vt 0.25024414 -0.87524414 0
vt 0.37524414 -0.87475586 0
vt 0.49975586 -0.87475586 0
vt 0.37524414 -0.75024414 0
vt 0.49975586 -0.75024414 0
vt 0.12524414 -0.87475586 0
vt 0.24975586 -0.87475586 0
vt 0.12524414 -0.75024414 0
vt 0.24975586 -0.75024414 0
# 24 texture coords

usemtl mat_63365865
s 1
f 1/1/1 3/3/3 2/2/2
f 3/3/3 4/4/4 2/2/2
f 5/5/5 7/7/7 6/6/6
f 7/7/7 8/8/8 6/6/6
f 9/9/9 11/11/11 10/10/10
f 11/11/11 12/12/12 10/10/10
f 13/13/13 15/15/15 14/14/14
f 15/15/15 16/16/16 14/14/14
f 17/17/17 19/19/19 18/18/18
f 19/19/19 20/20/20 18/18/18
f 21/21/21 23/23/23 22/22/22
f 23/23/23 24/24/24 22/22/22
#12 polygons

g head

#
# object head
#

v 0.125 0.875 -0.203125
v 0.125 0.875 -0.265625
v 0.125 0.6875 -0.203125
v 0.125 0.6875 -0.265625
v -0.125 0.875 -0.265625
v -0.125 0.875 -0.203125
v -0.125 0.6875 -0.265625
v -0.125 0.6875 -0.203125
v -0.125 0.875 -0.265625
v 0.125 0.875 -0.265625
v -0.125 0.875 -0.203125
v 0.125 0.875 -0.203125
v -0.125 0.6875 -0.203125
v 0.125 0.6875 -0.203125
v -0.125 0.6875 -0.265625
v 0.125 0.6875 -0.265625
v -0.125 0.875 -0.203125
v 0.125 0.875 -0.203125
v -0.125 0.6875 -0.203125
v 0.125 0.6875 -0.203125
v 0.125 0.875 -0.265625
v -0.125 0.875 -0.265625
v 0.125 0.6875 -0.265625
v -0.125 0.6875 -0.265625
# 24 vertices

vn 1 0 0
vn 1 0 0
vn 1 0 0
vn 1 0 0
vn -1 0 0
vn -1 0 0
vn -1 0 0
vn -1 0 0
vn 0 1 0
vn 0 1 0
vn 0 1 0
vn 0 1 0
vn 0 -1 0
vn 0 -1 0
vn 0 -1 0
vn 0 -1 0
vn 0 0 1
vn 0 0 1
vn 0 0 1
vn 0 0 1
vn 0 0 -1
vn 0 0 -1
vn 0 0 -1
vn 0 0 -1
# 24 vertex normals

vt 0.37524414 -0.57788086 0
vt 0.39038086 -0.57788086 0
vt 0.37524414 -0.53149414 0
vt 0.39038086 -0.53149414 0
vt 0.45336914 -0.57788086 0
vt 0.46850586 -0.57788086 0
vt 0.45336914 -0.53149414 0
vt 0.46850586 -0.53149414 0
vt 0.45288086 -0.57836914 0
vt 0.39086914 -0.57836914 0
vt 0.45288086 -0.59350586 0
vt 0.39086914 -0.59350586 0
vt 0.51538086 -0.59350586 0
vt 0.45336914 -0.59350586 0
vt 0.51538086 -0.57836914 0
vt 0.45336914 -0.57836914 0
vt 0.46899414 -0.57788086 0
vt 0.53100586 -0.57788086 0
vt 0.46899414 -0.53149414 0
vt 0.53100586 -0.53149414 0
vt 0.39086914 -0.57788086 0
vt 0.45288086 -0.57788086 0
vt 0.39086914 -0.53149414 0
vt 0.45288086 -0.53149414 0
# 24 texture coords

usemtl mat_24324134
s 2
f 25/25/25 27/27/27 26/26/26
f 27/27/27 28/28/28 26/26/26
f 29/29/29 31/31/31 30/30/30
f 31/31/31 32/32/32 30/30/30
f 33/33/33 35/35/35 34/34/34
f 35/35/35 36/36/36 34/34/34
f 37/37/37 39/39/39 38/38/38
f 39/39/39 40/40/40 38/38/38
f 41/41/41 43/43/43 42/42/42
f 43/43/43 44/44/44 42/42/42
f 45/45/45 47/47/47 46/46/46
f 47/47/47 48/48/48 46/46/46
#12 polygons

g left_ear

#
# object left_ear
#

v -0.20717923 1.0126765 0.171875
v -0.20717923 1.0126765 -0.078125
v -0.3011498 0.7146399 0.171875
v -0.3011498 0.7146399 -0.078125
v -0.26678655 1.0314705 -0.078125
v -0.26678655 1.0314705 0.171875
v -0.3607571 0.733434 -0.078125
v -0.3607571 0.733434 0.171875
v -0.26678655 1.0314705 -0.078125
v -0.20717923 1.0126765 -0.078125
v -0.26678655 1.0314705 0.171875
v -0.20717923 1.0126765 0.171875
v -0.3607571 0.733434 0.171875
v -0.3011498 0.7146399 0.171875
v -0.3607571 0.733434 -0.078125
v -0.3011498 0.7146399 -0.078125
v -0.26678655 1.0314705 0.171875
v -0.20717923 1.0126765 0.171875
v -0.3607571 0.733434 0.171875
v -0.3011498 0.7146399 0.171875
v -0.20717923 1.0126765 -0.078125
v -0.26678655 1.0314705 -0.078125
v -0.3011498 0.7146399 -0.078125
v -0.3607571 0.733434 -0.078125
# 24 vertices

vn 0.95371693 -0.3007058 0
vn 0.95371693 -0.3007058 0
vn 0.95371693 -0.3007058 0
vn 0.95371693 -0.3007058 0
vn -0.95371693 0.3007058 0
vn -0.95371693 0.3007058 0
vn -0.95371693 0.3007058 0
vn -0.95371693 0.3007058 0
vn 0.3007058 0.95371693 0
vn 0.3007058 0.95371693 0
vn 0.3007058 0.95371693 0
vn 0.3007058 0.95371693 0
vn -0.3007058 -0.95371693 0
vn -0.3007058 -0.95371693 0
vn -0.3007058 -0.95371693 0
vn -0.3007058 -0.95371693 0
vn 0 0 1
vn 0 0 1
vn 0 0 1
vn 0 0 1
vn 0 0 -1
vn 0 0 -1
vn 0 0 -1
vn 0 0 -1
# 24 vertex normals

vt 0.28149414 -0.53100586 0
vt 0.34350586 -0.53100586 0
vt 0.28149414 -0.45336914 0
vt 0.34350586 -0.45336914 0
vt 0.35961914 -0.53100586 0
vt 0.42163086 -0.53100586 0
vt 0.35961914 -0.45336914 0
vt 0.42163086 -0.45336914 0
vt 0.35913086 -0.53149414 0
vt 0.34399414 -0.53149414 0
vt 0.35913086 -0.59350586 0
vt 0.34399414 -0.59350586 0
vt 0.37475586 -0.59350586 0
vt 0.35961914 -0.59350586 0
vt 0.37475586 -0.53149414 0
vt 0.35961914 -0.53149414 0
vt 0.42211914 -0.53100586 0
vt 0.43725586 -0.53100586 0
vt 0.42211914 -0.45336914 0
vt 0.43725586 -0.45336914 0
vt 0.34399414 -0.53100586 0
vt 0.35913086 -0.53100586 0
vt 0.34399414 -0.45336914 0
vt 0.35913086 -0.45336914 0
# 24 texture coords

usemtl mat_30605003
s 4
f 49/49/49 51/51/51 50/50/50
f 51/51/51 52/52/52 50/50/50
f 53/53/53 55/55/55 54/54/54
f 55/55/55 56/56/56 54/54/54
f 57/57/57 59/59/59 58/58/58
f 59/59/59 60/60/60 58/58/58
f 61/61/61 63/63/63 62/62/62
f 63/63/63 64/64/64 62/62/62
f 65/65/65 67/67/67 66/66/66
f 67/67/67 68/68/68 66/66/66
f 69/69/69 71/71/71 70/70/70
f 71/71/71 72/72/72 70/70/70
#12 polygons

g right_ear

#
# object right_ear
#

v 0.2783573 1.0187941 0.171875
v 0.2783573 1.0187941 -0.078125
v 0.37232786 0.72075754 0.171875
v 0.37232786 0.72075754 -0.078125
v 0.21875 1 -0.078125
v 0.21875 1 0.171875
v 0.31272057 0.7019634 -0.078125
v 0.31272057 0.7019634 0.171875
v 0.21875 1 -0.078125
v 0.2783573 1.0187941 -0.078125
v 0.21875 1 0.171875
v 0.2783573 1.0187941 0.171875
v 0.31272057 0.7019634 0.171875
v 0.37232786 0.72075754 0.171875
v 0.31272057 0.7019634 -0.078125
v 0.37232786 0.72075754 -0.078125
v 0.21875 1 0.171875
v 0.2783573 1.0187941 0.171875
v 0.31272057 0.7019634 0.171875
v 0.37232786 0.72075754 0.171875
v 0.2783573 1.0187941 -0.078125
v 0.21875 1 -0.078125
v 0.37232786 0.72075754 -0.078125
v 0.31272057 0.7019634 -0.078125
# 24 vertices

vn 0.95371693 0.3007058 0
vn 0.95371693 0.3007058 0
vn 0.95371693 0.3007058 0
vn 0.95371693 0.3007058 0
vn -0.95371693 -0.3007058 0
vn -0.95371693 -0.3007058 0
vn -0.95371693 -0.3007058 0
vn -0.95371693 -0.3007058 0
vn -0.3007058 0.95371693 0
vn -0.3007058 0.95371693 0
vn -0.3007058 0.95371693 0
vn -0.3007058 0.95371693 0
vn 0.3007058 -0.95371693 0
vn 0.3007058 -0.95371693 0
vn 0.3007058 -0.95371693 0
vn 0.3007058 -0.95371693 0
vn 0 0 1
vn 0 0 1
vn 0 0 1
vn 0 0 1
vn 0 0 -1
vn 0 0 -1
vn 0 0 -1
vn 0 0 -1
# 24 vertex normals

vt 0.28149414 -0.53100586 0
vt 0.34350586 -0.53100586 0
vt 0.28149414 -0.45336914 0
vt 0.34350586 -0.45336914 0
vt 0.35961914 -0.53100586 0
vt 0.42163086 -0.53100586 0
vt 0.35961914 -0.45336914 0
vt 0.42163086 -0.45336914 0
vt 0.35913086 -0.53149414 0
vt 0.34399414 -0.53149414 0
vt 0.35913086 -0.59350586 0
vt 0.34399414 -0.59350586 0
vt 0.37475586 -0.59350586 0
vt 0.35961914 -0.59350586 0
vt 0.37475586 -0.53149414 0
vt 0.35961914 -0.53149414 0
vt 0.42211914 -0.53100586 0
vt 0.43725586 -0.53100586 0
vt 0.42211914 -0.45336914 0
vt 0.43725586 -0.45336914 0
vt 0.34399414 -0.53100586 0
vt 0.35913086 -0.53100586 0
vt 0.34399414 -0.45336914 0
vt 0.35913086 -0.45336914 0
# 24 texture coords

usemtl mat_52053924
s 8
f 73/73/73 75/75/75 74/74/74
f 75/75/75 76/76/76 74/74/74
f 77/77/77 79/79/79 78/78/78
f 79/79/79 80/80/80 78/78/78
f 81/81/81 83/83/83 82/82/82
f 83/83/83 84/84/84 82/82/82
f 85/85/85 87/87/87 86/86/86
f 87/87/87 88/88/88 86/86/86
f 89/89/89 91/91/91 90/90/90
f 91/91/91 92/92/92 90/90/90
f 93/93/93 95/95/95 94/94/94
f 95/95/95 96/96/96 94/94/94
#12 polygons

g cube

#
# object cube
#

v 0.21875 0.625 0.15625
v 0.21875 0.625 -0.09375
v 0.21875 0.1875 0.15625
v 0.21875 0.1875 -0.09375
v -0.21875 0.625 -0.09375
v -0.21875 0.625 0.15625
v -0.21875 0.1875 -0.09375
v -0.21875 0.1875 0.15625
v -0.21875 0.625 -0.09375
v 0.21875 0.625 -0.09375
v -0.21875 0.625 0.15625
v 0.21875 0.625 0.15625
v -0.21875 0.1875 0.15625
v 0.21875 0.1875 0.15625
v -0.21875 0.1875 -0.09375
v 0.21875 0.1875 -0.09375
v -0.21875 0.625 0.15625
v 0.21875 0.625 0.15625
v -0.21875 0.1875 0.15625
v 0.21875 0.1875 0.15625
v 0.21875 0.625 -0.09375
v -0.21875 0.625 -0.09375
v 0.21875 0.1875 -0.09375
v -0.21875 0.1875 -0.09375
# 24 vertices

vn 1 0 0
vn 1 0 0
vn 1 0 0
vn 1 0 0
vn -1 0 0
vn -1 0 0
vn -1 0 0
vn -1 0 0
vn 0 1 0
vn 0 1 0
vn 0 1 0
vn 0 1 0
vn 0 -1 0
vn 0 -1 0
vn 0 -1 0
vn 0 -1 0
vn 0 0 1
vn 0 0 1
vn 0 0 1
vn 0 0 1
vn 0 0 -1
vn 0 0 -1
vn 0 0 -1
vn 0 0 -1
# 24 vertex normals

vt 0.00024414062 -0.68725586 0
vt 0.06225586 -0.68725586 0
vt 0.00024414062 -0.57836914 0
vt 0.06225586 -0.57836914 0
vt 0.17211914 -0.68725586 0
vt 0.23413086 -0.68725586 0
vt 0.17211914 -0.57836914 0
vt 0.23413086 -0.57836914 0
vt 0.17163086 -0.68774414 0
vt 0.06274414 -0.68774414 0
vt 0.17163086 -0.74975586 0
vt 0.06274414 -0.74975586 0
vt 0.28100586 -0.74975586 0
vt 0.17211914 -0.74975586 0
vt 0.28100586 -0.68774414 0
vt 0.17211914 -0.68774414 0
vt 0.23461914 -0.68725586 0
vt 0.34350586 -0.68725586 0
vt 0.23461914 -0.57836914 0
vt 0.34350586 -0.57836914 0
vt 0.06274414 -0.68725586 0
vt 0.17163086 -0.68725586 0
vt 0.06274414 -0.57836914 0
vt 0.17163086 -0.57836914 0
# 24 texture coords

usemtl mat_45404465
s 16
f 97/97/97 99/99/99 98/98/98
f 99/99/99 100/100/100 98/98/98
f 101/101/101 103/103/103 102/102/102
f 103/103/103 104/104/104 102/102/102
f 105/105/105 107/107/107 106/106/106
f 107/107/107 108/108/108 106/106/106
f 109/109/109 111/111/111 110/110/110
f 111/111/111 112/112/112 110/110/110
f 113/113/113 115/115/115 114/114/114
f 115/115/115 116/116/116 114/114/114
f 117/117/117 119/119/119 118/118/118
f 119/119/119 120/120/120 118/118/118
#12 polygons

g cube

#
# object cube
#

v -0.015625 0.1875 0.125
v -0.015625 0.1875 -0.0625
v -0.015625 0 0.125
v -0.015625 0 -0.0625
v -0.203125 0.1875 -0.0625
v -0.203125 0.1875 0.125
v -0.203125 0 -0.0625
v -0.203125 0 0.125
v -0.203125 0.1875 -0.0625
v -0.015625 0.1875 -0.0625
v -0.203125 0.1875 0.125
v -0.015625 0.1875 0.125
v -0.203125 0 0.125
v -0.015625 0 0.125
v -0.203125 0 -0.0625
v -0.015625 0 -0.0625
v -0.203125 0.1875 0.125
v -0.015625 0.1875 0.125
v -0.203125 0 0.125
v -0.015625 0 0.125
v -0.015625 0.1875 -0.0625
v -0.203125 0.1875 -0.0625
v -0.015625 0 -0.0625
v -0.203125 0 -0.0625
# 24 vertices

vn 1 0 0
vn 1 0 0
vn 1 0 0
vn 1 0 0
vn -1 0 0
vn -1 0 0
vn -1 0 0
vn -1 0 0
vn 0 1 0
vn 0 1 0
vn 0 1 0
vn 0 1 0
vn 0 -1 0
vn 0 -1 0
vn 0 -1 0
vn 0 -1 0
vn 0 0 1
vn 0 0 1
vn 0 0 1
vn 0 0 1
vn 0 0 -1
vn 0 0 -1
vn 0 0 -1
vn 0 0 -1
# 24 vertex normals

vt 0.37524414 -0.95288086 0
vt 0.42163086 -0.95288086 0
vt 0.37524414 -0.90649414 0
vt 0.42163086 -0.90649414 0
vt 0.46899414 -0.95288086 0
vt 0.51538086 -0.95288086 0
vt 0.46899414 -0.90649414 0
vt 0.51538086 -0.90649414 0
vt 0.46850586 -0.95336914 0
vt 0.42211914 -0.95336914 0
vt 0.46850586 -0.99975586 0
vt 0.42211914 -0.99975586 0
vt 0.51538086 -0.99975586 0
vt 0.46899414 -0.99975586 0
vt 0.51538086 -0.95336914 0
vt 0.46899414 -0.95336914 0
vt 0.51586914 -0.95288086 0
vt 0.56225586 -0.95288086 0
vt 0.51586914 -0.90649414 0
vt 0.56225586 -0.90649414 0
vt 0.42211914 -0.95288086 0
vt 0.46850586 -0.95288086 0
vt 0.42211914 -0.90649414 0
vt 0.46850586 -0.90649414 0
# 24 texture coords

usemtl mat_34670219
s 32
f 121/121/121 123/123/123 122/122/122
f 123/123/123 124/124/124 122/122/122
f 125/125/125 127/127/127 126/126/126
f 127/127/127 128/128/128 126/126/126
f 129/129/129 131/131/131 130/130/130
f 131/131/131 132/132/132 130/130/130
f 133/133/133 135/135/135 134/134/134
f 135/135/135 136/136/136 134/134/134
f 137/137/137 139/139/139 138/138/138
f 139/139/139 140/140/140 138/138/138
f 141/141/141 143/143/143 142/142/142
f 143/143/143 144/144/144 142/142/142
#12 polygons

g cube

#
# object cube
#

v 0.203125 0.1875 0.125
v 0.203125 0.1875 -0.0625
v 0.203125 0 0.125
v 0.203125 0 -0.0625
v 0.015625 0.1875 -0.0625
v 0.015625 0.1875 0.125
v 0.015625 0 -0.0625
v 0.015625 0 0.125
v 0.015625 0.1875 -0.0625
v 0.203125 0.1875 -0.0625
v 0.015625 0.1875 0.125
v 0.203125 0.1875 0.125
v 0.015625 0 0.125
v 0.203125 0 0.125
v 0.015625 0 -0.0625
v 0.203125 0 -0.0625
v 0.015625 0.1875 0.125
v 0.203125 0.1875 0.125
v 0.015625 0 0.125
v 0.203125 0 0.125
v 0.203125 0.1875 -0.0625
v 0.015625 0.1875 -0.0625
v 0.203125 0 -0.0625
v 0.015625 0 -0.0625
# 24 vertices

vn 1 0 0
vn 1 0 0
vn 1 0 0
vn 1 0 0
vn -1 0 0
vn -1 0 0
vn -1 0 0
vn -1 0 0
vn 0 1 0
vn 0 1 0
vn 0 1 0
vn 0 1 0
vn 0 -1 0
vn 0 -1 0
vn 0 -1 0
vn 0 -1 0
vn 0 0 1
vn 0 0 1
vn 0 0 1
vn 0 0 1
vn 0 0 -1
vn 0 0 -1
vn 0 0 -1
vn 0 0 -1
# 24 vertex normals

vt 0.37524414 -0.95288086 0
vt 0.42163086 -0.95288086 0
vt 0.37524414 -0.90649414 0
vt 0.42163086 -0.90649414 0
vt 0.46899414 -0.95288086 0
vt 0.51538086 -0.95288086 0
vt 0.46899414 -0.90649414 0
vt 0.51538086 -0.90649414 0
vt 0.46850586 -0.95336914 0
vt 0.42211914 -0.95336914 0
vt 0.46850586 -0.99975586 0
vt 0.42211914 -0.99975586 0
vt 0.51538086 -0.99975586 0
vt 0.46899414 -0.99975586 0
vt 0.51538086 -0.95336914 0
vt 0.46899414 -0.95336914 0
vt 0.51586914 -0.95288086 0
vt 0.56225586 -0.95288086 0
vt 0.51586914 -0.90649414 0
vt 0.56225586 -0.90649414 0
vt 0.42211914 -0.95288086 0
vt 0.46850586 -0.95288086 0
vt 0.42211914 -0.90649414 0
vt 0.46850586 -0.90649414 0
# 24 texture coords

usemtl mat_2943396
s 64
f 145/145/145 147/147/147 146/146/146
f 147/147/147 148/148/148 146/146/146
f 149/149/149 151/151/151 150/150/150
f 151/151/151 152/152/152 150/150/150
f 153/153/153 155/155/155 154/154/154
f 155/155/155 156/156/156 154/154/154
f 157/157/157 159/159/159 158/158/158
f 159/159/159 160/160/160 158/158/158
f 161/161/161 163/163/163 162/162/162
f 163/163/163 164/164/164 162/162/162
f 165/165/165 167/167/167 166/166/166
f 167/167/167 168/168/168 166/166/166
#12 polygons

g cube

#
# object cube
#

v -0.203125 0.625 0.125
v -0.203125 0.625 -0.0625
v -0.203125 0.1875 0.125
v -0.203125 0.1875 -0.0625
v -0.328125 0.625 -0.0625
v -0.328125 0.625 0.125
v -0.328125 0.1875 -0.0625
v -0.328125 0.1875 0.125
v -0.328125 0.625 -0.0625
v -0.203125 0.625 -0.0625
v -0.328125 0.625 0.125
v -0.203125 0.625 0.125
v -0.328125 0.1875 0.125
v -0.203125 0.1875 0.125
v -0.328125 0.1875 -0.0625
v -0.203125 0.1875 -0.0625
v -0.328125 0.625 0.125
v -0.203125 0.625 0.125
v -0.328125 0.1875 0.125
v -0.203125 0.1875 0.125
v -0.203125 0.625 -0.0625
v -0.328125 0.625 -0.0625
v -0.203125 0.1875 -0.0625
v -0.328125 0.1875 -0.0625
# 24 vertices

vn 1 0 0
vn 1 0 0
vn 1 0 0
vn 1 0 0
vn -1 0 0
vn -1 0 0
vn -1 0 0
vn -1 0 0
vn 0 1 0
vn 0 1 0
vn 0 1 0
vn 0 1 0
vn 0 -1 0
vn 0 -1 0
vn 0 -1 0
vn 0 -1 0
vn 0 0 1
vn 0 0 1
vn 0 0 1
vn 0 0 1
vn 0 0 -1
vn 0 0 -1
vn 0 0 -1
vn 0 0 -1
# 24 vertex normals

vt 0.34399414 -0.70288086 0
vt 0.39038086 -0.70288086 0
vt 0.34399414 -0.59399414 0
vt 0.39038086 -0.59399414 0
vt 0.42211914 -0.70288086 0
vt 0.46850586 -0.70288086 0
vt 0.42211914 -0.59399414 0
vt 0.46850586 -0.59399414 0
vt 0.42163086 -0.70336914 0
vt 0.39086914 -0.70336914 0
vt 0.42163086 -0.74975586 0
vt 0.39086914 -0.74975586 0
vt 0.45288086 -0.74975586 0
vt 0.42211914 -0.74975586 0
vt 0.45288086 -0.70336914 0
vt 0.42211914 -0.70336914 0
vt 0.46899414 -0.70288086 0
vt 0.49975586 -0.70288086 0
vt 0.46899414 -0.59399414 0
vt 0.49975586 -0.59399414 0
vt 0.39086914 -0.70288086 0
vt 0.42163086 -0.70288086 0
vt 0.39086914 -0.59399414 0
vt 0.42163086 -0.59399414 0
# 24 texture coords

usemtl mat_47686533
s 128
f 169/169/169 171/171/171 170/170/170
f 171/171/171 172/172/172 170/170/170
f 173/173/173 175/175/175 174/174/174
f 175/175/175 176/176/176 174/174/174
f 177/177/177 179/179/179 178/178/178
f 179/179/179 180/180/180 178/178/178
f 181/181/181 183/183/183 182/182/182
f 183/183/183 184/184/184 182/182/182
f 185/185/185 187/187/187 186/186/186
f 187/187/187 188/188/188 186/186/186
f 189/189/189 191/191/191 190/190/190
f 191/191/191 192/192/192 190/190/190
#12 polygons

g cube

#
# object cube
#

v 0.34375 0.625 0.125
v 0.34375 0.625 -0.0625
v 0.34375 0.1875 0.125
v 0.34375 0.1875 -0.0625
v 0.21875 0.625 -0.0625
v 0.21875 0.625 0.125
v 0.21875 0.1875 -0.0625
v 0.21875 0.1875 0.125
v 0.21875 0.625 -0.0625
v 0.34375 0.625 -0.0625
v 0.21875 0.625 0.125
v 0.34375 0.625 0.125
v 0.21875 0.1875 0.125
v 0.34375 0.1875 0.125
v 0.21875 0.1875 -0.0625
v 0.34375 0.1875 -0.0625
v 0.21875 0.625 0.125
v 0.34375 0.625 0.125
v 0.21875 0.1875 0.125
v 0.34375 0.1875 0.125
v 0.34375 0.625 -0.0625
v 0.21875 0.625 -0.0625
v 0.34375 0.1875 -0.0625
v 0.21875 0.1875 -0.0625
# 24 vertices

vn 1 0 0
vn 1 0 0
vn 1 0 0
vn 1 0 0
vn -1 0 0
vn -1 0 0
vn -1 0 0
vn -1 0 0
vn 0 1 0
vn 0 1 0
vn 0 1 0
vn 0 1 0
vn 0 -1 0
vn 0 -1 0
vn 0 -1 0
vn 0 -1 0
vn 0 0 1
vn 0 0 1
vn 0 0 1
vn 0 0 1
vn 0 0 -1
vn 0 0 -1
vn 0 0 -1
vn 0 0 -1
# 24 vertex normals

vt 0.34399414 -0.70288086 0
vt 0.39038086 -0.70288086 0
vt 0.34399414 -0.59399414 0
vt 0.39038086 -0.59399414 0
vt 0.42211914 -0.70288086 0
vt 0.46850586 -0.70288086 0
vt 0.42211914 -0.59399414 0
vt 0.46850586 -0.59399414 0
vt 0.42163086 -0.70336914 0
vt 0.39086914 -0.70336914 0
vt 0.42163086 -0.74975586 0
vt 0.39086914 -0.74975586 0
vt 0.45288086 -0.74975586 0
vt 0.42211914 -0.74975586 0
vt 0.45288086 -0.70336914 0
vt 0.42211914 -0.70336914 0
vt 0.46899414 -0.70288086 0
vt 0.49975586 -0.70288086 0
vt 0.46899414 -0.59399414 0
vt 0.49975586 -0.59399414 0
vt 0.39086914 -0.70288086 0
vt 0.42163086 -0.70288086 0
vt 0.39086914 -0.59399414 0
vt 0.42163086 -0.59399414 0
# 24 texture coords

usemtl mat_48282253
s 256
f 193/193/193 195/195/195 194/194/194
f 195/195/195 196/196/196 194/194/194
f 197/197/197 199/199/199 198/198/198
f 199/199/199 200/200/200 198/198/198
f 201/201/201 203/203/203 202/202/202
f 203/203/203 204/204/204 202/202/202
f 205/205/205 207/207/207 206/206/206
f 207/207/207 208/208/208 206/206/206
f 209/209/209 211/211/211 210/210/210
f 211/211/211 212/212/212 210/210/210
f 213/213/213 215/215/215 214/214/214
f 215/215/215 216/216/216 214/214/214
#12 polygons

