<svg width="211" height="207" viewBox="0 0 211 207" fill="none" xmlns="http://www.w3.org/2000/svg">
<circle cx="103.377" cy="103.377" r="101.973" fill="#E7663D" stroke="#F3F2F2" stroke-width="2.80981"/>
<path d="M64.0259 91.7983C61.5853 92.4054 59.2979 92.4977 57.1636 92.0752C55.0407 91.6498 53.2248 90.7874 51.7158 89.4881C50.2068 88.1888 49.1758 86.526 48.6229 84.4999L55.8754 82.6957C56.2967 84.0455 57.1487 85.0132 58.4312 85.5988C59.7137 86.1843 61.0918 86.2938 62.5653 85.9272C63.7395 85.6351 64.7111 85.1183 65.4802 84.3769C66.2579 83.6211 66.784 82.714 67.0586 81.6555C67.3418 80.5827 67.3316 79.4361 67.028 78.2159C66.7187 76.9726 66.1819 75.9448 65.4175 75.1326C64.6646 74.3175 63.7618 73.7597 62.7092 73.4593C61.6565 73.1589 60.5358 73.1504 59.3472 73.4338C58.3112 73.6916 57.3569 74.1551 56.4843 74.8245C55.6233 75.491 55.0139 76.2599 54.6561 77.1313L47.7116 77.5937L44.7472 58.5278L66.3664 53.1495L67.8871 59.2623L52.4325 63.107L53.721 72.1931L53.9282 72.1415C54.3322 71.112 55.09 70.1533 56.2016 69.2656C57.3132 68.3778 58.646 67.7406 60.2001 67.354C62.3298 66.8242 64.3539 66.8524 66.2723 67.4387C68.1906 68.025 69.851 69.0727 71.2533 70.582C72.6527 72.0797 73.6288 73.9639 74.1814 76.2346C74.7857 78.6147 74.7601 80.8703 74.1046 83.0015C73.4576 85.1184 72.2701 86.9541 70.5421 88.5086C68.8226 90.0488 66.6506 91.1453 64.0259 91.7983ZM96.3897 84.0587C93.4167 84.7861 90.6792 84.6909 88.1772 83.773C85.6866 82.8524 83.5236 81.1595 81.6879 78.6946C79.8638 76.2268 78.4763 73.0574 77.5256 69.1866C76.5662 65.3301 76.3184 61.9017 76.7822 58.9014C77.2575 55.8982 78.3839 53.4237 80.1614 51.478C81.9475 49.5178 84.3198 48.1697 87.2783 47.4337C90.2369 46.6977 92.9586 46.7786 95.4434 47.6762C97.9397 48.571 100.101 50.2336 101.928 52.664C103.753 55.0829 105.139 58.2221 106.087 62.0814C107.052 65.9609 107.301 69.4195 106.834 72.4572C106.379 75.4921 105.267 77.9997 103.498 79.98C101.729 81.9603 99.3597 83.3199 96.3897 84.0587ZM94.8475 77.8596C96.8736 77.3556 98.2375 75.9344 98.9394 73.5961C99.6412 71.2578 99.4795 68.0525 98.4542 63.9801C97.7869 61.2979 96.955 59.1333 95.9586 57.4864C94.9736 55.8367 93.8687 54.6874 92.6438 54.0387C91.4304 53.387 90.1502 53.2287 88.8033 53.5638C86.7887 54.065 85.4277 55.4732 84.7201 57.7885C84.0125 60.1038 84.1527 63.2717 85.1407 67.2922C85.8166 70.009 86.6513 72.2095 87.6448 73.8938C88.647 75.5637 89.762 76.7288 90.9898 77.389C92.2147 78.0378 93.5006 78.1947 94.8475 77.8596ZM133.516 66.9564L133.052 65.0914C132.7 63.6755 132.675 62.3002 132.979 60.9655C133.291 59.6165 133.934 58.442 134.908 57.4418C135.89 56.4273 137.216 55.7125 138.885 55.2972C140.577 54.8762 142.088 54.8794 143.417 55.3068C144.757 55.7312 145.869 56.4691 146.754 57.5203C147.648 58.5571 148.272 59.7892 148.627 61.2167L149.091 63.0816C149.444 64.4975 149.469 65.8786 149.169 67.2248C148.865 68.5594 148.221 69.7282 147.235 70.7312C146.253 71.7457 144.927 72.4606 143.258 72.8758C141.566 73.2968 140.054 73.2879 138.722 72.849C137.394 72.4217 136.283 71.6896 135.389 70.6528C134.492 69.6045 133.868 68.3723 133.516 66.9564ZM138.077 63.8414L138.541 65.7063C138.744 66.5236 139.132 67.2463 139.704 67.8741C140.287 68.4991 141.102 68.6813 142.15 68.4207C143.197 68.1601 143.822 67.6257 144.025 66.8175C144.239 66.0063 144.241 65.1806 144.032 64.3402L143.568 62.4753C143.359 61.635 142.98 60.898 142.431 60.2644C141.882 59.6308 141.067 59.4486 139.985 59.7178C138.949 59.9755 138.319 60.5171 138.097 61.3426C137.874 62.1681 137.868 63.001 138.077 63.8414ZM110.333 51.2334L109.869 49.3684C109.514 47.941 109.494 46.5585 109.809 45.221C110.121 43.872 110.764 42.6974 111.738 41.6973C112.723 40.6943 114.039 39.988 115.685 39.5785C117.389 39.1547 118.905 39.1564 120.234 39.5838C121.562 40.0111 122.675 40.7489 123.571 41.7973C124.465 42.8341 125.089 44.0662 125.444 45.4937L125.908 47.3586C126.263 48.7861 126.283 50.1685 125.968 51.5061C125.665 52.8407 125.02 54.0095 124.035 55.0125C123.059 56.0011 121.73 56.7045 120.049 57.1226C118.369 57.5407 116.858 57.5375 115.518 57.113C114.186 56.6742 113.075 55.9421 112.184 54.9168C111.302 53.8771 110.685 52.6493 110.333 51.2334ZM114.928 48.1098L115.392 49.9747C115.601 50.8151 115.99 51.5434 116.559 52.1598C117.14 52.7733 117.936 52.954 118.95 52.702C120.009 52.4386 120.639 51.9027 120.842 51.0945C121.056 50.2833 121.058 49.4576 120.849 48.6172L120.385 46.7523C120.176 45.912 119.797 45.175 119.248 44.5414C118.699 43.9078 117.878 43.727 116.784 43.9991C115.76 44.2539 115.144 44.7984 114.935 45.6326C114.727 46.4667 114.725 47.2924 114.928 48.1098ZM119.296 77.535L134.812 36.1221L139.336 34.9966L123.82 76.4095L119.296 77.535Z" fill="#F3F2F2"/>
<path d="M52.6392 128.54L49.4942 115.898L51.3707 115.431L51.8458 117.341L51.9774 117.308C52.0523 116.625 52.343 116.014 52.8497 115.474C53.3563 114.934 53.9883 114.57 54.7455 114.382C54.8881 114.346 55.0671 114.305 55.2825 114.257C55.4978 114.209 55.6618 114.177 55.7742 114.161L56.2656 116.136C56.1957 116.136 56.0387 116.149 55.7945 116.175C55.5545 116.194 55.3056 116.235 55.0477 116.299C54.4331 116.452 53.9165 116.718 53.4978 117.096C53.0833 117.467 52.792 117.912 52.6241 118.432C52.4603 118.944 52.4494 119.486 52.5914 120.057L54.5816 128.057L52.6392 128.54ZM66.2438 125.435C65.0257 125.738 63.908 125.731 62.8909 125.413C61.8778 125.088 61.0118 124.499 60.2928 123.647C59.578 122.788 59.0595 121.71 58.7373 120.416C58.4152 119.121 58.3672 117.921 58.5934 116.816C58.8237 115.704 59.2951 114.765 60.0078 113.999C60.7245 113.226 61.6535 112.698 62.7948 112.414C63.4532 112.25 64.1307 112.198 64.8273 112.258C65.5239 112.318 66.197 112.529 66.8466 112.892C67.4948 113.249 68.0756 113.792 68.589 114.521C69.1025 115.25 69.5059 116.204 69.7994 117.384L70.0041 118.207L60.2593 120.631L59.8416 118.952L67.6111 117.019C67.4337 116.306 67.1327 115.705 66.7081 115.216C66.2891 114.726 65.7786 114.384 65.1768 114.19C64.5805 113.995 63.9312 113.984 63.2289 114.159C62.4552 114.352 61.8336 114.71 61.364 115.235C60.8985 115.753 60.5906 116.354 60.4403 117.038C60.2901 117.722 60.3016 118.412 60.475 119.109L60.7534 120.229C60.9909 121.183 61.3569 121.952 61.8513 122.534C62.3498 123.109 62.9383 123.496 63.6169 123.694C64.2941 123.887 65.0251 123.885 65.8097 123.69C66.32 123.563 66.7632 123.377 67.1392 123.132C67.5193 122.88 67.8241 122.571 68.0536 122.206C68.2816 121.834 68.4234 121.409 68.4788 120.929L70.4864 120.989C70.4472 121.674 70.2545 122.316 69.9082 122.915C69.5605 123.509 69.0772 124.025 68.4583 124.465C67.8379 124.899 67.0997 125.222 66.2438 125.435ZM61.4222 111.113L62.4804 106.794L64.752 106.229L63.1341 110.687L61.4222 111.113ZM79.2067 122.21C78.1532 122.472 77.157 122.438 76.218 122.106C75.2776 121.769 74.4583 121.169 73.7599 120.305C73.0601 119.436 72.5437 118.333 72.2107 116.994C71.8803 115.666 71.8214 114.457 72.0338 113.367C72.2463 112.277 72.6923 111.365 73.372 110.631C74.0517 109.896 74.9237 109.397 75.9882 109.132C76.8112 108.927 77.4956 108.903 78.0412 109.058C78.5909 109.207 79.035 109.423 79.3734 109.706C79.7159 109.982 79.9858 110.212 80.1831 110.396L80.3477 110.355L78.7997 104.133L80.7421 103.649L84.9354 120.505L83.0589 120.972L82.5757 119.03L82.3452 119.087C82.2599 119.353 82.1292 119.694 81.9532 120.111C81.7758 120.522 81.4771 120.926 81.057 121.322C80.6356 121.712 80.0188 122.008 79.2067 122.21ZM79.036 120.4C79.8152 120.206 80.4231 119.839 80.8598 119.299C81.2952 118.754 81.5627 118.085 81.6623 117.291C81.7606 116.491 81.691 115.614 81.4535 114.659C81.2187 113.716 80.8761 112.924 80.4257 112.284C79.9739 111.639 79.43 111.186 78.794 110.925C78.1566 110.658 77.4428 110.623 76.6527 110.82C75.8297 111.024 75.1964 111.406 74.7528 111.965C74.3133 112.517 74.0458 113.187 73.9503 113.974C73.8589 114.754 73.9237 115.589 74.1448 116.478C74.3687 117.378 74.7093 118.161 75.1665 118.828C75.6279 119.488 76.1841 119.967 76.8352 120.266C77.4903 120.557 78.224 120.602 79.036 120.4ZM95.4438 112.403L93.5847 104.929L95.5271 104.446L98.6721 117.088L96.7297 117.571L96.1973 115.431L96.0656 115.464C95.929 116.18 95.604 116.84 95.0904 117.446C94.5754 118.046 93.8406 118.465 92.8858 118.702C92.0957 118.899 91.3504 118.901 90.6499 118.708C89.948 118.51 89.3341 118.103 88.8082 117.488C88.2809 116.868 87.8835 116.02 87.616 114.944L85.6176 106.911L87.56 106.428L89.5256 114.329C89.7549 115.251 90.1957 115.922 90.848 116.343C91.5058 116.762 92.2379 116.871 93.0445 116.67C93.5274 116.55 93.9878 116.304 94.4256 115.933C94.869 115.561 95.1973 115.077 95.4106 114.482C95.6293 113.886 95.6404 113.193 95.4438 112.403ZM107.431 115.189C106.246 115.484 105.156 115.458 104.16 115.111C103.165 114.764 102.315 114.157 101.61 113.29C100.905 112.422 100.395 111.357 100.081 110.095C99.7615 108.811 99.7156 107.62 99.9432 106.52C100.175 105.414 100.647 104.478 101.36 103.712C102.076 102.939 103.005 102.411 104.147 102.127C105.035 101.906 105.878 101.871 106.673 102.023C107.468 102.175 108.167 102.49 108.77 102.97C109.373 103.449 109.827 104.07 110.134 104.833L108.191 105.316C107.9 104.777 107.443 104.348 106.823 104.031C106.206 103.706 105.47 103.651 104.614 103.864C103.856 104.052 103.242 104.415 102.769 104.952C102.301 105.482 101.996 106.143 101.856 106.936C101.719 107.721 101.769 108.592 102.007 109.546C102.25 110.523 102.615 111.335 103.103 111.983C103.596 112.63 104.174 113.083 104.839 113.343C105.509 113.601 106.229 113.635 106.997 113.444C107.502 113.318 107.938 113.117 108.306 112.839C108.674 112.561 108.959 112.222 109.163 111.821C109.366 111.421 109.471 110.976 109.477 110.485L111.419 110.001C111.495 110.775 111.391 111.515 111.106 112.221C110.826 112.92 110.375 113.533 109.755 114.06C109.138 114.581 108.364 114.957 107.431 115.189ZM117.529 98.9726L117.939 100.619L111.387 102.249L110.978 100.602L117.529 98.9726ZM112.134 97.0986L114.076 96.6154L117.074 108.665C117.21 109.213 117.392 109.605 117.619 109.84C117.851 110.068 118.104 110.197 118.38 110.228C118.66 110.251 118.942 110.228 119.228 110.157C119.442 110.103 119.614 110.049 119.746 109.993C119.877 109.931 119.981 109.882 120.059 109.845L120.888 111.491C120.769 111.574 120.597 111.669 120.374 111.777C120.151 111.89 119.859 111.992 119.497 112.082C118.948 112.219 118.381 112.235 117.796 112.13C117.216 112.023 116.693 111.772 116.227 111.375C115.767 110.977 115.445 110.41 115.262 109.675L112.134 97.0986ZM123.596 110.888L120.451 98.2458L122.393 97.7626L125.538 110.405L123.596 110.888ZM120.914 95.8931C120.536 95.9873 120.177 95.9395 119.839 95.7499C119.506 95.5589 119.294 95.2823 119.204 94.9202C119.114 94.558 119.171 94.2146 119.376 93.8898C119.586 93.5637 119.881 93.3535 120.259 93.2593C120.638 93.1651 120.994 93.2135 121.327 93.4046C121.665 93.5942 121.879 93.8701 121.97 94.2322C122.06 94.5944 122 94.9385 121.789 95.2646C121.585 95.5894 121.293 95.7989 120.914 95.8931ZM134.297 108.505C133.156 108.789 132.087 108.767 131.09 108.438C130.099 108.107 129.241 107.514 128.515 106.657C127.795 105.8 127.272 104.718 126.947 103.412C126.62 102.095 126.572 100.886 126.805 99.7851C127.044 98.6828 127.524 97.7536 128.244 96.9974C128.971 96.2399 129.904 95.7192 131.046 95.4353C132.187 95.1513 133.253 95.1745 134.244 95.5048C135.241 95.8337 136.1 96.4298 136.822 97.2932C137.549 98.1553 138.076 99.2447 138.404 100.562C138.729 101.868 138.771 103.069 138.531 104.166C138.297 105.261 137.817 106.188 137.09 106.945C136.37 107.701 135.438 108.221 134.297 108.505ZM133.863 106.76C134.73 106.545 135.388 106.145 135.837 105.561C136.286 104.978 136.555 104.29 136.644 103.499C136.733 102.708 136.672 101.89 136.462 101.045C136.251 100.2 135.921 99.4459 135.471 98.783C135.02 98.1201 134.459 97.6333 133.788 97.3226C133.116 97.0119 132.347 96.9644 131.48 97.1801C130.613 97.3958 129.956 97.7982 129.508 98.3874C129.06 98.9765 128.793 99.6694 128.705 100.466C128.618 101.263 128.679 102.084 128.89 102.929C129.1 103.774 129.429 104.525 129.878 105.182C130.327 105.84 130.887 106.321 131.557 106.626C132.228 106.931 132.996 106.976 133.863 106.76ZM142.976 97.991L144.867 105.596L142.925 106.079L139.78 93.4372L141.657 92.9703L142.148 94.9456L142.313 94.9047C142.449 94.189 142.771 93.5613 143.278 93.0216C143.783 92.4764 144.513 92.085 145.468 91.8475C146.324 91.6346 147.116 91.6238 147.845 91.8153C148.573 92.0012 149.204 92.4038 149.737 93.0229C150.268 93.6365 150.667 94.481 150.935 95.5564L152.933 103.589L150.991 104.073L149.025 96.1713C148.778 95.1782 148.328 94.4687 147.674 94.0428C147.019 93.6115 146.242 93.5077 145.342 93.7316C144.722 93.8858 144.201 94.1581 143.78 94.5485C143.364 94.9374 143.08 95.4246 142.928 96.01C142.777 96.5954 142.793 97.2557 142.976 97.991ZM158.052 83.5779L157.64 105.11L155.862 105.553L156.274 84.0202L158.052 83.5779ZM39.8539 161.884C38.6687 162.179 37.5785 162.153 36.5833 161.806C35.5881 161.46 34.7379 160.852 34.0327 159.985C33.3274 159.117 32.8178 158.053 32.5039 156.791C32.1845 155.507 32.1385 154.315 32.3661 153.215C32.5977 152.109 33.0699 151.173 33.7825 150.407C34.4992 149.635 35.4282 149.106 36.5695 148.822C37.4584 148.601 38.3005 148.567 39.0957 148.718C39.8909 148.87 40.5899 149.186 41.1927 149.665C41.7956 150.144 42.2501 150.765 42.5564 151.528L40.6141 152.011C40.3226 151.472 39.8664 151.044 39.2456 150.726C38.6288 150.402 37.8925 150.346 37.0365 150.559C36.2793 150.747 35.6645 151.11 35.1922 151.647C34.7239 152.177 34.4194 152.839 34.2786 153.631C34.142 154.417 34.1924 155.287 34.4299 156.242C34.6729 157.218 35.0381 158.031 35.5255 158.678C36.0185 159.325 36.5973 159.778 37.2621 160.038C37.9324 160.297 38.6517 160.33 39.4198 160.139C39.9246 160.014 40.361 159.812 40.7288 159.534C41.0966 159.256 41.3823 158.917 41.5857 158.517C41.7891 158.117 41.8939 157.671 41.8999 157.18L43.8423 156.697C43.9182 157.47 43.8138 158.21 43.5291 158.916C43.2486 159.615 42.798 160.228 42.1776 160.755C41.5613 161.276 40.7867 161.652 39.8539 161.884ZM47.5991 159.678L44.4541 147.036L46.3306 146.569L46.8057 148.478L46.9373 148.446C47.0122 147.763 47.3029 147.151 47.8096 146.612C48.3162 146.072 48.9482 145.708 49.7054 145.52C49.848 145.484 50.027 145.442 50.2424 145.395C50.4577 145.347 50.6217 145.315 50.7341 145.299L51.2255 147.274C51.1556 147.274 50.9986 147.287 50.7544 147.312C50.5144 147.331 50.2655 147.373 50.0076 147.437C49.393 147.59 48.8764 147.855 48.4577 148.233C48.0432 148.605 47.7519 149.05 47.584 149.569C47.4202 150.082 47.4093 150.624 47.5513 151.194L49.5415 159.194L47.5991 159.678ZM61.2037 156.573C59.9856 156.876 58.8679 156.868 57.8508 156.55C56.8377 156.226 55.9717 155.637 55.2527 154.785C54.5379 153.925 54.0194 152.848 53.6972 151.553C53.3751 150.258 53.3271 149.058 53.5533 147.953C53.7836 146.841 54.255 145.903 54.9677 145.137C55.6844 144.364 56.6134 143.836 57.7547 143.552C58.4131 143.388 59.0906 143.336 59.7872 143.396C60.4838 143.456 61.1569 143.667 61.8065 144.03C62.4547 144.387 63.0355 144.93 63.5489 145.659C64.0624 146.388 64.4658 147.342 64.7593 148.522L64.964 149.345L55.2192 151.769L54.8015 150.09L62.571 148.157C62.3936 147.444 62.0926 146.843 61.668 146.354C61.249 145.864 60.7385 145.522 60.1367 145.328C59.5404 145.133 58.8911 145.122 58.1888 145.297C57.4151 145.489 56.7935 145.848 56.3239 146.373C55.8584 146.89 55.5505 147.491 55.4002 148.176C55.25 148.86 55.2615 149.55 55.4349 150.247L55.7133 151.366C55.9508 152.321 56.3168 153.089 56.8112 153.671C57.3097 154.247 57.8982 154.633 58.5768 154.832C59.254 155.024 59.985 155.023 60.7696 154.828C61.2799 154.701 61.7231 154.515 62.0991 154.27C62.4792 154.018 62.784 153.709 63.0135 153.343C63.2415 152.972 63.3833 152.546 63.4387 152.066L65.4463 152.126C65.4071 152.812 65.2144 153.454 64.8681 154.053C64.5204 154.646 64.0371 155.163 63.4182 155.602C62.7978 156.036 62.0596 156.36 61.2037 156.573ZM56.3821 142.25L57.4403 137.932L59.7119 137.367L58.094 141.825L56.3821 142.25ZM74.1666 153.348C73.1131 153.61 72.1169 153.575 71.1779 153.244C70.2375 152.907 69.4182 152.306 68.7198 151.443C68.02 150.574 67.5036 149.47 67.1706 148.132C66.8402 146.804 66.7813 145.595 66.9937 144.505C67.2062 143.415 67.6522 142.503 68.3319 141.768C69.0116 141.034 69.8836 140.535 70.9481 140.27C71.7711 140.065 72.4555 140.041 73.0011 140.196C73.5508 140.345 73.9949 140.561 74.3333 140.844C74.6758 141.12 74.9457 141.35 75.143 141.534L75.3076 141.493L73.7596 135.27L75.702 134.787L79.8953 151.643L78.0188 152.11L77.5356 150.168L77.3051 150.225C77.2198 150.491 77.0891 150.832 76.9131 151.249C76.7357 151.66 76.437 152.064 76.0169 152.459C75.5955 152.85 74.9787 153.146 74.1666 153.348ZM73.9959 151.538C74.7751 151.344 75.383 150.977 75.8197 150.437C76.2551 149.892 76.5226 149.222 76.6222 148.428C76.7205 147.629 76.6509 146.752 76.4134 145.797C76.1786 144.853 75.836 144.062 75.3856 143.422C74.9338 142.777 74.3899 142.324 73.7539 142.063C73.1165 141.796 72.4027 141.761 71.6126 141.957C70.7896 142.162 70.1563 142.544 69.7127 143.103C69.2732 143.655 69.0057 144.325 68.9102 145.112C68.8188 145.892 68.8836 146.727 69.1047 147.615C69.3286 148.515 69.6692 149.299 70.1264 149.966C70.5878 150.626 71.144 151.105 71.7951 151.403C72.4502 151.695 73.1839 151.74 73.9959 151.538ZM83.7225 150.691L80.5775 138.049L82.5199 137.566L85.6649 150.208L83.7225 150.691ZM81.041 135.696C80.6624 135.791 80.3038 135.743 79.9653 135.553C79.6323 135.362 79.4208 135.086 79.3307 134.724C79.2406 134.361 79.2979 134.018 79.5026 133.693C79.7128 133.367 80.0072 133.157 80.3858 133.063C80.7644 132.968 81.1202 133.017 81.4532 133.208C81.7917 133.398 82.006 133.673 82.0961 134.036C82.1862 134.398 82.1261 134.742 81.916 135.068C81.7113 135.393 81.4196 135.602 81.041 135.696ZM91.5754 135.313L91.9849 136.959L85.4335 138.589L85.024 136.943L91.5754 135.313ZM86.18 133.439L88.1224 132.956L91.1199 145.005C91.2564 145.554 91.4384 145.946 91.6657 146.18C91.8972 146.408 92.1508 146.538 92.4264 146.568C92.7061 146.592 92.9886 146.568 93.274 146.497C93.488 146.444 93.6608 146.389 93.7925 146.333C93.9229 146.272 94.0272 146.222 94.1054 146.185L94.9345 147.832C94.8151 147.914 94.6436 148.009 94.4199 148.117C94.1976 148.231 93.9054 148.333 93.5433 148.423C92.9946 148.559 92.4275 148.575 91.8421 148.47C91.2621 148.364 90.7392 148.112 90.2734 147.715C89.8131 147.317 89.4915 146.75 89.3086 146.015L86.18 133.439ZM109 144.682C107.946 144.944 106.95 144.91 106.011 144.578C105.071 144.241 104.251 143.641 103.553 142.777C102.853 141.909 102.337 140.805 102.004 139.466C101.674 138.138 101.615 136.929 101.827 135.839C102.039 134.749 102.486 133.837 103.165 133.103C103.845 132.369 104.717 131.869 105.781 131.604C106.604 131.4 107.289 131.375 107.834 131.531C108.384 131.679 108.828 131.895 109.167 132.178C109.509 132.454 109.779 132.684 109.976 132.868L110.141 132.827L108.593 126.605L110.535 126.122L114.729 142.978L112.852 143.444L112.369 141.502L112.138 141.559C112.053 141.825 111.922 142.167 111.746 142.583C111.569 142.994 111.27 143.398 110.85 143.794C110.429 144.184 109.812 144.48 109 144.682ZM108.829 142.872C109.608 142.678 110.216 142.311 110.653 141.772C111.088 141.226 111.356 140.557 111.456 139.763C111.554 138.963 111.484 138.086 111.247 137.132C111.012 136.188 110.669 135.396 110.219 134.757C109.767 134.112 109.223 133.658 108.587 133.397C107.95 133.13 107.236 133.095 106.446 133.292C105.623 133.497 104.99 133.878 104.546 134.437C104.106 134.99 103.839 135.659 103.743 136.446C103.652 137.226 103.717 138.061 103.938 138.95C104.162 139.85 104.502 140.633 104.96 141.3C105.421 141.96 105.977 142.44 106.628 142.738C107.284 143.029 108.017 143.074 108.829 142.872ZM116.074 124.744L116.443 126.225C116.555 126.675 116.592 127.176 116.554 127.727C116.521 128.271 116.407 128.821 116.213 129.376C116.023 129.925 115.752 130.429 115.401 130.889L114.134 130.295C114.357 129.716 114.529 129.128 114.649 128.533C114.773 127.931 114.759 127.326 114.608 126.717L114.231 125.202L116.074 124.744ZM122.834 140.961L119.689 128.319L121.631 127.836L124.776 140.478L122.834 140.961ZM120.152 125.967C119.773 126.061 119.415 126.013 119.076 125.823C118.743 125.632 118.532 125.356 118.442 124.994C118.352 124.632 118.409 124.288 118.614 123.963C118.824 123.637 119.118 123.427 119.497 123.333C119.875 123.239 120.231 123.287 120.564 123.478C120.903 123.668 121.117 123.944 121.207 124.306C121.297 124.668 121.237 125.012 121.027 125.338C120.822 125.663 120.531 125.872 120.152 125.967ZM128.334 139.593L125.189 126.951L127.065 126.484L127.557 128.46L127.721 128.419C127.817 127.678 128.111 127.048 128.606 126.529C129.099 126.005 129.757 125.64 130.58 125.435C131.414 125.228 132.155 125.244 132.803 125.485C133.456 125.719 134.022 126.134 134.503 126.731L134.635 126.699C134.796 125.965 135.153 125.326 135.705 124.781C136.255 124.23 136.983 123.842 137.888 123.617C139.019 123.336 140.031 123.46 140.926 123.989C141.82 124.512 142.451 125.517 142.821 127.004L144.926 135.465L142.984 135.948L140.879 127.488C140.647 126.555 140.226 125.952 139.616 125.678C139.006 125.404 138.355 125.354 137.664 125.526C136.775 125.747 136.153 126.187 135.799 126.846C135.443 127.5 135.367 128.235 135.57 129.053L137.618 137.283L135.642 137.775L133.488 129.116C133.309 128.398 132.932 127.877 132.357 127.554C131.78 127.225 131.124 127.153 130.388 127.336C129.883 127.461 129.445 127.713 129.073 128.091C128.706 128.468 128.448 128.928 128.298 129.472C128.152 130.01 128.156 130.589 128.31 131.209L130.276 139.11L128.334 139.593ZM149.657 139.322L145.333 121.94L147.209 121.473L147.709 123.481L147.939 123.424C148.027 123.169 148.155 122.84 148.323 122.437C148.495 122.027 148.786 121.628 149.196 121.241C149.611 120.846 150.23 120.547 151.053 120.342C152.117 120.077 153.122 120.11 154.066 120.44C155.011 120.77 155.832 121.367 156.531 122.23C157.229 123.094 157.743 124.189 158.074 125.517C158.407 126.856 158.468 128.073 158.257 129.169C158.044 130.259 157.602 131.173 156.929 131.911C156.255 132.644 155.391 133.142 154.337 133.404C153.525 133.606 152.842 133.633 152.286 133.486C151.73 133.333 151.277 133.116 150.927 132.836C150.577 132.55 150.301 132.31 150.101 132.115L149.937 132.156L151.599 138.839L149.657 139.322ZM148.815 127.786C149.052 128.74 149.402 129.548 149.863 130.208C150.323 130.863 150.873 131.329 151.513 131.607C152.152 131.879 152.861 131.918 153.64 131.724C154.452 131.522 155.076 131.14 155.513 130.577C155.954 130.007 156.221 129.323 156.314 128.525C156.411 127.72 156.347 126.867 156.123 125.968C155.902 125.079 155.566 124.312 155.114 123.667C154.666 123.015 154.116 122.549 153.464 122.268C152.815 121.981 152.08 121.939 151.257 122.144C150.466 122.341 149.852 122.706 149.414 123.24C148.975 123.769 148.707 124.424 148.61 125.206C148.512 125.982 148.58 126.842 148.815 127.786ZM167.802 130.054C166.661 130.338 165.592 130.315 164.596 129.986C163.604 129.656 162.746 129.063 162.02 128.206C161.3 127.348 160.777 126.266 160.452 124.96C160.125 123.644 160.077 122.435 160.31 121.334C160.549 120.231 161.029 119.302 161.749 118.546C162.476 117.789 163.41 117.268 164.551 116.984C165.692 116.7 166.758 116.723 167.749 117.053C168.746 117.382 169.605 117.979 170.327 118.842C171.054 119.704 171.581 120.793 171.909 122.11C172.234 123.416 172.276 124.618 172.037 125.714C171.802 126.81 171.322 127.736 170.596 128.494C169.875 129.25 168.944 129.77 167.802 130.054ZM167.368 128.309C168.235 128.093 168.893 127.694 169.342 127.11C169.791 126.526 170.06 125.839 170.149 125.048C170.238 124.257 170.177 123.439 169.967 122.594C169.756 121.749 169.426 120.995 168.976 120.332C168.525 119.669 167.964 119.182 167.293 118.871C166.621 118.561 165.852 118.513 164.985 118.729C164.118 118.944 163.461 119.347 163.013 119.936C162.565 120.525 162.298 121.218 162.21 122.015C162.123 122.811 162.184 123.632 162.395 124.477C162.605 125.322 162.935 126.073 163.384 126.731C163.833 127.388 164.392 127.87 165.063 128.175C165.733 128.48 166.501 128.525 167.368 128.309ZM165.927 115.208L163.642 113.33L162.503 116.06L160.66 116.519L160.627 116.387L162.442 112.3L164.219 111.857L167.738 114.618L167.771 114.75L165.927 115.208ZM178.783 113.618L179.193 115.264L172.641 116.894L172.232 115.248L178.783 113.618ZM173.388 111.744L175.33 111.261L178.328 123.31C178.464 123.859 178.646 124.251 178.873 124.485C179.105 124.713 179.359 124.843 179.634 124.873C179.914 124.897 180.196 124.873 180.482 124.802C180.696 124.749 180.869 124.694 181 124.638C181.131 124.577 181.235 124.527 181.313 124.49L182.142 126.137C182.023 126.219 181.851 126.314 181.628 126.422C181.405 126.536 181.113 126.638 180.751 126.728C180.202 126.864 179.635 126.88 179.05 126.775C178.47 126.669 177.947 126.417 177.481 126.02C177.021 125.622 176.699 125.056 176.516 124.32L173.388 111.744ZM191.138 113.551L189.516 114.479C189.334 114.216 189.101 113.973 188.819 113.752C188.541 113.524 188.198 113.365 187.791 113.274C187.384 113.183 186.898 113.208 186.333 113.348C185.559 113.541 184.959 113.879 184.532 114.364C184.109 114.842 183.965 115.353 184.1 115.896C184.22 116.379 184.491 116.717 184.911 116.909C185.332 117.102 185.939 117.198 186.731 117.199L188.723 117.193C189.921 117.187 190.868 117.397 191.563 117.824C192.256 118.246 192.713 118.898 192.932 119.782C193.113 120.506 193.065 121.206 192.79 121.88C192.521 122.553 192.056 123.146 191.398 123.66C190.739 124.173 189.918 124.552 188.936 124.796C187.647 125.117 186.51 125.103 185.526 124.753C184.541 124.404 183.803 123.719 183.31 122.7L185.039 121.78C185.384 122.417 185.843 122.845 186.416 123.064C186.995 123.281 187.682 123.291 188.477 123.093C189.383 122.867 190.054 122.497 190.49 121.98C190.931 121.457 191.084 120.923 190.949 120.38C190.84 119.941 190.595 119.612 190.214 119.392C189.831 119.167 189.303 119.059 188.63 119.069L186.4 119.1C185.174 119.113 184.218 118.9 183.531 118.459C182.849 118.011 182.399 117.351 182.182 116.478C182.005 115.765 182.048 115.084 182.312 114.436C182.582 113.786 183.026 113.218 183.645 112.732C184.269 112.245 185.026 111.89 185.915 111.669C187.166 111.358 188.216 111.388 189.066 111.759C189.922 112.129 190.612 112.726 191.138 113.551Z" fill="#F3F2F2"/>
</svg>
