<svg width="47" height="65" viewBox="0 0 47 65" fill="none" xmlns="http://www.w3.org/2000/svg">
<path id="Vector" d="M44.0067 31.41L34.0336 28.2851L30.6173 20.4635C30.8345 19.1233 30.5835 17.7885 29.9711 16.6464L30.6931 15.2696C30.7195 15.2697 30.745 15.2734 30.7716 15.2734C34.8769 15.2734 38.205 11.9453 38.205 7.83985C38.205 3.73457 34.8769 0.406494 30.7716 0.406494C26.6664 0.406494 23.3381 3.73457 23.3381 7.83985C23.3381 9.60951 23.9591 11.2328 24.9915 12.5094L24.4857 13.4747C23.2909 13.5125 20.0273 14.7131 19.4876 15.0071L9.41721 20.4921C8.74652 20.7634 8.17609 21.2353 7.78406 21.8433C7.53164 22.2232 7.3554 22.6486 7.26514 23.0957L3.99849 34.177C3.45058 36.0356 4.51322 37.9866 6.37201 38.5347C8.23063 39.0826 10.1816 38.02 10.7297 36.1614L13.677 26.1628L16.7067 24.5127L13.7933 33.5454C13.3776 34.8345 13.425 36.1588 13.8325 37.3485L1.1691 57.8714C-0.0737973 59.8974 0.561052 62.5474 2.58699 63.7907C4.61292 65.0334 7.26295 64.3987 8.50622 62.3728L20.8118 42.4331L26.2327 48.7286L27.2099 60.4622C27.4071 62.8308 29.4874 64.5912 31.856 64.3938C34.2248 64.1966 35.9849 62.1165 35.7877 59.7477L34.7307 47.0579C34.673 46.3549 34.4424 45.677 34.0594 45.0846C33.8828 44.5778 33.6125 44.1087 33.2627 43.7016L25.9437 35.2017L27.4102 30.6545L28.1843 32.4265C28.3928 32.9026 28.705 33.3262 29.0982 33.6661C29.4997 34.0727 29.995 34.3744 30.5403 34.5448L41.9084 38.1066C43.7575 38.686 45.7262 37.6566 46.3056 35.8074C46.8853 33.9583 45.856 31.9892 44.0067 31.41Z" fill="#A83815"/>
</svg>
