<svg width="52" height="65" viewBox="0 0 52 65" fill="none" xmlns="http://www.w3.org/2000/svg">
<path d="M51.608 10.54V53.22C51.608 53.503 51.4956 53.7744 51.2955 53.9745C51.0954 54.1746 50.824 54.287 50.541 54.287H43.072V21.1353C43.0518 20.3126 42.7156 19.5293 42.133 18.948L33.597 10.412C33.029 9.84187 32.2671 9.50663 31.463 9.47303H11.062V2.00403C11.062 1.72104 11.1744 1.44965 11.3745 1.24955C11.5746 1.04945 11.846 0.93703 12.129 0.93703H42.005C42.1454 0.936218 42.2846 0.963133 42.4146 1.01623C42.5446 1.06933 42.6629 1.14757 42.7626 1.24646L51.2986 9.78246C51.3975 9.88216 51.4757 10.0004 51.5288 10.1304C51.5819 10.2604 51.6088 10.3996 51.608 10.54Z" fill="#D5471A"/>
<path d="M40.6286 20.4524L32.0926 11.9164C31.9426 11.7683 31.7521 11.668 31.5451 11.6282C31.3381 11.5883 31.1239 11.6106 30.9296 11.6923C30.7348 11.7724 30.568 11.9083 30.4502 12.083C30.3325 12.2577 30.2691 12.4633 30.2681 12.674V21.2099C30.2681 21.4929 30.3805 21.7643 30.5806 21.9644C30.7807 22.1645 31.0521 22.2769 31.3351 22.2769H39.8711C40.0817 22.2759 40.2873 22.2125 40.462 22.0948C40.6367 21.9771 40.7727 21.8103 40.8527 21.6154C40.9344 21.4211 40.9567 21.2069 40.9169 20.9999C40.877 20.793 40.7767 20.6024 40.6286 20.4524Z" fill="#D5471A"/>
<path d="M39.8711 24.4109H31.3351C30.4861 24.4109 29.6719 24.0737 29.0716 23.4734C28.4713 22.8731 28.1341 22.0589 28.1341 21.2099V12.6739C28.1327 12.3096 28.1978 11.948 28.3261 11.6069H1.45909C1.1761 11.6069 0.904708 11.7193 0.704607 11.9195C0.504506 12.1196 0.39209 12.3909 0.39209 12.6739V63.8899C0.39209 64.1729 0.504506 64.4443 0.704607 64.6444C0.904708 64.8445 1.1761 64.9569 1.45909 64.9569H39.8711C40.1541 64.9569 40.4255 64.8445 40.6256 64.6444C40.8257 64.4443 40.9381 64.1729 40.9381 63.8899V24.2189C40.597 24.3472 40.2355 24.4123 39.8711 24.4109ZM8.92809 20.1429H23.8661C24.1491 20.1429 24.4205 20.2553 24.6206 20.4554C24.8207 20.6555 24.9331 20.9269 24.9331 21.2099C24.9331 21.4929 24.8207 21.7643 24.6206 21.9644C24.4205 22.1645 24.1491 22.2769 23.8661 22.2769H8.92809C8.6451 22.2769 8.37371 22.1645 8.17361 21.9644C7.9735 21.7643 7.86109 21.4929 7.86109 21.2099C7.86109 20.9269 7.9735 20.6555 8.17361 20.4554C8.37371 20.2553 8.6451 20.1429 8.92809 20.1429ZM32.4021 56.4209H8.92809C8.6451 56.4209 8.37371 56.3085 8.17361 56.1084C7.9735 55.9083 7.86109 55.6369 7.86109 55.3539C7.86109 55.0709 7.9735 54.7995 8.17361 54.5994C8.37371 54.3993 8.6451 54.2869 8.92809 54.2869H32.4021C32.6851 54.2869 32.9565 54.3993 33.1566 54.5994C33.3567 54.7995 33.4691 55.0709 33.4691 55.3539C33.4691 55.6369 33.3567 55.9083 33.1566 56.1084C32.9565 56.3085 32.6851 56.4209 32.4021 56.4209ZM32.4021 47.8849H8.92809C8.6451 47.8849 8.37371 47.7725 8.17361 47.5724C7.9735 47.3723 7.86109 47.1009 7.86109 46.8179C7.86109 46.5349 7.9735 46.2635 8.17361 46.0634C8.37371 45.8633 8.6451 45.7509 8.92809 45.7509H32.4021C32.6851 45.7509 32.9565 45.8633 33.1566 46.0634C33.3567 46.2635 33.4691 46.5349 33.4691 46.8179C33.4691 47.1009 33.3567 47.3723 33.1566 47.5724C32.9565 47.7725 32.6851 47.8849 32.4021 47.8849ZM32.4021 39.3489H8.92809C8.6451 39.3489 8.37371 39.2365 8.17361 39.0364C7.9735 38.8363 7.86109 38.5649 7.86109 38.2819C7.86109 37.9989 7.9735 37.7275 8.17361 37.5274C8.37371 37.3273 8.6451 37.2149 8.92809 37.2149H32.4021C32.6851 37.2149 32.9565 37.3273 33.1566 37.5274C33.3567 37.7275 33.4691 37.9989 33.4691 38.2819C33.4691 38.5649 33.3567 38.8363 33.1566 39.0364C32.9565 39.2365 32.6851 39.3489 32.4021 39.3489ZM32.4021 30.8129H8.92809C8.6451 30.8129 8.37371 30.7005 8.17361 30.5004C7.9735 30.3003 7.86109 30.0289 7.86109 29.7459C7.86109 29.4629 7.9735 29.1915 8.17361 28.9914C8.37371 28.7913 8.6451 28.6789 8.92809 28.6789H32.4021C32.6851 28.6789 32.9565 28.7913 33.1566 28.9914C33.3567 29.1915 33.4691 29.4629 33.4691 29.7459C33.4691 30.0289 33.3567 30.3003 33.1566 30.5004C32.9565 30.7005 32.6851 30.8129 32.4021 30.8129Z" fill="#D5471A"/>
</svg>
