<svg width="87" height="65" viewBox="0 0 87 65" fill="none" xmlns="http://www.w3.org/2000/svg">
<path d="M13.6238 0.12793C13.2465 0.12793 12.8846 0.277818 12.6178 0.544619C12.351 0.811421 12.2012 1.17328 12.2012 1.5506V18.3665C11.7449 18.5321 11.2638 18.6187 10.7785 18.6226H9.35582V1.5506C9.35582 1.17328 9.20594 0.811421 8.93913 0.544619C8.67233 0.277818 8.31047 0.12793 7.93316 0.12793C7.55584 0.12793 7.19398 0.277818 6.92718 0.544619C6.66038 0.811421 6.51049 1.17328 6.51049 1.5506V18.6226H5.08782C4.60249 18.6187 4.12137 18.5321 3.66516 18.3665V1.5506C3.66516 1.17328 3.51527 0.811421 3.24847 0.544619C2.98167 0.277818 2.61981 0.12793 2.24249 0.12793C1.86518 0.12793 1.50332 0.277818 1.23651 0.544619C0.969712 0.811421 0.819824 1.17328 0.819824 1.5506V20.0453C0.819824 21.1772 1.26949 22.2628 2.06989 23.0632C2.8703 23.8636 3.95588 24.3133 5.08782 24.3133V61.3026C5.08782 62.0572 5.3876 62.7809 5.9212 63.3145C6.45481 63.8482 7.17853 64.1479 7.93316 64.1479C8.68779 64.1479 9.41151 63.8482 9.94511 63.3145C10.4787 62.7809 10.7785 62.0572 10.7785 61.3026V24.3133C11.9104 24.3133 12.996 23.8636 13.7964 23.0632C14.5968 22.2628 15.0465 21.1772 15.0465 20.0453V1.5506C15.0465 1.17328 14.8966 0.811421 14.6298 0.544619C14.363 0.277818 14.0011 0.12793 13.6238 0.12793ZM76.2212 16.6593V31.4266C76.2212 32.1812 76.5209 32.9049 77.0545 33.4385C77.5881 33.9722 78.3119 34.2719 79.0665 34.2719C79.4438 34.2719 79.8057 34.4218 80.0725 34.6886C80.3393 34.9554 80.4892 35.3173 80.4892 35.6946V61.3026C80.4892 62.0572 80.7889 62.7809 81.3225 63.3145C81.8561 63.8482 82.5799 64.1479 83.3345 64.1479C84.0891 64.1479 84.8128 63.8482 85.3465 63.3145C85.8801 62.7809 86.1798 62.0572 86.1798 61.3026V1.5506C83.2233 2.81778 80.7036 4.92487 78.9334 7.61061C77.1631 10.2964 76.2201 13.4426 76.2212 16.6593Z" fill="#EC8969"/>
<path d="M44.9223 48.4984C53.5652 48.4984 60.5716 41.4919 60.5716 32.849C60.5716 24.2062 53.5652 17.1997 44.9223 17.1997C36.2794 17.1997 29.2729 24.2062 29.2729 32.849C29.2729 41.4919 36.2794 48.4984 44.9223 48.4984Z" fill="#EC8969"/>
<path d="M44.9223 5.81836C39.5761 5.81836 34.35 7.40368 29.9048 10.3738C25.4597 13.344 21.9951 17.5656 19.9492 22.5048C17.9033 27.444 17.368 32.879 18.411 38.1224C19.454 43.3659 22.0284 48.1823 25.8087 51.9626C29.589 55.7429 34.4054 58.3173 39.6489 59.3603C44.8923 60.4033 50.3273 59.868 55.2665 57.8221C60.2057 55.7762 64.4273 52.3116 67.3975 47.8665C70.3676 43.4213 71.9529 38.1952 71.9529 32.849C71.9529 25.68 69.1051 18.8047 64.0358 13.7355C58.9666 8.66623 52.0913 5.81836 44.9223 5.81836ZM44.9223 51.3437C41.2644 51.3437 37.6886 50.259 34.6472 48.2268C31.6058 46.1946 29.2353 43.3061 27.8354 39.9266C26.4356 36.5472 26.0694 32.8285 26.783 29.2409C27.4966 25.6533 29.258 22.3578 31.8446 19.7713C34.4311 17.1848 37.7265 15.4234 41.3141 14.7097C44.9018 13.9961 48.6204 14.3624 51.9999 15.7622C55.3793 17.162 58.2678 19.5325 60.3 22.5739C62.3323 25.6154 63.4169 29.1911 63.4169 32.849C63.4169 37.7541 61.4684 42.4583 58 45.9267C54.5316 49.3951 49.8274 51.3437 44.9223 51.3437Z" fill="#EC8969"/>
</svg>
