<svg width="178" height="178" viewBox="0 0 178 178" fill="none" xmlns="http://www.w3.org/2000/svg">
<g filter="url(#filter0_d_98_600)">
<circle cx="89" cy="85.3375" r="61.8675" fill="#F3F2F2"/>
<path d="M85.2424 67.7489C84.2119 67.7489 83.2972 68.432 83.0194 69.4277L81.1437 76.004H72.8654C71.5918 76.004 70.5498 77.0461 70.5498 78.3196V92.468C70.5498 93.7416 71.5918 94.7836 72.8654 94.7836H81.5837C82.4057 95.5131 83.4709 95.9646 84.6519 95.9646H98.0824C100.271 95.9646 102.181 94.4131 102.656 92.2712L105.18 80.4847C105.481 79.0954 105.145 77.6713 104.254 76.5598C103.362 75.4483 102.031 74.8231 100.618 74.8231H93.4743V73.5958C93.4743 70.3655 90.8461 67.7373 87.6159 67.7373H85.2424V67.7489ZM75.181 80.6353H79.9859V90.1524H75.181V80.6353ZM88.8316 73.6074V77.1503C88.8316 78.4238 89.8736 79.4659 91.1472 79.4659L100.653 79.5122L98.0824 91.3334L84.6171 91.2871V79.5932C84.6982 79.4543 84.8255 79.2806 84.9761 79.0491C85.0918 78.8638 85.1729 78.667 85.2424 78.4702C85.2539 78.447 85.2655 78.4354 85.2655 78.4123L86.9906 72.3685H87.6043C88.2758 72.3801 88.8316 72.9359 88.8316 73.6074Z" fill="#E7663D"/>
<path d="M114.001 59.3663L88.5289 52.4195C88.1352 52.3153 87.7069 52.3153 87.3132 52.4195L61.8415 59.3663C60.8226 59.6442 60.1279 60.5588 60.1279 61.6009V83.7844C60.1279 95.2004 66.2296 105.887 76.0593 111.699L86.7459 118.009C87.1048 118.229 87.5216 118.333 87.9268 118.333C88.3321 118.333 88.7373 118.229 89.1078 118.009L99.7943 111.699C109.601 105.898 115.703 95.2004 115.703 83.7844V61.6009C115.703 60.5588 115.008 59.6442 114.001 59.3663ZM111.071 83.7844C111.071 93.5679 105.838 102.726 97.4208 107.705L87.9153 113.332L78.4097 107.716C69.9924 102.738 64.7592 93.5679 64.7592 83.7844V63.3723L87.9153 57.0623L111.071 63.3723V83.7844Z" fill="#E7663D"/>
</g>
<defs>
<filter id="filter0_d_98_600" x="0.620321" y="0.492796" width="176.759" height="176.759" filterUnits="userSpaceOnUse" color-interpolation-filters="sRGB">
<feFlood flood-opacity="0" result="BackgroundImageFix"/>
<feColorMatrix in="SourceAlpha" type="matrix" values="0 0 0 0 0 0 0 0 0 0 0 0 0 0 0 0 0 0 127 0" result="hardAlpha"/>
<feOffset dy="3.53495"/>
<feGaussianBlur stdDeviation="13.2561"/>
<feComposite in2="hardAlpha" operator="out"/>
<feColorMatrix type="matrix" values="0 0 0 0 0 0 0 0 0 0 0 0 0 0 0 0 0 0 0.25 0"/>
<feBlend mode="normal" in2="BackgroundImageFix" result="effect1_dropShadow_98_600"/>
<feBlend mode="normal" in="SourceGraphic" in2="effect1_dropShadow_98_600" result="shape"/>
</filter>
</defs>
</svg>
