<svg width="36" height="532" viewBox="0 0 36 532" fill="none" xmlns="http://www.w3.org/2000/svg">
<path fill-rule="evenodd" clip-rule="evenodd" d="M12.8665 257.263C13.064 257.094 13.326 257 13.5985 257C13.8709 257 14.1329 257.094 14.3305 257.263L22.8933 264.701C23.085 264.864 23.2376 265.062 23.3419 265.28C23.4462 265.499 23.5 265.735 23.5 265.973C23.5 266.211 23.4462 266.446 23.3419 266.665C23.2376 266.884 23.085 267.081 22.8933 267.245L14.2685 274.737C13.8685 275.084 13.2205 275.088 12.8145 274.746C12.7162 274.665 12.6375 274.566 12.5835 274.456C12.5294 274.346 12.501 274.227 12.5 274.107C12.4991 273.987 12.5256 273.868 12.578 273.757C12.6304 273.646 12.7075 273.547 12.8045 273.464L20.6974 266.609C20.7933 266.527 20.8697 266.428 20.9219 266.318C20.974 266.209 21.001 266.091 21.001 265.972C21.001 265.853 20.974 265.735 20.9219 265.626C20.8697 265.517 20.7933 265.418 20.6974 265.336L12.8675 258.535C12.7716 258.453 12.6952 258.354 12.643 258.245C12.5909 258.136 12.5639 258.018 12.5639 257.899C12.5639 257.78 12.5909 257.662 12.643 257.553C12.6952 257.443 12.7706 257.345 12.8665 257.263Z" fill="#1B1918"/>
</svg>
