<svg width="65" height="65" viewBox="0 0 65 65" fill="none" xmlns="http://www.w3.org/2000/svg">
<path id="Vector" d="M63.6901 18.8626L57.2881 2.85761C56.968 1.57721 55.6876 0.937012 54.4072 0.937012H9.59323C8.31283 0.937012 7.03243 1.57721 6.71233 2.85761L0.310334 18.8626C-0.00976594 19.1827 -0.00976562 19.8229 -0.00976562 20.143C-0.00976562 24.6244 2.55103 28.7857 6.39223 31.0264V61.756C6.39223 63.6766 7.67263 64.957 9.59323 64.957H54.4072C56.3278 64.957 57.6082 63.6766 57.6082 61.756V31.0264C61.4494 28.7857 64.0102 24.6244 64.0102 20.143C64.0102 19.8229 64.0102 19.1827 63.6901 18.8626ZM51.2062 58.555H41.6032V42.55C41.6032 40.6294 40.3228 39.349 38.4022 39.349H25.5982C23.6776 39.349 22.3972 40.6294 22.3972 42.55V58.555H12.7942V32.947C16.6354 32.947 19.8364 31.3465 22.3972 28.4656C26.8786 33.9073 34.8811 34.5475 40.3228 29.746C40.963 29.4259 41.2831 28.7857 41.6032 28.4656C44.164 31.3465 47.365 32.947 51.2062 32.947V58.555Z" fill="#D5471A"/>
</svg>
