<svg width="60" height="65" viewBox="0 0 60 65" fill="none" xmlns="http://www.w3.org/2000/svg">
<g id="Group 219">
<path id="Vector" d="M35.3155 32.3723C35.3183 29.8263 36.331 27.3854 38.1313 25.5851C39.9316 23.7848 42.3725 22.7721 44.9185 22.7693C47.4496 22.8195 49.8631 23.8474 51.6533 25.6375C53.4434 27.4277 54.4713 29.8412 54.5215 32.3723V35.5733H56.6555V32.3723C56.5928 29.2791 55.3361 26.3301 53.1484 24.1424C50.9607 21.9547 48.0117 20.698 44.9185 20.6353C41.8068 20.639 38.8236 21.8767 36.6232 24.077C34.4229 26.2774 33.1852 29.2606 33.1815 32.3723V35.5733H35.3155V32.3723ZM18.2435 36.6403C18.2435 35.7913 17.9063 34.9772 17.3059 34.3769C16.7056 33.7766 15.8915 33.4393 15.0425 33.4393H8.6405C7.79154 33.4393 6.97736 33.7766 6.37705 34.3769C5.77675 34.9772 5.4395 35.7913 5.4395 36.6403V39.8946H18.2435V36.6403ZM4.906 42.0287C0.147181 48.1596 -0.714955 58.6739 0.870607 61.6412C1.99393 62.2344 3.1654 62.7316 4.3725 63.1275V57.9803C4.3725 57.6973 4.48492 57.4259 4.68502 57.2258C4.88512 57.0257 5.15651 56.9133 5.4395 56.9133C5.72249 56.9133 5.99388 57.0257 6.19398 57.2258C6.39408 57.4259 6.5065 57.6973 6.5065 57.9803V63.725C7.90891 64.0452 9.33738 64.2381 10.7745 64.3012V57.9803C10.7745 57.6973 10.8869 57.4259 11.087 57.2258C11.2871 57.0257 11.5585 56.9133 11.8415 56.9133C12.1245 56.9133 12.3959 57.0257 12.596 57.2258C12.7961 57.4259 12.9085 57.6973 12.9085 57.9803V64.3012C14.3455 64.2379 15.774 64.0454 17.1765 63.7261V57.9803C17.1765 57.6973 17.2889 57.4259 17.489 57.2258C17.6891 57.0257 17.9605 56.9133 18.2435 56.9133C18.5265 56.9133 18.7979 57.0257 18.998 57.2258C19.1981 57.4259 19.3105 57.6973 19.3105 57.9803V63.1275C20.5167 62.7316 21.6875 62.2347 22.8103 61.6422C23.3691 60.2462 23.6202 58.746 23.5465 57.2441C23.5465 52.656 22.0527 46.254 18.7674 42.0287H4.906ZM13.9755 2.4963C13.9691 1.93231 13.7422 1.39322 13.3434 0.994389C12.9446 0.59556 12.4055 0.368681 11.8415 0.362305C11.2755 0.362305 10.7327 0.587136 10.3325 0.987339C9.93233 1.38754 9.7075 1.93033 9.7075 2.4963V31.3053H13.9755V2.4963Z" fill="#A83815"/>
<path id="Vector_2" d="M58.7895 37.707H31.0475C30.4582 37.707 29.9805 38.1847 29.9805 38.774V43.042C29.9805 43.6313 30.4582 44.109 31.0475 44.109H58.7895C59.3788 44.109 59.8565 43.6313 59.8565 43.042V38.774C59.8565 38.1847 59.3788 37.707 58.7895 37.707Z" fill="#A83815"/>
<path id="Vector_3" d="M34.9036 61.5173C34.9867 62.3041 35.3582 63.0323 35.9466 63.5614C36.535 64.0905 37.2984 64.3828 38.0897 64.3822H51.7473C52.5388 64.3828 53.3026 64.0901 53.891 63.5606C54.4794 63.0311 54.8507 62.3024 54.9333 61.5151L56.5381 46.2432H33.2988L34.9036 61.5173Z" fill="#A83815"/>
</g>
</svg>
