<svg width="50" height="50" viewBox="0 0 50 50" fill="none" xmlns="http://www.w3.org/2000/svg">
<path fill-rule="evenodd" clip-rule="evenodd" d="M20.7443 33.0479C21.08 33.3712 21.623 33.3712 21.9579 33.0479L29.0567 26.197C29.2156 26.046 29.3421 25.8643 29.4286 25.6628C29.5151 25.4614 29.5597 25.2444 29.5597 25.0252C29.5597 24.806 29.5151 24.5891 29.4286 24.3876C29.3421 24.1862 29.2156 24.0044 29.0567 23.8534L21.9065 16.952C21.7443 16.7977 21.5294 16.711 21.3055 16.7095C21.0816 16.708 20.8655 16.7917 20.7012 16.9437C20.6197 17.0187 20.5546 17.1097 20.5097 17.211C20.4649 17.3122 20.4413 17.4216 20.4405 17.5324C20.4396 17.6431 20.4615 17.7528 20.5048 17.8548C20.548 17.9567 20.6118 18.0487 20.692 18.125L27.2362 24.4395C27.3157 24.5151 27.3791 24.606 27.4223 24.7067C27.4656 24.8075 27.4879 24.916 27.4879 25.0256C27.4879 25.1353 27.4656 25.2438 27.4223 25.3446C27.3791 25.4453 27.3157 25.5362 27.2362 25.6118L20.7443 31.8765C20.6648 31.952 20.6015 32.0428 20.5582 32.1435C20.515 32.2442 20.4927 32.3526 20.4927 32.4622C20.4927 32.5718 20.515 32.6803 20.5582 32.781C20.6015 32.8817 20.6648 32.9725 20.7443 33.0479Z" fill="#1B1918"/>
</svg>
