<svg width="51" height="50" viewBox="0 0 51 50" fill="none" xmlns="http://www.w3.org/2000/svg">
<rect x="0.0859375" width="50" height="50" rx="25" fill="#E7663D"/>
<path d="M19.3798 21.4989V34.9983H14.8847V21.4989H19.3798ZM19.6655 17.3313C19.6664 17.3554 19.6672 17.3838 19.6672 17.4129C19.6672 18.037 19.4022 18.5986 18.979 18.9918L18.9773 18.9927C18.5232 19.4076 17.9158 19.6617 17.2484 19.6617C17.2076 19.6617 17.166 19.6609 17.1251 19.6592H17.131H17.1035C17.0693 19.6609 17.0293 19.6617 16.9893 19.6617C16.3361 19.6617 15.7429 19.4068 15.3021 18.9918L15.3029 18.9927C14.883 18.5861 14.623 18.0178 14.623 17.3888C14.623 17.3688 14.623 17.3488 14.6239 17.3279V17.3313C14.623 17.3138 14.623 17.2938 14.623 17.2738C14.623 16.6389 14.893 16.0673 15.3238 15.6666L15.3254 15.6657C15.7787 15.2533 16.3844 15 17.0485 15C17.0868 15 17.1243 15.0008 17.1626 15.0025H17.1576C17.1935 15.0008 17.2343 15 17.2768 15C17.9308 15 18.5266 15.2525 18.9715 15.6649L18.9698 15.6632C19.3989 16.0773 19.6655 16.6572 19.6655 17.2996V17.3346V17.3329V17.3313ZM35.5479 27.263V34.9983H31.067V27.7787C31.0711 27.7129 31.0728 27.6362 31.0728 27.5596C31.0728 26.813 30.8653 26.1156 30.5046 25.5207L30.5146 25.5382C30.1588 25.0417 29.5839 24.7225 28.9348 24.7225C28.8848 24.7225 28.8348 24.7242 28.7849 24.7284H28.7915C28.769 24.7275 28.7432 24.7267 28.7174 24.7267C28.2008 24.7267 27.7259 24.9042 27.3501 25.2016L27.3551 25.1983C26.9777 25.5041 26.6819 25.8949 26.4952 26.3439L26.4886 26.3631C26.3919 26.6589 26.3369 26.9988 26.3369 27.3521C26.3369 27.3921 26.3378 27.4321 26.3394 27.4721V27.4663V35H21.8585C21.8768 31.3767 21.886 28.4389 21.886 26.1865C21.886 23.9341 21.8816 22.5901 21.8727 22.1546L21.8593 21.5006H26.3403V23.4619H26.3128C26.4911 23.1745 26.6752 22.9253 26.8777 22.6921L26.871 22.6996C27.1051 22.4421 27.3568 22.2096 27.6275 22.0013L27.6409 21.9913C27.9775 21.7322 28.3724 21.5289 28.8007 21.4048L28.8257 21.3989C29.2739 21.2648 29.7897 21.1873 30.3229 21.1873H30.3888H30.3854C30.4446 21.1848 30.5137 21.1831 30.5829 21.1831C31.9835 21.1831 33.2449 21.778 34.129 22.7295L34.1315 22.7329C35.0769 23.7638 35.5496 25.2736 35.5496 27.2621L35.5479 27.263Z" fill="#F3F2F2"/>
</svg>
