<svg width="94" height="65" viewBox="0 0 94 65" fill="none" xmlns="http://www.w3.org/2000/svg">
<path id="Vector" d="M46.9998 0.937012C25.6598 0.937012 7.4354 14.2105 0.0517578 32.947C7.4354 51.6835 25.6598 64.957 46.9998 64.957C68.3611 64.957 86.5641 51.6835 93.9478 32.947C86.5641 14.2105 68.3611 0.937012 46.9998 0.937012ZM46.9998 54.287C35.2201 54.287 25.6598 44.7267 25.6598 32.947C25.6598 21.1673 35.2201 11.607 46.9998 11.607C58.7794 11.607 68.3398 21.1673 68.3398 32.947C68.3398 44.7267 58.7794 54.287 46.9998 54.287ZM46.9998 20.143C39.9362 20.143 34.1958 25.8835 34.1958 32.947C34.1958 40.0105 39.9362 45.751 46.9998 45.751C54.0633 45.751 59.8038 40.0105 59.8038 32.947C59.8038 25.8835 54.0633 20.143 46.9998 20.143Z" fill="#D5471A"/>
</svg>
