<svg width="95" height="61" viewBox="0 0 95 61" fill="none" xmlns="http://www.w3.org/2000/svg">
<path d="M85.7911 60.5582H76.0656C75.8689 60.5582 75.6802 60.4801 75.5411 60.341C75.402 60.2019 75.3239 60.0133 75.3239 59.8166V28.9726C75.3221 27.0893 75.8618 25.2453 76.8788 23.6602C77.8958 22.0752 79.3471 20.816 81.0598 20.0328C82.7724 19.2496 84.6742 18.9754 86.5384 19.2429C88.4025 19.5104 90.1505 20.3082 91.5738 21.5414C92.9971 22.7746 94.0358 24.3911 94.5661 26.1982C95.0964 28.0052 95.0958 29.9266 94.5645 31.7334C94.0332 33.5402 92.9936 35.156 91.5695 36.3884C90.1455 37.6208 88.3971 38.4177 86.5328 38.6841V59.8166C86.5328 59.914 86.5136 60.0104 86.4763 60.1004C86.4391 60.1904 86.3844 60.2721 86.3156 60.341C86.2467 60.4099 86.1649 60.4645 86.0749 60.5018C85.985 60.5391 85.8885 60.5582 85.7911 60.5582ZM18.9256 60.5582H9.20074C9.00403 60.5582 8.81538 60.4801 8.67629 60.341C8.5372 60.2019 8.45906 60.0133 8.45906 59.8166V38.6841C6.59611 38.417 4.84921 37.62 3.42652 36.388C2.00382 35.1559 0.965318 33.5409 0.434747 31.7352C-0.0958245 29.9296 -0.0960927 28.0094 0.433974 26.2036C0.964041 24.3978 2.00209 22.7824 3.42444 21.55C4.84679 20.3176 6.59347 19.5201 8.45635 19.2525C10.3192 18.9849 12.2198 19.2585 13.9315 20.0408C15.6432 20.823 17.094 22.0808 18.1109 23.6644C19.1279 25.248 19.6681 27.0906 19.6672 28.9726V59.8166C19.6672 60.0133 19.5891 60.2019 19.45 60.341C19.3109 60.4801 19.1223 60.5582 18.9256 60.5582Z" fill="#D5471A"/>
<path d="M74.5608 0.983887H20.4334C18.5477 0.98585 16.7397 1.73585 15.4062 3.0693C14.0728 4.40276 13.3228 6.21075 13.3208 8.09654V18.2204C15.5954 18.9549 17.5787 20.3915 18.9859 22.3237C20.3931 24.2559 21.1517 26.5843 21.1529 28.9746V36.556H73.8414V28.9746C73.8425 26.5843 74.6011 24.2559 76.0083 22.3237C77.4155 20.3915 79.3988 18.9549 81.6734 18.2204V8.09654C81.6715 6.21075 80.9215 4.40276 79.588 3.0693C78.2546 1.73585 76.4466 0.98585 74.5608 0.983887ZM40.4497 26.9647H38.3434C38.2407 27.2269 38.085 27.4651 37.8858 27.6642C37.6867 27.8633 37.4486 28.0191 37.1864 28.1217V29.5976C37.1864 29.7943 37.1082 29.983 36.9691 30.1221C36.83 30.2612 36.6414 30.3393 36.4447 30.3393C36.248 30.3393 36.0593 30.2612 35.9203 30.1221C35.7812 29.983 35.703 29.7943 35.703 29.5976V28.1217C35.4418 28.0189 35.2047 27.863 35.0069 27.6638C34.809 27.4646 34.6546 27.2266 34.5534 26.9647H33.1665C32.9698 26.9647 32.7811 26.8866 32.6421 26.7475C32.503 26.6084 32.4248 26.4197 32.4248 26.223C32.4248 26.0263 32.503 25.8377 32.6421 25.6986C32.7811 25.5595 32.9698 25.4814 33.1665 25.4814H34.5608C34.6606 25.2207 34.8138 24.9838 35.0104 24.7859C35.2071 24.5879 35.443 24.4332 35.703 24.3318V22.5592C35.703 22.3625 35.7812 22.1738 35.9203 22.0347C36.0593 21.8956 36.248 21.8175 36.4447 21.8175C36.6414 21.8175 36.83 21.8956 36.9691 22.0347C37.1082 22.1738 37.1864 22.3625 37.1864 22.5592V24.3318C37.4479 24.432 37.6855 24.5861 37.8835 24.7842C38.0816 24.9823 38.2357 25.2198 38.336 25.4814H40.4497C40.6464 25.4814 40.8351 25.5595 40.9742 25.6986C41.1133 25.8377 41.1914 26.0263 41.1914 26.223C41.1914 26.4197 41.1133 26.6084 40.9742 26.7475C40.8351 26.8866 40.6464 26.9647 40.4497 26.9647ZM40.4497 14.9125H38.3434C38.2407 15.1747 38.085 15.4129 37.8858 15.612C37.6867 15.8111 37.4486 15.9669 37.1864 16.0695V17.5455C37.1864 17.7422 37.1082 17.9308 36.9691 18.0699C36.83 18.209 36.6414 18.2871 36.4447 18.2871C36.248 18.2871 36.0593 18.209 35.9203 18.0699C35.7812 17.9308 35.703 17.7422 35.703 17.5455V16.0695C35.4418 15.9667 35.2047 15.8108 35.0069 15.6116C34.809 15.4124 34.6546 15.1744 34.5534 14.9125H33.1665C32.9698 14.9125 32.7811 14.8344 32.6421 14.6953C32.503 14.5562 32.4248 14.3675 32.4248 14.1708C32.4248 13.9741 32.503 13.7855 32.6421 13.6464C32.7811 13.5073 32.9698 13.4292 33.1665 13.4292H34.5534C34.6559 13.1689 34.8109 12.9326 35.0086 12.7348C35.2064 12.537 35.4428 12.3821 35.703 12.2796V10.507C35.703 10.3103 35.7812 10.1216 35.9203 9.98253C36.0593 9.84344 36.248 9.7653 36.4447 9.7653C36.6414 9.7653 36.83 9.84344 36.9691 9.98253C37.1082 10.1216 37.1864 10.3103 37.1864 10.507V12.2796C37.4476 12.3819 37.6851 12.5367 37.8841 12.7344C38.0831 12.9321 38.2394 13.1686 38.3434 13.4292H40.4497C40.6464 13.4292 40.8351 13.5073 40.9742 13.6464C41.1133 13.7855 41.1914 13.9741 41.1914 14.1708C41.1914 14.3675 41.1133 14.5562 40.9742 14.6953C40.8351 14.8344 40.6464 14.9125 40.4497 14.9125ZM61.9583 26.9721H59.7555C59.6495 27.2468 59.4872 27.4963 59.2789 27.7045C59.0707 27.9127 58.8213 28.075 58.5466 28.181V29.7326C58.5466 29.9293 58.4684 30.118 58.3293 30.2571C58.1902 30.3962 58.0016 30.4743 57.8049 30.4743C57.6082 30.4743 57.4195 30.3962 57.2804 30.2571C57.1414 30.118 57.0632 29.9293 57.0632 29.7326V28.1825C56.7885 28.0765 56.539 27.9142 56.3308 27.706C56.1226 27.4978 55.9603 27.2483 55.8543 26.9736H54.408C54.2113 26.9736 54.0227 26.8955 53.8836 26.7564C53.7445 26.6173 53.6664 26.4286 53.6664 26.2319C53.6664 26.0352 53.7445 25.8466 53.8836 25.7075C54.0227 25.5684 54.2113 25.4903 54.408 25.4903H55.8543C55.9603 25.2156 56.1226 24.9661 56.3308 24.7579C56.539 24.5497 56.7885 24.3873 57.0632 24.2813V22.4271C57.0632 22.2304 57.1414 22.0418 57.2804 21.9027C57.4195 21.7636 57.6082 21.6855 57.8049 21.6855C58.0016 21.6855 58.1902 21.7636 58.3293 21.9027C58.4684 22.0418 58.5466 22.2304 58.5466 22.4271V24.2813C58.8213 24.3873 59.0707 24.5497 59.2789 24.7579C59.4872 24.9661 59.6495 25.2156 59.7555 25.4903H61.9583C62.155 25.4903 62.3436 25.5684 62.4827 25.7075C62.6218 25.8466 62.6999 26.0352 62.6999 26.2319C62.6999 26.4286 62.6218 26.6173 62.4827 26.7564C62.3436 26.8955 62.155 26.9736 61.9583 26.9736V26.9721ZM61.9583 14.9199H59.7481C59.6445 15.194 59.4838 15.4428 59.2766 15.65C59.0695 15.8572 58.8206 16.0179 58.5466 16.1214V17.679C58.5466 17.8757 58.4684 18.0643 58.3293 18.2034C58.1902 18.3425 58.0016 18.4206 57.8049 18.4206C57.6082 18.4206 57.4195 18.3425 57.2804 18.2034C57.1414 18.0643 57.0632 17.8757 57.0632 17.679V16.1214C56.7892 16.0179 56.5403 15.8572 56.3331 15.65C56.126 15.4428 55.9653 15.194 55.8617 14.9199H54.408C54.2113 14.9199 54.0227 14.8418 53.8836 14.7027C53.7445 14.5636 53.6664 14.375 53.6664 14.1783C53.6664 13.9816 53.7445 13.7929 53.8836 13.6538C54.0227 13.5147 54.2113 13.4366 54.408 13.4366H55.8617C55.9653 13.1625 56.126 12.9137 56.3331 12.7065C56.5403 12.4993 56.7892 12.3386 57.0632 12.2351V10.375C57.0632 10.1783 57.1414 9.9896 57.2804 9.85051C57.4195 9.71142 57.6082 9.63328 57.8049 9.63328C58.0016 9.63328 58.1902 9.71142 58.3293 9.85051C58.4684 9.9896 58.5466 10.1783 58.5466 10.375V12.2366C58.8206 12.3401 59.0695 12.5008 59.2766 12.708C59.4838 12.9151 59.6445 13.164 59.7481 13.4381H61.9583C62.155 13.4381 62.3436 13.5162 62.4827 13.6553C62.6218 13.7944 62.6999 13.983 62.6999 14.1797C62.6999 14.3764 62.6218 14.5651 62.4827 14.7042C62.3436 14.8433 62.155 14.9214 61.9583 14.9214V14.9199ZM73.9734 60.5551H21.0179C21.1077 60.3182 21.153 60.0668 21.1514 59.8134V47.7316H73.8399V59.8134C73.8383 60.0668 73.8836 60.3182 73.9734 60.5551Z" fill="#D5471A"/>
<path d="M73.8408 38.0378H21.1523V46.2482H73.8408V38.0378Z" fill="#D5471A"/>
</svg>
