<svg width="17" height="15" viewBox="0 0 17 15" fill="none" xmlns="http://www.w3.org/2000/svg">
<path d="M15.8626 6.67031L8.77579 0.212575C8.62695 0.0758621 8.43222 0 8.23012 0C8.02803 0 7.83329 0.0758621 7.68445 0.212575L0.597631 6.67031C0.476929 6.7803 0.392307 6.92422 0.354873 7.08318C0.31744 7.24213 0.328945 7.40869 0.387877 7.56099C0.44681 7.71329 0.550417 7.84421 0.685096 7.93656C0.819775 8.02892 0.979233 8.07839 1.14254 8.07849H2.27367V14.5408C2.27367 14.6626 2.32205 14.7794 2.40817 14.8655C2.49428 14.9516 2.61108 15 2.73286 15H6.62372C6.74551 15 6.86231 14.9516 6.94842 14.8655C7.03454 14.7794 7.08291 14.6626 7.08291 14.5408V10.6193H9.37121V14.5408C9.37121 14.6626 9.41959 14.7794 9.5057 14.8655C9.59182 14.9516 9.70861 15 9.8304 15H13.7213C13.843 15 13.9598 14.9516 14.046 14.8655C14.1321 14.7794 14.1804 14.6626 14.1804 14.5408V8.07849H15.3131C15.4764 8.07839 15.6359 8.02892 15.7706 7.93656C15.9052 7.84421 16.0088 7.71329 16.0678 7.56099C16.1267 7.40869 16.1382 7.24213 16.1008 7.08318C16.0633 6.92422 15.9787 6.7803 15.858 6.67031H15.8626ZM14.0641 0.927379H10.9447L14.5279 4.18609V1.39116C14.5285 1.33009 14.5169 1.2695 14.4938 1.21296C14.4708 1.15641 14.4366 1.10504 14.3934 1.06185C14.3502 1.01866 14.2989 0.984522 14.2423 0.961432C14.1858 0.938342 14.1252 0.926766 14.0641 0.927379Z" fill="#E7663D"/>
</svg>
