<svg width="187" height="201" viewBox="0 0 187 201" fill="none" xmlns="http://www.w3.org/2000/svg">
<path d="M40.6111 82.5563L10.9088 100.54C0.882993 106.61 -2.14706 119.741 4.22477 129.561C11.1464 139.387 24.6352 137.026 31.6556 131.256L34.6504 128.985C35.005 132.691 35.5728 136.37 36.618 139.952C38.268 139.669 39.923 139.403 41.6528 139.403C59.1883 139.403 73.1345 154.593 73.1345 172.736C73.1345 174.85 72.9038 176.913 72.5413 178.928C79.2392 181.467 86.3419 182.772 93.505 182.777C100.672 182.755 107.775 181.431 114.469 178.871C114.113 176.875 113.876 174.831 113.876 172.736C113.876 154.593 127.822 139.403 145.357 139.403C147.097 139.403 148.762 139.655 150.421 139.952C151.253 137.081 151.825 134.154 152.215 131.198C157.071 132.887 166.948 136.2 169.099 136.262C174.212 136.346 179.31 134.476 182.771 129.564C189.143 119.743 186.127 106.612 176.101 100.542L146.399 82.558C144.414 84.5262 142.314 86.4158 140.004 88.1141C135.45 91.4633 130.303 94.3078 124.697 96.5486C120.96 98.0437 117.022 99.2587 112.921 100.194C108.819 101.129 104.544 101.779 100.16 102.104C97.968 102.272 95.7524 102.356 93.505 102.356C86.7628 102.356 80.2418 101.603 74.0893 100.2C69.9877 99.2652 66.0496 98.0474 62.3126 96.5546C56.707 94.3149 51.5604 91.4685 47.0058 88.1192C44.6961 86.4198 42.5957 84.5236 40.6111 82.5563Z" fill="#F3F2F2"/>
<path d="M51.7081 0.5C46.5906 0.499663 41.6825 2.18945 38.0632 5.1983C34.4439 8.20714 32.4098 12.2886 32.4082 16.5446C32.4092 19.0969 33.1421 21.6125 34.5461 23.8821C35.9502 26.1517 37.9848 28.11 40.4812 29.5946C35.2042 36.3744 32.4217 44.0483 32.4082 51.86C32.4145 60.2318 35.6008 68.4357 41.608 75.5472C47.6152 82.6586 56.2044 88.3953 66.4073 92.1095C63.6842 87.1216 63.1282 81.5308 64.8304 76.2529C66.7565 70.3293 71.3913 65.2247 77.7912 61.9777C84.191 58.7307 91.8748 57.5851 99.278 58.7755C106.679 59.9657 113.244 63.401 117.635 68.3814C122.027 73.3617 123.916 79.5135 122.918 85.5845C122.544 87.8202 121.784 90.0019 120.661 92.066C130.85 88.3521 139.427 82.621 145.428 75.5181C151.43 68.4152 154.617 60.2222 154.631 51.86C154.606 44.0513 151.813 36.3826 146.53 29.6091C149.034 28.1257 151.075 26.1657 152.485 23.8932C153.894 21.6208 154.63 19.1015 154.631 16.5446C154.63 12.2886 152.596 8.20714 148.976 5.1983C145.357 2.18945 140.449 0.499663 135.331 0.5C131.492 0.503337 127.741 1.45911 124.558 3.24516C121.375 5.03121 118.905 7.56643 117.464 10.5263C109.894 8.15218 101.75 6.92712 93.5198 6.92417C85.2971 6.9391 77.163 8.17414 69.6047 10.5553C68.1673 7.58629 65.6952 5.04202 62.5062 3.25029C59.3171 1.45855 55.5567 0.500867 51.7081 0.5ZM69.4455 31.9818C70.1751 31.9818 70.8976 32.1255 71.5716 32.4047C72.2456 32.6839 72.8581 33.0926 73.374 33.6085C73.8899 34.1244 74.2991 34.7372 74.5783 35.4113C74.8575 36.0853 75.0011 36.8074 75.0011 37.537C75.0011 38.2666 74.8575 38.9895 74.5783 39.6636C74.2991 40.3376 73.8899 40.9496 73.374 41.4655C72.8581 41.9814 72.2456 42.391 71.5716 42.6702C70.8976 42.9494 70.1751 43.0931 69.4455 43.0931C68.716 43.0931 67.9935 42.9494 67.3195 42.6702C66.6454 42.391 66.033 41.9814 65.5171 41.4655C65.0012 40.9496 64.592 40.3376 64.3128 39.6636C64.0336 38.9895 63.8899 38.2666 63.8899 37.537C63.8899 36.8074 64.0336 36.0853 64.3128 35.4113C64.592 34.7372 65.0012 34.1244 65.5171 33.6085C66.033 33.0926 66.6454 32.6839 67.3195 32.4047C67.9935 32.1255 68.716 31.9818 69.4455 31.9818ZM117.594 31.9818C118.324 31.9818 119.046 32.1255 119.72 32.4047C120.394 32.6839 121.007 33.0926 121.523 33.6085C122.038 34.1244 122.448 34.7372 122.727 35.4113C123.006 36.0853 123.15 36.8074 123.15 37.537C123.15 38.2666 123.006 38.9895 122.727 39.6636C122.448 40.3376 122.038 40.9496 121.523 41.4655C121.007 41.9814 120.394 42.391 119.72 42.6702C119.046 42.9494 118.324 43.0931 117.594 43.0931C116.864 43.0931 116.142 42.9494 115.468 42.6702C114.794 42.391 114.182 41.9814 113.666 41.4655C113.15 40.9496 112.741 40.3376 112.461 39.6636C112.182 38.9895 112.038 38.2666 112.038 37.537C112.038 36.8074 112.182 36.0853 112.461 35.4113C112.741 34.7372 113.15 34.1244 113.666 33.6085C114.182 33.0926 114.794 32.6839 115.468 32.4047C116.142 32.1255 116.864 31.9818 117.594 31.9818Z" fill="#F3F2F2"/>
<path d="M93.4831 71.275C90.5331 71.2749 87.7037 71.8599 85.6173 72.9018C83.5309 73.9436 82.3583 75.3566 82.3574 76.8303C82.3587 77.9795 83.0732 79.1006 84.4023 80.0385C85.7315 80.9765 87.6101 81.6852 89.7794 82.0677V96.6949C91.0121 96.7597 92.2473 96.797 93.4831 96.8068C94.7193 96.7877 95.9545 96.7409 97.1868 96.6667V82.0685C99.3561 81.6861 101.235 80.9773 102.564 80.0394C103.893 79.1014 104.607 77.9803 104.609 76.8311C104.608 75.3575 103.435 73.9444 101.349 72.9026C99.2623 71.8608 96.433 71.2749 93.4831 71.275Z" fill="#F3F2F2"/>
<path d="M67.594 172.722C67.594 176.37 66.9234 179.982 65.6205 183.352C64.3176 186.723 62.4079 189.785 60.0004 192.365C57.5929 194.944 54.7349 196.989 51.5894 198.385C48.4438 199.781 45.0725 200.5 41.6678 200.5C38.2632 200.5 34.8918 199.781 31.7463 198.385C28.6008 196.989 25.7427 194.944 23.3353 192.365C20.9278 189.785 19.0181 186.723 17.7152 183.352C16.4123 179.982 15.7417 176.37 15.7417 172.722C15.7418 165.355 18.4733 158.29 23.3354 153.08C28.1974 147.871 34.7918 144.944 41.6678 144.944C48.5438 144.944 55.1382 147.871 60.0003 153.08C64.8624 158.29 67.5939 165.355 67.594 172.722Z" fill="#F3F2F2"/>
<path d="M171.279 172.722C171.279 176.37 170.608 179.982 169.306 183.352C168.003 186.723 166.093 189.785 163.685 192.365C161.278 194.944 158.42 196.989 155.274 198.385C152.129 199.781 148.758 200.5 145.353 200.5C141.948 200.5 138.577 199.781 135.431 198.385C132.286 196.989 129.428 194.944 127.02 192.365C124.613 189.785 122.703 186.723 121.4 183.352C120.097 179.982 119.427 176.37 119.427 172.722C119.427 165.355 122.158 158.29 127.02 153.08C131.883 147.871 138.477 144.944 145.353 144.944C152.229 144.944 158.823 147.871 163.685 153.08C168.547 158.29 171.279 165.355 171.279 172.722Z" fill="#F3F2F2"/>
</svg>
