<svg width="65" height="65" viewBox="0 0 65 65" fill="none" xmlns="http://www.w3.org/2000/svg">
<g id="Group">
<path id="Vector" fill-rule="evenodd" clip-rule="evenodd" d="M35.9964 6.6272C35.1451 6.49515 34.3048 6.92429 33.9107 7.69053C33.5176 8.45677 33.6586 9.38906 34.2618 10.0043C37.3358 13.1412 39.2334 17.4366 39.2334 22.1721C39.2334 31.7701 31.4409 39.5625 21.8429 39.5625C17.1075 39.5625 12.8121 37.6649 9.67515 34.5909C9.05996 33.9877 8.12766 33.8467 7.36143 34.2398C6.59519 34.6339 6.16605 35.4742 6.29809 36.3255C8.2237 48.7844 19.0051 58.3373 32.0001 58.3373C46.3546 58.3373 58.0082 46.6837 58.0082 32.3292C58.0082 19.3342 48.4553 8.5528 35.9964 6.6272Z" fill="#EC8969"/>
</g>
</svg>
