<svg width="178" height="178" viewBox="0 0 178 178" fill="none" xmlns="http://www.w3.org/2000/svg">
<g filter="url(#filter0_d_98_605)">
<circle cx="89" cy="85.3375" r="61.8675" fill="#F3F2F2"/>
<path d="M94.7508 76.2705C94.3002 76.6869 93.807 77.0486 93.2773 77.3672C93.1137 77.465 92.9479 77.5507 92.7781 77.6378C92.281 77.8956 91.7616 78.1018 91.2158 78.2636C91.1046 78.2969 91.0097 78.3625 90.8985 78.3908L104.768 108.62L108.968 106.704L94.9428 76.127C94.8863 76.183 94.8096 76.2159 94.7508 76.2705ZM84.6086 77.6378C84.4369 77.551 84.273 77.465 84.1073 77.3672C83.5796 77.0497 83.0866 76.6876 82.6359 76.2716C82.5773 76.2171 82.5005 76.1837 82.4418 76.1269L68.4168 106.704L72.6189 108.62L86.4864 78.3906C86.3751 78.3621 86.2783 78.2958 86.1671 78.2624C85.6232 78.1006 85.1037 77.8945 84.6086 77.6378ZM91.8808 74.8465C92.2891 74.5946 92.6712 74.3009 93.0086 73.9593C93.0592 73.9076 93.0976 73.8461 93.1462 73.7938C93.4149 73.5026 93.6515 73.1801 93.8617 72.8366C94.4175 71.9209 94.7551 70.8589 94.7551 69.7118C94.7551 66.3686 92.0365 63.6481 88.6935 63.6481C85.3506 63.6481 82.6299 66.3687 82.6299 69.7118C82.6299 70.8589 82.9694 71.9209 83.5251 72.8366C83.7356 73.1801 83.9699 73.5026 84.2406 73.7938C84.2872 73.8461 84.3256 73.9076 84.3761 73.9593C84.7157 74.3009 85.0979 74.5946 85.5061 74.8465C85.5909 74.9004 85.6839 74.9432 85.7729 74.9926C86.1165 75.1826 86.4783 75.3382 86.8542 75.4602C86.9654 75.4954 87.0725 75.5327 87.1836 75.562C87.6142 75.6744 88.0569 75.7415 88.5096 75.7572C88.5723 75.7587 88.631 75.7754 88.6936 75.7754C88.7542 75.7754 88.811 75.7593 88.8716 75.7572C89.3263 75.7422 89.7711 75.6744 90.2015 75.562C90.3127 75.5335 90.4218 75.4954 90.531 75.4602C90.907 75.3386 91.2688 75.1827 91.6123 74.9923C91.7008 74.9428 91.7939 74.9004 91.8808 74.8465ZM90.1426 60.9003V53.789C90.1426 52.9886 89.4938 52.3416 88.6933 52.3416C87.893 52.3416 87.2442 52.9886 87.2442 53.789V60.9003C87.7191 60.8227 88.1981 60.7539 88.6933 60.7539C89.1885 60.7539 89.6675 60.8227 90.1426 60.9003ZM111.628 108.591C111.571 108.628 111.555 108.709 111.492 108.737L109.027 109.863L112.863 117.533C113.115 118.042 113.627 118.334 114.158 118.334C114.377 118.334 114.597 118.285 114.805 118.184C115.521 117.824 115.812 116.955 115.454 116.24L111.628 108.591ZM65.7568 108.59L61.9328 116.24C61.5751 116.955 61.8641 117.824 62.5796 118.184C62.7877 118.285 63.008 118.333 63.2263 118.333C63.758 118.333 64.2693 118.042 64.5239 117.533L68.3601 109.862L65.8944 108.737C65.8316 108.709 65.8155 108.627 65.7568 108.59Z" fill="#E7663D"/>
</g>
<defs>
<filter id="filter0_d_98_605" x="0.620321" y="0.492796" width="176.759" height="176.759" filterUnits="userSpaceOnUse" color-interpolation-filters="sRGB">
<feFlood flood-opacity="0" result="BackgroundImageFix"/>
<feColorMatrix in="SourceAlpha" type="matrix" values="0 0 0 0 0 0 0 0 0 0 0 0 0 0 0 0 0 0 127 0" result="hardAlpha"/>
<feOffset dy="3.53495"/>
<feGaussianBlur stdDeviation="13.2561"/>
<feComposite in2="hardAlpha" operator="out"/>
<feColorMatrix type="matrix" values="0 0 0 0 0 0 0 0 0 0 0 0 0 0 0 0 0 0 0.25 0"/>
<feBlend mode="normal" in2="BackgroundImageFix" result="effect1_dropShadow_98_605"/>
<feBlend mode="normal" in="SourceGraphic" in2="effect1_dropShadow_98_605" result="shape"/>
</filter>
</defs>
</svg>
