<svg width="82" height="65" viewBox="0 0 82 65" fill="none" xmlns="http://www.w3.org/2000/svg">
<path id="Vector" fill-rule="evenodd" clip-rule="evenodd" d="M11.7006 15.6595H78.0497C80.2222 15.6595 82.0032 17.4405 82.0032 19.613C82.0032 21.7855 80.2222 23.5666 78.0497 23.5666H70.2992V54.6077C70.2992 60.2053 65.7193 64.7656 60.1413 64.7656H21.8585C16.2609 64.7656 11.7006 60.1858 11.7006 54.6077V23.5666H3.95012C1.77763 23.5666 -0.00341797 21.7855 -0.00341797 19.613C-0.00341797 17.4405 1.77763 15.6595 3.95012 15.6595H11.7006ZM40.9999 0.745605C44.8947 0.745605 48.085 3.72055 48.4177 7.51752H72.6674C74.3506 7.51752 75.7206 8.88756 75.7206 10.5707C75.7206 11.1383 75.2705 11.5885 74.7029 11.5885H7.27736C6.70978 11.5885 6.25962 11.1383 6.25962 10.5707C6.25962 8.88756 7.62966 7.51752 9.31285 7.51752H33.5626C33.9148 3.72055 37.1051 0.745605 40.9803 0.745605H40.9999Z" fill="#D5471A"/>
</svg>
