<svg width="50" height="51" viewBox="0 0 50 51" fill="none" xmlns="http://www.w3.org/2000/svg">
<path fill-rule="evenodd" clip-rule="evenodd" d="M29.2557 33.6261C28.92 33.9494 28.377 33.9494 28.0421 33.6261L20.9433 26.7752C20.7844 26.6241 20.6579 26.4424 20.5714 26.2409C20.4849 26.0395 20.4403 25.8226 20.4403 25.6034C20.4403 25.3841 20.4849 25.1672 20.5714 24.9658C20.6579 24.7643 20.7844 24.5826 20.9433 24.4316L28.0935 17.5301C28.2557 17.3759 28.4706 17.2892 28.6945 17.2876C28.9184 17.2861 29.1345 17.3698 29.2988 17.5218C29.3803 17.5969 29.4454 17.6878 29.4903 17.7891C29.5351 17.8904 29.5587 17.9997 29.5595 18.1105C29.5604 18.2212 29.5385 18.331 29.4952 18.4329C29.452 18.5349 29.3882 18.6268 29.308 18.7031L22.7638 25.0177C22.6843 25.0932 22.6209 25.1841 22.5777 25.2848C22.5344 25.3856 22.5121 25.4941 22.5121 25.6038C22.5121 25.7134 22.5344 25.8219 22.5777 25.9227C22.6209 26.0235 22.6843 26.1144 22.7638 26.1899L29.2557 32.4547C29.3352 32.5301 29.3985 32.6209 29.4418 32.7216C29.485 32.8223 29.5073 32.9308 29.5073 33.0404C29.5073 33.15 29.485 33.2584 29.4418 33.3591C29.3985 33.4598 29.3352 33.5506 29.2557 33.6261Z" fill="#F3F2F2"/>
</svg>
