<svg width="50" height="51" viewBox="0 0 50 51" fill="none" xmlns="http://www.w3.org/2000/svg">
<path fill-rule="evenodd" clip-rule="evenodd" d="M20.7443 33.6261C21.08 33.9494 21.623 33.9494 21.9579 33.6261L29.0567 26.7752C29.2156 26.6241 29.3421 26.4424 29.4286 26.2409C29.5151 26.0395 29.5597 25.8226 29.5597 25.6034C29.5597 25.3841 29.5151 25.1672 29.4286 24.9658C29.3421 24.7643 29.2156 24.5826 29.0567 24.4316L21.9065 17.5301C21.7443 17.3759 21.5294 17.2892 21.3055 17.2876C21.0816 17.2861 20.8655 17.3698 20.7012 17.5218C20.6197 17.5969 20.5546 17.6878 20.5097 17.7891C20.4649 17.8904 20.4413 17.9997 20.4405 18.1105C20.4396 18.2212 20.4615 18.331 20.5048 18.4329C20.548 18.5349 20.6118 18.6268 20.692 18.7031L27.2362 25.0177C27.3157 25.0932 27.3791 25.1841 27.4223 25.2848C27.4656 25.3856 27.4879 25.4941 27.4879 25.6038C27.4879 25.7134 27.4656 25.8219 27.4223 25.9227C27.3791 26.0235 27.3157 26.1144 27.2362 26.1899L20.7443 32.4547C20.6648 32.5301 20.6015 32.6209 20.5582 32.7216C20.515 32.8223 20.4927 32.9308 20.4927 33.0404C20.4927 33.15 20.515 33.2584 20.5582 33.3591C20.6015 33.4598 20.6648 33.5506 20.7443 33.6261Z" fill="#F3F2F2"/>
</svg>
