<svg width="53" height="65" viewBox="0 0 53 65" fill="none" xmlns="http://www.w3.org/2000/svg">
<g id="Group 220">
<path id="Vector" d="M52.108 10.3923V53.0723C52.108 53.3553 51.9956 53.6267 51.7955 53.8268C51.5954 54.0269 51.324 54.1393 51.041 54.1393H43.572V20.9876C43.5518 20.1649 43.2156 19.3816 42.633 18.8003L34.097 10.2643C33.529 9.69417 32.7671 9.35892 31.963 9.32532H11.562V1.85632C11.562 1.57334 11.6744 1.30194 11.8745 1.10184C12.0746 0.90174 12.346 0.789324 12.629 0.789324H42.505C42.6454 0.788513 42.7846 0.815428 42.9146 0.868527C43.0446 0.921625 43.1629 0.999863 43.2626 1.09875L51.7986 9.63475C51.8975 9.73445 51.9757 9.85269 52.0288 9.98269C52.0819 10.1127 52.1088 10.2519 52.108 10.3923Z" fill="#A83815"/>
<path id="Vector_2" d="M41.1286 20.3048L32.5926 11.7688C32.4426 11.6207 32.2521 11.5205 32.0451 11.4806C31.8381 11.4407 31.6239 11.463 31.4296 11.5447C31.2348 11.6248 31.068 11.7607 30.9502 11.9354C30.8325 12.1101 30.7691 12.3157 30.7681 12.5264V21.0624C30.7681 21.3454 30.8805 21.6167 31.0806 21.8168C31.2807 22.0169 31.5521 22.1294 31.8351 22.1294H40.3711C40.5817 22.1283 40.7873 22.0649 40.962 21.9472C41.1367 21.8295 41.2727 21.6627 41.3527 21.4678C41.4344 21.2735 41.4567 21.0594 41.4169 20.8524C41.377 20.6454 41.2767 20.4548 41.1286 20.3048Z" fill="#A83815"/>
<path id="Vector_3" d="M40.3711 24.2633H31.8351C30.9861 24.2633 30.1719 23.9261 29.5716 23.3258C28.9713 22.7255 28.6341 21.9113 28.6341 21.0623V12.5264C28.6327 12.162 28.6978 11.8004 28.8261 11.4594H1.95909C1.6761 11.4594 1.40471 11.5718 1.20461 11.7719C1.00451 11.972 0.89209 12.2434 0.89209 12.5264V63.7423C0.89209 64.0253 1.00451 64.2967 1.20461 64.4968C1.40471 64.6969 1.6761 64.8093 1.95909 64.8093H40.3711C40.6541 64.8093 40.9255 64.6969 41.1256 64.4968C41.3257 64.2967 41.4381 64.0253 41.4381 63.7423V24.0713C41.097 24.1996 40.7355 24.2647 40.3711 24.2633ZM9.42809 19.9953H24.3661C24.6491 19.9953 24.9205 20.1078 25.1206 20.3079C25.3207 20.508 25.4331 20.7794 25.4331 21.0623C25.4331 21.3453 25.3207 21.6167 25.1206 21.8168C24.9205 22.0169 24.6491 22.1293 24.3661 22.1293H9.42809C9.1451 22.1293 8.87371 22.0169 8.67361 21.8168C8.4735 21.6167 8.36109 21.3453 8.36109 21.0623C8.36109 20.7794 8.4735 20.508 8.67361 20.3079C8.87371 20.1078 9.1451 19.9953 9.42809 19.9953ZM32.9021 56.2733H9.42809C9.1451 56.2733 8.87371 56.1609 8.67361 55.9608C8.4735 55.7607 8.36109 55.4893 8.36109 55.2063C8.36109 54.9234 8.4735 54.652 8.67361 54.4519C8.87371 54.2518 9.1451 54.1393 9.42809 54.1393H32.9021C33.1851 54.1393 33.4565 54.2518 33.6566 54.4519C33.8567 54.652 33.9691 54.9234 33.9691 55.2063C33.9691 55.4893 33.8567 55.7607 33.6566 55.9608C33.4565 56.1609 33.1851 56.2733 32.9021 56.2733ZM32.9021 47.7373H9.42809C9.1451 47.7373 8.87371 47.6249 8.67361 47.4248C8.4735 47.2247 8.36109 46.9533 8.36109 46.6703C8.36109 46.3874 8.4735 46.116 8.67361 45.9159C8.87371 45.7158 9.1451 45.6033 9.42809 45.6033H32.9021C33.1851 45.6033 33.4565 45.7158 33.6566 45.9159C33.8567 46.116 33.9691 46.3874 33.9691 46.6703C33.9691 46.9533 33.8567 47.2247 33.6566 47.4248C33.4565 47.6249 33.1851 47.7373 32.9021 47.7373ZM32.9021 39.2013H9.42809C9.1451 39.2013 8.87371 39.0889 8.67361 38.8888C8.4735 38.6887 8.36109 38.4173 8.36109 38.1343C8.36109 37.8514 8.4735 37.58 8.67361 37.3799C8.87371 37.1798 9.1451 37.0673 9.42809 37.0673H32.9021C33.1851 37.0673 33.4565 37.1798 33.6566 37.3799C33.8567 37.58 33.9691 37.8514 33.9691 38.1343C33.9691 38.4173 33.8567 38.6887 33.6566 38.8888C33.4565 39.0889 33.1851 39.2013 32.9021 39.2013ZM32.9021 30.6653H9.42809C9.1451 30.6653 8.87371 30.5529 8.67361 30.3528C8.4735 30.1527 8.36109 29.8813 8.36109 29.5983C8.36109 29.3154 8.4735 29.044 8.67361 28.8439C8.87371 28.6438 9.1451 28.5313 9.42809 28.5313H32.9021C33.1851 28.5313 33.4565 28.6438 33.6566 28.8439C33.8567 29.044 33.9691 29.3154 33.9691 29.5983C33.9691 29.8813 33.8567 30.1527 33.6566 30.3528C33.4565 30.5529 33.1851 30.6653 32.9021 30.6653Z" fill="#A83815"/>
</g>
</svg>
