<svg width="178" height="178" viewBox="0 0 178 178" fill="none" xmlns="http://www.w3.org/2000/svg">
<g filter="url(#filter0_d_98_616)">
<circle cx="89" cy="85.3375" r="61.8675" fill="#F3F2F2"/>
<path d="M121.702 73.2575C121.49 73.0869 121.324 72.8677 121.216 72.6187C121.108 72.3696 121.062 72.0981 121.082 71.8275C121.098 71.6125 121.105 71.3955 121.106 71.1766C121.107 69.7947 120.798 68.4302 120.201 67.1839C119.604 65.9377 118.734 64.8416 117.656 63.9766C117.51 63.8562 117.335 63.776 117.148 63.7439C116.961 63.7118 116.769 63.7289 116.591 63.7934C116.412 63.858 116.254 63.9678 116.131 64.1122C116.008 64.2565 115.925 64.4303 115.889 64.6166C115.652 65.9404 115.239 67.2266 114.66 68.4407C114.576 68.613 114.458 68.7665 114.313 68.8917C114.168 69.017 113.999 69.1115 113.817 69.1694C113.634 69.2273 113.442 69.2474 113.251 69.2286C113.06 69.2098 112.875 69.1523 112.708 69.0598C112.071 68.7098 111.82 67.8233 112.135 67.1684C112.148 67.1433 112.16 67.118 112.172 67.0927C113.03 65.2707 113.317 63.2319 112.996 61.2438C112.675 59.2556 111.76 57.4111 110.372 55.9521C108.245 53.7258 105.325 52.4297 102.247 52.3459C99.1693 52.2621 96.1831 53.3974 93.9384 55.5047C92.9481 56.4573 91.5819 58.0566 90.8514 60.161C90.7871 60.3469 90.6847 60.5173 90.5507 60.6612C90.4167 60.8052 90.2541 60.9196 90.0733 60.9971C89.8925 61.0745 89.6975 61.1134 89.5009 61.1111C89.3042 61.1089 89.1102 61.0655 88.9312 60.9839C88.6073 60.8261 88.3534 60.5538 88.2188 60.2196C88.0841 59.8853 88.0781 59.5131 88.2021 59.1747C88.6424 57.9463 89.2537 56.7859 90.0178 55.728C90.1336 55.5684 90.2124 55.3849 90.2485 55.191C90.2845 54.9971 90.277 54.7975 90.2263 54.6069C90.1756 54.4163 90.0832 54.2393 89.9556 54.0889C89.828 53.9385 89.6685 53.8183 89.4887 53.7372C86.1093 52.2147 82.3025 51.9277 78.7331 52.9263C75.1636 53.9248 72.0584 56.1456 69.9596 59.2006C69.8615 59.3448 69.7943 59.5077 69.7621 59.6791C69.73 59.8505 69.7337 60.0267 69.7729 60.1967C69.8121 60.3666 69.8861 60.5266 69.9901 60.6666C70.0941 60.8066 70.226 60.9235 70.3774 61.0101C72.0116 61.95 73.8572 63.4704 74.9068 65.8411C75.2168 66.5419 74.98 67.393 74.2992 67.7449C74.1268 67.8345 73.9378 67.8876 73.7439 67.9008C73.5501 67.914 73.3557 67.8872 73.1727 67.8218C72.9897 67.7565 72.8222 67.6542 72.6806 67.5212C72.539 67.3882 72.4263 67.2275 72.3496 67.049C71.8039 65.7793 70.4463 64.6215 69.3987 63.8724C68.3748 63.1289 67.1452 62.7219 65.8799 62.7078H65.8572C64.774 62.7063 63.701 62.9185 62.6999 63.3321C61.6987 63.7458 60.7889 64.3528 60.0227 65.1185C59.2564 65.8842 58.6486 66.7935 58.2342 67.7943C57.8197 68.7952 57.6067 69.8679 57.6073 70.9512V70.9669C57.6085 71.2327 57.5353 71.4935 57.3961 71.7199C57.2569 71.9464 57.0572 72.1294 56.8196 72.2483C55.0033 73.1457 53.4904 74.5565 52.4685 76.3057C51.4466 78.055 50.9606 80.0657 51.0709 82.0886C51.1811 84.1114 51.8828 86.0574 53.0888 87.6852C54.2947 89.313 55.952 90.551 57.8551 91.2456C58.0267 91.3062 58.2094 91.3286 58.3906 91.3116C58.5717 91.2944 58.747 91.2382 58.9043 91.1466C59.0615 91.055 59.197 90.9304 59.3013 90.7813C59.4056 90.6322 59.4763 90.4622 59.5083 90.283C59.9587 87.851 61.0887 86.1331 62.448 84.9547C62.5649 84.8514 62.6586 84.7244 62.723 84.5821C62.7873 84.4399 62.8207 84.2857 62.8211 84.1296C62.8214 83.9735 62.7887 83.8191 62.725 83.6765C62.6614 83.534 62.5683 83.4066 62.4518 83.3026C61.3783 82.316 60.5797 81.0672 60.1344 79.6788C60.0237 79.3232 60.0579 78.9383 60.2295 78.6078C60.401 78.2772 60.6961 78.0277 61.0505 77.9135C61.405 77.7993 61.7902 77.8296 62.1225 77.9978C62.4547 78.166 62.7072 78.4585 62.825 78.8118C63.1866 79.9412 63.8984 80.926 64.8571 81.6238C65.8159 82.3216 66.9719 82.6961 68.1577 82.693H75.3769C76.4371 82.6918 77.4543 82.2739 78.209 81.5294C78.9638 80.7848 79.3956 79.7734 79.4112 78.7134C79.4073 78.4896 79.452 78.2676 79.542 78.0627C79.6721 77.7837 79.8895 77.5547 80.1613 77.4103C80.4331 77.2659 80.7446 77.214 81.0486 77.2623C82.8033 77.4846 84.5815 77.4405 86.323 77.1316C89.7495 76.4909 91.9902 74.7986 92.9816 72.1019C93.1073 71.7573 93.3597 71.4737 93.6873 71.3088C94.015 71.144 94.3931 71.1103 94.7447 71.2147C94.9265 71.2722 95.0948 71.3659 95.2395 71.4902C95.3841 71.6145 95.5021 71.7668 95.5863 71.9379C95.6706 72.109 95.7193 72.2953 95.7296 72.4857C95.7399 72.6762 95.7116 72.8667 95.6463 73.0459C95.3176 73.9586 94.8577 74.8186 94.2812 75.5988C94.0953 75.8448 93.9934 76.1441 93.9907 76.4525C93.988 76.7609 94.0846 77.0619 94.2662 77.3112C95.6424 79.1724 98.3215 81.9371 102.476 82.7033C102.84 82.7625 103.168 82.9569 103.394 83.2475C103.62 83.5381 103.728 83.9035 103.697 84.2705C103.675 84.4621 103.613 84.6471 103.517 84.814C103.42 84.981 103.291 85.1265 103.136 85.2414C102.981 85.3564 102.804 85.4385 102.617 85.4826C102.429 85.5266 102.234 85.5318 102.044 85.4978C100.635 85.2468 99.2696 84.7936 97.9901 84.1521C97.8975 84.1058 97.7961 84.0799 97.6926 84.0759C97.5892 84.0719 97.4861 84.09 97.3902 84.129C97.2943 84.1679 97.2078 84.2268 97.1364 84.3018C97.065 84.3768 97.0105 84.4661 96.9763 84.5638C96.3643 86.371 95.1764 87.9275 93.5949 88.9947C93.4331 89.1042 93.2504 89.179 93.0582 89.2144C92.8661 89.2498 92.6687 89.2449 92.4785 89.2002C92.2884 89.1554 92.1095 89.0717 91.9533 88.9544C91.7971 88.8371 91.6669 88.6886 91.5709 88.5184C91.4014 88.2023 91.3554 87.8345 91.4418 87.4863C91.5282 87.1382 91.7409 86.8345 92.0386 86.6343C93.2925 85.7642 94.1745 84.4553 94.5103 82.9664C94.5798 82.6773 94.5725 82.3749 94.489 82.0895C94.4056 81.804 94.2489 81.5453 94.0345 81.3392C93.2684 80.602 92.5683 79.7991 91.9421 78.9399C91.7989 78.7419 91.5897 78.6014 91.3522 78.5437C91.1147 78.486 90.8644 78.5148 90.6463 78.6251C88.1564 79.901 85.2827 80.2894 82.9378 80.249C82.693 80.2467 82.4536 80.3206 82.2527 80.4604C82.0518 80.6001 81.8993 80.7989 81.8163 81.0292C81.3297 82.3455 80.4519 83.4814 79.3008 84.2841C78.1497 85.0869 76.7805 85.5181 75.3771 85.5198H68.8605C67.891 85.5117 66.9294 85.6942 66.0302 86.0569C65.6975 86.1938 65.3761 86.3569 65.0691 86.5447C64.3831 86.9604 63.7921 87.5156 63.3343 88.1743C61.9167 90.2216 62.0965 92.9821 63.6508 94.9276C64.8146 96.3845 66.8442 97.8085 70.3384 97.8085H91.4992C91.8738 97.8028 92.2362 97.9422 92.5105 98.1975C92.7848 98.4527 92.9498 98.8041 92.9712 99.1782C92.977 99.3674 92.9448 99.5558 92.8765 99.7323C92.8081 99.9088 92.705 100.07 92.5732 100.206C92.4415 100.342 92.2838 100.45 92.1095 100.523C91.9352 100.597 91.7478 100.635 91.5585 100.635H89.2496C89.0449 100.635 88.8436 100.687 88.6641 100.785C88.4846 100.883 88.3327 101.025 88.2224 101.197C88.1122 101.37 88.047 101.567 88.0331 101.771C88.0191 101.975 88.0567 102.18 88.1425 102.366L94.734 116.647C94.9663 117.151 95.3379 117.577 95.8048 117.876C96.2717 118.175 96.8144 118.333 97.3687 118.334H103.048C103.27 118.334 103.488 118.279 103.684 118.174C103.88 118.069 104.047 117.917 104.17 117.733C104.293 117.548 104.368 117.335 104.39 117.114C104.411 116.893 104.377 116.67 104.291 116.466L101.354 109.44C101.286 109.28 101.251 109.108 101.25 108.935C101.25 108.762 101.283 108.59 101.35 108.43C101.416 108.269 101.514 108.124 101.637 108.002C101.76 107.88 101.906 107.783 102.067 107.718C103.234 107.259 104.273 106.524 105.095 105.575C105.916 104.627 106.495 103.494 106.783 102.273C106.881 101.883 107.085 101.528 107.373 101.247C107.66 100.966 108.02 100.771 108.412 100.682C110.373 100.199 112.068 98.9704 113.138 97.2573C113.275 97.036 113.325 96.7722 113.28 96.5161C113.235 96.26 113.097 96.0295 112.892 95.8685C111.637 94.8628 110.588 93.6232 109.804 92.2183C109.622 91.9072 109.562 91.5393 109.636 91.1862C109.71 90.8332 109.913 90.5204 110.205 90.3087C110.366 90.1976 110.55 90.1213 110.742 90.0848C110.935 90.0482 111.134 90.0523 111.325 90.0966C111.516 90.141 111.696 90.2247 111.853 90.3423C112.01 90.46 112.141 90.6091 112.237 90.7802C112.821 91.8398 113.598 92.7806 114.529 93.5541C115.144 94.0488 115.884 94.3643 116.666 94.4661C117.449 94.5678 118.245 94.4518 118.966 94.1308C120.902 93.2778 122.586 91.9402 123.855 90.247C125.124 88.5538 125.935 86.5621 126.21 84.4642C126.485 82.3663 126.214 80.2329 125.425 78.2699C124.635 76.3069 123.353 74.5806 121.702 73.2575Z" fill="#E7663D"/>
</g>
<defs>
<filter id="filter0_d_98_616" x="0.620321" y="0.492796" width="176.759" height="176.759" filterUnits="userSpaceOnUse" color-interpolation-filters="sRGB">
<feFlood flood-opacity="0" result="BackgroundImageFix"/>
<feColorMatrix in="SourceAlpha" type="matrix" values="0 0 0 0 0 0 0 0 0 0 0 0 0 0 0 0 0 0 127 0" result="hardAlpha"/>
<feOffset dy="3.53495"/>
<feGaussianBlur stdDeviation="13.2561"/>
<feComposite in2="hardAlpha" operator="out"/>
<feColorMatrix type="matrix" values="0 0 0 0 0 0 0 0 0 0 0 0 0 0 0 0 0 0 0.25 0"/>
<feBlend mode="normal" in2="BackgroundImageFix" result="effect1_dropShadow_98_616"/>
<feBlend mode="normal" in="SourceGraphic" in2="effect1_dropShadow_98_616" result="shape"/>
</filter>
</defs>
</svg>
