<svg width="1140" height="709" viewBox="0 0 1140 709" fill="none" xmlns="http://www.w3.org/2000/svg">
<g clip-path="url(#clip0_1484_3463)">
<g opacity="0.1">
<path fill-rule="evenodd" clip-rule="evenodd" d="M1075.94 392.393C1076.5 392.204 1077.67 391.763 1078.83 391.448C1079.78 391.197 1081.01 390.724 1081.67 391.102C1085.95 393.527 1090.11 396.108 1094.26 398.722C1094.83 399.068 1095.46 399.95 1095.4 400.516C1095.17 403.823 1094.29 407.192 1097.22 409.931C1097.41 410.088 1096.94 411.064 1096.62 411.568C1096.21 412.198 1095.21 412.733 1095.24 413.3C1095.55 420.353 1088.78 421.707 1084.91 424.1C1081.67 426.115 1075.91 424.1 1071.28 423.722C1070.74 423.69 1070.3 422.746 1069.77 422.683C1062.11 421.581 1064.1 413.394 1060.16 409.616C1061.48 405.775 1060.95 401.146 1065.01 398.47C1065.89 397.903 1066.65 397.116 1067.78 396.171C1062.68 394.849 1058.12 393.967 1053.77 392.393C1051.76 391.637 1050.31 389.433 1048.51 387.985C1047.5 387.166 1046.31 385.812 1045.3 385.875C1039.79 386.253 1035.19 383.64 1030.19 382.16C1025.24 380.68 1019.92 380.554 1014.79 379.673C1007.2 378.382 999.614 376.933 992.026 375.642C989.444 375.201 986.862 375.013 983.43 374.603C986.736 381.467 995.71 381.814 996.339 389.874C997.441 390.283 998.921 390.882 1000.43 391.417C1004.97 393.023 1006.92 396.045 1006.48 400.8C1006.07 404.925 1002.07 409.238 998.166 409.616C995.395 409.868 992.592 409.962 989.79 410.214C989.223 410.277 988.373 410.529 988.153 410.938C986.988 413.205 985.697 415.472 985.004 417.897C983.745 422.305 976.314 426.304 971.434 424.666C968.852 423.785 966.175 422.651 964.034 421.014C962.838 420.07 962.208 417.897 962.082 416.197C961.925 414.15 962.586 412.072 962.995 409.144C960.004 410.529 956.509 408.986 954.998 413.017C954.683 413.835 953.36 414.339 952.447 414.874C948.889 416.984 945.3 418.59 943.316 422.998C941.522 426.934 937.68 429.925 935.004 433.514C934.248 434.553 933.776 436.285 934.059 437.513C934.532 439.622 935.193 442.141 936.673 443.464C940.703 447.085 941.647 452.406 944.733 456.436C947.284 459.742 947.85 463.521 949.078 467.204C950.086 470.227 952.416 472.872 954.368 475.517C959.847 482.822 964.853 490.599 971.15 497.148C977.416 503.666 981.635 511.191 984.878 519.283C986.893 524.289 986.988 530.051 988.499 535.309C990.136 541.04 991.994 546.739 994.513 552.155C995.489 554.233 998.606 555.209 1000.43 557.003C1001.47 558.042 1002.13 559.68 1002.54 561.16C1003.58 564.875 1003.77 568.653 1007.39 571.55C1009.12 572.935 1008.59 576.871 1009.56 579.485C1011.01 583.326 1012.87 587.041 1014.54 590.788C1015.14 592.142 1015.64 593.528 1016.27 594.85C1016.99 596.393 1017.5 598.849 1018.66 599.227C1022.88 600.643 1025.4 604.957 1030.19 605.398C1031.82 605.555 1033.3 607.319 1035.35 608.704C1038.66 609.586 1042.91 610.436 1046.97 611.853C1051.35 613.364 1054.24 618.937 1053.93 623.66C1053.77 626.021 1053.8 628.698 1054.15 630.713C1054.56 633.2 1057.58 636.003 1060.13 637.199C1064.03 639.025 1065.7 641.985 1067.5 645.448C1068.38 647.149 1070.96 647.967 1072.82 649.195C1072 649.29 1071.02 649.416 1069.95 649.542C1069.95 649.982 1069.86 650.392 1070.05 650.612C1070.58 651.305 1071.15 651.966 1071.81 652.501C1075.34 655.367 1078.93 658.169 1082.45 661.034C1083.02 661.506 1083.65 662.105 1083.87 662.766C1085.23 666.891 1086.67 670.984 1087.68 675.203C1088.97 680.556 1084.25 685.027 1078.9 683.484C1073.54 681.91 1068.22 680.115 1063.12 677.942C1056.35 675.077 1052.51 668.874 1047.98 663.49C1047.41 662.829 1046.91 662.073 1046.21 661.569C1040.92 657.571 1038.44 652.312 1038.5 645.7C1038.5 644.095 1037.78 642.489 1037.4 640.946C1030.91 641.481 1026.63 638.584 1022.22 634.617C1016.65 629.579 1021.31 623.912 1019.32 619.157C1018.66 618.276 1018.13 617.268 1017.31 616.544C1016.02 615.411 1014.7 614.088 1013.15 613.553C1007.71 611.664 1006.76 609.743 1005.6 604.422C1004.49 599.415 1001.94 594.724 999.834 590.001C999.142 588.427 997.221 587.262 996.843 585.687C995.836 581.405 993.191 578.194 990.798 574.762C989.822 573.376 989.412 571.645 988.594 570.133C985.256 564.025 980.502 559.396 973.165 560.372C965.073 561.443 957.265 560.53 949.551 558.735C946.213 557.948 943.096 556.468 940.262 553.54C937.712 550.927 932.957 549.919 928.99 549.352C923.322 548.534 917.497 548.534 911.735 548.66C901.849 548.848 893.442 545.322 885.791 539.371C876.25 531.94 866.647 524.636 857.107 517.236C852.226 513.458 847.535 509.365 842.465 505.807C835.444 500.832 829.965 494.535 824.959 487.639C822.566 484.333 819.228 481.72 816.206 478.666C815.891 479.516 815.796 480.681 815.167 481.247C814.663 481.72 812.9 481.846 812.742 481.531C810.948 478.256 807.641 477.154 804.65 475.674C799.896 473.344 797.597 468.873 797.818 463.647C798.07 457.538 796.653 452.374 790.607 448.691C785.601 445.636 780.973 441.417 777.478 436.726C774.927 433.325 772.629 430.145 769.134 427.563C765.576 424.918 764.316 419.692 765.702 416.449C767.528 412.166 771.81 408.797 775.462 405.523C776.281 404.799 779.052 405.712 780.658 406.467C783.743 407.947 785.947 406.971 787.711 404.484C789.379 402.154 789.6 399.761 787.427 397.462C786.86 396.864 786.483 396.045 786.105 395.29C785.003 392.991 783.334 392.55 781.256 393.841C779.083 395.195 778.107 394.88 778.202 392.141C778.296 389.622 777.918 387.009 778.328 384.553C778.517 383.325 779.996 382.254 780.437 381.719V367.613C784.153 364.496 782.075 359.521 781.004 355.113C779.839 350.359 777.603 345.825 775.62 341.322C774.423 338.614 772.912 336.095 769.039 337.701C768.504 337.922 766.583 336.473 766.363 335.56C765.922 333.514 766.237 331.31 766.079 329.2C765.859 326.618 766.331 323.69 762.49 322.934C761.482 322.745 760.758 321.014 759.656 319.691C762.647 318.684 763.561 316.983 762.71 314.055C761.01 308.293 763.246 302.752 765.513 297.84C768.284 291.826 770.519 285.214 775.998 280.711C779.682 277.688 783.334 274.634 786.829 271.423C791.174 267.392 797.125 265.314 799.801 259.237C801.218 255.994 804.209 253.349 806.854 250.799C808.177 249.508 810.255 248.91 812.081 248.28C813.403 247.839 814.915 247.871 817.308 247.588C815.23 245.698 814.002 244.344 812.553 243.242C806.949 238.992 806.697 229.609 812.868 226.46C816.08 224.823 821.118 224.854 824.613 226.145C828.485 227.594 829.745 233.985 828.485 237.827C827.446 240.912 826.785 244.061 822.629 244.659C821.59 244.817 820.771 246.8 820.299 248.595C821.968 247.745 823.605 246.895 825.274 246.045C826.848 245.195 828.454 244.344 829.997 243.463C830.973 242.896 832.201 242.455 832.736 241.605C834.972 237.984 838.089 236.221 842.308 236.252C843.19 236.252 844.229 235.875 844.89 236.221C850.557 239.118 855.721 237.449 860.79 234.615C862.05 233.891 863.309 233.167 864.6 232.411C860.727 230.459 856.918 228.507 853.454 226.775C855.028 223.217 856.54 219.943 857.957 216.605C859.09 213.929 861.042 212.638 864.002 212.543C868.221 212.386 872.283 212.732 875.306 216.101C876.124 217.014 876.849 218.652 876.597 219.722C875.904 222.745 875.054 225.862 873.542 228.538C872.692 230.081 870.425 230.805 869.008 231.75C870.898 232.82 872.85 234.332 875.085 235.119C879.304 236.63 883.587 238.142 888.247 236.536C889.852 235.969 891.71 236.189 893.442 236.032C895.803 235.78 898.102 236.284 899.708 233.23C900.589 231.529 903.612 230.774 905.847 230.018C909.846 228.664 911.232 230.302 910.759 234.552C910.413 237.795 909.468 241.416 914.097 243.368C916.616 244.439 918.253 247.43 920.615 249.067C926.471 253.066 933.02 253.129 939.821 252.216C946.37 251.334 953.014 251.145 959.626 250.61C962.24 250.39 965.042 249.414 967.435 250.043C972.347 251.303 977.133 253.255 981.856 255.207C990.388 258.765 995.174 266.889 1002.2 272.304C1005.12 274.571 1008.37 276.397 1011.2 278.727C1013.31 280.459 1015.36 282.443 1016.81 284.71C1020.08 289.779 1023.95 293.998 1029.75 295.982C1033.59 297.304 1034.97 300.988 1037.4 303.633C1039.44 305.9 1041.49 307.884 1041.9 311.379C1042.12 313.331 1044.51 315.535 1046.5 316.637C1050.78 319.03 1050.72 323.721 1052.89 327.185C1054.49 329.735 1056.1 332.317 1057.36 335.056C1057.83 336.127 1057.45 337.638 1057.3 338.929C1057.05 341.07 1056.76 343.18 1056.35 345.29C1055.94 347.368 1055.22 349.383 1054.81 351.461C1053.64 357.317 1052.79 363.111 1055.57 368.936C1057.23 372.431 1059.5 373.974 1063.12 375.327C1067.97 377.154 1072.16 380.649 1073.86 386.096C1074.46 387.985 1075.09 389.874 1075.91 392.425L1075.94 392.393Z" fill="#E7663D"/>
<path fill-rule="evenodd" clip-rule="evenodd" d="M1025.75 412.104C1025.62 412.891 1025.4 414.403 1025.12 416.071C1023.7 416.292 1022.29 416.512 1020.55 416.795C1022.57 419.629 1024.68 421.991 1026.1 424.73C1029.53 431.437 1026.95 438.836 1021.03 443.559C1015.11 448.313 1008.53 446.613 1002.1 446.896C1001.25 446.928 1000.4 445.889 999.459 445.605C998.105 445.165 996.184 444.189 995.397 444.755C991.272 447.589 987.998 445.039 984.471 443.622C981.323 442.362 980.41 440.631 981.354 437.104C982.488 432.948 983.212 428.855 987.431 426.619C987.62 426.525 987.714 426.052 987.903 426.052C993.665 425.675 995.303 419.44 999.931 417.488C1001.47 416.827 1002.92 415.914 1004.53 415.316C1007.42 414.245 1010.35 413.206 1013.34 412.419C1014.82 412.041 1016.43 412.167 1018 412.135C1020.46 412.104 1022.92 412.135 1025.75 412.135V412.104Z" fill="#E7663D"/>
<path fill-rule="evenodd" clip-rule="evenodd" d="M1098.45 487.261C1098.48 485.215 1098.45 483.136 1098.57 481.09C1098.6 480.303 1098.7 479.232 1099.2 478.791C1101.41 476.808 1104.52 475.391 1105.97 472.998C1108.58 468.653 1112.55 470.196 1115.95 469.062C1123.13 466.669 1128.23 471.046 1134.21 472.4C1134.97 472.589 1135.69 473.628 1136.1 474.446C1137.14 476.43 1137.99 478.476 1138.91 480.523C1140.73 484.522 1139.57 488.93 1136.14 491.701C1135.41 492.267 1135.16 493.369 1134.5 494.031C1133.49 495.038 1132.39 496.046 1131.16 496.77C1129.37 497.809 1127.45 498.722 1125.46 499.446C1124.36 499.856 1123.07 499.856 1121.87 499.982C1118.98 500.265 1116.08 500.485 1113.18 500.737C1112.58 500.8 1111.58 501.178 1111.42 500.926C1108.18 496.644 1100.18 497.967 1099.39 490.725C1099.26 489.654 1098.01 488.71 1097.28 487.733C1097.66 487.576 1098.04 487.45 1098.41 487.293L1098.45 487.261Z" fill="#E7663D"/>
<path fill-rule="evenodd" clip-rule="evenodd" d="M1129.66 434.648C1126.92 436.915 1124.9 438.93 1122.54 440.378C1120.24 441.764 1117.6 443.432 1115.11 443.432C1110.86 443.432 1106.07 445.038 1102.36 441.197C1101.89 440.693 1100.69 440.945 1099.84 440.756C1099.15 440.599 1098.01 440.441 1097.89 440.032C1096.91 436.883 1096.12 433.672 1095.27 430.46C1095.02 429.516 1095.15 428.162 1094.55 427.689C1091.34 425.107 1093.64 423.628 1095.46 421.959C1096.25 421.235 1097.16 420.51 1097.63 419.597C1100.37 414.056 1105.41 411.694 1110.95 410.624C1115.61 409.711 1119.64 412.198 1123.33 414.843C1123.71 415.126 1123.83 415.85 1124.21 416.008C1130.25 418.842 1130.73 423.659 1129.44 429.421C1129.03 431.279 1129.62 433.357 1129.72 434.648H1129.66Z" fill="#E7663D"/>
<path fill-rule="evenodd" clip-rule="evenodd" d="M1064.23 244.879C1070.4 245.194 1074.75 249.602 1074.56 255.395C1074.46 259.331 1067.98 265.125 1064.1 264.747C1059.47 264.306 1054.09 258.953 1054.34 255.049C1054.69 249.759 1059.63 244.69 1064.23 244.91V244.879Z" fill="#E7663D"/>
<path fill-rule="evenodd" clip-rule="evenodd" d="M759.591 468.149C758.394 470.826 756.883 473.408 756.096 476.147C754.962 480.02 750.995 482.602 747.059 481.531C746.713 481.437 746.303 481.374 746.02 481.153C742.242 478.068 742.525 469.661 746.65 467.142C749.987 465.095 746.713 463.993 746.114 462.324C747.626 461.191 749.389 459.963 746.933 458.231C749.767 455.24 752.443 454.705 755.151 457.916C755.371 458.168 755.875 458.294 755.97 458.546C757.229 461.852 758.457 465.158 759.559 468.181L759.591 468.149Z" fill="#E7663D"/>
<path fill-rule="evenodd" clip-rule="evenodd" d="M1053.18 465.284C1055.19 459.553 1056.96 454.579 1058.78 449.352C1061.05 449.037 1063.44 448.628 1063.66 445.29C1063.69 444.692 1065.43 444.22 1066.37 443.684C1067.38 443.086 1068.35 442.393 1069.42 441.953C1070.31 441.575 1071.72 441.008 1072.23 441.386C1073.11 442.047 1073.99 443.432 1073.93 444.44C1073.64 448.092 1072.67 451.682 1072.48 455.334C1072.16 461.632 1071.38 460.718 1066.46 460.687C1062.47 460.655 1058.72 460.718 1056.29 464.654C1055.98 465.127 1054.69 465.001 1053.21 465.252L1053.18 465.284Z" fill="#E7663D"/>
<path fill-rule="evenodd" clip-rule="evenodd" d="M974.488 478.288C975.559 476.273 976.409 474.887 977.007 473.439C978.896 468.842 985.099 466.953 989.444 469.629C992.215 471.329 995.427 472.62 993.821 476.997C992.498 480.618 986.359 485.467 982.927 484.963C981.352 484.743 979.809 483.483 978.487 482.413C976.976 481.185 975.716 479.61 974.488 478.319V478.288Z" fill="#E7663D"/>
<path fill-rule="evenodd" clip-rule="evenodd" d="M1061.61 708.263C1055.69 703.131 1054.75 697.117 1053.49 691.355C1053.24 690.221 1054.53 688.017 1055.66 687.545C1057.33 686.852 1059.1 687.545 1059.95 689.812C1060.67 691.701 1062.91 693.307 1062.97 695.07C1063.06 699.132 1062.21 703.225 1061.65 708.263H1061.61Z" fill="#E7663D"/>
<path fill-rule="evenodd" clip-rule="evenodd" d="M1034.95 426.272C1036.84 425.516 1040.43 426.681 1038.47 422.745C1044.49 421.297 1044.93 421.549 1050.6 429.767C1047.67 430.522 1044.9 431.467 1042.03 431.939C1036.96 432.789 1035.58 431.624 1034.95 426.272Z" fill="#E7663D"/>
<path fill-rule="evenodd" clip-rule="evenodd" d="M1063.56 474.258C1060.98 473.849 1058.5 471.235 1056.51 474.604C1056.51 474.636 1055.19 474.195 1055.06 473.817C1054.87 473.219 1055 472.306 1055.38 471.77C1055.88 470.983 1056.67 470.322 1057.42 469.787C1058.5 469 1060.04 467.52 1060.7 467.803C1062.43 468.59 1064.92 469.44 1063.97 472.4C1063.82 472.872 1063.75 473.376 1063.6 474.289L1063.56 474.258Z" fill="#E7663D"/>
<path fill-rule="evenodd" clip-rule="evenodd" d="M741.874 301.743C739.953 299.728 738.536 298.532 737.623 297.021C737.434 296.706 739.607 294.25 739.984 294.407C742.063 295.32 743.889 296.737 745.809 297.965C744.77 298.973 743.7 299.98 741.874 301.712V301.743Z" fill="#E7663D"/>
<path fill-rule="evenodd" clip-rule="evenodd" d="M692.468 318.022C692.216 322.115 690.631 323.847 687.714 323.217C686.863 318.179 687.588 317.298 692.468 318.022Z" fill="#E7663D"/>
<path fill-rule="evenodd" clip-rule="evenodd" d="M830.436 185.749C831.507 183.324 827.666 179.262 832.861 178.633C833.333 178.57 834.813 182.128 834.75 183.954C834.687 185.969 832.955 187.102 830.436 185.749Z" fill="#E7663D"/>
<path fill-rule="evenodd" clip-rule="evenodd" d="M1028.14 404.137C1027.1 408.136 1025.9 408.514 1021.71 406.215C1022.91 401.807 1024.08 401.429 1028.14 404.137Z" fill="#E7663D"/>
<path fill-rule="evenodd" clip-rule="evenodd" d="M747.782 385.403C746.428 383.64 745.106 382.664 745.137 381.719C745.137 380.932 746.775 379.483 747.593 379.546C748.569 379.641 749.986 380.869 750.207 381.845C750.395 382.601 749.01 383.703 747.782 385.403Z" fill="#E7663D"/>
<path fill-rule="evenodd" clip-rule="evenodd" d="M687.175 264.149C685.255 265.44 684.184 266.511 682.925 266.794C682.453 266.92 680.91 265.188 681.004 264.464C681.162 263.488 682.358 262.008 683.208 261.945C684.216 261.851 685.318 263.047 687.175 264.149Z" fill="#E7663D"/>
<path fill-rule="evenodd" clip-rule="evenodd" d="M996.31 234.866C994.83 236.094 994.011 237.291 993.098 237.385C992.5 237.448 991.272 236.031 991.146 235.15C991.052 234.457 992.217 232.946 992.815 232.946C993.791 232.946 994.735 233.922 996.31 234.866Z" fill="#E7663D"/>
<path fill-rule="evenodd" clip-rule="evenodd" d="M723.23 339.025C722.443 337.387 721.592 336.443 721.687 335.624C721.781 334.868 722.852 334.239 723.482 333.546C724.174 334.302 725.339 335.026 725.434 335.844C725.497 336.569 724.363 337.419 723.198 338.993L723.23 339.025Z" fill="#E7663D"/>
<path fill-rule="evenodd" clip-rule="evenodd" d="M705.597 317.487C704.401 316.699 703.205 315.881 701.977 315.094C702.827 314.37 703.677 313.614 704.558 312.89C705.377 313.897 706.196 314.905 707.014 315.912C706.542 316.448 706.07 316.951 705.597 317.487Z" fill="#E7663D"/>
<path fill-rule="evenodd" clip-rule="evenodd" d="M800.843 242.99V247.303C799.804 247.303 798.639 247.618 797.789 247.209C797.159 246.894 796.939 245.698 796.529 244.91C797.757 244.375 799.017 243.808 800.843 242.99Z" fill="#E7663D"/>
<path fill-rule="evenodd" clip-rule="evenodd" d="M745.202 206.56C743.911 206.938 742.62 207.316 741.329 207.694C741.298 206.497 741.266 205.301 741.203 204.073C742.526 204.356 743.816 204.64 745.139 204.923C745.139 205.458 745.17 205.993 745.202 206.56Z" fill="#E7663D"/>
<path fill-rule="evenodd" clip-rule="evenodd" d="M762.014 231.498V227.845C763.053 227.94 764.092 228.003 765.131 228.097C764.721 229.325 764.312 230.553 763.934 231.781C763.305 231.687 762.675 231.592 762.045 231.498H762.014Z" fill="#E7663D"/>
<path fill-rule="evenodd" clip-rule="evenodd" d="M722.75 342.015C721.616 342.959 720.766 344.124 720.357 343.999C719.412 343.652 718.657 342.708 717.838 341.983C718.468 341.417 719.129 340.346 719.727 340.378C720.609 340.441 721.459 341.259 722.75 342.015Z" fill="#E7663D"/>
<path fill-rule="evenodd" clip-rule="evenodd" d="M781.377 164.086C781.125 165.377 780.873 166.636 780.621 167.927C779.74 167.675 778.889 167.392 778.008 167.14C778.449 165.88 778.858 164.653 779.299 163.393C779.991 163.613 780.684 163.865 781.377 164.086Z" fill="#E7663D"/>
<path fill-rule="evenodd" clip-rule="evenodd" d="M196.731 393.915C197.797 394.045 198.733 394.409 199.617 394.253C202.633 393.759 205.649 393.187 208.586 392.408C209.34 392.2 209.808 391.082 210.536 390.536C211.42 389.886 212.408 389.366 213.396 388.82C213.734 388.638 214.202 388.69 214.488 388.482C218.414 385.648 220.831 385.752 224.419 388.95C227.201 391.42 230.918 390.458 232.4 386.948C233.83 383.542 237.912 382.502 240.824 384.764C241.136 385.024 241.578 385.232 241.968 385.232C243.891 385.232 244.229 385.752 244.177 387.936C244.099 390.172 245.763 392.486 246.621 394.669C252.705 394.271 255.859 393.655 256.084 392.823C258.034 392.122 259.568 391.576 261.648 390.848C261.258 389.938 260.894 389.054 260.53 388.144C260.244 387.416 259.594 386.454 259.854 386.012C260.192 385.414 261.258 385.232 261.986 384.816C262.74 384.374 263.962 383.932 264.066 383.36C264.534 380.215 264.794 376.991 264.95 373.819C265.028 372.207 265.548 371.219 267.186 370.985C270.565 370.491 272.697 367.892 272.489 364.512C272.333 362.146 273.659 361.132 276.103 361.652C278.755 362.224 280.21 361.34 280.964 358.714C281.068 358.324 281.224 357.7 281.432 357.674C283.356 357.258 285.28 356.973 287.204 356.635C287.256 356.999 287.308 357.388 287.386 357.934C289.154 356.713 290.766 355.569 292.403 354.477C294.379 353.177 296.069 353.879 297.681 355.491C298.331 354.971 298.851 354.529 299.943 353.619C299.839 354.945 299.761 355.699 299.709 356.427C303.973 357.492 305.584 356.245 305.194 351.773C306.936 352.007 308.626 352.267 310.628 352.553C308.938 354.373 309.614 356.141 311.018 357.44C311.356 357.752 312.994 356.713 314.138 356.245C315.542 358.688 314.788 364.018 320.637 362.198C320.715 362.536 320.793 362.718 320.767 362.874C320.481 364.46 319.363 366.774 320.013 367.528C322.509 370.413 323.445 375.197 327.761 375.847C330.178 376.211 332.934 374.885 335.43 374.001C337.562 373.221 339.434 371.661 341.591 371.011C342.943 370.595 344.685 371.011 346.089 371.505C347.311 371.973 348.325 373.039 349.339 373.949C351.315 375.769 351.367 377.251 350.093 379.591C346.765 385.674 341.149 389.08 335.3 391.992C329.814 394.721 323.991 396.645 317.803 397.243C315.178 397.503 315.048 399.921 314.346 401.715C313.722 403.301 313.54 405.016 315.256 406.056C316.763 406.966 318.427 407.98 320.117 408.214C323.393 408.656 325.759 410.554 328.021 412.582C329.684 414.09 330.282 416.092 329.164 418.145C328.099 420.095 326.253 420.459 324.069 420.095C320.273 419.497 316.451 419.081 312.006 418.483C310.576 431.04 309.198 443.155 307.82 455.192C305.61 456.492 303.635 457.272 301.217 455.686C300.177 455.01 298.461 455.426 297.083 455.192C295.471 454.906 293.885 454.386 292.247 454.074C290.688 453.788 289.622 453.632 288.478 455.686C287.1 458.104 286.008 460.184 286.32 463.018C286.45 464.135 281.692 467.619 280.418 467.827C279.223 468.035 278.079 468.399 276.857 468.711C277.949 471.493 276.441 474.483 273.685 474.561C274.673 476.432 275.531 478.096 276.311 479.578C274.803 480.748 273.633 481.658 271.787 483.088C275.713 483.868 274.725 486.39 274.725 487.871C276.337 487.871 277.637 487.871 279.197 487.845C278.209 489.041 277.663 489.717 277.117 490.367C278.339 490.887 279.561 491.407 281.484 492.213C280.314 487.845 283.278 487.274 285.176 486.078C287.282 484.752 288.972 486.494 290.662 487.533C290.844 487.663 290.922 487.975 291.104 488.131C293.166 490.246 295.645 491.442 298.539 491.719C299.007 491.771 299.787 491.667 299.943 491.381C301.763 488.209 305.428 488.183 308.08 486.442C309.588 485.454 310.862 485.74 311.85 487.092C312.942 488.573 314.268 488.781 315.88 488.235C316.114 488.157 316.373 488.053 316.607 488.027C317.725 487.923 322.275 492.993 321.833 494.007C321.001 495.801 321.729 497.179 322.509 498.739C322.899 499.544 322.665 500.766 322.509 501.754C322.405 502.352 321.729 502.846 321.521 503.444C320.481 506.391 318.843 508.99 316.607 511.243C317.673 512.725 318.713 514.207 319.779 515.637C320.221 516.235 320.637 517.041 321.261 517.249C323.211 517.951 323.757 519.693 323.913 521.253C324.355 526.062 323.471 530.716 321.859 535.317C320.975 537.813 319.493 539.399 317.517 540.933C316.789 541.505 316.452 542.675 316.14 543.663C315.828 544.625 315.724 545.665 315.542 546.678C315.308 546.496 315.074 546.289 314.814 546.107C313.67 546.756 312.396 547.276 311.382 548.108C310.42 548.888 309.822 550.11 308.86 550.89C308.236 551.41 307.3 551.566 306.468 551.748C304.233 552.216 301.971 552.814 299.709 552.996C297.291 553.204 294.847 552.97 292.429 553.074C291.649 553.1 290.428 553.464 290.246 553.958C289.856 555.024 289.83 556.35 290.038 557.494C290.09 557.754 291.728 557.65 292.585 557.832C293.339 557.988 294.015 558.404 294.743 558.611C295.783 558.923 296.927 559.573 297.863 559.365C300.021 558.871 302.049 557.78 304.206 557.312C305.402 557.052 306.754 557.598 308.028 558.118C311.85 556.87 314.736 557.234 316.347 559.547C317.621 561.341 317.751 565.293 316.529 566.593C312.734 570.674 310.316 571.688 306.728 569.505C305.584 570.362 304.57 571.48 303.323 571.948C300.619 572.936 299.163 574.496 300.021 578.032C295.783 573.482 292.949 576.212 289.96 579.592C290.61 580.372 291.338 581.23 292.17 582.217C292.118 583.205 292.325 584.739 291.91 586.091C291.52 587.417 290.766 588.951 289.7 589.705C284.448 593.267 285.566 598.336 286.294 603.536C286.736 603.224 287.178 602.938 287.62 602.652C287.854 602.73 288.088 602.834 288.296 602.912C285.748 610.113 286.086 617.912 283.434 625.114C281.926 619.94 284.266 615.209 284.734 609.697C283.902 610.191 283.148 610.399 282.784 610.893C281.744 612.271 280.886 613.753 279.95 615.209C279.379 616.093 278.677 616.951 278.313 617.912C277.117 621.162 274.049 622.462 271.605 624.282C270.721 624.932 268.537 623.996 267.004 623.554C264.924 622.956 262.974 621.604 260.894 621.474C256.864 621.24 255.097 618.9 254.291 615.495C253.745 613.207 252.653 612.323 250.963 612.895C250.235 611.751 249.663 610.841 249.065 609.931C247.947 610.685 246.335 611.179 245.815 612.219C245.035 613.753 244.671 615.443 246.205 617.315C247.427 618.77 247.609 621.11 248.233 623.086C248.545 623.32 249.065 623.71 249.559 624.1C248.987 624.49 248.389 624.854 247.635 625.348C247.791 625.556 248.077 625.998 248.441 626.414C249.845 628.052 249.611 628.858 247.453 629.429C247.297 629.481 247.089 629.429 246.985 629.533C244.255 632.367 241.526 635.227 238.744 638.139C239.42 638.919 239.888 639.465 240.46 640.115C239.342 641.518 238.406 643.026 237.158 644.248C234.948 646.406 231.698 646.614 229.723 644.95C227.487 643.078 227.071 640.245 228.605 637.437C228.735 637.177 228.813 636.891 228.761 637.021C227.591 636.553 226.681 636.033 225.693 635.825C225.069 635.695 224.341 636.007 223.379 636.189C223.561 635.331 223.665 634.551 223.899 633.823C224.185 633.043 224.601 632.289 224.939 631.587C219.557 624.88 217.972 622.254 222.339 616.327C221.637 614.455 220.805 612.843 220.415 611.127C219.895 608.865 220.285 606.889 222.859 605.849C223.769 605.486 224.315 604.264 225.147 603.562C225.667 603.12 226.499 603.068 226.993 602.626C228.111 601.638 229.099 600.494 229.801 599.012C228.813 599.324 227.825 599.636 226.759 599.974C226.395 598.934 226.057 597.946 225.433 596.204C224.263 597.348 223.249 598.05 222.703 598.986C220.181 603.328 217.504 604.29 213.838 601.768C213.058 601.222 212.044 600.988 211.03 600.936C216.178 603.926 216.62 611.569 211.628 615.079C211.134 615.417 210.354 615.443 209.704 615.417C207.936 615.339 206.169 615.287 204.453 614.949C203.803 614.819 202.997 614.039 202.789 613.389C202.087 610.919 201.593 608.371 200.969 605.538C199.357 604.992 199.279 604.862 200.345 602.886C200.865 603.432 201.359 603.952 201.957 604.576C203.569 603.458 205.181 602.366 206.793 601.248C206.689 601.014 206.585 600.78 206.455 600.546C201.801 600.078 197.121 599.558 192.78 602.34C192.676 602.236 192.468 602.132 192.442 602.028C192.26 600.572 191.87 599.012 190.128 599.142C188.464 599.272 187.138 600.182 187.19 602.314C187.19 603.172 186.54 604.03 186.384 604.914C186.254 605.745 186.15 606.759 186.514 607.461C189.01 612.427 186.956 616.327 181.367 617.185C180.899 617.263 180.067 617.393 180.015 617.627C179.417 620.642 177.077 619.004 174.737 619.784C175.751 615.209 176.687 611.153 177.545 607.253C175.049 604.888 172.475 605.408 169.694 606.369C166.496 607.461 163.376 606.681 160.204 605.694C156.799 604.628 153.211 603.952 149.675 603.458C145.178 602.834 140.81 602.236 137.872 598.18C136.806 596.698 135.532 596.386 133.453 596.36C129.579 596.308 125.367 597.296 121.728 594.722C120.428 593.813 119.284 594.54 118.634 595.866C117.646 597.92 115.8 597.816 113.876 598.31C110.808 599.116 108.443 597.998 105.791 597.14C103.867 596.542 102.593 595.632 102.021 593.605C101.813 592.851 100.929 591.759 100.383 591.759C99.6553 591.759 98.0695 591.967 98.6414 593.683C98.6934 593.865 98.0695 594.384 97.6795 594.566C96.7436 594.982 95.7816 595.294 94.8457 595.658C95.9376 599.09 95.7816 599.584 93.3378 600.442C93.2598 599.792 93.1818 599.194 93.0778 598.466C91.622 599.454 90.2441 600.39 89.2822 601.066C90.4261 603.042 91.362 604.68 92.2719 606.317C92.4799 606.681 92.5059 607.357 92.7399 607.435C95.9376 608.423 94.4818 610.347 93.8318 612.219C93.2339 613.961 92.8959 615.807 92.3499 617.575C90.998 621.994 86.1885 621.786 83.3027 624.178C82.9387 624.49 81.6648 624.412 81.5348 624.178C80.6769 622.358 79.377 622.15 77.6092 622.566C77.0372 622.696 76.2572 622.358 75.6853 622.046C70.6417 619.264 68.8999 612.687 71.8116 607.695C72.1496 607.123 72.2276 606.421 72.5396 605.849C73.2935 604.394 74.1254 602.964 75.1913 601.066C74.4894 599.194 73.3975 598.986 71.3437 600.676C70.2518 601.586 68.7699 602.028 67.418 602.704C68.3366 605.512 68.0159 606.976 66.4561 607.097C65.3642 613.415 61.6984 616.743 55.381 616.951C52.4692 617.055 50.8833 614.793 49.3494 612.843C45.9957 608.527 47.7636 604.29 49.9994 600.234C51.2213 598.024 54.939 596.958 57.3828 597.582C57.8508 595.996 58.3967 594.462 58.7347 592.877C58.8647 592.305 58.6827 591.551 58.3967 591.031C57.0708 588.847 57.7208 587.001 59.4366 584.895C57.9287 584.791 56.6549 584.713 55.147 584.635C56.2389 582.321 58.4227 582.685 60.1906 582.243C61.3085 581.958 62.4784 581.802 63.5703 581.438C66.742 580.398 66.872 580.138 64.5842 577.564C63.1543 575.978 62.3484 574.626 63.1283 572.338C63.4663 571.324 62.5044 569.817 61.9584 568.621C60.5285 565.527 58.9947 562.485 57.5388 559.417C57.4348 559.209 57.6428 558.845 57.5388 558.689C55.121 555.492 56.4209 552.788 58.4747 550.006C59.9306 548.03 59.4106 546.626 56.6289 544.937C56.7069 549.33 53.6911 551.202 50.4154 552.684C49.3234 553.178 45.4238 548.862 44.5658 546.341C42.902 549.512 40.3542 550.656 37.0004 549.85C37.0004 552.528 37.0004 554.998 37.0004 557.78C37.2344 558.014 38.5864 558.897 38.4564 559.365C38.0924 560.743 37.0265 561.133 35.8566 559.833C35.7526 559.729 34.9466 560.015 34.6607 560.327C31.3849 563.785 27.2253 563.837 22.8836 563.603C18.516 563.369 15.4223 561.133 12.9265 557.806C12.6145 557.416 12.2505 557.026 12.0945 556.584C11.2106 553.984 13.7844 546.808 15.9682 545.223C17.2161 544.313 18.2041 543.065 19.348 541.999C19.8159 541.583 20.3879 541.297 21.1158 540.855C21.2458 541.843 21.3497 542.519 21.4017 542.909C24.8334 544.131 28.7592 541.349 31.359 545.171C33.7768 543.039 31.9049 537.735 36.7145 537.917C40.1202 538.047 44.4878 537.371 44.7218 543.247C44.9558 543.221 45.1638 543.169 45.3978 543.143C46.1257 542.233 46.7497 541.193 47.6076 540.439C48.3876 539.763 49.4274 539.425 50.7273 538.749C50.1814 538.229 49.4794 537.397 48.6215 536.747C46.8016 535.421 45.8138 534.096 46.9057 531.626C47.3997 530.482 47.0616 528.766 46.6717 527.44C45.4498 523.28 45.8917 521.617 49.2714 519.095C48.6735 518.627 48.0756 518.185 47.0617 517.431C47.9976 516.937 48.6475 516.573 49.2714 516.235C49.4534 517.015 49.6614 517.769 49.8434 518.549C50.0254 518.653 50.2074 518.757 50.3634 518.861C51.0133 516.859 51.6633 514.857 52.3132 512.829C53.2231 510.048 53.9511 507.214 55.095 504.562C55.485 503.678 56.8108 502.768 57.8248 502.638C59.4626 502.43 60.9185 502.43 61.9844 500.87C62.2704 500.454 63.3623 500.61 63.8823 500.532C64.5582 498.895 64.8702 496.269 65.8581 496.009C70.3557 494.787 71.0577 489.899 74.4894 487.741C74.9834 487.429 75.1914 486.078 75.0094 485.324C73.9695 480.696 76.1273 478.408 80.7029 479.396C81.3269 479.526 82.1847 479.63 82.6787 479.344C84.7325 478.044 86.5784 479.006 87.6703 480.358C90.2441 483.634 93.1298 482.126 95.6776 481.008C98.1734 479.89 100.461 479.214 103.165 479.656C103.945 479.786 105.141 479.292 105.635 478.668C107.715 476.146 107.299 470.583 105.037 468.321C102.905 466.189 101.943 462.316 103.139 460.704C105.297 457.766 109.171 456.726 112.264 458.156C113.746 458.832 114.786 459.274 115.488 456.83C116.242 454.178 118.244 452.046 121.52 451.994C122.169 451.994 123.131 451.813 123.365 451.371C125.393 447.679 129.423 446.977 132.595 445.001C133.713 444.299 134.778 443.415 135.662 442.453C136.104 441.959 136.364 440.997 136.182 440.399C136.078 440.036 134.986 439.957 134.31 439.802C133.739 439.672 133.141 439.646 133.271 439.672C132.569 441.283 132.127 443.779 131.269 443.935C128.201 444.481 127.213 442.739 128.851 440.087C129.397 439.23 130.801 438.892 131.633 437.826C130.671 437.826 129.683 437.8 128.799 437.774C128.331 436.396 127.915 435.148 127.343 433.406C126.485 434.342 126.147 435.018 125.705 435.122C124.951 435.278 123.755 435.33 123.443 434.94C123.027 434.368 123.235 433.302 123.287 432.47C123.313 431.898 123.547 431.3 123.677 430.728C122.975 430.624 122.039 430.182 121.571 430.494C119.648 431.742 118.088 430.728 116.346 430.104C115.02 429.636 113.538 429.662 112.134 429.428C111.744 429.376 111.224 429.272 111.042 429.012C109.249 426.309 107.507 423.553 105.791 420.797C105.583 420.459 105.349 419.913 105.479 419.627C106.987 416.092 107.949 412.088 110.288 409.228C111.9 407.252 114.916 405.64 118.348 406.16C120.428 406.472 122.663 406.082 124.769 405.692C126.615 405.354 128.357 404.548 130.177 404.003C130.567 403.873 131.061 403.847 131.425 403.977C133.167 404.626 134.83 405.458 136.598 406.056C138.366 406.654 138.912 407.538 138.002 409.28C137.638 410.008 137.612 410.918 137.456 411.75C136.624 416.17 137.69 417.781 142.032 418.769C142.682 418.925 143.28 419.211 143.904 419.445C146.4 420.407 148.687 418.977 149.675 416.403C149.857 415.936 149.727 415.234 149.493 414.792C149.025 413.856 148.063 413.076 147.907 412.14C147.361 408.604 146.087 404.938 148.635 401.663C149.389 400.701 150.715 400.155 151.313 399.141C152.587 396.879 153.705 394.513 154.589 392.096C156.123 388.014 158.982 385.414 163.012 384.062C165.352 383.282 170.422 386.038 171.929 387.858C173.749 390.042 173.775 392.33 173.827 394.851C173.905 397.919 175.257 399.141 178.325 398.569C182.225 397.815 186.046 396.593 189.92 395.631C190.44 395.501 191.038 395.631 191.584 395.709C194.496 396.203 194.912 396.047 196.471 393.941L196.731 393.915Z" fill="#EC8969"/>
<path fill-rule="evenodd" clip-rule="evenodd" d="M32.1139 660.6C32.2179 660.366 32.3219 659.976 32.4778 659.95C37.2614 659.196 35.2856 655.505 35.5716 652.801C35.6236 652.203 35.6236 651.605 35.7016 651.033C35.7535 650.695 35.9095 650.409 36.0395 649.993C39.3413 650.331 41.4471 648.823 42.565 645.833C42.695 645.495 43.1369 645.002 43.4229 645.002C46.3607 645.028 45.4508 643.052 45.3208 641.492C45.1908 640.062 45.5288 638.32 44.8268 637.306C42.877 634.42 44.8268 632.445 45.9447 630.235C46.1007 629.949 46.0487 629.481 46.2827 629.325C50.5463 626.387 54.03 621.863 60.1655 622.721C61.4394 622.903 62.8173 622.175 64.1432 622.149C66.821 622.071 69.2128 622.747 70.7207 625.295C70.9806 625.737 71.6826 625.945 71.7866 626.023C72.9565 625.659 73.8404 625.373 74.6983 625.087C74.8283 625.373 74.9584 625.685 75.0623 625.971C74.4384 626.387 73.8145 626.803 72.9046 627.401C73.6325 628.779 74.4384 630.157 75.1403 631.639C76.9862 635.512 78.65 641.31 75.6083 645.158C74.9323 646.015 74.3604 646.977 73.8404 647.965C73.5025 648.615 73.1125 649.395 73.1645 650.097C73.3985 653.061 72.8526 656.701 74.3604 658.858C77.1942 662.966 73.5285 665.306 72.9305 668.4C72.7225 669.387 72.0725 670.011 72.8265 671.285C73.6324 672.611 72.5406 674.249 70.9547 674.067C68.9269 673.833 68.1989 674.899 67.497 676.303C66.821 677.629 66.0151 678.383 64.4032 678.851C62.4794 679.423 60.5815 680.723 59.0996 682.152C56.6818 684.466 54.6021 684.726 52.1843 682.438C51.8723 682.152 51.4823 681.528 51.3263 681.58C48.0246 682.828 45.1388 679.059 41.6551 680.878C40.6932 677.915 39.8613 674.873 36.7415 673.313C36.4296 673.157 36.4296 672.377 36.1696 671.987C35.7276 671.311 35.3116 670.401 34.6877 670.141C33.1018 669.543 32.7119 668.556 33.3358 667.152C34.6097 664.266 34.3497 662.68 32.0879 660.6H32.1139Z" fill="#EC8969"/>
<path fill-rule="evenodd" clip-rule="evenodd" d="M21.9002 487.247C20.9642 486.649 20.0803 485.713 19.0924 485.557C16.9866 485.245 15.9726 484.153 14.9847 482.333C11.995 476.873 9.8372 471.336 11.0591 464.914C11.761 461.327 14.3348 458.805 15.8167 455.711C17.6885 451.76 22.0042 451.578 24.864 449.238C25.5919 448.64 27.0477 448.744 28.1657 448.796C30.9474 448.9 33.7813 448.926 36.511 449.446C37.8629 449.706 39.3708 450.772 40.2287 451.916C42.1785 454.567 43.7904 457.505 45.5063 460.313C45.8442 460.885 46.3122 461.483 46.4162 462.107C47.6381 469.178 48.236 476.224 44.1543 482.723C43.2444 484.179 42.3345 485.661 41.3986 487.091C41.0866 487.559 40.6706 488.156 40.2027 488.26C37.1349 488.832 34.0672 489.404 30.9994 489.69C27.7497 489.976 24.604 489.378 21.9262 487.273L21.9002 487.247Z" fill="#EC8969"/>
<path fill-rule="evenodd" clip-rule="evenodd" d="M247.482 340.307C248.6 342.205 250.212 343.973 250.654 346.001C251.044 347.743 251.954 348.393 253.15 349.042C255.567 350.394 255.749 351.096 254.553 353.696C253.956 355.022 253.54 356.426 253.228 357.856C252.136 362.795 250.342 367.189 245.454 369.607C242.386 371.115 239.423 372.934 236.251 374.156C235.185 374.572 233.573 373.714 232.221 373.35C230.35 372.856 228.4 372.44 226.632 371.661C225.202 371.011 223.59 370.127 222.732 368.879C220.86 366.175 219.222 363.237 217.845 360.248C217.273 359.026 217.299 357.336 217.585 355.932C218.027 353.67 218.858 351.486 219.534 349.276C219.612 349.042 219.69 348.73 219.872 348.652C223.98 346.625 225.202 341.243 230.297 340.177C233.365 339.527 236.251 339.033 239.371 339.735C241.217 340.151 243.192 339.917 245.116 340.021C245.844 340.047 246.546 340.203 247.508 340.333L247.482 340.307Z" fill="#EC8969"/>
<path fill-rule="evenodd" clip-rule="evenodd" d="M81.273 657.896C85.5107 652.384 90.0343 648.667 96.5078 647.705C98.6916 647.393 100.719 646.171 102.877 645.521C107.869 644.039 111.197 646.925 110.885 652.15C110.807 653.242 111.717 654.386 111.717 655.53C111.717 657.142 111.457 658.78 111.093 660.366C110.937 661.042 110.053 661.536 109.871 662.212C108.337 667.983 103.813 671.181 99.4715 674.664C94.038 679.032 88.1625 679.318 82.053 676.874C80.5971 676.302 79.4532 674.456 78.6473 672.949C77.2954 670.453 77.5553 667.749 78.5952 665.123C79.6092 662.523 80.5451 659.898 81.299 657.896H81.273Z" fill="#EC8969"/>
<path fill-rule="evenodd" clip-rule="evenodd" d="M135.717 370.594C134.105 374.676 130.777 376.496 126.852 377.588C125.656 377.926 124.564 378.628 123.394 379.07C120.534 380.136 117.934 379.2 115.516 377.718C113.775 376.652 111.955 375.612 110.473 374.208C109.511 373.298 108.939 371.816 108.497 370.49C106.963 365.837 108.783 361.469 110.005 357.128C110.395 355.724 111.799 354.398 113.073 353.514C115.958 351.538 118.922 349.51 122.12 348.21C123.732 347.56 126.072 348.132 127.891 348.756C131.947 350.134 135.665 352.11 137.381 356.452C137.953 357.908 139.278 359.441 139.096 360.767C138.577 364.199 137.433 367.553 136.523 370.932C136.263 370.828 135.977 370.698 135.717 370.594Z" fill="#EC8969"/>
<path fill-rule="evenodd" clip-rule="evenodd" d="M93.651 629.091C94.7429 627.843 94.5869 626.153 93.807 624.411C93.651 624.047 93.807 623.216 94.093 622.982C96.5888 620.876 97.1867 617.834 98.1227 614.974C99.3186 611.309 102.984 611.646 105.558 610.217C107.716 609.021 109.822 610.633 111.954 610.555C112.811 610.529 113.669 610.607 114.839 610.659C114.839 610.581 114.839 611.075 115.073 611.257C119.415 614.532 120.767 619.654 122.821 624.229C123.471 625.685 124.199 628.441 121.885 630.053C121.703 630.183 121.547 630.469 121.469 630.677C119.623 635.512 115.515 637.254 110.94 638.164C107.404 638.892 104.05 639.828 101.97 643.208C101.788 643.104 101.632 643 101.45 642.87C101.632 642.35 101.918 641.856 101.944 641.336C101.996 640.062 102.334 638.554 101.788 637.566C100.904 635.876 99.3965 634.551 98.2006 632.991C97.5507 632.133 97.1348 631.067 96.3808 630.339C95.7829 629.767 94.7949 629.559 93.625 629.039L93.651 629.091Z" fill="#EC8969"/>
<path fill-rule="evenodd" clip-rule="evenodd" d="M14.8003 502.247C16.7501 502.741 18.492 503.209 20.3118 503.677C18.7 507.317 17.0101 507.681 14.4104 505.575C13.9684 505.211 12.9025 505.055 12.4605 505.341C8.56083 507.733 4.8171 506.459 1.2034 504.795C0.657441 504.561 0.683442 503.079 0.475459 502.169C-0.694444 497.178 0.215519 494.5 4.0892 491.666C5.88305 490.366 12.2005 491.718 13.6043 493.72C14.2283 494.604 15.0343 495.436 15.4242 496.424C15.7622 497.256 15.7622 498.27 15.6322 499.18C15.4762 500.324 15.0602 501.415 14.8262 502.247H14.8003Z" fill="#EC8969"/>
<path fill-rule="evenodd" clip-rule="evenodd" d="M181.056 374.442C183.5 370.516 187.27 369.658 192.547 372.856C194.887 374.26 195.225 379.72 193.197 382.995C191.793 385.257 185.71 386.817 183.578 385.439C180.094 383.203 178.872 377.848 181.056 374.442Z" fill="#EC8969"/>
<path fill-rule="evenodd" clip-rule="evenodd" d="M43.0614 556.843C44.4912 556.219 45.9732 555.335 47.559 554.92C50.7828 554.062 54.3704 556.011 55.1764 558.819C56.0603 561.861 54.2404 565.475 51.3806 566.463C47.065 567.918 42.3594 563.863 43.1133 559.339C43.2433 558.533 43.1134 557.701 43.0614 556.843Z" fill="#EC8969"/>
<path fill-rule="evenodd" clip-rule="evenodd" d="M50.5775 588.534C53.0473 589.938 54.0873 593.37 52.8394 595.736C51.0716 599.167 47.1459 599.375 44.5461 598.023C41.6603 596.49 40.2825 592.616 41.7123 590.354C43.6882 587.234 47.0679 586.532 50.5516 588.534H50.5775Z" fill="#EC8969"/>
<path fill-rule="evenodd" clip-rule="evenodd" d="M105.919 441.439C107.453 442.427 108.311 447.965 107.167 449.706C106.257 451.084 101.136 452.358 99.8357 451.5C96.6379 449.42 95.4941 446.145 97.0279 443.649C99.7837 439.229 102.175 439.853 105.893 441.413L105.919 441.439Z" fill="#EC8969"/>
<path fill-rule="evenodd" clip-rule="evenodd" d="M150.506 625.607C151.988 623.449 157.551 622.409 159.631 624.177C161.243 625.555 161.321 627.349 160.307 628.987C159.605 630.105 158.383 631.561 157.317 631.639C155.237 631.769 153.314 630.755 152.274 628.623C151.806 627.635 151.182 626.725 150.506 625.607Z" fill="#EC8969"/>
<path fill-rule="evenodd" clip-rule="evenodd" d="M14.0727 605.876C13.9427 605.72 13.7347 605.46 13.5008 605.252C12.4869 604.342 11.4729 603.458 10.459 602.574C11.7849 601.248 13.0848 599.922 14.4107 598.596C15.5286 599.688 16.4645 600.39 17.1144 601.3C17.6604 602.028 17.9204 602.964 18.2844 603.796C17.5564 604.056 16.8284 604.29 16.1265 604.628C15.4246 604.966 14.7747 605.434 14.0727 605.876Z" fill="#EC8969"/>
<path fill-rule="evenodd" clip-rule="evenodd" d="M8.27482 577.017C6.58496 577.329 4.92106 577.719 3.2052 577.927C2.86723 577.979 2.2693 577.433 2.16531 577.043C2.08731 576.757 2.52933 576.159 2.8673 575.951C4.63515 574.859 6.45495 574.079 8.1708 575.899C8.1968 576.263 8.24882 576.627 8.27482 576.991V577.017Z" fill="#EC8969"/>
<path fill-rule="evenodd" clip-rule="evenodd" d="M26.2932 533.497C26.4232 535.057 26.6312 536.461 26.5012 536.487C25.2273 536.799 23.9014 536.981 22.5755 536.981C22.4196 536.981 21.9776 535.317 22.1076 535.239C23.2255 534.641 24.4474 534.225 26.2932 533.497Z" fill="#EC8969"/>
<path fill-rule="evenodd" clip-rule="evenodd" d="M135.483 630.781C133.221 630.339 132.389 629.117 133.325 627.323C133.611 626.751 135.379 626.257 135.795 626.595C137.537 627.947 136.419 629.351 135.483 630.781Z" fill="#EC8969"/>
<path fill-rule="evenodd" clip-rule="evenodd" d="M63.3385 467.749C63.4164 469.153 63.7024 470.141 63.4425 470.973C63.3385 471.311 61.6486 471.623 61.4146 471.337C60.9207 470.739 60.6087 469.647 60.7907 468.945C60.9207 468.477 62.0906 468.295 63.3385 467.749Z" fill="#EC8969"/>
<path fill-rule="evenodd" clip-rule="evenodd" d="M18.7279 568.126C18.7279 568.854 18.9879 569.894 18.598 570.257C18.052 570.803 17.0381 570.855 16.2321 571.115C16.0762 570.179 15.5562 569.114 15.8422 568.36C16.1282 567.606 17.246 567.164 18 566.592C18.26 567.086 18.494 567.606 18.7539 568.1L18.7279 568.126Z" fill="#EC8969"/>
<path fill-rule="evenodd" clip-rule="evenodd" d="M65.7295 492.368C64.7416 492.966 63.7277 493.564 62.7398 494.162C62.6358 493.148 62.5317 492.134 62.4277 491.12C63.3897 491.068 64.3776 491.016 65.3396 490.938C65.4696 491.406 65.5995 491.874 65.7295 492.342V492.368Z" fill="#EC8969"/>
<path fill-rule="evenodd" clip-rule="evenodd" d="M42.2299 584.037C42.2299 584.609 42.464 585.466 42.178 585.7C41.2161 586.532 40.0721 587.156 39.0062 587.858C38.9282 587.416 38.6162 586.766 38.8242 586.532C39.6302 585.492 40.5921 584.583 41.476 583.621C41.736 583.751 41.97 583.907 42.2299 584.037Z" fill="#EC8969"/>
<path fill-rule="evenodd" clip-rule="evenodd" d="M96.3281 468.243C99.0059 467.281 99.2139 469.309 100.592 471.181C98.746 470.921 97.602 470.765 96.3281 470.609C96.3281 469.777 96.3281 469.049 96.3281 468.243Z" fill="#EC8969"/>
<path fill-rule="evenodd" clip-rule="evenodd" d="M6.32929 552.606C6.32929 554.01 6.56325 554.92 6.22527 555.388C5.86131 555.908 4.95138 556.038 4.27544 556.35C4.04146 555.544 3.46955 554.66 3.67754 554.01C3.85952 553.49 4.97737 553.282 6.30327 552.632L6.32929 552.606Z" fill="#EC8969"/>
<path fill-rule="evenodd" clip-rule="evenodd" d="M139.303 403.559C137.743 403.715 136.651 403.845 135.559 403.819C135.481 403.819 135.273 402.285 135.403 402.233C136.443 401.843 137.535 401.609 138.627 401.479C138.731 401.479 138.991 402.493 139.329 403.533L139.303 403.559Z" fill="#EC8969"/>
<path fill-rule="evenodd" clip-rule="evenodd" d="M31.5898 500.896C32.5258 500.532 33.4617 500.168 34.3716 499.804C34.6056 500.506 34.8135 501.208 35.0475 501.884C34.0596 502.092 33.0717 502.3 32.0838 502.533C31.9278 501.988 31.7458 501.442 31.5898 500.896Z" fill="#EC8969"/>
<path fill-rule="evenodd" clip-rule="evenodd" d="M56.7304 459.195C56.8864 460.599 57.2764 461.587 56.9384 462.081C56.5744 462.627 55.5345 462.705 54.7806 462.965C54.6246 462.211 54.1826 461.353 54.4166 460.729C54.5986 460.183 55.5605 459.923 56.7304 459.195Z" fill="#EC8969"/>
<path fill-rule="evenodd" clip-rule="evenodd" d="M142.735 412.685C142.319 411.151 142.008 409.747 143.983 409.435C144.503 409.357 145.595 410.137 145.673 410.605C145.985 412.945 144.087 412.373 142.761 412.685H142.735Z" fill="#EC8969"/>
<path fill-rule="evenodd" clip-rule="evenodd" d="M224.345 599.376C224.345 600.728 224.449 601.69 224.241 602.574C224.111 603.068 223.487 603.536 222.967 603.848C222.733 603.978 221.953 603.666 221.927 603.51C221.849 602.886 221.771 602.106 222.083 601.638C222.603 600.858 223.409 600.286 224.345 599.376Z" fill="#EC8969"/>
<path fill-rule="evenodd" clip-rule="evenodd" d="M28.2652 444.558C27.0433 444.61 26.1853 444.87 25.5614 444.584C25.2234 444.428 24.9894 442.972 25.2234 442.816C25.7953 442.426 26.7313 442.166 27.3552 442.348C27.7452 442.452 27.8492 443.492 28.2652 444.558Z" fill="#EC8969"/>
<path fill-rule="evenodd" clip-rule="evenodd" d="M80.1895 438.396C82.7892 439.15 83.1272 440.19 82.3993 441.516C82.2173 441.828 81.4374 441.828 80.9434 441.984C80.7354 440.944 80.5014 439.904 80.1895 438.396Z" fill="#EC8969"/>
<path fill-rule="evenodd" clip-rule="evenodd" d="M119.726 443.649C119.596 445.027 119.726 445.859 119.414 446.483C119.206 446.873 118.348 446.925 117.802 447.133C117.724 446.327 117.49 445.469 117.646 444.715C117.724 444.351 118.608 444.195 119.726 443.649Z" fill="#EC8969"/>
<path fill-rule="evenodd" clip-rule="evenodd" d="M26.9902 491.276C28.2641 491.25 29.096 490.964 29.46 491.276C29.9019 491.64 29.954 492.498 30.162 493.122C29.538 493.252 28.7841 493.668 28.2901 493.46C27.8222 493.252 27.6142 492.42 26.9902 491.276Z" fill="#EC8969"/>
<path fill-rule="evenodd" clip-rule="evenodd" d="M289.313 464.603C289.287 465.305 289.417 466.085 289.158 466.683C288.976 467.099 288.248 467.281 287.754 467.592C287.598 466.787 287.312 465.981 287.364 465.201C287.39 464.837 288.196 464.551 288.638 464.239C288.872 464.369 289.08 464.473 289.313 464.603Z" fill="#EC8969"/>
<path fill-rule="evenodd" clip-rule="evenodd" d="M100.254 471.909C101.554 471.987 102.36 471.805 102.828 472.143C103.192 472.403 103.4 473.469 103.166 473.807C102.906 474.171 101.866 474.405 101.476 474.171C101.008 473.885 100.826 473.053 100.254 471.909Z" fill="#EC8969"/>
<path fill-rule="evenodd" clip-rule="evenodd" d="M826.034 98.2698C820.265 103.962 813.722 109.963 813.18 119.217C813.18 119.682 812.367 120.03 811.979 120.495C809.54 123.399 806.868 126.148 804.7 129.245C803.306 131.259 801.525 133.853 804.816 135.982C807.565 137.763 811.205 136.795 813.025 133.969C817.168 127.464 821.311 120.998 825.492 114.532C826.731 112.635 827.816 110.505 829.48 109.072C834.94 104.387 840.593 99.9348 846.207 95.4046C845.665 93.972 845.123 92.5007 844.581 91.0681C837.147 90.2937 830.681 93.7397 826.034 98.3085V98.2698Z" fill="url(#paint0_linear_1484_3463)"/>
<path fill-rule="evenodd" clip-rule="evenodd" d="M313.847 59.395C313.576 59.5112 313.266 59.6274 312.995 59.7048C309.936 63.8478 309.859 65.8224 314.428 68.4941C318.88 71.0882 323.952 72.7532 328.909 74.4568C330.225 74.9215 332.045 73.9535 333.632 73.6438C333.052 72.1724 332.858 70.2365 331.812 69.3846C326.392 65.0868 320.7 61.2148 313.847 59.395Z" fill="url(#paint1_linear_1484_3463)"/>
<path fill-rule="evenodd" clip-rule="evenodd" d="M676.763 390.328C671.652 388.005 669.445 383.591 668.09 378.402C666.619 372.788 663.405 368.49 657.442 366.748C656.281 366.399 654.539 365.586 654.345 364.696C653.222 359.662 650.008 356.681 645.788 354.241C641.49 351.802 641.722 348.472 646.059 345.801C650.86 342.858 652.37 338.715 650.473 333.488C649.311 330.352 647.492 327.37 646.911 324.157C645.285 315.329 644.626 306.81 649.853 298.37C652.912 293.414 655.816 291.439 661.431 292.33C663.25 292.639 666.425 291.749 667.045 290.51C668.632 287.219 669.136 283.385 670.065 279.785C670.413 278.429 670.452 276.764 671.304 275.835C677.499 268.943 674.014 266.659 667.935 264.181C666.658 263.639 664.954 263.987 663.483 264.026C653.996 264.258 647.724 258.063 648.847 249.584C649.737 242.808 648.614 240.911 642.148 238.2C638.741 236.768 637.579 233.67 637.154 230.495C636.844 228.172 644.239 221.473 646.756 221.125C652.409 220.312 656.087 214.543 653.609 209.819C652.603 207.883 650.318 206.528 648.421 205.173C645.633 203.198 637.386 203.121 635.837 205.25C631.81 210.787 626.854 215.085 620.504 217.602C618.956 218.221 617.174 218.221 615.471 218.492C616.245 216.905 617.058 215.317 617.755 213.73C618.22 212.645 619.188 210.942 618.801 210.516C617.949 209.587 616.439 209.006 615.122 208.812C614.27 208.696 613.264 209.548 611.986 210.09C614.735 206.412 617.136 203.198 620.156 199.21C624.647 200.565 630.339 200.255 635.063 196.112C637.154 194.254 638.741 191.814 640.445 189.569C641.026 188.794 640.987 187.555 641.568 186.781C644.433 183.18 644.975 176.675 642.652 172.842C640.948 169.977 638.199 169.357 635.605 170.403C630.533 172.455 625.615 174.933 620.814 177.566C619.42 178.34 618.723 180.276 617.678 181.67C615.006 185.194 613.728 189.917 608.424 191.079C601.764 192.55 599.983 195.415 600.525 202.346C600.641 203.74 600.099 205.173 599.867 206.605C590.768 205.057 591.078 205.018 593.594 196.809C594.601 193.557 593.749 189.646 593.13 186.162C592.936 184.961 590.923 183.412 589.568 183.18C584.34 182.406 577.448 186.162 577.061 191.931C576.79 196.074 574.467 198.474 571.06 198.9C566.646 199.403 558.205 193.673 557.547 190.885C556.889 187.981 555.959 185.155 554.914 181.515C555.301 181.205 556.54 180.392 557.663 179.424C561.148 176.366 564.826 173.462 567.885 170.016C569.821 167.886 568.775 166.453 565.717 166.57C563.742 166.647 561.496 166.57 559.87 165.718C556.695 163.975 554.062 162.349 551.003 165.911C548.874 168.428 545.621 170.209 544.072 172.997C541.788 177.217 540.162 181.902 538.962 186.587C537.8 191.118 535.09 192.279 531.218 191.427C528.043 190.73 525.023 188.291 522.002 188.368C517.821 188.485 514.685 187.168 511.2 185.232C507.715 183.296 504.656 182.019 507.909 177.488C499.971 176.443 498.887 176.017 493.079 170.171C491.956 169.009 491.027 166.918 491.143 165.369C491.647 159.213 487.349 155.612 483.98 151.701C481.425 148.72 477.785 150.269 475.075 151.663C471.241 153.637 469.809 157.471 470.351 161.691C470.893 165.757 472.132 169.745 472.674 173.81C472.945 175.94 472.868 178.34 472.171 180.392C468.918 189.879 470.002 199.984 467.873 209.587C467.06 213.188 465.356 217.059 462.878 219.692C460.594 222.093 456.412 222.635 453.624 224.687C450.914 226.7 448.939 227.204 446.577 224.571C444.796 222.558 441.428 220.815 441.234 218.724C440.615 211.987 435.93 208.696 431.516 205.056C428.65 202.733 425.011 202.385 422.145 204.631C419.087 206.954 416.067 209.78 414.208 213.071C410.414 219.77 412.698 223.526 420.519 224.842C422.61 225.19 424.895 225.113 426.83 225.849C428.689 226.584 431.051 227.823 431.67 229.411C432.135 230.572 430.664 233.399 429.27 234.251C427.953 235.064 425.011 235.064 423.888 234.135C418.002 229.256 410.801 225.423 408.439 217.369C406.696 211.523 402.515 208.619 397.055 207.263C388.808 205.25 382.845 208.425 381.413 215.046C379.438 224.261 388.537 236.806 398.062 236.651C401.818 236.613 405.806 236.109 409.291 237.116C412.388 238.006 416.686 240.213 417.422 242.73C418.622 246.834 416.57 251.094 412.698 254.191C409.871 256.437 408.052 255.159 406.387 253.301C404.606 251.287 403.173 248.964 401.74 246.641C399.379 242.769 396.358 239.788 391.48 240.833C385.13 242.188 382.265 245.789 381.994 251.984C381.877 254.462 382.923 257.405 381.877 259.302C377.928 266.465 373.127 273.125 369.1 280.249C366.312 285.205 362.556 284.121 358.723 282.766C349.043 279.436 339.518 286.328 339.983 296.627C340.061 298.099 341.3 299.918 342.539 300.809C345.52 302.939 348.811 303.016 352.528 301.971C355.897 301.003 359.846 298.989 363.021 302.551C365.809 305.726 368.287 309.134 370.881 312.386C371.152 313.702 371.501 315.367 371.849 317.032C373.282 315.638 374.676 314.245 376.805 312.115C378.044 315.368 379.554 318.775 380.561 322.337C381.374 325.318 381.568 328.455 382.032 331.552C382.226 332.946 382.381 334.301 382.536 335.695C384.123 334.843 385.788 334.108 387.259 333.14C387.879 332.752 387.995 331.281 388.498 331.204C392.061 330.584 395.7 329.5 398.488 333.256C400.54 336.044 403.638 338.25 405.032 341.309C406.193 343.826 406.658 347.892 405.38 350.021C403.057 353.893 399.456 357.145 395.855 359.972C394.655 360.901 391.054 360.514 389.892 359.352C384.355 353.854 377.463 353.467 370.416 353.08C365.499 352.809 361.937 354.9 359.227 358.927C358.065 360.63 356.129 361.947 355.355 363.805C354 367.058 351.405 371.472 352.567 373.756C355.742 380.028 359.846 386.262 364.996 390.909C369.41 394.897 375.605 397.452 382.226 396.329C382.845 397.994 383.542 399.388 383.891 400.859C384.975 405.777 386.214 406.783 390.628 404.576C394.539 402.64 397.907 399.62 401.818 397.607C407.006 394.974 408.4 391.451 405.496 385.759C408.516 384.055 411.42 382.081 414.595 380.726C418.738 378.944 428.418 382.119 430.857 385.449C434.032 389.825 437.556 394.006 440.769 398.381C443.751 402.486 447.352 406.435 449.094 411.043C450.836 415.689 452.308 419.754 456.567 422.929C458.348 424.246 458.735 427.963 459.006 430.673C459.084 431.603 456.877 432.687 455.792 433.771C454.863 434.739 453.353 435.784 453.276 436.83C452.927 444.031 449.985 451.504 455.947 458.319C456.025 458.319 456.296 458.319 456.567 458.357C461.755 459.829 465.434 457.467 467.37 453.053C469.383 448.445 472.674 443.451 467.215 438.611C466.479 437.952 466.169 435.591 466.711 435.01C470.467 431.022 472.868 425.175 479.14 424.323C487.349 423.2 495.131 425.291 501.985 429.512C506.941 432.532 511.161 434.739 517.163 432.067C518.866 431.293 523.861 433.345 524.209 434.816C525.255 439.23 526.61 443.76 524.868 448.678C523.938 451.233 524.635 454.757 525.526 457.506C526.997 461.997 529.282 466.179 531.256 470.515C533.27 474.929 538.652 476.052 540.355 471.987C543.143 465.288 546.938 458.59 544.731 450.536C542.833 443.76 544.924 437.526 549.571 432.183C551.584 429.899 553.946 430.131 555.456 432.338C557.818 435.707 559.754 439.385 561.574 443.063C563.626 447.206 568.156 448.445 571.602 445.309C574.97 442.25 577.758 440.934 581.591 445.077C582.869 446.432 587.477 446.935 588.6 445.812C593.827 440.663 599.131 438.766 606.217 441.786C609.005 442.986 612.644 443.257 613.574 438.998C612.722 436.016 612.335 432.919 611.792 429.899C610.979 425.562 609.16 421.806 604.978 419.716C601.416 417.896 599.906 410.539 602.461 407.635C604.668 405.119 606.798 402.563 608.889 399.93C612.18 395.826 615.122 395.749 618.413 399.814C619.265 400.859 620.078 402.524 621.124 402.757C623.253 403.183 625.577 402.795 627.783 402.757C627.319 400.705 627.435 398.072 626.196 396.678C624.492 394.742 621.705 393.813 619.42 392.38C617.368 391.063 616.516 389.437 617.988 387.114C621.085 382.197 627.706 379.293 633.127 380.726C635.14 381.268 637.076 383.01 639.012 382.932C645.904 382.661 649.544 388.237 654.616 391.141C658.449 393.348 661.547 396.794 665.341 399.078C668.245 400.821 671.73 402.486 674.944 402.486C676.88 402.486 679.59 399.659 680.558 397.452C681.991 394.277 679.938 391.76 676.763 390.328Z" fill="url(#paint2_linear_1484_3463)"/>
<path fill-rule="evenodd" clip-rule="evenodd" d="M249.42 322.298C249.11 322.104 248.529 322.143 248.103 322.298C240.979 324.466 234.048 326.634 229.634 333.642C226.421 338.792 227.272 344.832 233.235 347C240.205 349.517 247.716 351.26 256.389 348.627C260.571 346.613 265.295 343.671 267.966 338.444C268.702 337.011 268.818 334.223 267.966 333.139C263.126 327.37 255.576 326.053 249.42 322.298Z" fill="url(#paint3_linear_1484_3463)"/>
<path fill-rule="evenodd" clip-rule="evenodd" d="M550.695 130.29C553.638 131.49 558.245 130.6 561.265 129.012C563.821 127.696 566.57 124.056 566.686 121.385C566.841 116.816 564.982 112.169 564.092 107.949C563.55 106.516 563.318 105.432 562.775 104.503C559.484 98.7336 556.542 98.0754 551.818 102.49C546.165 107.717 545.158 115.228 544.268 122.12C543.958 124.637 547.791 129.09 550.695 130.251V130.29Z" fill="url(#paint4_linear_1484_3463)"/>
<path fill-rule="evenodd" clip-rule="evenodd" d="M365.922 143.881C367.587 144.539 370.569 144.384 371.614 143.3C372.931 141.906 373.705 139.041 373.279 137.105C372.466 133.272 370.685 129.671 369.291 125.954C369.446 125.799 369.64 125.683 369.794 125.528C368.71 124.366 367.781 122.856 366.465 122.121C363.715 120.572 360.695 119.41 357.791 118.133C353.184 116.08 347.26 118.132 347.647 122.663C348.073 127.774 350.396 133.465 353.687 137.453C356.398 140.744 361.586 142.216 365.922 143.92V143.881Z" fill="url(#paint5_linear_1484_3463)"/>
<path fill-rule="evenodd" clip-rule="evenodd" d="M580.666 454.408C576.872 452.162 572.806 450.149 568.16 452.472C561.849 454.718 559.138 458.938 562.352 462.849C567.153 468.657 572.923 473.961 581.131 474.116C583.57 474.155 587.094 472.645 588.217 470.709C590.114 467.418 591.121 463.159 587.365 459.868C585.197 457.97 583.106 455.841 580.628 454.369L580.666 454.408Z" fill="url(#paint6_linear_1484_3463)"/>
<path fill-rule="evenodd" clip-rule="evenodd" d="M376.305 181.09C374.717 183.8 375.027 187.75 378.628 189.608C382.655 191.66 384.242 197.855 390.554 196.113C393.38 195.3 396.516 195.61 399.536 195.455C403.525 195.3 406.661 190.925 405.267 187.324C402.866 180.974 390.36 174.469 383.623 176.521C380.913 177.334 377.583 178.883 376.305 181.09Z" fill="url(#paint7_linear_1484_3463)"/>
<path fill-rule="evenodd" clip-rule="evenodd" d="M500.282 142.68C505.045 145.158 509.42 142.216 510.427 136.911C511.743 130.252 510.814 124.018 505.509 119.488C503.457 117.707 499.779 115.809 497.688 116.506C490.874 118.674 487.892 126.999 491.377 135.75C493.39 137.376 496.488 140.744 500.282 142.719V142.68Z" fill="url(#paint8_linear_1484_3463)"/>
<path fill-rule="evenodd" clip-rule="evenodd" d="M471.78 121.269C471.78 121.269 473.019 120.611 473.213 119.836C474.568 113.719 476.155 107.601 476.852 101.367C477.317 97.3404 472.438 92.9652 468.45 92.6941C463.997 92.4231 458.538 96.6048 457.647 100.67C456.292 106.943 458.848 112.364 461.945 117.203C463.649 119.914 466.243 123.67 471.78 121.269Z" fill="url(#paint9_linear_1484_3463)"/>
<path fill-rule="evenodd" clip-rule="evenodd" d="M607.838 39.3775C609.813 38.2546 612.02 36.5122 612.794 34.4988C616.395 25.0126 619.686 15.3715 622.667 5.69173C623.171 4.10424 621.699 1.93596 621.119 0C619.299 0.580788 616.627 0.580793 615.814 1.81981C611.903 7.66641 607.683 13.513 605.128 19.9791C603.037 25.3224 603.153 31.5175 602.107 38.4095C604.779 38.9128 606.754 39.9582 607.838 39.3387V39.3775Z" fill="url(#paint10_linear_1484_3463)"/>
<path fill-rule="evenodd" clip-rule="evenodd" d="M712.661 359.16C711.964 350.758 705.963 347.428 699.264 350.797C697.289 351.803 695.121 352.384 691.83 353.623C691.52 353.817 689.739 354.475 688.849 355.714C687.416 357.766 685.751 360.244 685.674 362.567C685.596 365.471 688.113 366.904 691.211 367.407C696.05 368.22 700.735 369.73 705.575 370.621C710.26 371.511 713.861 367.485 713.009 362.722C712.777 361.522 712.738 360.322 712.622 359.121L712.661 359.16Z" fill="url(#paint11_linear_1484_3463)"/>
<path fill-rule="evenodd" clip-rule="evenodd" d="M314.47 341.698C308.468 341.194 297.55 347.428 294.568 352.616C293.097 355.211 293.678 356.992 295.73 358.424C300.376 361.677 305.41 363.264 311.76 361.715C314.238 359.199 317.413 357.03 319 354.049C321.672 349.016 319.736 342.162 314.431 341.698H314.47Z" fill="url(#paint12_linear_1484_3463)"/>
<path fill-rule="evenodd" clip-rule="evenodd" d="M365.385 101.638C367.785 104.658 371.967 106.594 375.723 108.027C377.581 108.763 380.756 107.911 382.421 106.633C383.428 105.859 382.924 102.877 382.808 100.864C382.77 99.6636 382.382 98.3859 381.802 97.3405C380.291 94.6301 378.975 90.2161 376.845 89.7128C371.464 88.435 368.637 84.0597 363.642 81.543C362.093 83.8274 356.944 83.4402 358.454 87.7381C360.196 92.6167 362.21 97.6502 365.385 101.638Z" fill="url(#paint13_linear_1484_3463)"/>
<path fill-rule="evenodd" clip-rule="evenodd" d="M885.93 251.753C884.148 249.469 881.941 250.011 879.463 250.204C872.765 250.746 866.028 250.901 858.865 251.25C857.084 253.341 854.644 254.889 854.296 256.864C853.638 260.542 856.929 262.169 859.871 262.749C863.046 263.369 866.531 263.562 869.706 262.982C874.817 262.091 879.889 260.62 884.807 258.916C886.394 258.374 887.827 256.593 888.64 255.006C888.872 254.541 886.82 252.915 885.93 251.753Z" fill="url(#paint14_linear_1484_3463)"/>
<path fill-rule="evenodd" clip-rule="evenodd" d="M298.627 418.477C295.22 421.458 291.503 424.13 288.483 427.46C285.076 431.215 286.431 434.855 290.884 437.023C297.079 440.082 309.314 433.074 311.598 426.84C312.605 424.091 311.908 422.465 309.895 420.413C306.487 416.928 303.08 416.967 298.666 418.477H298.627Z" fill="url(#paint15_linear_1484_3463)"/>
<path fill-rule="evenodd" clip-rule="evenodd" d="M362.051 421.148C360.309 420.18 358.179 419.871 355.779 419.096C352.526 421.419 348.732 423.936 345.247 426.801C342.885 428.737 340.717 431.37 342.576 434.623C343.505 436.249 345.789 438.495 347.106 438.301C353.107 437.294 359.07 435.862 364.839 433.926C368.285 432.764 369.563 429.047 368.246 425.988C367.317 423.859 364.374 422.465 362.051 421.148Z" fill="url(#paint16_linear_1484_3463)"/>
<path fill-rule="evenodd" clip-rule="evenodd" d="M231.577 229.372C236.688 232.818 241.915 236.884 248.614 235.567C251.324 235.025 254.809 233.477 255.97 231.347C257.364 228.792 255.506 225.772 252.214 224.571C251.827 224.416 251.44 224.029 251.208 223.681C247.181 217.215 241.373 219.151 235.836 220.351C230.338 222.364 228.092 227.049 231.577 229.411V229.372Z" fill="url(#paint17_linear_1484_3463)"/>
<path fill-rule="evenodd" clip-rule="evenodd" d="M765.469 242.77C759.313 244.047 753.079 245.015 747.116 246.874C744.6 247.648 741.967 250.087 742.896 253.611C743.748 256.825 746.226 257.831 749.323 257.057C755.015 255.663 760.668 254.153 765.198 252.991C768.451 251.21 770.735 250.242 772.671 248.771C773.794 247.919 774.336 246.254 775.149 244.938C773.6 243.97 772.129 242.615 770.425 242.189C768.915 241.84 767.173 242.46 765.547 242.77H765.469Z" fill="url(#paint18_linear_1484_3463)"/>
<path fill-rule="evenodd" clip-rule="evenodd" d="M693.295 41.4672C699.065 42.1641 701.581 37.5953 703.711 34.0332C706.886 28.6899 708.706 22.5335 711.261 16.3385C708.241 16.4159 704.64 15.4092 703.285 16.7257C698.91 20.9461 695.193 25.8634 691.592 30.7808C690.314 32.5231 690.043 35.0398 689.54 37.2468C688.804 40.3056 690.585 41.1574 693.295 41.4672Z" fill="url(#paint19_linear_1484_3463)"/>
<path fill-rule="evenodd" clip-rule="evenodd" d="M704.371 146.514C703.52 146.824 702.358 146.553 701.739 147.056C699.183 149.147 696.24 151.083 694.614 153.754C693.762 155.109 694.769 158.478 696.047 160.027C698.293 162.776 701.622 163.589 705.146 161.963C705.533 162.195 705.92 162.466 706.307 162.699C707.972 160.104 710.102 157.704 711.186 154.877C711.961 152.902 711.961 150.115 711.186 148.14C709.986 145.159 707.121 145.546 704.449 146.475L704.371 146.514Z" fill="url(#paint20_linear_1484_3463)"/>
<path fill-rule="evenodd" clip-rule="evenodd" d="M771.011 196.189C767.526 197.041 764.235 198.59 760.866 199.868C760.712 199.674 760.557 199.481 760.402 199.287C757.73 201.455 754.71 203.314 752.464 205.869C749.677 209.044 750.606 211.522 754.826 211.948C757.382 212.219 760.363 211.716 762.725 210.593C766.713 208.657 770.585 206.256 774.07 203.469C775.541 202.307 776.819 199.597 776.587 197.816C776.161 194.563 772.947 195.686 771.05 196.151L771.011 196.189Z" fill="url(#paint21_linear_1484_3463)"/>
<path fill-rule="evenodd" clip-rule="evenodd" d="M747.781 116.273C747.162 115.886 746.929 115.693 746.658 115.577C741.354 113.176 728.576 121.926 727.724 128.78C727.299 132.226 730.435 134.394 733.803 133.426C742.322 130.948 746.465 124.947 747.781 116.273Z" fill="url(#paint22_linear_1484_3463)"/>
<path fill-rule="evenodd" clip-rule="evenodd" d="M620.271 101.25C620.852 106.128 624.182 107.832 628.286 105.354C631.848 103.186 635.217 94.1255 633.861 90.2536C632.893 87.4271 630.222 86.1106 627.395 87.0786C623.291 88.4725 619.574 95.8679 620.232 101.289L620.271 101.25Z" fill="url(#paint23_linear_1484_3463)"/>
<path fill-rule="evenodd" clip-rule="evenodd" d="M506.126 57.5753C511.431 56.5298 516.697 55.2909 521.575 54.2067C525.525 52.2708 529.203 50.6446 532.61 48.6699C533.54 48.1278 534.198 46.4629 534.237 45.3013C534.237 44.8367 532.223 43.5977 531.371 43.83C526.841 44.9916 522.35 46.3467 517.936 47.9342C514.528 49.1345 511.237 50.722 507.907 52.1546C506.707 52.6967 505.313 53.0839 504.384 53.897C503.764 54.4778 503.261 55.8716 503.532 56.6073C503.764 57.1881 505.275 57.7689 506.088 57.614L506.126 57.5753Z" fill="url(#paint24_linear_1484_3463)"/>
<path fill-rule="evenodd" clip-rule="evenodd" d="M433.139 481.434C430.312 483.757 428.492 487.474 426.827 490.842C426.169 492.198 426.595 494.869 427.602 495.992C428.453 496.96 430.815 496.573 431.164 496.612C437.243 494.559 439.876 491.307 440.224 486.428C440.495 482.556 435.926 479.11 433.1 481.472L433.139 481.434Z" fill="url(#paint25_linear_1484_3463)"/>
<path fill-rule="evenodd" clip-rule="evenodd" d="M737.173 405.157C734.347 406.59 733.456 410.036 735.973 411.314C739.884 413.327 744.336 414.256 747.008 415.147C752.777 413.133 753.397 410.81 750.686 407.674C748.441 405.08 740.31 403.531 737.173 405.157Z" fill="url(#paint26_linear_1484_3463)"/>
<path fill-rule="evenodd" clip-rule="evenodd" d="M241.748 353.661C240.315 354.01 239.502 356.914 238.418 358.617C239.967 359.159 241.554 360.282 243.026 360.127C247.943 359.663 252.822 358.927 257.661 357.959C258.746 357.765 259.597 356.294 260.682 355.249C254.293 350.254 247.904 352.151 241.748 353.623V353.661Z" fill="url(#paint27_linear_1484_3463)"/>
<path fill-rule="evenodd" clip-rule="evenodd" d="M517.592 506.873C512.907 508.654 511.397 511.906 511.087 515.856C510.816 519.263 515.579 523.019 518.212 521.625C521.89 519.689 523.981 512.255 521.503 508.925C520.69 507.841 518.909 507.492 517.592 506.834V506.873Z" fill="url(#paint28_linear_1484_3463)"/>
<path fill-rule="evenodd" clip-rule="evenodd" d="M301.999 274.093C306.452 272.467 310.13 267.123 309.511 263.523C309.239 262.09 308.155 260.309 306.916 259.651C306.064 259.186 303.857 259.96 303.083 260.89C301.07 263.29 299.172 265.923 297.933 268.788C297.43 269.873 298.437 272.002 299.327 273.202C299.908 273.977 301.573 273.977 302.038 274.132L301.999 274.093Z" fill="url(#paint29_linear_1484_3463)"/>
<path fill-rule="evenodd" clip-rule="evenodd" d="M350.393 343.167C347.45 339.876 343.307 340.341 340.055 341.774C338.041 342.625 335.757 346.497 336.183 348.472C336.763 351.376 340.132 352.034 343.346 351.027C347.063 349.866 350.199 348.278 350.393 343.206V343.167Z" fill="url(#paint30_linear_1484_3463)"/>
<path fill-rule="evenodd" clip-rule="evenodd" d="M286.351 351.919C284.144 350.138 276.091 351.106 274.232 353.352C271.677 356.449 272.064 358.23 276.013 359.469C278.22 360.166 281.047 360.941 282.905 360.127C285.228 359.082 286.855 356.449 288.907 354.397C287.474 353.003 286.971 352.422 286.351 351.958V351.919Z" fill="url(#paint31_linear_1484_3463)"/>
<path fill-rule="evenodd" clip-rule="evenodd" d="M511.086 29.3877C514.997 28.9231 516.236 24.7802 513.603 18.0818C513.177 17.772 511.9 16.4556 510.351 15.9909C509.46 15.7586 507.176 16.9589 507.176 17.4623C507.253 21.2568 507.679 25.0513 508.221 28.8457C508.26 29.1555 510.118 29.5039 511.048 29.3877H511.086Z" fill="url(#paint32_linear_1484_3463)"/>
<path fill-rule="evenodd" clip-rule="evenodd" d="M696.435 295.931C696.667 296.008 697.674 293.646 697.712 293.569C696.319 286.716 692.524 289.039 689.736 289.465C686.678 289.929 686.135 292.756 687.026 294.963C689.272 300.538 693.298 294.963 696.435 295.931Z" fill="url(#paint33_linear_1484_3463)"/>
<path fill-rule="evenodd" clip-rule="evenodd" d="M754.789 352.809C760.558 358.075 761.062 358.23 766.173 355.674C763.54 353.428 761.488 351.221 758.971 349.827C758.351 349.479 756.299 351.686 754.789 352.847V352.809Z" fill="url(#paint34_linear_1484_3463)"/>
<path fill-rule="evenodd" clip-rule="evenodd" d="M567.381 473.033C566.839 472.917 565.678 475.24 564.129 477.37C567.343 478.492 569.511 479.422 571.795 479.809C572.105 479.848 573.654 476.247 573.344 476.014C571.602 474.659 569.511 473.536 567.381 473.033Z" fill="url(#paint35_linear_1484_3463)"/>
<path fill-rule="evenodd" clip-rule="evenodd" d="M600.611 460.216C600.999 465.018 605.219 468.193 608.781 466.257C606.148 464.05 605.296 459.752 600.611 460.216Z" fill="url(#paint36_linear_1484_3463)"/>
<path fill-rule="evenodd" clip-rule="evenodd" d="M324.995 255.275C324.841 251.48 322.711 250.203 319.497 250.784C318.916 250.9 318.065 253.145 318.413 253.997C319.691 257.172 322.014 257.366 324.957 255.275H324.995Z" fill="url(#paint37_linear_1484_3463)"/>
<path fill-rule="evenodd" clip-rule="evenodd" d="M321.9 322.298C324.533 323.15 326.198 324.273 327.36 323.885C328.56 323.459 329.257 321.562 330.186 320.323C328.831 319.51 327.321 317.884 326.198 318.116C324.843 318.426 323.836 320.284 321.9 322.298Z" fill="url(#paint38_linear_1484_3463)"/>
<path fill-rule="evenodd" clip-rule="evenodd" d="M415.375 400.743C416.072 403.26 416.73 405.816 417.621 409.107C422.035 404.305 417.93 402.757 416.498 400.434C416.111 400.55 415.762 400.666 415.375 400.782V400.743Z" fill="url(#paint39_linear_1484_3463)"/>
<path fill-rule="evenodd" clip-rule="evenodd" d="M555.768 27.994C554.335 27.568 552.903 26.8711 551.431 26.7549C550.773 26.7162 550.076 27.8004 548.295 29.233C551.16 29.6976 552.709 30.1623 554.219 30.0848C554.761 30.0848 555.264 28.7296 555.768 27.994Z" fill="url(#paint40_linear_1484_3463)"/>
</g>
</g>
<defs>
<linearGradient id="paint0_linear_1484_3463" x1="824.578" y1="90.959" x2="824.578" y2="136.881" gradientUnits="userSpaceOnUse">
<stop stop-color="#FCDB28"/>
<stop offset="1" stop-color="#FEEB8B"/>
</linearGradient>
<linearGradient id="paint1_linear_1484_3463" x1="322.23" y1="59.395" x2="322.23" y2="74.5809" gradientUnits="userSpaceOnUse">
<stop stop-color="#FCDB28"/>
<stop offset="1" stop-color="#FEEB8B"/>
</linearGradient>
<linearGradient id="paint2_linear_1484_3463" x1="510.495" y1="149.995" x2="510.495" y2="474.504" gradientUnits="userSpaceOnUse">
<stop stop-color="#FCDB28"/>
<stop offset="1" stop-color="#FEEB8B"/>
</linearGradient>
<linearGradient id="paint3_linear_1484_3463" x1="248.176" y1="322.167" x2="248.176" y2="349.938" gradientUnits="userSpaceOnUse">
<stop stop-color="#FCDB28"/>
<stop offset="1" stop-color="#FEEB8B"/>
</linearGradient>
<linearGradient id="paint4_linear_1484_3463" x1="555.473" y1="99.6117" x2="555.473" y2="130.846" gradientUnits="userSpaceOnUse">
<stop stop-color="#FCDB28"/>
<stop offset="1" stop-color="#FEEB8B"/>
</linearGradient>
<linearGradient id="paint5_linear_1484_3463" x1="360.513" y1="117.335" x2="360.513" y2="144.273" gradientUnits="userSpaceOnUse">
<stop stop-color="#FCDB28"/>
<stop offset="1" stop-color="#FEEB8B"/>
</linearGradient>
<linearGradient id="paint6_linear_1484_3463" x1="575.453" y1="451.439" x2="575.453" y2="474.117" gradientUnits="userSpaceOnUse">
<stop stop-color="#FCDB28"/>
<stop offset="1" stop-color="#FEEB8B"/>
</linearGradient>
<linearGradient id="paint7_linear_1484_3463" x1="390.498" y1="176.135" x2="390.498" y2="196.418" gradientUnits="userSpaceOnUse">
<stop stop-color="#FCDB28"/>
<stop offset="1" stop-color="#FEEB8B"/>
</linearGradient>
<linearGradient id="paint8_linear_1484_3463" x1="500.436" y1="116.358" x2="500.436" y2="143.571" gradientUnits="userSpaceOnUse">
<stop stop-color="#FCDB28"/>
<stop offset="1" stop-color="#FEEB8B"/>
</linearGradient>
<linearGradient id="paint9_linear_1484_3463" x1="467.079" y1="92.6816" x2="467.079" y2="122.036" gradientUnits="userSpaceOnUse">
<stop stop-color="#FCDB28"/>
<stop offset="1" stop-color="#FEEB8B"/>
</linearGradient>
<linearGradient id="paint10_linear_1484_3463" x1="612.439" y1="0" x2="612.439" y2="39.5294" gradientUnits="userSpaceOnUse">
<stop stop-color="#FCDB28"/>
<stop offset="1" stop-color="#FEEB8B"/>
</linearGradient>
<linearGradient id="paint11_linear_1484_3463" x1="699.403" y1="349.499" x2="699.403" y2="370.745" gradientUnits="userSpaceOnUse">
<stop stop-color="#FCDB28"/>
<stop offset="1" stop-color="#FEEB8B"/>
</linearGradient>
<linearGradient id="paint12_linear_1484_3463" x1="306.971" y1="341.669" x2="306.971" y2="362.313" gradientUnits="userSpaceOnUse">
<stop stop-color="#FCDB28"/>
<stop offset="1" stop-color="#FEEB8B"/>
</linearGradient>
<linearGradient id="paint13_linear_1484_3463" x1="370.608" y1="81.543" x2="370.608" y2="108.299" gradientUnits="userSpaceOnUse">
<stop stop-color="#FCDB28"/>
<stop offset="1" stop-color="#FEEB8B"/>
</linearGradient>
<linearGradient id="paint14_linear_1484_3463" x1="871.435" y1="250.007" x2="871.435" y2="263.33" gradientUnits="userSpaceOnUse">
<stop stop-color="#FCDB28"/>
<stop offset="1" stop-color="#FEEB8B"/>
</linearGradient>
<linearGradient id="paint15_linear_1484_3463" x1="299.313" y1="417.502" x2="299.313" y2="437.764" gradientUnits="userSpaceOnUse">
<stop stop-color="#FCDB28"/>
<stop offset="1" stop-color="#FEEB8B"/>
</linearGradient>
<linearGradient id="paint16_linear_1484_3463" x1="355.315" y1="419.096" x2="355.315" y2="438.313" gradientUnits="userSpaceOnUse">
<stop stop-color="#FCDB28"/>
<stop offset="1" stop-color="#FEEB8B"/>
</linearGradient>
<linearGradient id="paint17_linear_1484_3463" x1="243.174" y1="219.116" x2="243.174" y2="235.821" gradientUnits="userSpaceOnUse">
<stop stop-color="#FCDB28"/>
<stop offset="1" stop-color="#FEEB8B"/>
</linearGradient>
<linearGradient id="paint18_linear_1484_3463" x1="758.927" y1="242.085" x2="758.927" y2="257.305" gradientUnits="userSpaceOnUse">
<stop stop-color="#FCDB28"/>
<stop offset="1" stop-color="#FEEB8B"/>
</linearGradient>
<linearGradient id="paint19_linear_1484_3463" x1="700.317" y1="16.043" x2="700.317" y2="41.5383" gradientUnits="userSpaceOnUse">
<stop stop-color="#FCDB28"/>
<stop offset="1" stop-color="#FEEB8B"/>
</linearGradient>
<linearGradient id="paint20_linear_1484_3463" x1="703.033" y1="145.8" x2="703.033" y2="162.796" gradientUnits="userSpaceOnUse">
<stop stop-color="#FCDB28"/>
<stop offset="1" stop-color="#FEEB8B"/>
</linearGradient>
<linearGradient id="paint21_linear_1484_3463" x1="763.744" y1="195.582" x2="763.744" y2="212.02" gradientUnits="userSpaceOnUse">
<stop stop-color="#FCDB28"/>
<stop offset="1" stop-color="#FEEB8B"/>
</linearGradient>
<linearGradient id="paint22_linear_1484_3463" x1="737.733" y1="115.171" x2="737.733" y2="133.657" gradientUnits="userSpaceOnUse">
<stop stop-color="#FCDB28"/>
<stop offset="1" stop-color="#FEEB8B"/>
</linearGradient>
<linearGradient id="paint23_linear_1484_3463" x1="627.162" y1="86.7632" x2="627.162" y2="106.483" gradientUnits="userSpaceOnUse">
<stop stop-color="#FCDB28"/>
<stop offset="1" stop-color="#FEEB8B"/>
</linearGradient>
<linearGradient id="paint24_linear_1484_3463" x1="518.847" y1="43.8013" x2="518.847" y2="57.6394" gradientUnits="userSpaceOnUse">
<stop stop-color="#FCDB28"/>
<stop offset="1" stop-color="#FEEB8B"/>
</linearGradient>
<linearGradient id="paint25_linear_1484_3463" x1="433.374" y1="480.699" x2="433.374" y2="496.656" gradientUnits="userSpaceOnUse">
<stop stop-color="#FCDB28"/>
<stop offset="1" stop-color="#FEEB8B"/>
</linearGradient>
<linearGradient id="paint26_linear_1484_3463" x1="743.365" y1="404.491" x2="743.365" y2="415.147" gradientUnits="userSpaceOnUse">
<stop stop-color="#FCDB28"/>
<stop offset="1" stop-color="#FEEB8B"/>
</linearGradient>
<linearGradient id="paint27_linear_1484_3463" x1="249.55" y1="352.01" x2="249.55" y2="360.142" gradientUnits="userSpaceOnUse">
<stop stop-color="#FCDB28"/>
<stop offset="1" stop-color="#FEEB8B"/>
</linearGradient>
<linearGradient id="paint28_linear_1484_3463" x1="516.828" y1="506.834" x2="516.828" y2="521.923" gradientUnits="userSpaceOnUse">
<stop stop-color="#FCDB28"/>
<stop offset="1" stop-color="#FEEB8B"/>
</linearGradient>
<linearGradient id="paint29_linear_1484_3463" x1="303.689" y1="259.512" x2="303.689" y2="274.132" gradientUnits="userSpaceOnUse">
<stop stop-color="#FCDB28"/>
<stop offset="1" stop-color="#FEEB8B"/>
</linearGradient>
<linearGradient id="paint30_linear_1484_3463" x1="343.262" y1="340.682" x2="343.262" y2="351.469" gradientUnits="userSpaceOnUse">
<stop stop-color="#FCDB28"/>
<stop offset="1" stop-color="#FEEB8B"/>
</linearGradient>
<linearGradient id="paint31_linear_1484_3463" x1="280.761" y1="350.996" x2="280.761" y2="360.476" gradientUnits="userSpaceOnUse">
<stop stop-color="#FCDB28"/>
<stop offset="1" stop-color="#FEEB8B"/>
</linearGradient>
<linearGradient id="paint32_linear_1484_3463" x1="511.087" y1="15.9614" x2="511.087" y2="29.4106" gradientUnits="userSpaceOnUse">
<stop stop-color="#FCDB28"/>
<stop offset="1" stop-color="#FEEB8B"/>
</linearGradient>
<linearGradient id="paint33_linear_1484_3463" x1="692.176" y1="288.743" x2="692.176" y2="297.478" gradientUnits="userSpaceOnUse">
<stop stop-color="#FCDB28"/>
<stop offset="1" stop-color="#FEEB8B"/>
</linearGradient>
<linearGradient id="paint34_linear_1484_3463" x1="760.481" y1="349.791" x2="760.481" y2="357.286" gradientUnits="userSpaceOnUse">
<stop stop-color="#FCDB28"/>
<stop offset="1" stop-color="#FEEB8B"/>
</linearGradient>
<linearGradient id="paint35_linear_1484_3463" x1="568.757" y1="473.029" x2="568.757" y2="479.809" gradientUnits="userSpaceOnUse">
<stop stop-color="#FCDB28"/>
<stop offset="1" stop-color="#FEEB8B"/>
</linearGradient>
<linearGradient id="paint36_linear_1484_3463" x1="604.696" y1="460.182" x2="604.696" y2="466.833" gradientUnits="userSpaceOnUse">
<stop stop-color="#FCDB28"/>
<stop offset="1" stop-color="#FEEB8B"/>
</linearGradient>
<linearGradient id="paint37_linear_1484_3463" x1="321.664" y1="250.65" x2="321.664" y2="256.65" gradientUnits="userSpaceOnUse">
<stop stop-color="#FCDB28"/>
<stop offset="1" stop-color="#FEEB8B"/>
</linearGradient>
<linearGradient id="paint38_linear_1484_3463" x1="326.043" y1="318.094" x2="326.043" y2="323.964" gradientUnits="userSpaceOnUse">
<stop stop-color="#FCDB28"/>
<stop offset="1" stop-color="#FEEB8B"/>
</linearGradient>
<linearGradient id="paint39_linear_1484_3463" x1="417.492" y1="400.434" x2="417.492" y2="409.107" gradientUnits="userSpaceOnUse">
<stop stop-color="#FCDB28"/>
<stop offset="1" stop-color="#FEEB8B"/>
</linearGradient>
<linearGradient id="paint40_linear_1484_3463" x1="552.031" y1="26.7539" x2="552.031" y2="30.0933" gradientUnits="userSpaceOnUse">
<stop stop-color="#FCDB28"/>
<stop offset="1" stop-color="#FEEB8B"/>
</linearGradient>
<clipPath id="clip0_1484_3463">
<rect width="1140" height="709" fill="white"/>
</clipPath>
</defs>
</svg>
