<svg width="1440" height="585" viewBox="0 0 1440 585" fill="none" xmlns="http://www.w3.org/2000/svg">
<g opacity="0.14">
<g filter="url(#filter0_b_138_292)">
<circle cx="1137.5" cy="74.4978" r="61.0158" stroke="#E7663D" stroke-width="26.9683"/>
</g>
<g filter="url(#filter1_b_138_292)">
<circle cx="216" cy="541.998" r="30.5" stroke="#FCDB28" stroke-width="25"/>
</g>
<circle opacity="0.45" cx="49" cy="165.998" r="50" fill="#EC8969"/>
<path d="M1365.79 228.669C1343.54 231.065 1323.55 214.966 1321.16 192.712C1318.76 170.458 1334.86 150.474 1357.12 148.079C1379.37 145.683 1399.35 161.781 1401.75 184.035C1404.14 206.29 1388.05 226.273 1365.79 228.669Z" fill="#FCDB28"/>
<circle cx="190" cy="182.998" r="17" fill="#F2AD97"/>
<circle opacity="0.12" cx="273" cy="74.9978" r="30" fill="#FCDB28"/>
<circle cx="1314.5" cy="483.498" r="15.5" fill="#FCDB28"/>
<circle opacity="0.12" cx="1406.94" cy="360.587" r="30.5" transform="rotate(83.855 1406.94 360.587)" fill="#F2AD97"/>
<circle cx="1218.55" cy="529.546" r="40.4505" transform="rotate(83.855 1218.55 529.546)" fill="#D5471A"/>
</g>
<defs>
<filter id="filter0_b_138_292" x="1055.35" y="-7.65644" width="164.308" height="164.308" filterUnits="userSpaceOnUse" color-interpolation-filters="sRGB">
<feFlood flood-opacity="0" result="BackgroundImageFix"/>
<feGaussianBlur in="BackgroundImageFix" stdDeviation="3.82712"/>
<feComposite in2="SourceAlpha" operator="in" result="effect1_backgroundBlur_138_292"/>
<feBlend mode="normal" in="SourceGraphic" in2="effect1_backgroundBlur_138_292" result="shape"/>
</filter>
<filter id="filter1_b_138_292" x="161.647" y="487.645" width="108.706" height="108.706" filterUnits="userSpaceOnUse" color-interpolation-filters="sRGB">
<feFlood flood-opacity="0" result="BackgroundImageFix"/>
<feGaussianBlur in="BackgroundImageFix" stdDeviation="5.67647"/>
<feComposite in2="SourceAlpha" operator="in" result="effect1_backgroundBlur_138_292"/>
<feBlend mode="normal" in="SourceGraphic" in2="effect1_backgroundBlur_138_292" result="shape"/>
</filter>
</defs>
</svg>
