<svg width="40" height="40" viewBox="0 0 40 40" fill="none" xmlns="http://www.w3.org/2000/svg">
<circle cx="20" cy="20" r="19.8" fill="#F3F2F2" stroke="#A83815" stroke-width="0.4"/>
<path d="M28.8304 26.7455C27.7634 27.875 26.4955 28.7009 25.0268 29.2188C23.558 29.7411 22.0089 30 20.3795 30C18.8214 30 17.4018 29.7545 16.125 29.2589C14.8482 28.7679 13.7545 28.0804 12.8527 27.2009C11.9464 26.3214 11.2455 25.2679 10.7455 24.0402C10.2455 22.8125 10 21.4732 10 20.0223C10 18.5893 10.2723 17.2634 10.817 16.0446C11.3616 14.8259 12.1027 13.7679 13.0446 12.8705C13.9866 11.9732 15.0848 11.2723 16.3482 10.7589C17.6027 10.2545 18.9509 10 20.3795 10C21.6116 10 22.808 10.1786 23.9643 10.5357C25.125 10.8929 26.1518 11.433 27.0491 12.1473C27.9464 12.8661 28.6607 13.7589 29.1964 14.8348C29.7321 15.9107 30 17.1741 30 18.625C30 19.7009 29.8527 20.6518 29.5536 21.4732C29.2545 22.2991 28.8571 22.9866 28.3571 23.5446C27.8571 24.1027 27.2902 24.5179 26.6473 24.7946C26.0045 25.0714 25.3304 25.2098 24.625 25.2098C23.9018 25.2098 23.3214 25.0402 22.8839 24.7009C22.4509 24.3616 22.2321 23.9286 22.2321 23.4107H22.0982C21.8259 23.8393 21.4107 24.25 20.8482 24.6339C20.2857 25.0179 19.5982 25.2143 18.7812 25.2143C17.5491 25.2143 16.5982 24.8125 15.9286 24.0045C15.2589 23.1964 14.9241 22.1518 14.9241 20.8571C14.9241 20.1027 15.0491 19.3616 15.3036 18.625C15.558 17.8884 15.9196 17.2366 16.3884 16.6607C16.8571 16.0893 17.4196 15.625 18.0714 15.2768C18.7232 14.9286 19.4464 14.7545 20.2455 14.7545C20.933 14.7545 21.5134 14.8973 21.9866 15.183C22.4554 15.4688 22.7634 15.8214 22.9107 16.2321H22.9375L23.1563 15.1562H25.5759L24.5089 20.2411C24.4732 20.4911 24.4241 20.7679 24.3616 21.0759C24.2991 21.3795 24.2679 21.6652 24.2679 21.9375C24.2679 22.2411 24.3259 22.4955 24.4464 22.7054C24.5625 22.9107 24.7946 23.0134 25.1384 23.0134C25.8438 23.0134 26.4286 22.6384 26.8929 21.8839C27.3527 21.1295 27.5848 20.1205 27.5848 18.8482C27.5848 17.7723 27.4018 16.817 27.0402 15.9866C26.6786 15.1518 26.1741 14.4554 25.5312 13.8884C24.8884 13.3259 24.1205 12.8973 23.2366 12.6116C22.3482 12.3259 21.3795 12.183 20.3304 12.183C19.1875 12.183 18.1429 12.3839 17.192 12.7857C16.2411 13.1875 15.4286 13.7455 14.7589 14.4509C14.0893 15.1607 13.567 15.9911 13.1964 16.9509C12.8214 17.9062 12.6339 18.942 12.6339 20.0536C12.6339 21.2366 12.8304 22.3036 13.2188 23.2545C13.6071 24.2054 14.1562 25.0134 14.8616 25.6875C15.567 26.3616 16.4107 26.875 17.3884 27.2321C18.3661 27.5893 19.4464 27.7679 20.6205 27.7679C22.0893 27.7679 23.3527 27.5357 24.4107 27.067C25.4688 26.6027 26.442 25.9554 27.3304 25.1295L28.8304 26.7455ZM20.3259 16.9643C19.8929 16.9643 19.5089 17.0893 19.183 17.3393C18.8571 17.5893 18.5804 17.9063 18.3527 18.2946C18.125 18.6786 17.9554 19.1071 17.8348 19.5714C17.7188 20.0357 17.6562 20.4866 17.6562 20.9152C17.6562 21.1295 17.6786 21.3571 17.7232 21.6027C17.7679 21.8438 17.8571 22.067 17.9955 22.2768C18.1295 22.4821 18.308 22.6518 18.5268 22.7857C18.7455 22.9196 19.0357 22.9866 19.3973 22.9866C19.8884 22.9866 20.3036 22.8661 20.6473 22.625C20.9911 22.3839 21.2723 22.0804 21.4911 21.7098C21.7098 21.3438 21.8661 20.942 21.9688 20.5134C22.067 20.0848 22.1161 19.6875 22.1161 19.3304C22.1161 19.0446 22.0893 18.7634 22.0357 18.4821C21.9821 18.2054 21.8884 17.9554 21.75 17.7277C21.6161 17.5045 21.4286 17.3214 21.192 17.1786C20.9598 17.0357 20.6696 16.9643 20.3259 16.9643Z" fill="#A83815"/>
</svg>
