<svg width="146" height="139" viewBox="0 0 146 139" fill="none" xmlns="http://www.w3.org/2000/svg">
<path d="M131.826 73.5914C115.895 66.5788 98.6757 63.1295 81.4858 63.1795C64.2656 63.2304 47.0753 66.7317 31.2849 73.5342C22.391 77.3663 13.9744 82.2194 6.1997 88.0588C5.74278 88.4002 6.01297 88.6732 6.44709 88.7279C7.0483 88.8044 7.77534 88.3995 8.23694 88.0543C21.5476 78.0522 36.9397 71.154 53.0957 67.5189C69.2025 63.894 86.0867 63.5356 102.439 66.5025C111.703 68.184 120.791 70.9376 129.476 74.7619C129.998 74.9932 130.682 74.7483 131.156 74.5066C131.282 74.4419 132.296 73.7978 131.826 73.5914Z" fill="#E7663D"/>
<path d="M9.10334 87.7733C16.8331 80.127 21.4725 69.6288 21.8116 58.5199C21.8348 57.7372 19.2488 58.4699 19.2257 59.1968C18.894 69.962 14.5415 80.3421 7.0229 87.7784C6.03099 88.7588 8.62988 88.24 9.10334 87.7733Z" fill="#E7663D"/>
<path d="M10.129 88.3614C18.8854 84.8116 28.7003 84.817 37.6615 88.0713C38.2942 88.3005 40.5697 87.0999 39.6685 86.773C29.9428 83.2418 19.2355 83.5827 9.77779 87.4175C9.51229 87.5258 8.52101 87.9135 8.68851 88.3663C8.85273 88.7992 9.90394 88.4524 10.129 88.3614Z" fill="#E7663D"/>
<path d="M34.4515 62.5707C33.8786 61.8808 33.4255 61.3207 33.0922 60.8905C32.6391 60.3304 31.2261 58.6571 28.8532 55.8704C26.5528 53.179 25.0989 51.4609 24.4916 50.716C24.4682 50.6167 24.474 50.5126 24.5089 50.4037C24.5475 50.28 24.5997 50.1986 24.6653 50.1594C24.7967 50.0811 24.9345 50.1058 25.0787 50.2336C25.635 50.9586 26.3175 51.8033 27.1263 52.7677C27.9388 53.7173 28.9919 54.9385 30.2856 56.4313C32.1158 58.5352 33.4812 60.1426 34.3816 61.2536C34.4443 57.7689 34.2122 54.8942 33.6852 52.6294C33.4781 51.7212 33.283 51.0073 33.0998 50.4875C32.9166 49.9678 32.6731 49.465 32.3696 48.9793C32.1805 48.6769 31.9251 48.3198 31.6032 47.9079C31.2907 47.4904 30.946 47.0418 30.5689 46.5622C30.5002 46.4522 30.4776 46.3336 30.501 46.2064C30.5282 46.0644 30.584 45.9682 30.6684 45.9178C30.8279 45.8227 30.9704 45.8446 31.0959 45.9836C31.6646 46.6257 32.1724 47.3041 32.6192 48.0189C33.3868 49.2469 33.9555 50.5998 34.3255 52.0776C34.6991 53.5406 34.9459 55.3057 35.0661 57.3728C35.1524 59.2211 35.1201 60.8382 34.969 62.2242C34.9387 62.4436 34.8767 62.5813 34.7829 62.6372C34.6891 62.6932 34.5786 62.671 34.4515 62.5707Z" fill="#E7663D"/>
<path d="M41.5778 58.6937C41.0674 58.945 40.5832 58.9369 40.1252 58.6694C39.677 58.397 39.3119 57.9876 39.03 57.441C38.5798 56.5684 38.2918 55.6521 38.1658 54.6921C38.0447 53.7177 38.1057 52.8339 38.3489 52.0408C38.5675 51.2478 38.991 50.6967 39.6191 50.3874C40.5222 49.9428 41.3199 50.3918 42.0124 51.7342C42.3587 52.4054 42.5995 53.1466 42.7348 53.9577C42.8701 54.7688 42.8972 55.5371 42.816 56.2624C42.7446 56.983 42.5793 57.5573 42.3202 57.9855C42.1197 58.3127 41.8722 58.5487 41.5778 58.6937ZM41.3617 57.9885C41.6659 57.8387 41.871 57.413 41.9769 56.7116C42.0926 56.0054 42.0802 55.2059 41.9396 54.3131C41.8089 53.4155 41.6051 52.6983 41.3281 52.1613C41.0412 51.6051 40.8288 51.2769 40.6908 51.1764C40.5577 51.0616 40.4322 50.9972 40.3141 50.9831C40.1961 50.9691 40.0439 51.008 39.8574 51.0998C39.6513 51.2012 39.4749 51.3843 39.3283 51.6488C39.0202 52.1492 38.8749 52.8219 38.8924 53.667C38.8965 54.9396 39.1459 56.0553 39.6406 57.0142C39.9769 57.6662 40.4008 58.0226 40.9122 58.0835C41.0842 58.083 41.2341 58.0513 41.3617 57.9885Z" fill="#E7663D"/>
<path d="M45.1687 55.4891C45.1128 55.3606 45.1096 55.2569 45.1589 55.1781C45.2083 55.0994 45.2843 55.027 45.387 54.9611C45.4781 54.9233 45.5618 54.9236 45.6382 54.9619C45.7246 54.9961 45.8362 55.0606 45.973 55.1555C46.1141 55.2604 46.2228 55.3319 46.2991 55.3703C46.3813 55.3945 46.4932 55.3773 46.6349 55.3185C46.9586 55.1843 47.1788 54.9764 47.2952 54.6948C47.4218 54.409 47.4271 54.1327 47.3112 53.8658C47.1866 53.5791 46.9949 53.3028 46.7361 53.0369C46.4773 52.7709 46.1183 52.4532 45.6593 52.0836C44.7669 51.4038 44.2069 50.802 43.9793 50.2781C43.7517 49.7543 43.7007 49.2797 43.8263 48.8543C43.9621 48.4247 44.2627 48.1135 44.7281 47.9205C45.0518 47.7862 45.3991 47.7472 45.7698 47.8035C46.1405 47.8597 46.3838 48.0213 46.4998 48.2882C46.6243 48.5748 46.5652 48.7685 46.3224 48.8691C46.2515 48.8985 46.1822 48.9039 46.1145 48.8854C46.0568 48.8626 45.997 48.8349 45.9351 48.8023C45.8689 48.7597 45.8213 48.7328 45.7925 48.7214C45.5202 48.5894 45.2728 48.5695 45.0502 48.6618C44.5544 48.8674 44.4289 49.2518 44.6737 49.8152C44.8068 50.1216 45.0028 50.4078 45.2616 50.6738C45.5205 50.9397 45.8765 51.2645 46.3298 51.6481C46.7686 52.0261 47.1174 52.348 47.3763 52.614C47.6351 52.8799 47.8268 53.1562 47.9513 53.4429C48.1703 53.947 48.1982 54.437 48.0348 54.913C47.8715 55.389 47.5215 55.7791 46.985 56.0832C46.6309 56.23 46.2708 56.2394 45.9047 56.1112C45.5342 55.9732 45.2889 55.7658 45.1687 55.4891Z" fill="#E7663D"/>
<path d="M55.022 53.2507C54.665 53.3587 54.3971 53.1307 54.2181 52.5666C54.1726 52.423 54.1582 52.2869 54.1749 52.1582C54.1721 51.9679 54.1559 51.7536 54.1263 51.5153L54.0355 50.413L53.921 48.9638C53.8666 48.4294 53.8137 47.8272 53.7622 47.157C53.7637 47.0891 53.7521 46.9802 53.7276 46.8303C53.6927 46.3575 53.6638 46.0852 53.641 46.0134L53.5922 45.8595C53.5662 45.7775 53.4758 45.6194 53.321 45.3852C53.2819 45.2621 53.2881 45.1366 53.3396 45.0086C53.4015 44.8774 53.4955 44.7928 53.6215 44.7546C53.737 44.7197 53.8611 44.7664 53.9939 44.8948C54.1267 45.0232 54.2224 45.1797 54.2809 45.3644C54.346 45.5695 54.4559 46.7503 54.6106 48.9068C54.7654 51.0632 54.8623 52.203 54.9013 52.3261C54.9371 52.4389 55.0075 52.4794 55.1125 52.4476C55.165 52.4317 55.2383 52.3365 55.3325 52.1618C55.4194 52.0006 55.5049 51.9073 55.5889 51.8819C55.7569 51.831 55.8734 51.9081 55.9385 52.1133C55.9775 52.2363 55.9431 52.3817 55.8351 52.5492C55.7272 52.7168 55.5901 52.8651 55.4239 52.9941C55.2609 53.1334 55.127 53.2189 55.022 53.2507ZM53.6649 43.4768C53.497 43.5277 53.3645 43.5453 53.2675 43.5297L53.2045 43.5488C52.9 43.6409 52.6925 43.5127 52.5818 43.1639C52.5265 42.9896 52.5496 42.8084 52.651 42.6203C52.763 42.429 52.9082 42.3064 53.0866 42.2523C53.2651 42.1983 53.4526 42.209 53.6492 42.2844C53.8829 42.4047 54.0259 42.5469 54.0779 42.711C54.1267 42.8649 54.1076 43.0224 54.0207 43.1836C53.941 43.3314 53.8224 43.4291 53.6649 43.4768Z" fill="#E7663D"/>
<path d="M62.3212 51.2243C62.1504 51.2654 62.0198 51.2636 61.9293 51.219C61.8388 51.1745 61.7846 51.0714 61.7665 50.9099L61.4 46.1545C61.3542 45.5684 61.2932 45.1241 61.217 44.8218C61.0908 44.3213 60.8837 44.1057 60.5955 44.175C60.2433 44.2597 59.9088 44.976 59.592 46.324C59.2832 47.6589 58.9925 49.1553 58.7198 50.8133L58.6218 51.3677C58.5322 51.8205 58.3914 52.07 58.1992 52.1162C58.0925 52.1419 58.0179 52.1377 57.9754 52.1037C57.9409 52.0567 57.9039 51.955 57.8645 51.7986C57.8251 51.6422 57.7297 50.3879 57.5784 48.0357C57.4377 45.681 57.3849 44.4386 57.4201 44.3085C57.4526 44.168 57.4862 44.0769 57.521 44.0354C57.5665 43.9913 57.6586 43.9525 57.7974 43.9191C57.9255 43.8883 58.0387 43.9109 58.137 43.9867C58.2461 44.06 58.3124 44.1436 58.336 44.2374C58.3518 44.3 58.3497 44.5162 58.3297 44.8859C58.2775 46.0264 58.2868 47.1189 58.3577 48.1635L58.4301 49.1247C58.517 48.7057 58.5768 48.3817 58.6096 48.1526C58.7377 47.403 58.86 46.7433 58.9767 46.1734C59.1041 45.6009 59.2674 45.0584 59.4665 44.5461C59.7706 43.7763 60.1254 43.3426 60.531 43.2451C61.246 43.0731 61.7455 43.5501 62.0292 44.6761C62.0897 44.916 62.1352 45.2312 62.1657 45.622C62.1963 46.0127 62.2241 46.4152 62.2493 46.8293C62.2917 47.6264 62.327 48.1708 62.3553 48.4626L62.4245 49.209C62.4914 49.8785 62.5256 50.3734 62.527 50.6938C62.5285 51.0141 62.4599 51.1909 62.3212 51.2243Z" fill="#E7663D"/>
<path d="M66.6133 50.3599C66.2338 50.4213 65.9303 50.3724 65.7028 50.2133C65.4862 50.0524 65.3357 49.723 65.2513 49.2251C65.2047 48.9497 65.1834 48.6266 65.1874 48.2559L65.1804 47.3265L65.2328 46.5507L65.2577 46.1059L65.3211 45.1977C65.3195 45.0565 65.3306 44.8262 65.3544 44.5067L65.3819 44.1757L65.4126 43.4688L65.4294 42.9763C65.0065 43.0446 64.6206 43.1342 64.2717 43.2451C64.0495 43.2483 63.9258 43.1758 63.9007 43.0275C63.8827 42.9216 63.909 42.8139 63.9796 42.7046C64.0502 42.5952 64.1443 42.5256 64.2618 42.4957L65.4383 42.3381C65.4383 42.3381 65.443 42.2013 65.4523 41.9277C65.4381 41.7124 65.4402 41.4617 65.4586 41.1757C65.477 40.8898 65.5171 40.633 65.5788 40.4053C65.6369 40.1565 65.7581 40.0172 65.9425 39.9874C66.116 39.9593 66.2189 40.0407 66.2512 40.2313L66.2673 40.3267C66.2598 40.5456 66.2479 40.7053 66.2315 40.8059L66.1838 42.2013L67.355 42.0119C67.767 41.9453 68.0272 41.9359 68.1356 41.9837C68.2331 42.0332 68.2899 42.1057 68.3061 42.201C68.3348 42.3705 68.2723 42.4949 68.1186 42.5742C67.974 42.6411 67.7119 42.7052 67.3324 42.7666C66.9854 42.8227 66.5977 42.869 66.1694 42.9056C66.1636 43.2657 66.1055 44.271 65.9951 45.9214C65.8922 47.4182 65.873 48.3573 65.9376 48.7386C66.0076 49.1518 66.1022 49.414 66.2213 49.5254C66.2899 49.6014 66.4109 49.6253 66.5844 49.5973C66.7362 49.5727 66.8601 49.5146 66.956 49.4229C67.0609 49.3189 67.1613 49.1884 67.2573 49.0314C67.3514 48.8638 67.4356 48.7359 67.5098 48.6477C67.584 48.5595 67.6699 48.5076 67.7675 48.4918C67.9843 48.4567 68.1107 48.5451 68.1466 48.757C68.1646 48.8629 68.0857 49.0553 67.9101 49.334C67.7345 49.6127 67.5617 49.842 67.3916 50.0218C67.2415 50.1876 66.982 50.3003 66.6133 50.3599Z" fill="#E7663D"/>
<path d="M71.8715 49.7208C71.5217 49.7568 71.2427 49.7315 71.0344 49.6449C70.825 49.5477 70.6475 49.3878 70.5019 49.1653C70.2275 48.7724 70.0587 48.2823 69.9954 47.695C69.8849 46.6698 69.9386 45.6818 70.1566 44.7308C70.3735 43.7692 70.7213 42.9452 71.1999 42.259C71.6601 41.607 72.2018 41.249 72.8248 41.1849C73.1528 41.1512 73.424 41.2582 73.6386 41.5061C73.863 41.7421 73.9953 42.047 74.0356 42.4208C74.1058 43.0722 73.9919 43.6561 73.6939 44.1726C73.4069 44.688 72.9909 45.1357 72.4461 45.5156C71.9744 45.8557 71.3933 46.207 70.703 46.5695L70.7945 47.7262C70.8911 48.6232 71.2182 49.043 71.7757 48.9857C72.0052 48.962 72.2193 48.8968 72.4177 48.7901C72.6271 48.6821 72.8495 48.5405 73.0848 48.3651C73.3615 48.1639 73.56 48.0571 73.6802 48.0448C73.8661 48.0257 73.9693 48.1122 73.99 48.3044C74.005 48.4432 73.8862 48.6228 73.6336 48.8431C73.392 49.0623 73.0983 49.2599 72.7526 49.4358C72.4057 49.6011 72.112 49.6961 71.8715 49.7208ZM70.7513 45.7871C71.4526 45.4235 71.9824 45.1099 72.3408 44.8463C72.6992 44.5827 72.9584 44.2699 73.1183 43.9079C73.2892 43.5449 73.3447 43.0857 73.2848 42.5304C73.24 42.1139 73.0372 41.9242 72.6764 41.9613C72.3594 41.9939 72.0183 42.3152 71.653 42.925C71.2658 43.537 70.9851 44.3163 70.8108 45.2628C70.7619 45.5269 70.7421 45.7017 70.7513 45.7871Z" fill="#E7663D"/>
<path d="M75.9195 49.4306C75.7658 49.4361 75.6853 49.3422 75.6781 49.1491L75.9856 47.2202L76.551 43.7994C76.8025 42.2861 76.9283 41.5295 76.9283 41.5295C76.9634 41.2919 77.0175 41.1181 77.0903 41.008C77.1632 40.898 77.2601 40.8408 77.3809 40.8365C77.4907 40.8326 77.5741 40.8565 77.6311 40.9082C77.699 40.9595 77.7355 41.0549 77.7407 41.1944C77.7499 41.4412 77.687 41.8195 77.552 42.3293C77.4844 42.5789 77.4372 42.7901 77.4107 42.9629C77.3724 43.1147 77.3293 43.2882 77.2816 43.4833C77.2335 43.6676 77.1811 43.8844 77.1244 44.1335C77.3965 43.4684 77.6572 42.938 77.9064 42.5424C78.1553 42.1359 78.4708 41.7486 78.853 41.3805C79.2149 41.056 79.5825 40.8871 79.956 40.8738C80.2306 40.8641 80.4634 40.9149 80.6546 41.0263C80.8453 41.1269 80.9435 41.2524 80.9491 41.4026C80.9535 41.5206 80.9131 41.6188 80.8281 41.697C80.7426 41.7645 80.6339 41.8006 80.5021 41.8053C80.4033 41.8088 80.3091 41.7907 80.2196 41.7509C80.1517 41.6996 80.0629 41.6759 79.953 41.6798C79.8102 41.6849 79.6051 41.7889 79.3377 41.9918C78.8351 42.375 78.4137 42.8735 78.0737 43.4873C77.7442 44.09 77.4865 44.7009 77.3006 45.3199C77.1253 45.9279 76.9383 46.6652 76.7396 47.5318L76.6135 48.1326C76.4804 48.9862 76.249 49.4189 75.9195 49.4306Z" fill="#E7663D"/>
<path d="M82.8406 49.1613C82.445 49.1534 82.1449 49.0454 81.9404 48.8372C81.7469 48.6293 81.6536 48.3589 81.6606 48.0261C81.6667 47.7363 81.6887 47.4736 81.7266 47.2381C81.7647 46.9918 81.8332 46.6119 81.9319 46.0984C82.1287 45.1035 82.3778 43.9701 82.6794 42.6981L83.1505 40.6776C84.1881 36.2843 84.7422 33.981 84.8126 33.7676C84.8712 33.5969 84.9939 33.5135 85.1807 33.5172C85.4114 33.5218 85.5242 33.6476 85.5191 33.8945L85.4443 34.3119C85.3822 34.6543 85.315 34.9752 85.2427 35.2744C85.1707 35.563 85.038 36.1241 84.8446 36.958C84.5195 38.3047 84.1039 40.0362 83.5978 42.1526C83.1026 44.2692 82.7872 45.6805 82.6514 46.3866C82.4924 47.1567 82.4108 47.6384 82.4067 47.8316C82.4033 47.9927 82.4498 48.1386 82.546 48.2694C82.6422 48.4002 82.7617 48.467 82.9045 48.4699C83.0584 48.473 83.2018 48.449 83.3348 48.398C83.479 48.3364 83.5733 48.2953 83.6177 48.2747L83.901 48.1354C83.9898 48.0942 84.0452 48.0739 84.0672 48.0743C84.3089 48.0792 84.4273 48.1997 84.4224 48.4358C84.4174 48.672 84.2596 48.8568 83.949 48.9902C83.6386 49.1129 83.2691 49.1699 82.8406 49.1613Z" fill="#E7663D"/>
<path d="M87.3966 49.3525C86.8267 49.3095 86.4167 49.0578 86.1665 48.5974C85.9272 48.1378 85.8317 47.6029 85.88 46.9926C85.957 46.0184 86.1959 45.0887 86.5966 44.2035C87.0091 43.3085 87.5295 42.5831 88.1577 42.0274C88.7648 41.4594 89.4191 41.2018 90.1205 41.2547C91.1286 41.3308 91.5735 42.1183 91.455 43.6171C91.3957 44.3665 91.2092 45.1224 90.8953 45.8849C90.5815 46.6474 90.1977 47.3185 89.744 47.8981C89.3012 48.4785 88.8555 48.8865 88.407 49.1219C88.0621 49.3005 87.7253 49.3774 87.3966 49.3525ZM87.5852 48.6398C87.9249 48.6655 88.3259 48.4049 88.788 47.8583C89.2611 47.3124 89.674 46.622 90.0266 45.787C90.3902 44.9529 90.5957 44.2361 90.6432 43.6366C90.6923 43.0156 90.6844 42.6273 90.6195 42.4717C90.5665 42.3061 90.4932 42.1875 90.3996 42.1158C90.3061 42.0441 90.1552 42.0004 89.947 41.9847C89.7168 41.9674 89.469 42.0348 89.2034 42.1871C88.6747 42.4595 88.1941 42.9617 87.7614 43.6937C87.0908 44.7847 86.7132 45.8655 86.6286 46.936C86.571 47.664 86.7449 48.1833 87.1503 48.4939C87.2978 48.5804 87.4428 48.6291 87.5852 48.6398Z" fill="#E7663D"/>
<path d="M93.5881 50.021C93.0662 49.9452 92.6813 49.6994 92.4335 49.2835C92.1981 48.8585 92.1208 48.3805 92.2015 47.8495C92.3437 46.9148 92.6646 45.9735 93.1644 45.0257C93.675 44.0794 94.2693 43.3135 94.9472 42.728C95.6143 42.1409 96.2741 41.8947 96.9264 41.9894C97.3939 42.0572 97.6732 42.2661 97.7645 42.6158C97.789 42.6737 97.8073 42.736 97.8194 42.8029C97.8331 42.8592 97.8467 42.9154 97.8604 42.9717C97.8921 43.1283 97.9336 43.2211 97.9847 43.2503C98.012 43.3628 98.0217 43.4456 98.0136 43.4987C97.9991 43.5943 97.9364 43.6775 97.8256 43.7482C97.7257 43.8206 97.6214 43.8489 97.5127 43.8331C97.2844 43.7999 97.1627 43.614 97.1475 43.2753C97.1323 42.9366 96.978 42.7459 96.6845 42.7033C96.2931 42.6465 95.8347 42.8839 95.3094 43.4156C94.7857 43.9366 94.2975 44.6256 93.8449 45.4827C93.4113 46.2882 93.1436 47.0255 93.0418 47.6946C92.898 48.6399 93.1795 49.1638 93.8862 49.2664C94.2449 49.3185 94.6016 49.202 94.9561 48.9169C94.9951 48.8791 95.0654 48.8188 95.167 48.7358C95.2701 48.6422 95.3629 48.5797 95.4455 48.5483C95.5297 48.5062 95.6044 48.4899 95.6696 48.4994C95.8762 48.5294 95.9657 48.6346 95.9383 48.8152C95.906 49.0276 95.768 49.241 95.5242 49.4553C95.2821 49.659 94.9859 49.8168 94.6355 49.9288C94.2851 50.0407 93.936 50.0715 93.5881 50.021Z" fill="#E7663D"/>
<path d="M101.63 51.6837C101.308 51.6139 101.242 51.1596 101.433 50.3211C101.533 49.8808 101.671 49.4487 101.846 49.0248C102.021 48.6008 102.269 48.0552 102.59 47.3878L102.851 46.834C102.59 47.1403 102.275 47.534 101.907 48.015C101.267 48.8 100.646 49.4738 100.045 50.0364C99.4553 50.6013 98.9403 50.836 98.5004 50.7406C97.921 50.6148 97.7588 49.9912 98.0139 48.8696C98.3309 47.4754 98.9322 45.8955 99.8179 44.1299L100.293 43.2266C100.469 42.9017 100.674 42.7648 100.91 42.816C101.039 42.844 101.11 42.9529 101.123 43.1427C101.059 43.3267 100.965 43.5428 100.841 43.7909C100.717 44.0389 100.631 44.2183 100.583 44.329C100.205 45.0499 99.8651 45.779 99.5623 46.5163C99.2619 47.243 98.9771 48.1492 98.7077 49.2346C98.6124 49.6539 98.6345 49.8787 98.7739 49.909C98.9778 49.9532 99.3039 49.782 99.7521 49.3953C100.203 48.9981 100.789 48.3773 101.51 47.5329C102.239 46.6023 102.924 45.7718 103.563 45.0415C104.204 44.3007 104.653 43.9583 104.911 44.0142C105.093 44.0538 105.162 44.1731 105.116 44.3723C105.083 44.5191 104.855 44.904 104.432 45.5271C104.111 45.9965 103.892 46.3395 103.775 46.5561C103.114 47.7325 102.566 49.0544 102.131 50.5219C102.1 50.6582 102.086 50.7653 102.091 50.8434C102.109 50.9133 102.142 50.9919 102.19 51.0792C102.248 51.1689 102.265 51.2661 102.242 51.371C102.218 51.4758 102.137 51.5573 102 51.6156C101.861 51.6843 101.737 51.707 101.63 51.6837Z" fill="#E7663D"/>
<path d="M105.893 52.4503C105.524 52.3425 105.274 52.1683 105.141 51.9276C105.019 51.6901 105.032 51.3296 105.18 50.8462C105.262 50.5787 105.388 50.2794 105.559 49.9482L105.97 49.1103L106.366 48.4359L106.589 48.0471L107.054 47.2585C107.116 47.131 107.23 46.9288 107.395 46.6521L107.569 46.3666L107.914 45.7447L108.151 45.3096C107.74 45.1894 107.353 45.1042 106.99 45.054C106.789 44.9615 106.71 44.8433 106.755 44.6993C106.786 44.5964 106.858 44.511 106.971 44.4431C107.083 44.3752 107.199 44.353 107.318 44.3766L108.446 44.7402C108.446 44.7402 108.512 44.6193 108.643 44.3776C108.727 44.178 108.842 43.9537 108.987 43.7048C109.132 43.4558 109.284 43.2423 109.442 43.0643C109.606 42.8658 109.777 42.7927 109.956 42.845C110.125 42.8943 110.181 43.0116 110.124 43.1967L110.095 43.2893C109.99 43.4827 109.908 43.6211 109.848 43.7044L109.177 44.9373L110.314 45.27C110.714 45.3871 110.952 45.4904 111.028 45.5798C111.094 45.6662 111.112 45.7556 111.084 45.8482C111.033 46.0128 110.921 46.0977 110.747 46.1029C110.587 46.1009 110.323 46.046 109.955 45.9382C109.618 45.8396 109.249 45.7148 108.847 45.5638C108.68 45.8848 108.176 46.7628 107.334 48.1979C106.568 49.4983 106.129 50.3336 106.015 50.7039C105.892 51.105 105.859 51.3812 105.916 51.5324C105.944 51.6301 106.042 51.7035 106.21 51.7528C106.357 51.796 106.495 51.7969 106.622 51.7557C106.763 51.7073 106.912 51.6332 107.069 51.5334C107.229 51.4233 107.362 51.3445 107.468 51.2972C107.575 51.2498 107.675 51.24 107.77 51.2677C107.981 51.3293 108.054 51.463 107.991 51.6687C107.96 51.7716 107.802 51.9105 107.519 52.0855C107.236 52.2604 106.978 52.3922 106.744 52.4808C106.535 52.5652 106.251 52.555 105.893 52.4503Z" fill="#E7663D"/>
<path d="M109.658 53.7759C109.514 53.7233 109.477 53.6065 109.546 53.4254L110.587 51.7592L112.452 48.8115C113.278 47.5082 113.691 46.8565 113.691 46.8565C113.817 46.6502 113.935 46.5099 114.045 46.4356C114.156 46.3612 114.268 46.3447 114.381 46.386C114.484 46.4235 114.552 46.4768 114.584 46.5459C114.627 46.6187 114.623 46.7205 114.573 46.8513C114.484 47.0827 114.278 47.4085 113.953 47.8288C113.793 48.0339 113.666 48.2113 113.574 48.3611C113.479 48.4869 113.371 48.631 113.251 48.7933C113.134 48.9455 113 49.1261 112.85 49.335C113.362 48.8226 113.811 48.4304 114.197 48.1583C114.586 47.8762 115.03 47.6367 115.527 47.4398C115.989 47.2757 116.395 47.2574 116.745 47.385C117.002 47.4789 117.197 47.613 117.33 47.7875C117.467 47.9519 117.508 48.1045 117.454 48.2454C117.412 48.356 117.336 48.4316 117.227 48.472C117.122 48.5023 117.007 48.4949 116.883 48.4499C116.791 48.4161 116.711 48.3641 116.644 48.2938C116.601 48.221 116.529 48.1658 116.426 48.1283C116.292 48.0795 116.061 48.0987 115.735 48.186C115.12 48.3516 114.535 48.6542 113.98 49.0937C113.44 49.5269 112.962 49.9946 112.547 50.4967C112.147 50.9925 111.685 51.6034 111.161 52.3294L110.809 52.8371C110.351 53.5755 109.967 53.8885 109.658 53.7759Z" fill="#E7663D"/>
<path d="M115.333 55.8099C114.99 55.6653 114.938 55.3219 115.178 54.7796C115.239 54.6416 115.318 54.529 115.417 54.4418C115.541 54.2954 115.672 54.1223 115.808 53.9224L116.472 53.0272L117.35 51.8533C117.664 51.4127 118.024 50.9214 118.431 50.3795C118.477 50.3289 118.541 50.2388 118.622 50.1092C118.91 49.7278 119.07 49.5026 119.1 49.4336L119.165 49.2857C119.2 49.2068 119.237 49.0292 119.275 48.7529C119.327 48.6346 119.415 48.5432 119.54 48.4786C119.674 48.4183 119.802 48.4136 119.923 48.4647C120.034 48.5114 120.097 48.6258 120.113 48.8077C120.128 48.9896 120.097 49.1693 120.018 49.3468C119.931 49.544 119.229 50.511 117.912 52.2479C116.594 53.9848 115.909 54.9124 115.857 55.0307C115.809 55.1392 115.836 55.2146 115.937 55.2572C115.987 55.2784 116.106 55.2526 116.294 55.1797C116.467 55.1124 116.594 55.0958 116.675 55.1298C116.837 55.1979 116.874 55.3305 116.787 55.5277C116.734 55.646 116.612 55.7345 116.418 55.7933C116.225 55.8521 116.022 55.8777 115.81 55.8702C115.593 55.8725 115.434 55.8524 115.333 55.8099ZM120.806 47.5213C120.645 47.4533 120.532 47.3825 120.469 47.3091L120.408 47.2835C120.116 47.1602 120.043 46.9309 120.191 46.5957C120.265 46.4281 120.404 46.305 120.606 46.2265C120.818 46.1523 121.01 46.1513 121.182 46.2236C121.353 46.2959 121.489 46.4231 121.588 46.6052C121.685 46.8451 121.699 47.0439 121.63 47.2017C121.564 47.3496 121.445 47.4572 121.272 47.5245C121.113 47.5861 120.958 47.5851 120.806 47.5213Z" fill="#E7663D"/>
<path d="M119.51 57.6857C119.037 57.4569 118.749 57.1075 118.643 56.6373C118.553 56.1622 118.63 55.6841 118.874 55.203C119.303 54.3562 119.904 53.5568 120.678 52.8048C121.462 52.0575 122.268 51.507 123.097 51.1534C123.917 50.7948 124.622 50.7585 125.213 51.0444C125.636 51.2493 125.837 51.5319 125.813 51.8921C125.819 51.9545 125.816 52.0194 125.807 52.0866C125.802 52.1443 125.797 52.2019 125.793 52.2596C125.774 52.4181 125.784 52.5189 125.823 52.562C125.814 52.6772 125.797 52.7589 125.773 52.8071C125.729 52.8937 125.643 52.954 125.515 52.9881C125.398 53.027 125.289 53.0226 125.191 52.9749C124.984 52.8749 124.927 52.6614 125.019 52.3345C125.111 52.0076 125.024 51.7798 124.758 51.6512C124.403 51.4796 123.893 51.568 123.225 51.9163C122.564 52.2551 121.882 52.7642 121.182 53.444C120.516 54.0803 120.029 54.7016 119.722 55.3078C119.288 56.1642 119.391 56.7473 120.031 57.057C120.356 57.2141 120.732 57.2103 121.159 57.0454C121.208 57.0212 121.294 56.9849 121.417 56.9364C121.544 56.8783 121.652 56.8467 121.741 56.8415C121.834 56.8268 121.91 56.8337 121.969 56.8623C122.157 56.9528 122.209 57.0799 122.126 57.2435C122.028 57.4359 121.83 57.5975 121.53 57.7283C121.236 57.8495 120.904 57.9107 120.536 57.9121C120.167 57.9135 119.825 57.8381 119.51 57.6857Z" fill="#E7663D"/>
<path d="M124.49 60.1978C124.185 60.0265 123.975 59.8462 123.858 59.6568C123.747 59.458 123.699 59.2268 123.714 58.9632C123.728 58.4877 123.885 57.994 124.187 57.4821C124.713 56.5884 125.349 55.8189 126.097 55.1736C126.85 54.5189 127.626 54.0508 128.426 53.7692C129.19 53.5048 129.844 53.5251 130.387 53.8302C130.673 53.9908 130.828 54.2329 130.853 54.5566C130.893 54.8764 130.817 55.1991 130.626 55.5249C130.291 56.0928 129.849 56.5005 129.297 56.7481C128.755 57.0011 128.15 57.1254 127.48 57.121C126.894 57.1261 126.212 57.0778 125.436 56.9759L124.815 57.9652C124.355 58.7471 124.368 59.2745 124.854 59.5475C125.054 59.6599 125.267 59.7297 125.491 59.7569C125.726 59.7895 125.991 59.8021 126.287 59.7949C126.632 59.7905 126.857 59.8177 126.961 59.8766C127.123 59.9676 127.155 60.0968 127.057 60.2644C126.985 60.3854 126.781 60.4628 126.444 60.4965C126.117 60.5357 125.761 60.5274 125.375 60.4718C124.995 60.4069 124.7 60.3156 124.49 60.1978ZM125.944 56.3699C126.731 56.4771 127.348 56.5267 127.797 56.5185C128.245 56.5103 128.643 56.4055 128.99 56.2039C129.346 56.0077 129.667 55.6676 129.952 55.1836C130.165 54.8205 130.115 54.5507 129.8 54.3741C129.524 54.2189 129.055 54.2836 128.393 54.5682C127.712 54.8421 127.017 55.3125 126.307 55.9792C126.109 56.1652 125.988 56.2954 125.944 56.3699Z" fill="#E7663D"/>
<path d="M128.409 60.8725C128.487 60.7557 128.573 60.6955 128.668 60.6918C128.762 60.688 128.866 60.7096 128.979 60.7563C129.062 60.8093 129.108 60.8774 129.118 60.9607C129.137 61.0499 129.144 61.1765 129.14 61.3403C129.129 61.5131 129.128 61.6412 129.138 61.7245C129.163 61.8047 129.24 61.886 129.369 61.9684C129.663 62.1567 129.962 62.2199 130.267 62.1579C130.58 62.1019 130.818 61.9526 130.981 61.7101C131.155 61.4496 131.284 61.1404 131.366 60.7823C131.449 60.4243 131.52 59.9562 131.579 59.378C131.661 58.2754 131.862 57.4861 132.182 57.0101C132.501 56.534 132.876 56.2288 133.308 56.0944C133.749 55.9659 134.181 56.0369 134.604 56.3076C134.898 56.4959 135.124 56.7562 135.283 57.0885C135.441 57.4209 135.438 57.7083 135.276 57.9508C135.101 58.2112 134.904 58.2709 134.683 58.1296C134.619 58.0885 134.575 58.0352 134.554 57.9698C134.541 57.9104 134.531 57.8464 134.525 57.778C134.524 57.7005 134.52 57.647 134.514 57.6172C134.475 57.3227 134.354 57.1107 134.152 56.9812C133.702 56.6929 133.305 56.8047 132.961 57.3167C132.775 57.5951 132.64 57.9133 132.558 58.2713C132.475 58.6294 132.397 59.0991 132.322 59.6804C132.245 60.2468 132.165 60.7091 132.082 61.0671C132 61.4251 131.871 61.7344 131.696 61.9949C131.389 62.4529 130.988 62.7479 130.492 62.8799C129.996 63.0118 129.47 62.9444 128.913 62.6778C128.591 62.4718 128.383 62.1846 128.288 61.816C128.2 61.4385 128.24 61.124 128.409 60.8725Z" fill="#E7663D"/>
</svg>
