<svg width="57" height="60" viewBox="0 0 57 60" fill="none" xmlns="http://www.w3.org/2000/svg">
<path d="M12.7459 24.5264L3.89864 29.883C0.912267 31.6911 0.00971407 35.6023 1.90767 38.5277C3.9694 41.4545 7.98727 40.7512 10.0784 39.0323L10.9705 38.3559C11.0761 39.4598 11.2452 40.5558 11.5565 41.6226C12.048 41.5384 12.541 41.4592 13.0562 41.4592C18.2795 41.4592 22.4336 45.9836 22.4336 51.3881C22.4336 52.0177 22.3649 52.6322 22.2569 53.2324C24.252 53.9888 26.3677 54.3773 28.5013 54.3789C30.636 54.3723 32.7517 53.9778 34.7457 53.2154C34.6397 52.6208 34.569 52.0121 34.569 51.3881C34.569 45.9836 38.7231 41.4592 43.9464 41.4592C44.4646 41.4592 44.9606 41.5342 45.4547 41.6226C45.7026 40.7676 45.8729 39.8958 45.9891 39.0153C47.4355 39.5182 50.3775 40.5051 51.0182 40.5237C52.5412 40.5487 54.0598 39.9917 55.0906 38.5284C56.9886 35.6031 56.0904 31.6919 53.104 29.8837L44.2567 24.5269C43.6655 25.1131 43.0399 25.676 42.3519 26.1819C40.9952 27.1795 39.4622 28.0268 37.7925 28.6942C36.6794 29.1396 35.5063 29.5015 34.2846 29.7802C33.0629 30.0587 31.7896 30.2522 30.4837 30.349C29.8307 30.399 29.1707 30.424 28.5013 30.424C26.493 30.424 24.5506 30.1997 22.718 29.782C21.4963 29.5034 20.3233 29.1407 19.2101 28.696C17.5404 28.0289 16.0074 27.181 14.6507 26.1834C13.9627 25.6772 13.3371 25.1124 12.7459 24.5264Z" fill="#EC8969"/>
<path d="M16.0476 0.083252C14.5233 0.0831517 13.0613 0.586484 11.9833 1.48272C10.9052 2.37896 10.2993 3.59471 10.2988 4.86242C10.2991 5.62268 10.5174 6.37199 10.9356 7.04803C11.3539 7.72406 11.9599 8.30736 12.7035 8.74958C11.1317 10.7691 10.3029 13.0549 10.2988 15.3817C10.3007 17.8754 11.2498 20.3191 13.0391 22.4374C14.8285 24.5556 17.3869 26.2644 20.426 27.3708C19.6149 25.885 19.4493 24.2197 19.9563 22.6476C20.53 20.8831 21.9106 19.3626 23.8169 18.3955C25.7232 17.4283 28.012 17.087 30.2171 17.4416C32.4217 17.7962 34.3771 18.8194 35.6852 20.3029C36.9934 21.7864 37.5561 23.6188 37.2588 25.4272C37.1472 26.0931 36.9209 26.743 36.5865 27.3578C39.6213 26.2515 42.1762 24.5444 43.9638 22.4287C45.7514 20.313 46.7008 17.8725 46.7051 15.3817C46.6974 13.0558 45.8657 10.7715 44.2918 8.75391C45.0377 8.31204 45.6459 7.72822 46.0657 7.05133C46.4854 6.37444 46.7047 5.62403 46.7051 4.86242C46.7046 3.59471 46.0988 2.37896 45.0207 1.48272C43.9426 0.586484 42.4806 0.0831517 40.9563 0.083252C39.8126 0.0842459 38.6952 0.36894 37.7471 0.900945C36.7991 1.43295 36.0633 2.18811 35.6341 3.06975C33.3792 2.36259 30.9534 1.99768 28.502 1.9968C26.0527 2.00125 23.6298 2.36913 21.3784 3.07841C20.9503 2.19403 20.2139 1.43617 19.264 0.902472C18.3141 0.368772 17.194 0.0835103 16.0476 0.083252ZM21.331 9.46064C21.5483 9.46064 21.7635 9.50345 21.9643 9.58662C22.1651 9.66978 22.3475 9.79153 22.5012 9.9452C22.6548 10.0989 22.7767 10.2814 22.8599 10.4822C22.9431 10.683 22.9859 10.8981 22.9859 11.1154C22.9859 11.3327 22.9431 11.548 22.8599 11.7488C22.7767 11.9496 22.6548 12.1319 22.5012 12.2855C22.3475 12.4392 22.1651 12.5612 21.9643 12.6444C21.7635 12.7275 21.5483 12.7704 21.331 12.7704C21.1137 12.7704 20.8985 12.7275 20.6978 12.6444C20.497 12.5612 20.3145 12.4392 20.1609 12.2855C20.0072 12.1319 19.8853 11.9496 19.8022 11.7488C19.719 11.548 19.6762 11.3327 19.6762 11.1154C19.6762 10.8981 19.719 10.683 19.8022 10.4822C19.8853 10.2814 20.0072 10.0989 20.1609 9.9452C20.3145 9.79153 20.497 9.66978 20.6978 9.58662C20.8985 9.50345 21.1137 9.46064 21.331 9.46064ZM35.6729 9.46064C35.8902 9.46064 36.1054 9.50345 36.3062 9.58662C36.507 9.66978 36.6894 9.79153 36.843 9.9452C36.9967 10.0989 37.1186 10.2814 37.2018 10.4822C37.2849 10.683 37.3277 10.8981 37.3277 11.1154C37.3277 11.3327 37.2849 11.548 37.2018 11.7488C37.1186 11.9496 36.9967 12.1319 36.843 12.2855C36.6894 12.4392 36.507 12.5612 36.3062 12.6444C36.1054 12.7275 35.8902 12.7704 35.6729 12.7704C35.4556 12.7704 35.2404 12.7275 35.0396 12.6444C34.8388 12.5612 34.6564 12.4392 34.5027 12.2855C34.3491 12.1319 34.2272 11.9496 34.144 11.7488C34.0609 11.548 34.0181 11.3327 34.0181 11.1154C34.0181 10.8981 34.0609 10.683 34.144 10.4822C34.2272 10.2814 34.3491 10.0989 34.5027 9.9452C34.6564 9.79153 34.8388 9.66978 35.0396 9.58662C35.2404 9.50345 35.4556 9.46064 35.6729 9.46064Z" fill="#EC8969"/>
<path d="M28.5015 21.165C27.6228 21.165 26.78 21.3393 26.1585 21.6496C25.537 21.9599 25.1878 22.3808 25.1875 22.8198C25.1879 23.1621 25.4007 23.496 25.7966 23.7754C26.1925 24.0548 26.7521 24.2659 27.3983 24.3798V28.7368C27.7654 28.7561 28.1334 28.7672 28.5015 28.7701C28.8697 28.7644 29.2376 28.7505 29.6047 28.7284V24.3801C30.2508 24.2661 30.8104 24.055 31.2063 23.7757C31.6022 23.4963 31.815 23.1623 31.8154 22.82C31.8151 22.3811 31.4658 21.9602 30.8444 21.6499C30.2229 21.3395 29.3802 21.165 28.5015 21.165Z" fill="#EC8969"/>
<path d="M20.7786 51.3833C20.7786 52.4699 20.5788 53.5458 20.1907 54.5497C19.8026 55.5536 19.2338 56.4658 18.5167 57.2341C17.7996 58.0025 16.9483 58.6117 16.0113 59.0276C15.0744 59.4434 14.0702 59.6574 13.056 59.6574C12.0419 59.6574 11.0377 59.4434 10.1007 59.0276C9.1638 58.6117 8.31247 58.0025 7.59537 57.2341C6.87827 56.4658 6.30943 55.5536 5.92133 54.5497C5.53324 53.5458 5.33349 52.4699 5.3335 51.3833C5.33351 49.1889 6.14714 47.0844 7.5954 45.5327C9.04365 43.981 11.0079 43.1091 13.056 43.1091C15.1042 43.1091 17.0684 43.981 18.5167 45.5327C19.9649 47.0844 20.7786 49.1889 20.7786 51.3833Z" fill="#EC8969"/>
<path d="M51.6687 51.3833C51.6687 52.4699 51.469 53.5458 51.0809 54.5497C50.6928 55.5536 50.1239 56.4658 49.4068 57.2341C48.6897 58.0025 47.8384 58.6117 46.9015 59.0276C45.9645 59.4434 44.9603 59.6574 43.9462 59.6574C42.932 59.6574 41.9278 59.4434 40.9909 59.0276C40.0539 58.6117 39.2026 58.0025 38.4855 57.2341C37.7684 56.4658 37.1996 55.5536 36.8115 54.5497C36.4234 53.5458 36.2236 52.4699 36.2236 51.3833C36.2236 49.1889 37.0373 47.0844 38.4855 45.5327C39.9338 43.981 41.898 43.1091 43.9462 43.1091C45.9943 43.1091 47.9586 43.981 49.4068 45.5327C50.8551 47.0844 51.6687 49.1889 51.6687 51.3833Z" fill="#EC8969"/>
</svg>
