<svg width="87" height="65" viewBox="0 0 87 65" fill="none" xmlns="http://www.w3.org/2000/svg">
<path id="Vector" d="M13.6069 10.2207C6.57643 10.2207 0.824219 15.973 0.824219 23.0034V51.4094C0.824219 58.4399 6.57643 64.1921 13.6069 64.1921C20.6374 64.1921 26.3896 58.4399 26.3896 51.4094V23.0034C26.3896 15.973 20.6374 10.2207 13.6069 10.2207ZM22.1287 37.2064H11.4765C10.2692 37.2064 9.34602 38.1296 9.34602 39.3369V51.6225C9.34602 53.966 11.2634 55.6703 13.6069 55.6703C14.8142 55.6703 15.8084 56.7355 15.7374 57.9428C15.6663 59.1501 14.5301 59.9312 13.3939 59.9312C8.7779 59.7892 5.08512 56.0254 5.08512 51.4094V37.2064V23.2875C5.08512 18.8846 8.35181 14.9787 12.7547 14.5526C17.8678 14.0555 22.1287 18.0324 22.1287 23.0034V37.2064ZM82.4204 23.9976L62.3232 3.90041C57.3521 -1.07064 49.2564 -1.07064 44.2144 3.90041C39.1723 8.87145 39.2433 16.9672 44.2144 22.0092L64.3116 42.1065C69.2827 47.0775 77.3784 47.0775 82.4204 42.1065C87.4625 37.1354 87.3915 28.9687 82.4204 23.9976ZM78.7987 39.6209C75.3899 42.4615 70.3479 42.0354 67.1522 38.9108L57.2811 29.0397L47.268 18.9556C44.0013 15.6889 43.9303 10.4338 47.126 7.09608C47.9071 6.2439 49.2564 6.03085 50.1796 6.81202C51.1028 7.59318 51.1738 9.0845 50.3217 9.93668C48.6883 11.57 48.5463 14.1976 50.1796 15.8309L58.8435 24.4947C59.6956 25.3469 61.0449 25.3469 61.8261 24.4947L69.3537 16.9672L79.3668 26.9803C82.9175 30.531 82.7045 36.3542 78.7987 39.6209Z" fill="#A83815"/>
</svg>
