<svg width="86" height="65" viewBox="0 0 86 65" fill="none" xmlns="http://www.w3.org/2000/svg">
<path id="Vector" d="M9.14032 57.6523C8.07332 57.6523 7.36198 58.3636 7.36198 59.4306V62.9873C7.36198 64.0543 8.07332 64.7656 9.14032 64.7656C10.2073 64.7656 10.9187 64.0543 10.9187 62.9873V59.4306C10.9187 58.3636 10.2073 57.6523 9.14032 57.6523ZM23.367 57.6523C22.3 57.6523 21.5886 58.3636 21.5886 59.4306V62.9873C21.5886 64.0543 22.3 64.7656 23.367 64.7656C24.434 64.7656 25.1453 64.0543 25.1453 62.9873V59.4306C25.1453 58.3636 24.434 57.6523 23.367 57.6523ZM37.5937 57.6523C36.5266 57.6523 35.8153 58.3636 35.8153 59.4306V62.9873C35.8153 64.0543 36.5266 64.7656 37.5937 64.7656C38.6606 64.7656 39.372 64.0543 39.372 62.9873V59.4306C39.372 58.3636 38.6606 57.6523 37.5937 57.6523ZM51.8203 57.6523C50.7533 57.6523 50.042 58.3636 50.042 59.4306V62.9873C50.042 64.0543 50.7533 64.7656 51.8203 64.7656C52.8873 64.7656 53.5986 64.0543 53.5986 62.9873V59.4306C53.5986 58.3636 52.8873 57.6523 51.8203 57.6523ZM66.047 57.6523C64.98 57.6523 64.2687 58.3636 64.2687 59.4306V62.9873C64.2687 64.0543 64.98 64.7656 66.047 64.7656C67.114 64.7656 67.8253 64.0543 67.8253 62.9873V59.4306C67.8253 58.3636 67.114 57.6523 66.047 57.6523ZM83.8303 4.30227C84.8973 4.30227 85.6087 3.59094 85.6087 2.52394C85.6087 1.45694 84.8973 0.745605 83.8303 0.745605H51.8203C30.4803 0.745605 16.965 21.3743 4.16098 44.4926L0.604317 51.6059C0.248651 52.3173 0.248651 53.3843 1.31565 54.0956H76.717C77.784 54.0956 78.4953 53.3843 78.4953 52.3173C78.4953 51.9616 78.4953 51.6059 78.1396 51.6059L74.583 44.8483C74.583 40.5803 78.1397 37.0236 82.4077 36.3123C83.119 36.3123 84.186 36.3123 84.8973 35.6009C85.253 35.2453 85.253 34.5339 85.253 34.1783L78.851 4.30227H83.8303ZM60.712 30.9773C60.712 29.9103 59.645 29.1989 58.578 29.1989L47.908 30.9773C46.841 30.9773 46.1297 32.0443 46.4853 33.1113L26.9236 36.3123C25.8566 36.3123 25.1453 35.6009 25.1453 34.5339C25.1453 34.1783 25.1453 33.8226 25.501 33.4669C32.97 21.3743 40.439 11.4156 51.8203 11.4156H67.8253C68.5367 11.4156 69.248 12.1269 69.6037 12.8383L73.1603 27.0649C73.516 28.1319 72.8047 28.8433 71.7377 29.1989L60.712 30.9773ZM4.87232 50.5389L6.65065 46.9823H72.0933L73.8717 50.5389H4.87232Z" fill="#D5471A"/>
</svg>
