<svg width="178" height="178" viewBox="0 0 178 178" fill="none" xmlns="http://www.w3.org/2000/svg">
<g filter="url(#filter0_d_98_594)">
<circle cx="89" cy="85.3375" r="61.8675" fill="#F3F2F2"/>
<path d="M86.453 117.823C87.0185 115.898 88.5328 109.847 86.9611 104.612C83.8334 94.18 75.7202 93.2408 68.5439 82.0989C68.1008 81.4112 67.5829 81.8075 67.3806 82.0619C63.8943 86.4495 70.5679 96.8577 70.5679 96.8577C63.1477 93.8078 58.2203 86.6285 56.5769 78.824C56.0922 76.5193 55.3184 74.099 53.2552 72.7386C52.4904 72.2358 51.1399 72.4253 51.0961 73.5494C49.7425 109.217 80.3079 117.201 85.5131 118.301C85.8808 118.38 86.2598 118.346 86.453 117.823ZM91.1403 117.823C90.5764 115.898 89.0628 109.847 90.6338 104.612C93.7614 94.18 101.872 93.2408 109.051 82.0989C109.494 81.4112 110.012 81.8075 110.214 82.0619C113.701 86.4495 107.027 96.8577 107.027 96.8577C114.447 93.8078 119.375 86.6285 121.018 78.824C121.503 76.5193 122.276 74.099 124.34 72.7386C125.104 72.2358 126.455 72.4253 126.499 73.5494C127.852 109.217 97.2854 117.201 92.0817 118.301C91.7118 118.38 91.3344 118.346 91.1403 117.823Z" fill="#E7663D"/>
<path fill-rule="evenodd" clip-rule="evenodd" d="M105.5 78.1499C102.921 75.5651 100.397 73.0338 97.8571 70.4897C97.2086 69.8397 96.604 69.1407 95.9479 68.5745C95.4161 68.1036 94.7673 67.7847 94.0697 67.6512C92.6798 68.5986 90.9473 69.2343 88.7527 69.2343C86.6087 69.2343 84.9124 68.5971 83.5513 67.6761C82.7601 67.8286 82.1713 68.1479 81.633 68.6107C80.9778 69.1769 80.3723 69.8752 79.7253 70.5259C77.1843 73.07 74.6598 75.6013 72.0817 78.1854C71.477 78.7909 70.6828 79.5662 70.6753 80.6065V80.7325C70.7364 81.5033 71.0256 81.991 71.4687 82.3949C71.899 82.7867 72.5098 83.0781 73.2888 83.0275C74.0936 82.9747 74.6877 82.5745 75.1935 82.0989C75.2652 82.0318 77.3979 79.8417 77.6719 79.5639C78.6699 78.5515 79.6763 77.5271 80.6705 76.5457C80.7641 76.4536 81.0057 76.2022 81.0442 76.1849C81.0592 76.1775 81.0763 76.1757 81.0925 76.1796C81.0925 78.0223 81.1106 86.9093 81.1106 86.9093C81.1106 91.1716 84.544 94.6262 88.7776 94.6262C91.0568 94.6262 93.0981 93.6198 94.5022 92.0307L94.5151 92.0171C94.6396 91.876 94.7574 91.7303 94.8722 91.5793C94.9197 91.5181 94.965 91.4562 95.0103 91.3943C95.2099 91.1136 95.3917 90.8206 95.5546 90.5171C96.1562 89.3967 96.471 88.1448 96.4711 86.8731C96.4711 86.8731 96.4884 78.0903 96.4884 76.1781C97.4972 77.165 98.5008 78.1572 99.4991 79.1547C99.9256 79.5798 102.235 81.9344 102.549 82.2069C103.02 82.6161 103.571 82.9414 104.294 82.9898C104.624 83.0151 104.956 82.972 105.269 82.8633C105.583 82.7546 105.87 82.5826 106.114 82.3579C106.557 81.954 106.845 81.4656 106.907 80.6955V80.5695C106.899 79.5307 106.105 78.7546 105.5 78.1499ZM88.6546 52.3413H88.9241C88.9286 52.3557 88.94 52.3624 88.9596 52.3602C90.092 52.3655 91.0598 52.6599 91.8804 53.0464C92.6836 53.4239 93.4401 53.9236 94.0093 54.5449C95.1205 55.7634 96.1276 57.4476 96.0627 59.7313C96.0015 62.0179 95.1137 63.5897 93.8998 64.8074C92.7033 66.007 91.0651 66.9212 88.7618 66.9212C86.4668 66.9212 84.8392 65.9685 83.6615 64.79C82.4642 63.5889 81.5507 61.9862 81.5168 59.6935C81.482 57.4106 82.4619 55.7513 83.589 54.5268C84.1552 53.9123 84.9109 53.405 85.7142 53.0275C86.5423 52.6418 87.5267 52.3813 88.6546 52.3413Z" fill="#E7663D"/>
</g>
<defs>
<filter id="filter0_d_98_594" x="0.620321" y="0.492796" width="176.759" height="176.759" filterUnits="userSpaceOnUse" color-interpolation-filters="sRGB">
<feFlood flood-opacity="0" result="BackgroundImageFix"/>
<feColorMatrix in="SourceAlpha" type="matrix" values="0 0 0 0 0 0 0 0 0 0 0 0 0 0 0 0 0 0 127 0" result="hardAlpha"/>
<feOffset dy="3.53495"/>
<feGaussianBlur stdDeviation="13.2561"/>
<feComposite in2="hardAlpha" operator="out"/>
<feColorMatrix type="matrix" values="0 0 0 0 0 0 0 0 0 0 0 0 0 0 0 0 0 0 0.25 0"/>
<feBlend mode="normal" in2="BackgroundImageFix" result="effect1_dropShadow_98_594"/>
<feBlend mode="normal" in="SourceGraphic" in2="effect1_dropShadow_98_594" result="shape"/>
</filter>
</defs>
</svg>
