<svg width="74" height="65" viewBox="0 0 74 65" fill="none" xmlns="http://www.w3.org/2000/svg">
<g id="Group 223">
<path id="Vector" d="M28.7009 25.8324C28.7009 20.2602 24.1722 15.7314 18.6 15.7314C13.0279 15.7314 8.49902 20.2602 8.49902 25.8324C8.49902 31.4045 13.0279 35.9332 18.6 35.9332C24.1722 35.9332 28.7009 31.4045 28.7009 25.8324Z" fill="#EC8969"/>
<path id="Vector_2" d="M58.245 16.1821H33.3956C31.4277 16.1821 29.839 17.7707 29.839 19.7387V37.4746H7.36089V3.876C7.36089 1.90793 5.77229 0.319336 3.80423 0.319336C1.83616 0.319336 0.247559 1.90793 0.247559 3.876V60.7827C0.247559 62.7506 1.83616 64.3393 3.80423 64.3393C5.77229 64.3393 7.36089 62.7506 7.36089 60.7827V55.6373H66.6387V60.7827C66.6387 62.7506 68.2273 64.3393 70.1953 64.3393C72.1634 64.3393 73.752 62.7506 73.752 60.7827L73.6572 31.5943C73.6572 23.082 66.7572 16.1821 58.245 16.1821Z" fill="#EC8969"/>
</g>
</svg>
