<svg width="108" height="22" viewBox="0 0 108 22" fill="none" xmlns="http://www.w3.org/2000/svg">
<path d="M11.2 0.205078L13.6023 7.59859H21.3763L15.087 12.168L17.4893 19.5616L11.2 14.9921L4.9107 19.5616L7.31299 12.168L1.02369 7.59859H8.7977L11.2 0.205078Z" fill="#FCDB28"/>
<path d="M32.5999 0.205078L35.0022 7.59859H42.7762L36.4869 12.168L38.8892 19.5616L32.5999 14.9921L26.3106 19.5616L28.7129 12.168L22.4236 7.59859H30.1976L32.5999 0.205078Z" fill="#FCDB28"/>
<path d="M54 0.205078L56.4023 7.59859H64.1763L57.887 12.168L60.2893 19.5616L54 14.9921L47.7107 19.5616L50.113 12.168L43.8237 7.59859H51.5977L54 0.205078Z" fill="#FCDB28"/>
<path d="M75.3999 0.205078L77.8022 7.59859H85.5762L79.2869 12.168L81.6892 19.5616L75.3999 14.9921L69.1106 19.5616L71.5129 12.168L65.2236 7.59859H72.9976L75.3999 0.205078Z" fill="#FCDB28"/>
<path d="M96.8001 0.205078L99.2024 7.59859H106.976L100.687 12.168L103.089 19.5616L96.8001 14.9921L90.5108 19.5616L92.9131 12.168L86.6238 7.59859H94.3978L96.8001 0.205078Z" fill="#FCDB28"/>
</svg>
