<svg width="17" height="10" viewBox="0 0 17 10" fill="none" xmlns="http://www.w3.org/2000/svg">
<path id="Vector" fill-rule="evenodd" clip-rule="evenodd" d="M16.3385 0.419387C16.6618 0.755134 16.6618 1.29813 16.3385 1.63305L9.48756 8.73182C9.33655 8.89073 9.15479 9.01726 8.95335 9.10372C8.7519 9.19018 8.53498 9.23476 8.31576 9.23476C8.09654 9.23476 7.87962 9.19018 7.67817 9.10372C7.47673 9.01726 7.29497 8.89073 7.14396 8.73182L0.242491 1.58165C0.0882528 1.41938 0.00156054 1.20448 2.08273e-05 0.980604C-0.00151889 0.756728 0.0822094 0.540659 0.234201 0.376278C0.30926 0.294846 0.400236 0.22969 0.501497 0.184845C0.602758 0.139999 0.712147 0.116419 0.82289 0.115564C0.933634 0.114709 1.04337 0.136598 1.14532 0.179875C1.24726 0.223152 1.33923 0.286896 1.41553 0.367159L7.73007 6.91133C7.80558 6.99084 7.89648 7.05416 7.99724 7.09743C8.098 7.1407 8.20652 7.16302 8.31618 7.16302C8.42583 7.16302 8.53434 7.1407 8.63511 7.09743C8.73587 7.05416 8.82677 6.99084 8.90228 6.91133L15.1671 0.419387C15.2425 0.339894 15.3333 0.276589 15.434 0.23333C15.5347 0.19007 15.6432 0.167761 15.7528 0.167761C15.8624 0.167761 15.9708 0.19007 16.0715 0.23333C16.1722 0.276589 16.263 0.339894 16.3385 0.419387Z" fill="#1B1918"/>
</svg>
