<svg width="45" height="65" viewBox="0 0 45 65" fill="none" xmlns="http://www.w3.org/2000/svg">
<path d="M27.1265 17.2752V17.8378C27.139 17.8378 27.1515 17.8378 27.164 17.8378H33.3284C33.3409 17.8378 33.3659 17.8378 33.3784 17.8378V17.2752C33.3784 8.20982 26.0011 0.83252 16.9358 0.83252C7.87047 0.83252 0.493164 8.20982 0.493164 17.2752V64.2273C0.493164 64.5774 0.76825 64.8525 1.11836 64.8525H6.11992C6.47003 64.8525 6.74512 64.5774 6.74512 64.2273V17.2752C6.74512 11.6609 11.3215 7.08447 16.9358 7.08447C22.5501 7.08447 27.1265 11.6609 27.1265 17.2752Z" fill="#A83815"/>
<path d="M40.6679 25.8402H19.8364C20.1615 22.0766 23.325 19.0881 27.1762 19.0881H33.3406C37.1793 19.0881 40.3428 22.0766 40.6679 25.8402Z" fill="#A83815"/>
<path d="M44.507 27.0908H15.998V31.2171H44.507V27.0908Z" fill="#A83815"/>
<path d="M19.7494 61.3515H18.499V57.6003H19.7494V61.3515ZM19.7494 53.8491H18.499V50.0979H19.7494V53.8491ZM19.7494 46.3468H18.499V42.5956H19.7494V46.3468ZM19.7494 38.8444H18.499V35.0933H19.7494V38.8444ZM25.2511 64.2274H24.0007V60.6012H25.2511V64.2274ZM25.2511 56.3499H24.0007V52.0986H25.2511V56.3499ZM25.2511 47.8472H24.0007V43.5959H25.2511V47.8472ZM25.2511 39.3446H24.0007V35.0933H25.2511V39.3446ZM30.8779 61.3515H29.6275V57.6003H30.8779V61.3515ZM30.8779 53.8491H29.6275V50.0979H30.8779V53.8491ZM30.8779 46.3468H29.6275V42.5956H30.8779V46.3468ZM30.8779 38.8444H29.6275V35.0933H30.8779V38.8444ZM36.3796 64.2274H35.1292V60.6012H36.3796V64.2274ZM36.3796 56.3499H35.1292V52.0986H36.3796V56.3499ZM36.3796 47.8472H35.1292V43.5959H36.3796V47.8472ZM36.3796 39.3446H35.1292V35.0933H36.3796V39.3446ZM41.8813 61.3515H40.6309V57.6003H41.8813V61.3515ZM41.8813 53.8491H40.6309V50.0979H41.8813V53.8491ZM41.8813 46.3468H40.6309V42.5956H41.8813V46.3468ZM41.8813 38.8444H40.6309V35.0933H41.8813V38.8444Z" fill="#A83815"/>
</svg>
