<svg xmlns="http://www.w3.org/2000/svg" viewBox="0 0 817 2048" width="817" height="2048"><g xmlns="http://www.w3.org/2000/svg" transform="matrix(0 1 -1 0 817 -0)"><g clip-path="url(#clip0_1530_3625)"><mask id="mask0_1530_3625" style="mask-type:luminance" maskUnits="userSpaceOnUse" x="0" y="0" width="1903" height="682"><path d="M0 0L1902.31 0V681.828H0L0 0Z" fill="white" /></mask><g mask="url(#mask0_1530_3625)"><path d="M-60.3955 532.714C672.743 965.233 1368.74 326.595 1591.66 157.564C1814.57 -11.4677 1985.45 -68.7618 1985.45 -68.7618V-194.816H-60.3955V532.714Z" fill="#E7663D" /></g><path d="M434.862 -175.415C434.862 -175.415 305.89 118.358 542.307 298.931C778.724 479.504 1405.57 35.1932 1627.67 45.9968C1849.76 56.7254 2045.51 342.158 2045.51 342.158V-175.415H434.862Z" fill="white" fill-opacity="0.69" /><path d="M711.608 -128.464C713.57 225.473 1201.04 280.153 1501.94 278.485C1802.83 276.817 2047.87 766.355 2048.13 812.92L2042.87 -135.845L711.608 -128.464Z" fill="#F2AD97" fill-opacity="0.59" /><path d="M0 343.776C312.575 -24.7448 576.037 423.664 929.634 454.947C1283.16 486.23 2046.77 51.7064 2046.77 51.7064V-175.415H0L0 343.776Z" fill="white" fill-opacity="0.41" /></g><defs><clipPath id="clip0_1530_3625"><rect width="2048" height="817" fill="white" /></clipPath></defs></g></svg>