<svg width="38" height="39" viewBox="0 0 38 39" fill="none" xmlns="http://www.w3.org/2000/svg">
<rect x="0.499023" y="0.607422" width="37.4991" height="37.4955" rx="18.7477" fill="#F3F2F2"/>
<path d="M31.5107 16.811C31.5658 15.2158 31.2169 13.6326 30.4965 12.2083C30.0076 11.6239 29.3292 11.2295 28.5794 11.0939C25.4782 10.8125 22.3641 10.6972 19.2505 10.7484C16.1483 10.6948 13.0454 10.8064 9.95504 11.0827C9.34405 11.1938 8.77863 11.4804 8.32777 11.9074C7.32466 12.8324 7.21321 14.4149 7.10175 15.7523C6.94004 18.1568 6.94004 20.5695 7.10175 22.974C7.134 23.7267 7.24608 24.4738 7.43612 25.2029C7.57051 25.7658 7.8424 26.2865 8.22746 26.7186C8.68139 27.1682 9.25998 27.471 9.88816 27.5878C12.2911 27.8844 14.7122 28.0073 17.1328 27.9556C21.0338 28.0113 24.4555 27.9556 28.5014 27.6436C29.145 27.5339 29.7399 27.2307 30.2067 26.7743C30.5187 26.4621 30.7518 26.0801 30.8865 25.6598C31.2851 24.4368 31.4809 23.1569 31.4661 21.8707C31.5107 21.2466 31.5107 17.4797 31.5107 16.811ZM16.7316 22.5393V15.6408L23.3298 19.1068C21.4796 20.1321 19.0387 21.2911 16.7316 22.5393Z" fill="#1B1918"/>
</svg>
