<svg width="43" height="66" viewBox="0 0 43 66" fill="none" xmlns="http://www.w3.org/2000/svg">
<path d="M29.7876 6.35889C38.99 14.4832 44.1219 31.9999 41.2782 46.5614L34.9959 46.5779" fill="#EC8969"/>
<path fill-rule="evenodd" clip-rule="evenodd" d="M24.4328 5.42969C22.6072 7.96777 19.5941 9.45883 16.391 9.41547C15.1891 12.5421 12.0625 14.8964 8.15521 15.6109C5.22268 15.8299 2.79405 17.7463 2.11874 20.3608C1.44343 22.9774 2.67423 25.6972 5.16688 27.0932C7.65953 28.4893 10.844 28.2435 13.0496 26.4861L12.3103 25.7467C16.7814 28.2084 22.9707 27.5889 26.4732 24.3301L24.9821 25.5485C22.9479 28.1816 22.8179 30.319 15.3647 32.1962C7.91152 34.0735 5.09667 42.1462 6.6001 48.6886L10.2286 48.6783V54.8387H28.8213L28.8192 48.6308L33.282 48.6246C39.1264 35.8247 38.1145 20.3794 30.8802 9.41751" fill="#EC8969"/>
<path d="M9.22506 22.8493C7.65815 23.996 5.92365 25.0253 4.0498 25.9202M19.239 15.6006H21.3042" stroke="#EC8969" stroke-linecap="round" stroke-linejoin="round"/>
<path fill-rule="evenodd" clip-rule="evenodd" d="M11.2651 49.6592V51.7243H27.7864V49.6592H11.2651Z" fill="#EC8969"/>
<path fill-rule="evenodd" clip-rule="evenodd" d="M21.459 48.6783L28.8192 48.6308L33.282 48.6246C39.1265 35.8247 38.1145 20.3794 30.8803 9.41748C38.8952 39.3334 21.459 48.6783 21.459 48.6783Z" fill="#EC8969"/>
<path d="M29.7876 6.35889C38.99 14.4832 44.1219 31.9999 41.2782 46.5614L34.9959 46.5779" stroke="#EC8969" stroke-linecap="round" stroke-linejoin="round"/>
<path opacity="0.421" fill-rule="evenodd" clip-rule="evenodd" d="M27.4315 24.3301L24.9822 25.5485C22.948 28.1816 22.8179 30.319 15.3647 32.1962C7.91158 34.0735 5.09672 42.1462 6.60016 48.6886L13.3904 48.6783C15.3936 33.138 25.7194 37.2683 27.4315 24.3301ZM24.4328 5.42969C22.6072 7.96777 19.5941 9.45883 16.3911 9.41547C15.1892 12.5421 12.0626 14.8964 8.15527 15.6109C5.22274 15.8299 2.7941 17.7463 2.1188 20.3608C1.81315 21.5462 2.08987 23.7022 3.0068 24.8938C4.02699 16.6167 25.7194 15.6956 24.4328 5.42969Z" fill="#EC8969"/>
<path d="M24.4328 5.42969C22.6072 7.96777 19.5941 9.45883 16.391 9.41547C15.1891 12.5421 12.0625 14.8964 8.15521 15.6109C5.22268 15.8299 2.79405 17.7463 2.11874 20.3608C1.44343 22.9774 2.67423 25.6972 5.16688 27.0932C7.65953 28.4893 10.844 28.2435 13.0496 26.4861L12.3103 25.7467C16.7814 28.2084 22.9707 27.5889 26.4732 24.3301L24.9821 25.5485C22.9479 28.1816 22.8179 30.319 15.3647 32.1962C7.91152 34.0735 5.09667 42.0904 6.6001 48.6329L10.2286 48.6226V54.8387H28.8213L28.8192 48.6308L33.282 48.6246C39.1264 35.8247 38.1145 20.3794 30.8802 9.41751L24.4328 5.42969Z" stroke="#EC8969" stroke-linecap="round" stroke-linejoin="round"/>
<path d="M9.2002 48.6265H29.8518" stroke="#EC8969"/>
<path d="M30.5686 13.5292C31.9874 8.07308 28.5385 2.54257 22.6797 1.12793C23.2992 1.86106 23.9931 3.2819 24.3814 4.93815C24.7717 6.59235 24.8068 8.26511 24.4743 9.39475" fill="#EC8969"/>
<path d="M30.5686 14.1095C31.9874 8.65337 28.5385 2.54463 22.6797 1.12793C23.2992 1.86106 28.8338 5.38009 29.6103 13.4239" fill="#EC8969"/>
<path opacity="0.421" d="M24.9658 10.2685C27.3841 9.3722 27.0247 5.08905 23.8774 1.93555C24.276 2.81118 24.8749 4.31051 24.4061 10.4131L24.9658 10.2685Z" fill="#EC8969"/>
<path d="M30.5686 13.5292C31.9874 8.07308 28.5385 2.54257 22.6797 1.12793C23.2992 1.86106 23.9931 3.2819 24.3814 4.93815C24.7717 6.59235 24.8068 8.26511 24.4743 9.39475" stroke="#EC8969" stroke-linecap="round" stroke-linejoin="round"/>
<path d="M4.29547 58.9648C2.43269 58.9648 0.9375 60.2349 0.9375 61.8148V62.3001L0.94166 62.3538H0.9375V65.1479H38.1104V62.3538H38.1063L38.1104 62.3001V61.8127C38.1104 60.2349 36.6173 58.9648 34.7545 58.9648H4.29339H4.29547Z" fill="#EC8969" stroke="#EC8969" stroke-linecap="round"/>
<path fill-rule="evenodd" clip-rule="evenodd" d="M7.34573 59.9707H11.4761C10.7946 60.7266 10.5549 61.4535 10.526 62.1598C10.4992 62.8495 10.555 63.1924 10.555 64.101H6.27389C6.27389 62.9074 6.24497 62.6967 6.26355 61.9946C6.28421 61.3192 6.64565 60.646 7.34573 59.9707Z" fill="#EC8969"/>
<path d="M30.7791 52.7695H8.40927C6.69843 52.7695 5.31152 54.1564 5.31152 55.8673C5.31152 57.5781 6.69843 58.965 8.40927 58.965H30.7791C32.4899 58.965 33.8768 57.5781 33.8768 55.8673C33.8768 54.1564 32.4899 52.7695 30.7791 52.7695Z" fill="#EC8969" stroke="#EC8969"/>
<path opacity="0.11" fill-rule="evenodd" clip-rule="evenodd" d="M9.38229 53.8018H13.5126C12.1868 55.2701 12.3004 56.6393 13.5126 57.9321H9.38229C7.92428 56.5546 7.95113 55.1792 9.38229 53.8018ZM14.9913 53.8018H16.4637C15.1399 55.2701 15.2535 56.6393 16.4637 57.9321H14.9933C13.5353 56.5546 13.5601 55.1792 14.9913 53.8018Z" fill="#EC8969"/>
<path fill-rule="evenodd" clip-rule="evenodd" d="M13.023 59.9707H14.6276C13.9461 60.7266 13.7065 61.4535 13.6776 62.1598C13.6508 62.8495 13.7065 63.1924 13.7065 64.101H11.9511C11.9511 62.9074 11.9222 62.6967 11.9408 61.9946C11.9615 61.3192 12.3229 60.646 13.023 59.9707Z" fill="#EC8969"/>
<path fill-rule="evenodd" clip-rule="evenodd" d="M30.2131 53.8018H27.9414C29.2652 55.2701 29.1516 56.6393 27.9414 57.9321H30.2131C31.6711 56.5546 31.6443 55.1792 30.2131 53.8018Z" fill="#EC8969"/>
<path fill-rule="evenodd" clip-rule="evenodd" d="M33.5462 59.9707H30.7148C31.3963 60.7266 31.636 61.4535 31.6649 62.1598C31.6917 62.8495 31.6359 63.1924 31.6359 64.101H34.618C34.618 62.9074 34.647 62.6967 34.6284 61.9946C34.6077 61.3192 34.2463 60.646 33.5462 59.9707Z" fill="#EC8969"/>
<path fill-rule="evenodd" clip-rule="evenodd" d="M8.3741 53.1907C8.07465 53.4922 7.1123 53.8227 7.1123 53.8227C7.1123 53.8227 8.0788 54.1593 8.37618 54.4546C8.6715 54.752 9.00812 55.7082 9.00812 55.7082C9.00812 55.7082 9.34268 54.752 9.64006 54.4546C9.93744 54.1593 10.9039 53.8227 10.9039 53.8227C10.9039 53.8227 9.94157 53.4922 9.64006 53.1907C9.33855 52.8892 9.00812 51.8979 9.00812 51.8979C9.00812 51.8979 8.6777 52.8892 8.37618 53.1907H8.3741Z" fill="#EC8969"/>
</svg>
