<svg width="1379" height="2565" viewBox="0 0 1379 2565" fill="none" xmlns="http://www.w3.org/2000/svg">
<path d="M1369.66 2C1208.16 2 1056.27 59.6601 910.568 125.776C789.382 180.768 672.311 243.135 575.509 335.537C517.137 391.255 459.864 454.402 432.203 531.854C411.604 589.531 414.301 660.805 445.899 713.714C486.81 782.216 563.561 811.489 639.68 821.004C793.976 840.291 949.257 818.729 1098.01 871.985C1242.67 923.778 1342.93 1053.23 1367.63 1204.76C1377.66 1266.34 1381.32 1335.21 1370.16 1396.77C1355.27 1478.98 1294.24 1551.37 1240.81 1612.11C1105.42 1766.01 913.255 1873.9 715.772 1924.59C577.731 1960.02 425.391 1973.55 283.062 1969.99C245.029 1969.04 207.599 1960.99 192.766 1922.06C157.301 1828.96 220.875 1722.51 277.989 1653.7C366.882 1546.62 483.079 1464.2 620.911 1437.6C708.152 1420.77 819.616 1407.05 898.393 1458.4C995.706 1521.83 1012.11 1667.71 941.512 1755.67C878.097 1834.68 800.611 1909.41 713.997 1962.38C625.146 2016.73 525.122 2046.82 426.115 2076.52C392.709 2086.54 333.342 2096.03 313.245 2130.04C290.45 2168.62 305.639 2223.14 321.869 2260.41C349.25 2323.28 409.847 2365.79 476.843 2375.56C570.81 2389.27 647.301 2354.23 721.606 2298.71C794.462 2244.28 862.092 2178.63 944.048 2137.65C1012.49 2103.43 1079.07 2092.74 1154.06 2084.89C1196.11 2080.49 1254.74 2101.98 1273.78 2143.23C1290.22 2178.85 1290.29 2228.15 1286.46 2265.99C1281.61 2313.9 1254.59 2364.51 1226.35 2402.45C1184.01 2459.33 1120.41 2523 1050.58 2543.98C973.289 2567.2 883.724 2562.19 804.039 2563C713.587 2563.92 623.098 2563.26 532.644 2563.26C355.096 2563.26 177.548 2563.26 0 2563.26" stroke="#E7663D" stroke-opacity="0.2" stroke-width="3" stroke-linecap="round"/>
</svg>
