<svg width="65" height="65" viewBox="0 0 65 65" fill="none" xmlns="http://www.w3.org/2000/svg">
<g id="Group 222">
<path id="Vector" d="M50.9279 0.937012C48.3404 0.937012 45.8111 1.70428 43.6597 3.14179C41.5083 4.57929 39.8315 6.62247 38.8414 9.01296C37.8512 11.4034 37.5921 14.0339 38.0969 16.5716C38.6017 19.1093 39.8477 21.4404 41.6773 23.27C43.5069 25.0996 45.8379 26.3455 48.3756 26.8503C50.9134 27.3551 53.5438 27.096 55.9343 26.1059C58.3248 25.1157 60.368 23.4389 61.8055 21.2875C63.243 19.1361 64.0102 16.6068 64.0102 14.0194C64.0063 10.5509 62.6268 7.22563 60.1742 4.77306C57.7216 2.32049 54.3963 0.940916 50.9279 0.937012ZM53.4415 11.0967C53.663 11.0967 53.8754 11.1847 54.032 11.3413C54.1886 11.4979 54.2766 11.7103 54.2766 11.9318C54.2766 12.1532 54.1886 12.3656 54.032 12.5222C53.8754 12.6788 53.663 12.7668 53.4415 12.7668H45.9187C45.7471 13.593 45.7471 14.4457 45.9187 15.2719H53.4415C53.663 15.2719 53.8754 15.3599 54.032 15.5165C54.1886 15.6731 54.2766 15.8855 54.2766 16.107C54.2766 16.3284 54.1886 16.5408 54.032 16.6974C53.8754 16.854 53.663 16.942 53.4415 16.942H46.481C47.0191 18.1098 47.8817 19.0982 48.9661 19.7891C50.0504 20.4801 51.3107 20.8445 52.5964 20.8389H55.462C55.6835 20.8389 55.8959 20.9269 56.0525 21.0835C56.2091 21.2401 56.2971 21.4525 56.2971 21.6739C56.2971 21.8954 56.2091 22.1078 56.0525 22.2644C55.8959 22.421 55.6835 22.509 55.462 22.509H52.5964C48.9728 22.509 45.8743 20.143 44.6635 16.942H42.1262C41.9048 16.942 41.6924 16.854 41.5358 16.6974C41.3792 16.5408 41.2912 16.3284 41.2912 16.107C41.2912 15.8855 41.3792 15.6731 41.5358 15.5165C41.6924 15.3599 41.9048 15.2719 42.1262 15.2719H44.2223C44.0858 14.4425 44.0858 13.5963 44.2223 12.7668H42.1262C41.9048 12.7668 41.6924 12.6788 41.5358 12.5222C41.3792 12.3656 41.2912 12.1532 41.2912 11.9318C41.2912 11.7103 41.3792 11.4979 41.5358 11.3413C41.6924 11.1847 41.9048 11.0967 42.1262 11.0967H44.6641C45.8742 7.89571 48.9728 5.52975 52.597 5.52975H55.4626C55.6841 5.52975 55.8965 5.61773 56.0531 5.77433C56.2097 5.93093 56.2976 6.14333 56.2976 6.36479C56.2976 6.58626 56.2097 6.79866 56.0531 6.95526C55.8965 7.11186 55.6841 7.19984 55.4626 7.19984H52.597C51.3112 7.19422 50.051 7.55863 48.9666 8.2496C47.8823 8.94057 47.0196 9.92891 46.4816 11.0967H53.4415ZM3.28866 47.8098C1.91598 47.2608 0.808438 46.6164 -0.00976562 45.9031V48.8128C-0.00976562 51.2886 5.8965 54.0472 14.3463 54.0472C16.2976 54.0541 18.2459 53.8958 20.1705 53.574V49.1964C18.2443 49.5029 16.2967 49.6539 14.3463 49.6479C10.1896 49.6479 6.25139 48.9947 3.28866 47.8098ZM14.3251 29.769C22.7751 29.769 28.6601 27.0104 28.6601 24.5346V21.6259C27.825 22.3389 26.7372 22.9833 25.3644 23.5326C22.4024 24.7174 18.4855 25.3697 14.3286 25.3697C10.1718 25.3697 6.25139 24.7171 3.28921 23.5326C1.91654 22.9834 0.808994 22.3392 -0.00920897 21.6259V24.5346C-0.00976567 27.0104 5.8752 29.769 14.3251 29.769Z" fill="#D5471A"/>
<path id="Vector_2" d="M14.3251 35.8381C22.775 35.8381 28.66 33.0795 28.66 30.6038V27.695C27.8249 28.4082 26.7372 29.0525 25.3644 29.6017C22.4023 30.7866 18.4854 31.4388 14.3286 31.4388C10.1717 31.4388 6.25132 30.7864 3.28914 29.6017C1.91647 29.0527 0.808926 28.4083 -0.0092773 27.695V30.6038C-0.009834 33.0795 5.87513 35.8381 14.3251 35.8381ZM14.3251 23.6994C22.775 23.6994 28.66 20.9407 28.66 18.4649V15.5562C27.8249 16.2691 26.7372 16.9135 25.3644 17.4628C22.4023 18.6478 18.4854 19.2999 14.3286 19.2999C10.1717 19.2999 6.25132 18.6475 3.28914 17.4628C1.91647 16.9138 0.808926 16.2694 -0.0092773 15.5562V18.4649C-0.009834 20.9407 5.87513 23.6994 14.3251 23.6994Z" fill="#D5471A"/>
<path id="Vector_3" d="M14.3288 17.6303C22.2477 17.6303 28.6673 15.2868 28.6673 12.396C28.6673 9.50511 22.2477 7.16162 14.3288 7.16162C6.40981 7.16162 -0.00976562 9.50511 -0.00976562 12.396C-0.00976562 15.2868 6.40981 17.6303 14.3288 17.6303Z" fill="#D5471A"/>
<path id="Vector_4" d="M36.1523 48.4191C31.9956 48.4191 28.0838 47.7665 25.1216 46.582C23.749 46.0328 22.6754 45.3886 21.8403 44.6753V47.584C21.8403 50.0598 27.7253 52.8184 36.1752 52.8184C44.6252 52.8184 50.5102 50.0598 50.5102 47.584V44.6753C49.6751 45.3884 48.5741 46.0327 47.2014 46.582C44.2393 47.7665 40.3087 48.4191 36.1523 48.4191Z" fill="#D5471A"/>
<path id="Vector_5" d="M36.1523 54.4884C31.9956 54.4884 28.0838 53.836 25.1216 52.6513C23.749 52.102 22.6754 51.4573 21.8403 50.7446V53.6534C21.8403 56.1291 27.7253 58.8878 36.1752 58.8878C44.6252 58.8878 50.5102 56.1291 50.5102 53.6534V50.7446C49.6751 51.4576 48.5741 52.102 47.2014 52.6513C44.2393 53.836 40.3087 54.4884 36.1523 54.4884Z" fill="#D5471A"/>
<path id="Vector_6" d="M36.1523 60.5577C31.9956 60.5577 28.0838 59.9052 25.1216 58.7206C23.749 58.1715 22.6754 57.5272 21.8403 56.814V59.7227C21.8403 62.1985 27.7253 64.957 36.1752 64.957C44.6252 64.957 50.5102 62.1985 50.5102 59.7227V56.814C49.6751 57.527 48.5741 58.1713 47.2014 58.7206C44.2391 59.905 40.3087 60.5577 36.1523 60.5577Z" fill="#D5471A"/>
<path id="Vector_7" d="M36.1437 46.7489C44.0627 46.7489 50.4822 44.4054 50.4822 41.5146C50.4822 38.6238 44.0627 36.2803 36.1437 36.2803C28.2248 36.2803 21.8052 38.6238 21.8052 41.5146C21.8052 44.4054 28.2248 46.7489 36.1437 46.7489Z" fill="#D5471A"/>
<path id="Vector_8" d="M28.66 35.3761V33.7646C27.8249 34.4776 26.7372 35.122 25.3644 35.6713C22.4023 36.8563 18.4854 37.5084 14.3286 37.5084C10.1717 37.5084 6.25132 36.856 3.28914 35.6713C1.91647 35.1223 0.808926 34.4779 -0.00927734 33.7646V36.6734C-0.00927734 39.1491 5.87778 41.9077 14.3283 41.9077C16.2741 41.9139 18.2169 41.7556 20.136 41.4345C20.1828 39.4804 21.9397 37.7119 25.101 36.4472C26.2581 35.9993 27.4479 35.6412 28.66 35.3761Z" fill="#D5471A"/>
<path id="Vector_9" d="M3.28866 41.7407C1.91598 41.1916 0.808438 40.5473 -0.00976562 39.834V42.7427C-0.00976563 45.2188 5.89649 47.978 14.3463 47.978C16.2976 47.985 18.2459 47.8267 20.1704 47.5048V43.1273C18.2443 43.4336 16.2966 43.5843 14.3463 43.578C10.1896 43.578 6.25139 42.926 3.28866 41.7407Z" fill="#D5471A"/>
</g>
</svg>
