<svg width="36" height="532" viewBox="0 0 36 532" fill="none" xmlns="http://www.w3.org/2000/svg">
<path fill-rule="evenodd" clip-rule="evenodd" d="M23.1335 257.263C22.936 257.094 22.674 257 22.4015 257C22.1291 257 21.8671 257.094 21.6695 257.263L13.1067 264.701C12.915 264.864 12.7624 265.062 12.6581 265.28C12.5538 265.499 12.5 265.735 12.5 265.973C12.5 266.211 12.5538 266.446 12.6581 266.665C12.7624 266.884 12.915 267.081 13.1067 267.245L21.7315 274.737C22.1315 275.084 22.7795 275.088 23.1855 274.746C23.2838 274.665 23.3625 274.566 23.4165 274.456C23.4706 274.346 23.499 274.227 23.5 274.107C23.5009 273.987 23.4744 273.868 23.422 273.757C23.3696 273.646 23.2925 273.547 23.1955 273.464L15.3026 266.609C15.2067 266.527 15.1303 266.428 15.0781 266.318C15.026 266.209 14.999 266.091 14.999 265.972C14.999 265.853 15.026 265.735 15.0781 265.626C15.1303 265.517 15.2067 265.418 15.3026 265.336L23.1325 258.535C23.2284 258.453 23.3048 258.354 23.357 258.245C23.4091 258.136 23.4361 258.018 23.4361 257.899C23.4361 257.78 23.4091 257.662 23.357 257.553C23.3048 257.443 23.2294 257.345 23.1335 257.263Z" fill="#B6B0AF"/>
</svg>
