<svg width="60" height="65" viewBox="0 0 60 65" fill="none" xmlns="http://www.w3.org/2000/svg">
<g id="Group 219">
<path id="Vector" d="M35.3155 32.3293C35.3183 29.7833 36.331 27.3424 38.1313 25.5421C39.9316 23.7418 42.3725 22.7292 44.9185 22.7263C47.4496 22.7766 49.8631 23.8044 51.6533 25.5946C53.4434 27.3847 54.4713 29.7982 54.5215 32.3293V35.5303H56.6555V32.3293C56.5928 29.2361 55.3361 26.2871 53.1484 24.0994C50.9607 21.9118 48.0117 20.6551 44.9185 20.5923C41.8068 20.596 38.8236 21.8338 36.6232 24.0341C34.4229 26.2344 33.1852 29.2176 33.1815 32.3293V35.5303H35.3155V32.3293ZM18.2435 36.5973C18.2435 35.7484 17.9063 34.9342 17.3059 34.3339C16.7056 33.7336 15.8915 33.3963 15.0425 33.3963H8.6405C7.79154 33.3963 6.97736 33.7336 6.37705 34.3339C5.77675 34.9342 5.4395 35.7484 5.4395 36.5973V39.8517H18.2435V36.5973ZM4.906 41.9857C0.147181 48.1167 -0.714955 58.6309 0.870607 61.5982C1.99393 62.1914 3.1654 62.6887 4.3725 63.0845V57.9373C4.3725 57.6543 4.48492 57.3829 4.68502 57.1828C4.88512 56.9827 5.15651 56.8703 5.4395 56.8703C5.72249 56.8703 5.99388 56.9827 6.19398 57.1828C6.39408 57.3829 6.5065 57.6543 6.5065 57.9373V63.6821C7.90891 64.0023 9.33738 64.1951 10.7745 64.2582V57.9373C10.7745 57.6543 10.8869 57.3829 11.087 57.1828C11.2871 56.9827 11.5585 56.8703 11.8415 56.8703C12.1245 56.8703 12.3959 56.9827 12.596 57.1828C12.7961 57.3829 12.9085 57.6543 12.9085 57.9373V64.2582C14.3455 64.1949 15.774 64.0025 17.1765 63.6831V57.9373C17.1765 57.6543 17.2889 57.3829 17.489 57.1828C17.6891 56.9827 17.9605 56.8703 18.2435 56.8703C18.5265 56.8703 18.7979 56.9827 18.998 57.1828C19.1981 57.3829 19.3105 57.6543 19.3105 57.9373V63.0845C20.5167 62.6886 21.6875 62.1918 22.8103 61.5993C23.3691 60.2032 23.6202 58.703 23.5465 57.2011C23.5465 52.613 22.0527 46.211 18.7674 41.9857H4.906ZM13.9755 2.45334C13.9691 1.88934 13.7422 1.35025 13.3434 0.95142C12.9446 0.552591 12.4055 0.325712 11.8415 0.319336C11.2755 0.319336 10.7327 0.544167 10.3325 0.94437C9.93233 1.34457 9.7075 1.88736 9.7075 2.45334V31.2623H13.9755V2.45334Z" fill="#EC8969"/>
<path id="Vector_2" d="M58.7895 37.6646H31.0475C30.4582 37.6646 29.9805 38.1423 29.9805 38.7316V42.9996C29.9805 43.5888 30.4582 44.0666 31.0475 44.0666H58.7895C59.3788 44.0666 59.8565 43.5888 59.8565 42.9996V38.7316C59.8565 38.1423 59.3788 37.6646 58.7895 37.6646Z" fill="#EC8969"/>
<path id="Vector_3" d="M34.9036 61.4743C34.9867 62.2612 35.3582 62.9894 35.9466 63.5184C36.535 64.0475 37.2984 64.3399 38.0897 64.3392H51.7473C52.5388 64.3398 53.3026 64.0471 53.891 63.5176C54.4794 62.9881 54.8507 62.2594 54.9333 61.4722L56.5381 46.2002H33.2988L34.9036 61.4743Z" fill="#EC8969"/>
</g>
</svg>
