<svg width="73" height="65" viewBox="0 0 73 65" fill="none" xmlns="http://www.w3.org/2000/svg">
<path id="Vector" d="M48.6121 0.980713C35.2337 0.980713 24.3883 9.50229 24.3883 20.0137C24.3883 30.5251 35.2337 39.0467 48.6121 39.0467C51.0215 39.0467 53.3358 38.6963 55.5332 38.1815L67.6451 45.1026L64.1845 34.721C69.5795 31.2302 72.8359 25.9338 72.8359 20.0137C72.8359 9.50229 61.9906 0.980713 48.6121 0.980713ZM39.0956 17.4183C39.784 17.4183 40.4441 17.6917 40.9309 18.1785C41.4176 18.6652 41.691 19.3253 41.691 20.0137C41.691 20.702 41.4176 21.3622 40.9309 21.8489C40.4441 22.3356 39.784 22.6091 39.0956 22.6091C38.4073 22.6091 37.7471 22.3356 37.2604 21.8489C36.7737 21.3622 36.5002 20.702 36.5002 20.0137C36.5002 19.3253 36.7737 18.6652 37.2604 18.1785C37.7471 17.6917 38.4073 17.4183 39.0956 17.4183ZM48.6121 17.4183C49.3005 17.4183 49.9606 17.6917 50.4473 18.1785C50.9341 18.6652 51.2075 19.3253 51.2075 20.0137C51.2075 20.702 50.9341 21.3622 50.4473 21.8489C49.9606 22.3356 49.3005 22.6091 48.6121 22.6091C47.9238 22.6091 47.2636 22.3356 46.7769 21.8489C46.2902 21.3622 46.0167 20.702 46.0167 20.0137C46.0167 19.3253 46.2902 18.6652 46.7769 18.1785C47.2636 17.6917 47.9238 17.4183 48.6121 17.4183ZM58.1286 17.4183C58.8169 17.4183 59.4771 17.6917 59.9638 18.1785C60.4506 18.6652 60.724 19.3253 60.724 20.0137C60.724 20.702 60.4506 21.3622 59.9638 21.8489C59.4771 22.3356 58.8169 22.6091 58.1286 22.6091C57.4403 22.6091 56.7801 22.3356 56.2934 21.8489C55.8066 21.3622 55.5332 20.702 55.5332 20.0137C55.5332 19.3253 55.8066 18.6652 56.2934 18.1785C56.7801 17.6917 57.4403 17.4183 58.1286 17.4183ZM20.9546 21.0683C9.20608 22.3816 0.164551 30.3174 0.164551 39.9118C0.164551 45.8319 3.42092 51.1283 8.8159 54.6191L5.35536 65.0007L17.4673 58.0796C19.6647 58.5944 21.9789 58.9448 24.3883 58.9448C36.6447 58.9448 46.7824 51.7892 48.3958 42.5072C44.1394 42.4812 40.0992 41.6723 36.4734 40.2362C36.394 40.8621 36.0896 41.4377 35.6169 41.8556C35.1443 42.2734 34.5357 42.5051 33.9048 42.5072C33.2165 42.5072 32.5563 42.2338 32.0696 41.747C31.5829 41.2603 31.3094 40.6001 31.3094 39.9118C31.3094 39.1816 31.6079 38.5181 32.0932 38.0466C31.1329 37.4661 30.2003 36.8596 29.336 36.1805C24.5605 32.4284 21.3007 27.081 20.9546 21.0683ZM14.8718 37.3164C15.5602 37.3164 16.2203 37.5898 16.7071 38.0766C17.1938 38.5633 17.4673 39.2234 17.4673 39.9118C17.4673 40.6001 17.1938 41.2603 16.7071 41.747C16.2203 42.2338 15.5602 42.5072 14.8718 42.5072C14.1835 42.5072 13.5234 42.2338 13.0366 41.747C12.5499 41.2603 12.2764 40.6001 12.2764 39.9118C12.2764 39.2234 12.5499 38.5633 13.0366 38.0766C13.5234 37.5898 14.1835 37.3164 14.8718 37.3164ZM24.3883 37.3164C25.0767 37.3164 25.7368 37.5898 26.2236 38.0766C26.7103 38.5633 26.9837 39.2234 26.9837 39.9118C26.9837 40.6001 26.7103 41.2603 26.2236 41.747C25.7368 42.2338 25.0767 42.5072 24.3883 42.5072C23.7 42.5072 23.0398 42.2338 22.5531 41.747C22.0664 41.2603 21.7929 40.6001 21.7929 39.9118C21.7929 39.2234 22.0664 38.5633 22.5531 38.0766C23.0398 37.5898 23.7 37.3164 24.3883 37.3164Z" fill="#A83815"/>
</svg>
