<svg width="65" height="65" viewBox="0 0 65 65" fill="none" xmlns="http://www.w3.org/2000/svg">
<path d="M64.1901 18.1407L57.7881 2.13569C57.468 0.855287 56.1876 0.215088 54.9072 0.215088H10.0932C8.81283 0.215088 7.53243 0.855287 7.21233 2.13569L0.810334 18.1407C0.490234 18.4608 0.490234 19.101 0.490234 19.4211C0.490234 23.9025 3.05103 28.0638 6.89223 30.3045V61.0341C6.89223 62.9547 8.17263 64.2351 10.0932 64.2351H54.9072C56.8278 64.2351 58.1082 62.9547 58.1082 61.0341V30.3045C61.9494 28.0638 64.5102 23.9025 64.5102 19.4211C64.5102 19.101 64.5102 18.4608 64.1901 18.1407ZM51.7062 57.8331H42.1032V41.8281C42.1032 39.9075 40.8228 38.6271 38.9022 38.6271H26.0982C24.1776 38.6271 22.8972 39.9075 22.8972 41.8281V57.8331H13.2942V32.2251C17.1354 32.2251 20.3364 30.6246 22.8972 27.7437C27.3786 33.1854 35.3811 33.8256 40.8228 29.0241C41.463 28.704 41.7831 28.0638 42.1032 27.7437C44.664 30.6246 47.865 32.2251 51.7062 32.2251V57.8331Z" fill="#A83815"/>
</svg>
