<svg width="50" height="50" viewBox="0 0 50 50" fill="none" xmlns="http://www.w3.org/2000/svg">
<path d="M29.4031 24.9947L49.0763 5.35266C49.6643 4.76463 49.9947 3.9671 49.9947 3.13551C49.9947 2.30392 49.6643 1.50639 49.0763 0.918371C48.4883 0.330348 47.6907 0 46.8592 0C46.0276 0 45.23 0.330348 44.642 0.918371L25 20.5916L5.35799 0.918371C4.76996 0.330348 3.97243 7.38323e-07 3.14084 7.44519e-07C2.30925 7.50714e-07 1.51172 0.330348 0.9237 0.918371C0.335677 1.50639 0.00533001 2.30392 0.00533001 3.13551C0.00533 3.9671 0.335677 4.76463 0.9237 5.35266L20.5969 24.9947L0.9237 44.6367C0.631011 44.927 0.398698 45.2724 0.240161 45.6529C0.0816236 46.0334 0 46.4416 0 46.8538C0 47.2661 0.0816236 47.6742 0.240161 48.0548C0.398698 48.4353 0.631011 48.7807 0.9237 49.071C1.214 49.3637 1.55938 49.596 1.93991 49.7545C2.32045 49.9131 2.72861 49.9947 3.14084 49.9947C3.55308 49.9947 3.96124 49.9131 4.34178 49.7545C4.72231 49.596 5.06769 49.3637 5.35799 49.071L25 29.3977L44.642 49.071C44.9323 49.3637 45.2777 49.596 45.6582 49.7545C46.0388 49.9131 46.4469 49.9947 46.8592 49.9947C47.2714 49.9947 47.6796 49.9131 48.0601 49.7545C48.4406 49.596 48.786 49.3637 49.0763 49.071C49.369 48.7807 49.6013 48.4353 49.7598 48.0548C49.9184 47.6742 50 47.2661 50 46.8538C50 46.4416 49.9184 46.0334 49.7598 45.6529C49.6013 45.2724 49.369 44.927 49.0763 44.6367L29.4031 24.9947Z" fill="#1B1918"/>
</svg>
