<svg width="60" height="65" viewBox="0 0 60 65" fill="none" xmlns="http://www.w3.org/2000/svg">
<g id="Group 219">
<path id="Vector" d="M35.3155 32.7556C35.3183 30.2096 36.331 27.7687 38.1313 25.9684C39.9316 24.1681 42.3725 23.1554 44.9185 23.1526C47.4496 23.2028 49.8631 24.2307 51.6533 26.0208C53.4434 27.811 54.4713 30.2245 54.5215 32.7556V35.9566H56.6555V32.7556C56.5928 29.6624 55.3361 26.7134 53.1484 24.5257C50.9607 22.338 48.0117 21.0813 44.9185 21.0186C41.8068 21.0223 38.8236 22.26 36.6232 24.4603C34.4229 26.6607 33.1852 29.6439 33.1815 32.7556V35.9566H35.3155V32.7556ZM18.2435 37.0236C18.2435 36.1746 17.9063 35.3605 17.3059 34.7602C16.7056 34.1599 15.8915 33.8226 15.0425 33.8226H8.6405C7.79154 33.8226 6.97736 34.1599 6.37705 34.7602C5.77675 35.3605 5.4395 36.1746 5.4395 37.0236V40.278H18.2435V37.0236ZM4.906 42.412C0.147181 48.5429 -0.714955 59.0572 0.870607 62.0245C1.99393 62.6177 3.1654 63.1149 4.3725 63.5108V58.3636C4.3725 58.0806 4.48492 57.8092 4.68502 57.6091C4.88512 57.409 5.15651 57.2966 5.4395 57.2966C5.72249 57.2966 5.99388 57.409 6.19398 57.6091C6.39408 57.8092 6.5065 58.0806 6.5065 58.3636V64.1083C7.90891 64.4285 9.33738 64.6214 10.7745 64.6845V58.3636C10.7745 58.0806 10.8869 57.8092 11.087 57.6091C11.2871 57.409 11.5585 57.2966 11.8415 57.2966C12.1245 57.2966 12.3959 57.409 12.596 57.6091C12.7961 57.8092 12.9085 58.0806 12.9085 58.3636V64.6845C14.3455 64.6212 15.774 64.4287 17.1765 64.1094V58.3636C17.1765 58.0806 17.2889 57.8092 17.489 57.6091C17.6891 57.409 17.9605 57.2966 18.2435 57.2966C18.5265 57.2966 18.7979 57.409 18.998 57.6091C19.1981 57.8092 19.3105 58.0806 19.3105 58.3636V63.5108C20.5167 63.1149 21.6875 62.618 22.8103 62.0255C23.3691 60.6295 23.6202 59.1293 23.5465 57.6274C23.5465 53.0393 22.0527 46.6373 18.7674 42.412H4.906ZM13.9755 2.87961C13.9691 2.31561 13.7422 1.77652 13.3434 1.37769C12.9446 0.978861 12.4055 0.751982 11.8415 0.745605C11.2755 0.745605 10.7327 0.970437 10.3325 1.37064C9.93233 1.77084 9.7075 2.31363 9.7075 2.87961V31.6886H13.9755V2.87961Z" fill="#D5471A"/>
<path id="Vector_2" d="M58.7895 38.0908H31.0475C30.4582 38.0908 29.9805 38.5685 29.9805 39.1578V43.4258C29.9805 44.0151 30.4582 44.4928 31.0475 44.4928H58.7895C59.3788 44.4928 59.8565 44.0151 59.8565 43.4258V39.1578C59.8565 38.5685 59.3788 38.0908 58.7895 38.0908Z" fill="#D5471A"/>
<path id="Vector_3" d="M34.9036 61.9006C34.9867 62.6874 35.3582 63.4156 35.9466 63.9447C36.535 64.4738 37.2984 64.7661 38.0897 64.7655H51.7473C52.5388 64.7661 53.3026 64.4734 53.891 63.9439C54.4794 63.4144 54.8507 62.6857 54.9333 61.8984L56.5381 46.6265H33.2988L34.9036 61.9006Z" fill="#D5471A"/>
</g>
</svg>
