<svg width="50" height="50" viewBox="0 0 50 50" fill="none" xmlns="http://www.w3.org/2000/svg">
<path fill-rule="evenodd" clip-rule="evenodd" d="M29.2557 33.0479C28.92 33.3712 28.377 33.3712 28.0421 33.0479L20.9433 26.197C20.7844 26.046 20.6579 25.8643 20.5714 25.6628C20.4849 25.4614 20.4403 25.2444 20.4403 25.0252C20.4403 24.806 20.4849 24.5891 20.5714 24.3876C20.6579 24.1862 20.7844 24.0044 20.9433 23.8534L28.0935 16.952C28.2557 16.7977 28.4706 16.711 28.6945 16.7095C28.9184 16.708 29.1345 16.7917 29.2988 16.9437C29.3803 17.0187 29.4454 17.1097 29.4903 17.211C29.5351 17.3122 29.5587 17.4216 29.5595 17.5324C29.5604 17.6431 29.5385 17.7528 29.4952 17.8548C29.452 17.9567 29.3882 18.0487 29.308 18.125L22.7638 24.4395C22.6843 24.5151 22.6209 24.606 22.5777 24.7067C22.5344 24.8075 22.5121 24.916 22.5121 25.0256C22.5121 25.1353 22.5344 25.2438 22.5777 25.3446C22.6209 25.4453 22.6843 25.5362 22.7638 25.6118L29.2557 31.8765C29.3352 31.952 29.3985 32.0428 29.4418 32.1435C29.485 32.2442 29.5073 32.3526 29.5073 32.4622C29.5073 32.5718 29.485 32.6803 29.4418 32.781C29.3985 32.8817 29.3352 32.9725 29.2557 33.0479Z" fill="#1B1918"/>
</svg>
