<svg width="51" height="50" viewBox="0 0 51 50" fill="none" xmlns="http://www.w3.org/2000/svg">
<rect width="50.086" height="50" rx="25" fill="#E7663D"/>
<path d="M31.8007 27.0905C31.5996 26.99 31.298 26.99 31.097 26.99C29.8907 26.99 28.7849 27.4926 27.9807 28.4979L22.8539 26.1858C23.0549 25.4821 23.0549 24.6779 22.8539 23.8737L27.9807 21.5616C29.388 23.2706 31.9012 23.4716 33.6101 22.0642C35.3191 20.6569 35.5201 18.1437 34.1128 16.4348C32.7054 14.7259 30.1923 14.5248 28.4833 15.9322C27.5786 16.6359 27.076 17.7416 27.076 18.9479C27.076 19.149 27.076 19.4506 27.1765 19.6516L21.8486 22.0642C20.2402 20.5564 17.7271 20.5564 16.1187 22.1648C14.6108 23.7732 14.6108 26.2863 16.2192 27.8947C17.8276 29.4026 20.2402 29.4026 21.8486 27.8947L27.1765 30.3074C26.7744 32.5189 28.1817 34.63 30.3933 34.9315C32.6049 35.3336 34.7159 33.9263 35.0175 31.7147C35.4196 29.5031 34.0122 27.4926 31.8007 27.0905Z" fill="#F3F2F2"/>
</svg>
