<svg width="35" height="60" viewBox="0 0 35 60" fill="none" xmlns="http://www.w3.org/2000/svg">
<path d="M15.0209 39.7792L14.5557 43.9667H16.1376C15.9515 42.1987 16.2307 41.4542 15.5793 40.5237L15.0209 39.7792ZM7.29732 38.1042L10.5543 42.9431L10.6473 44.8042L11.764 35.1265L11.4848 34.5681C10.7404 36.3362 9.15844 37.639 7.29732 38.1042ZM14.0904 47.5959L12.8807 57.5528C12.8807 57.739 12.7876 57.832 12.7876 58.0181C13.3459 58.3903 13.9973 58.4834 14.3695 58.3903C15.8584 58.2973 16.9751 56.9945 16.882 55.5056L16.3237 47.5959H14.0904ZM8.04177 10.1876C11.3918 11.4903 15.3001 8.97785 15.114 5.16257C15.0209 2.27785 12.6015 0.0445153 9.71677 0.137571C6.83205 0.230626 4.59871 2.65007 4.69177 5.53479C4.78483 7.67507 6.18066 9.44313 8.04177 10.1876Z" fill="#A83815"/>
<path d="M6.73947 38.2903L6.64641 37.3597H6.73947C8.60058 36.9875 10.1825 35.5917 10.8339 33.7306C11.1131 32.8931 11.02 32.4278 11.3922 29.8222C5.52974 25.1695 4.50613 17.632 4.50613 17.2597C4.32002 15.7709 5.43669 14.4681 6.92558 14.282C8.41446 14.0959 9.71724 15.2125 9.90335 16.7014C9.90335 16.8875 10.3686 20.0514 12.3228 22.9361L13.0672 17.2597C13.4395 14.282 11.2992 11.5834 8.41447 11.2111C5.43669 10.8389 2.73808 12.8861 2.36585 15.8639C0.78391 30.8459 -0.518869 31.9625 1.06308 34.7542V34.9403C2.83113 53.1792 2.17974 46.9445 2.36585 48.2472L1.06308 56.6222C0.876965 58.1111 1.80752 59.507 3.29641 59.6931C4.87836 59.8792 6.18113 58.7625 6.36724 57.3667L7.67002 48.6195V47.9681L6.73947 38.2903Z" fill="#A83815"/>
<path d="M31.6771 33.8236C31.3979 32.0555 30.0021 30.6597 28.234 30.6597H20.3243C20.0451 31.4972 19.3937 32.1486 18.6493 32.4277H28.234C29.0715 32.4277 29.7229 33.0791 29.909 34.0097C30.0021 35.1263 29.4437 30.0083 31.2118 44.8041H13.5312C13.5312 45.1763 14.0896 39.8722 14.834 34.0097C15.1132 32.2416 16.7882 32.4277 16.8812 32.4277C15.9507 32.1486 15.1132 31.7763 14.2757 31.4041C13.6243 31.9624 13.159 32.7999 12.9729 33.7305L12.6937 36.243C12.4146 38.3833 13.6243 28.5194 10.1812 57.1805C10.0882 57.6458 10.4604 58.1111 11.0187 58.2041C11.484 58.2972 11.9493 57.9249 12.0424 57.4597C12.0424 57.7388 12.6007 52.8999 13.3451 46.6652H31.491C33.259 61.4611 32.6076 56.343 32.7937 57.4597C32.8868 58.018 33.4451 58.2972 33.8174 58.2041C34.2826 58.1111 34.6549 57.7388 34.6549 57.1805C30.9326 27.1236 35.6785 66.8583 31.6771 33.8236Z" fill="#A83815"/>
<path d="M9.06474 16.7014C8.97169 15.6777 8.04113 15.0264 7.01752 15.1194C5.99391 15.2125 5.34252 16.143 5.43557 17.1666C6.27307 23.4944 10.4606 29.8222 17.2536 31.7764C18.0911 32.0555 19.0217 31.5902 19.3939 30.7527C19.8592 29.7291 19.3009 28.6125 18.2772 28.2402C13.0661 26.7514 9.62308 21.7264 9.06474 16.7014Z" fill="#A83815"/>
</svg>
