<svg width="40" height="40" viewBox="0 0 40 40" fill="none" xmlns="http://www.w3.org/2000/svg">
<circle cx="20" cy="20" r="19.8" fill="#F3F2F2" stroke="#A83815" stroke-width="0.4"/>
<path d="M29.0894 24.5114C28.2598 23.6591 25.9019 22.0625 24.3564 22.0625C23.9985 22.0625 23.686 22.142 23.4303 22.3068C22.6746 22.7898 22.0723 23.1648 21.7825 23.1648C21.6235 23.1648 21.453 23.0227 21.078 22.6989L21.0155 22.642C19.9757 21.7386 19.7541 21.5057 19.3507 21.0852L19.2485 20.9773C19.1746 20.9034 19.1121 20.8352 19.0496 20.7727C18.6973 20.4091 18.4416 20.1477 17.5382 19.125L17.4985 19.0795C17.0666 18.5909 16.7825 18.2727 16.7655 18.0398C16.7485 17.8125 16.9473 17.4432 17.453 16.7557C18.0666 15.9261 18.0894 14.9034 17.5269 13.7159C17.078 12.7784 16.345 11.8807 15.6973 11.0909L15.6405 11.0227C15.0837 10.3409 14.436 10 13.7144 10C12.9132 10 12.2485 10.4318 11.8962 10.6591C11.8678 10.6761 11.8394 10.6989 11.811 10.7159C11.0212 11.2159 10.4473 11.9034 10.2314 12.6023C9.90754 13.6534 9.69163 15.017 11.2428 17.8523C12.5837 20.3068 13.7996 21.9545 15.7314 23.9375C17.5496 25.8011 18.3564 26.4034 20.1632 27.7102C22.1746 29.1648 24.1064 30 25.4587 30C26.7144 30 27.703 30 29.1121 28.3011C30.5894 26.517 29.9757 25.4261 29.0894 24.5114Z" fill="#A83815"/>
</svg>
