<svg width="117" height="201" viewBox="0 0 117 201" fill="none" xmlns="http://www.w3.org/2000/svg">
<path d="M50.2004 133.582L48.6386 147.639H53.9488C53.3241 141.704 54.2612 139.205 52.0746 136.081L50.2004 133.582ZM24.2742 127.959L35.2069 144.203L35.5193 150.45L39.2677 117.963L38.3306 116.089C35.8317 122.024 30.5215 126.397 24.2742 127.959ZM47.0768 159.822L43.0161 193.246C43.0161 193.871 42.7037 194.183 42.7037 194.808C44.5779 196.057 46.7644 196.37 48.0139 196.057C53.0117 195.745 56.7601 191.372 56.4477 186.374L54.5736 159.822H47.0768ZM26.7731 34.2461C38.0182 38.6194 51.1375 30.1852 50.5128 17.3778C50.2005 7.69409 42.079 0.19704 32.3957 0.509417C22.7124 0.821794 15.2156 8.9436 15.528 18.6273C15.8403 25.812 20.5258 31.7471 26.7731 34.2461Z" fill="#F3F2F2"/>
<path d="M22.376 128.585L22.0637 125.461H22.376C28.6233 124.212 33.9335 119.526 36.1201 113.279C37.0572 110.467 36.7448 108.905 37.9943 100.159C18.3153 84.5399 14.8793 59.2374 14.8793 57.9879C14.2546 52.9899 18.0029 48.6166 23.0008 47.9918C27.9986 47.3671 32.3717 51.1156 32.9964 56.1136C32.9964 56.7384 34.5583 67.3592 41.1179 77.0429L43.6168 57.9879C44.8663 47.9918 37.6819 38.9329 27.9986 37.6834C18.0029 36.4339 8.94436 43.3062 7.6949 53.3022C2.3847 103.595 -1.98841 107.343 3.32179 116.715V117.34C9.25672 178.565 7.07017 157.636 7.6949 162.009L3.32179 190.123C2.69706 195.121 5.82071 199.807 10.8185 200.432C16.1287 201.057 20.5019 197.308 21.1266 192.622L25.4997 163.259V161.072L22.376 128.585Z" fill="#F3F2F2"/>
<path d="M106.092 113.594C105.155 107.658 100.47 102.973 94.5348 102.973H67.9838C67.0467 105.784 64.8601 107.971 62.3612 108.908H94.5348C97.346 108.908 99.5326 111.095 100.157 114.218C100.47 117.967 98.5955 100.786 104.53 150.454H45.1812C45.1812 151.704 47.0553 133.898 49.5543 114.218C50.4914 108.283 56.1139 108.908 56.4263 108.908C53.3026 107.971 50.4914 106.721 47.6801 105.472C45.4935 107.346 43.9317 110.157 43.307 113.281L42.3699 121.715C41.4328 128.9 45.4935 95.7881 33.936 192C33.6237 193.562 34.8731 195.124 36.7473 195.436C38.3091 195.749 39.8709 194.499 40.1833 192.937C40.1833 193.874 42.0575 177.631 44.5564 156.702H105.468C111.402 206.37 109.216 189.189 109.841 192.937C110.153 194.812 112.027 195.749 113.277 195.436C114.838 195.124 116.088 193.874 116.088 192C103.593 91.1025 119.524 224.487 106.092 113.594Z" fill="#F3F2F2"/>
<path d="M30.1596 56.111C29.8472 52.6749 26.7236 50.4882 23.2876 50.8006C19.8515 51.113 17.665 54.2367 17.9774 57.6729C20.7886 78.9145 34.845 100.156 57.6477 106.716C60.4589 107.653 63.5826 106.091 64.832 103.28C66.3939 99.8438 64.5197 96.0952 61.0837 94.8457C43.5912 89.8477 32.0338 72.9793 30.1596 56.111Z" fill="#F3F2F2"/>
</svg>
