<svg width="201" height="127" viewBox="0 0 201 127" fill="none" xmlns="http://www.w3.org/2000/svg">
<path d="M181.175 126.259H160.684C160.27 126.259 159.872 126.095 159.579 125.802C159.286 125.509 159.122 125.111 159.122 124.697V59.7115C159.118 55.7437 160.255 51.8585 162.398 48.5189C164.54 45.1794 167.598 42.5264 171.207 40.8763C174.815 39.2261 178.822 38.6484 182.749 39.212C186.677 39.7755 190.36 41.4566 193.358 44.0548C196.357 46.653 198.546 50.0587 199.663 53.866C200.78 57.6733 200.779 61.7216 199.66 65.5282C198.54 69.3349 196.35 72.7393 193.35 75.3358C190.349 77.9323 186.666 79.6113 182.738 80.1726V124.697C182.738 124.902 182.697 125.105 182.619 125.295C182.54 125.484 182.425 125.656 182.28 125.802C182.135 125.947 181.963 126.062 181.773 126.14C181.583 126.219 181.38 126.259 181.175 126.259ZM40.2969 126.259H19.8078C19.3933 126.259 18.9959 126.095 18.7028 125.802C18.4098 125.509 18.2451 125.111 18.2451 124.697V80.1726C14.3201 79.6099 10.6396 77.9306 7.64212 75.3349C4.64467 72.7392 2.45666 69.3364 1.33881 65.5321C0.220952 61.7277 0.220387 57.6822 1.33718 53.8775C2.45397 50.0729 4.64103 46.6695 7.63776 44.0729C10.6345 41.4763 14.3145 39.7961 18.2394 39.2323C22.1643 38.6685 26.1685 39.245 29.775 40.893C33.3814 42.5411 36.438 45.1913 38.5806 48.5277C40.7231 51.8642 41.8613 55.7463 41.8595 59.7115V124.697C41.8595 125.111 41.6948 125.509 41.4018 125.802C41.1087 126.095 40.7113 126.259 40.2969 126.259Z" fill="#F3F2F2"/>
<path d="M157.52 0.740601H43.4802C39.507 0.744737 35.6978 2.3249 32.8884 5.13436C30.0789 7.94381 28.4988 11.7531 28.4946 15.7262V37.0561C33.287 38.6038 37.4656 41.6305 40.4304 45.7014C43.3952 49.7724 44.9935 54.6782 44.9959 59.7143V75.6875H156.005V59.7143C156.007 54.6782 157.605 49.7724 160.57 45.7014C163.535 41.6305 167.713 38.6038 172.506 37.0561V15.7262C172.502 11.7531 170.922 7.94381 168.112 5.13436C165.303 2.3249 161.493 0.744737 157.52 0.740601ZM85.6522 55.4795H81.2144C80.9981 56.032 80.6699 56.5338 80.2504 56.9533C79.8309 57.3728 79.3291 57.701 78.7767 57.9173V61.0269C78.7767 61.4413 78.612 61.8388 78.319 62.1318C78.0259 62.4249 77.6285 62.5895 77.2141 62.5895C76.7996 62.5895 76.4022 62.4249 76.1091 62.1318C75.8161 61.8388 75.6514 61.4413 75.6514 61.0269V57.9173C75.101 57.7006 74.6016 57.3721 74.1847 56.9525C73.7678 56.5329 73.4425 56.0313 73.2294 55.4795H70.3073C69.8928 55.4795 69.4954 55.3149 69.2023 55.0219C68.9093 54.7288 68.7446 54.3314 68.7446 53.9169C68.7446 53.5025 68.9093 53.105 69.2023 52.812C69.4954 52.5189 69.8928 52.3543 70.3073 52.3543H73.245C73.4552 51.8052 73.7779 51.3061 74.1923 50.8889C74.6067 50.4718 75.1037 50.146 75.6514 49.9322V46.1975C75.6514 45.7831 75.8161 45.3856 76.1091 45.0926C76.4022 44.7995 76.7996 44.6349 77.2141 44.6349C77.6285 44.6349 78.0259 44.7995 78.319 45.0926C78.612 45.3856 78.7767 45.7831 78.7767 46.1975V49.9322C79.3278 50.1434 79.8282 50.4682 80.2455 50.8855C80.6628 51.3028 80.9876 51.8032 81.1987 52.3543H85.6522C86.0667 52.3543 86.4641 52.5189 86.7572 52.812C87.0502 53.105 87.2148 53.5025 87.2148 53.9169C87.2148 54.3314 87.0502 54.7288 86.7572 55.0219C86.4641 55.3149 86.0667 55.4795 85.6522 55.4795ZM85.6522 30.0868H81.2144C80.9981 30.6393 80.6699 31.141 80.2504 31.5605C79.8309 31.98 79.3291 32.3082 78.7767 32.5245V35.6341C78.7767 36.0486 78.612 36.446 78.319 36.7391C78.0259 37.0321 77.6285 37.1968 77.2141 37.1968C76.7996 37.1968 76.4022 37.0321 76.1091 36.7391C75.8161 36.446 75.6514 36.0486 75.6514 35.6341V32.5245C75.101 32.3078 74.6016 31.9793 74.1847 31.5597C73.7678 31.1401 73.4425 30.6386 73.2294 30.0868H70.3073C69.8928 30.0868 69.4954 29.9222 69.2023 29.6291C68.9093 29.3361 68.7446 28.9386 68.7446 28.5242C68.7446 28.1097 68.9093 27.7123 69.2023 27.4192C69.4954 27.1262 69.8928 26.9615 70.3073 26.9615H73.2294C73.4453 26.4132 73.7718 25.9152 74.1884 25.4985C74.6051 25.0819 75.1031 24.7554 75.6514 24.5395V20.8048C75.6514 20.3903 75.8161 19.9929 76.1091 19.6998C76.4022 19.4068 76.7996 19.2421 77.2141 19.2421C77.6285 19.2421 78.0259 19.4068 78.319 19.6998C78.612 19.9929 78.7767 20.3903 78.7767 20.8048V24.5395C79.3271 24.755 79.8274 25.0811 80.2467 25.4977C80.666 25.9143 80.9953 26.4125 81.2144 26.9615H85.6522C86.0667 26.9615 86.4641 27.1262 86.7572 27.4192C87.0502 27.7123 87.2148 28.1097 87.2148 28.5242C87.2148 28.9386 87.0502 29.3361 86.7572 29.6291C86.4641 29.9222 86.0667 30.0868 85.6522 30.0868ZM130.968 55.4952H126.327C126.104 56.074 125.762 56.5996 125.323 57.0382C124.885 57.4769 124.359 57.8189 123.78 58.0423V61.3113C123.78 61.7257 123.616 62.1232 123.323 62.4162C123.029 62.7093 122.632 62.8739 122.218 62.8739C121.803 62.8739 121.406 62.7093 121.113 62.4162C120.82 62.1232 120.655 61.7257 120.655 61.3113V58.0454C120.076 57.822 119.551 57.48 119.112 57.0414C118.673 56.6027 118.331 56.0771 118.108 55.4983H115.061C114.646 55.4983 114.249 55.3337 113.956 55.0406C113.663 54.7476 113.498 54.3501 113.498 53.9357C113.498 53.5212 113.663 53.1238 113.956 52.8307C114.249 52.5377 114.646 52.373 115.061 52.373H118.108C118.331 51.7943 118.673 51.2686 119.112 50.83C119.551 50.3913 120.076 50.0493 120.655 49.826V45.9194C120.655 45.5049 120.82 45.1075 121.113 44.8144C121.406 44.5214 121.803 44.3567 122.218 44.3567C122.632 44.3567 123.029 44.5214 123.323 44.8144C123.616 45.1075 123.78 45.5049 123.78 45.9194V49.826C124.359 50.0493 124.885 50.3913 125.323 50.83C125.762 51.2686 126.104 51.7943 126.327 52.373H130.968C131.383 52.373 131.78 52.5377 132.073 52.8307C132.366 53.1238 132.531 53.5212 132.531 53.9357C132.531 54.3501 132.366 54.7476 132.073 55.0406C131.78 55.3337 131.383 55.4983 130.968 55.4983V55.4952ZM130.968 30.1024H126.312C126.093 30.6798 125.755 31.2042 125.318 31.6406C124.882 32.0771 124.358 32.4157 123.78 32.6339V35.9154C123.78 36.3298 123.616 36.7273 123.323 37.0204C123.029 37.3134 122.632 37.478 122.218 37.478C121.803 37.478 121.406 37.3134 121.113 37.0204C120.82 36.7273 120.655 36.3298 120.655 35.9154V32.6339C120.078 32.4157 119.553 32.0771 119.117 31.6406C118.68 31.2042 118.342 30.6798 118.124 30.1024H115.061C114.646 30.1024 114.249 29.9378 113.956 29.6447C113.663 29.3517 113.498 28.9542 113.498 28.5398C113.498 28.1254 113.663 27.7279 113.956 27.4349C114.249 27.1418 114.646 26.9772 115.061 26.9772H118.124C118.342 26.3998 118.68 25.8754 119.117 25.439C119.553 25.0025 120.078 24.6639 120.655 24.4457V20.5266C120.655 20.1122 120.82 19.7147 121.113 19.4217C121.406 19.1286 121.803 18.964 122.218 18.964C122.632 18.964 123.029 19.1286 123.323 19.4217C123.616 19.7147 123.78 20.1122 123.78 20.5266V24.4488C124.358 24.667 124.882 25.0056 125.318 25.4421C125.755 25.8786 126.093 26.4029 126.312 26.9803H130.968C131.383 26.9803 131.78 27.1449 132.073 27.438C132.366 27.731 132.531 28.1285 132.531 28.5429C132.531 28.9574 132.366 29.3548 132.073 29.6479C131.78 29.9409 131.383 30.1056 130.968 30.1056V30.1024ZM156.283 126.251H44.7115C44.9008 125.752 44.9961 125.222 44.9928 124.688V99.2332H156.001V124.688C155.998 125.222 156.094 125.752 156.283 126.251Z" fill="#F3F2F2"/>
<path d="M155.988 78.8069H44.979V96.1052H155.988V78.8069Z" fill="#F3F2F2"/>
</svg>
