<svg width="60" height="65" viewBox="0 0 60 65" fill="none" xmlns="http://www.w3.org/2000/svg">
<g id="Group 221">
<path id="Vector" d="M59.7034 19.3538C59.6747 19.1174 59.5676 18.8975 59.3993 18.7291C59.2309 18.5608 59.011 18.4537 58.7746 18.425C58.3633 18.3751 48.6596 17.2684 43.1882 22.7398C38.3682 27.5598 38.6532 35.6565 38.8236 37.7988L49.2042 27.4188C49.405 27.2248 49.6741 27.1174 49.9533 27.1198C50.2326 27.1223 50.4997 27.2343 50.6972 27.4317C50.8947 27.6292 51.0067 27.8963 51.0091 28.1756C51.0115 28.4549 50.9042 28.7239 50.7102 28.9248L40.3296 39.3049C40.7663 39.3396 41.446 39.3789 42.2995 39.3789C45.6345 39.3789 51.5522 38.7766 55.3891 34.9402C60.8605 29.4683 59.7533 19.7642 59.7034 19.3538ZM9.29031 28.9248C9.0963 28.7239 8.98895 28.4549 8.99137 28.1756C8.9938 27.8963 9.10581 27.6292 9.30328 27.4317C9.50075 27.2343 9.76788 27.1223 10.0471 27.1198C10.3264 27.1174 10.5954 27.2248 10.7963 27.4188L21.1768 37.7988C21.3472 35.6565 21.6323 27.5598 16.8123 22.7398C11.3403 17.2673 1.63666 18.3751 1.22587 18.4247C0.989498 18.4535 0.769569 18.5606 0.601202 18.7289C0.432835 18.8973 0.325742 19.1172 0.297026 19.3536C0.247181 19.764 -0.860059 29.4681 4.61191 34.94C8.4488 38.7769 14.366 39.3787 17.7015 39.3787C18.5548 39.3787 19.2339 39.3394 19.6714 39.3047L9.29031 28.9248ZM30.0002 13.0341C30.2827 13.0341 30.5536 13.1464 30.7533 13.3461C30.9531 13.5458 31.0653 13.8167 31.0653 14.0992V28.7795C32.7008 27.3851 38.6272 21.8615 38.6272 15.0447C38.6272 7.30634 30.9825 1.2275 30.657 0.972628C30.4696 0.825548 30.2383 0.745605 30.0001 0.745605C29.7619 0.745605 29.5307 0.825548 29.3433 0.972628C29.0178 1.2275 21.3732 7.30634 21.3732 15.0447C21.3732 21.8611 27.2998 27.3851 28.9352 28.7795V14.0992C28.9352 13.8167 29.0474 13.5458 29.2471 13.3461C29.4469 13.1464 29.7178 13.0341 30.0002 13.0341Z" fill="#D5471A"/>
<path id="Vector_2" d="M57.6666 63.5754C57.6676 63.532 57.6658 63.4886 57.6612 63.4455C54.8882 52.1821 43.7981 43.9467 31.0653 43.5068V28.7793C30.8442 28.9678 30.6958 29.0861 30.657 29.1165C30.4696 29.2633 30.2383 29.3431 30.0002 29.3431C29.7621 29.3431 29.5308 29.2633 29.3434 29.1165C29.3046 29.0861 29.1563 28.9674 28.9352 28.7793V43.5068C16.2023 43.9471 5.11226 52.1824 2.33927 63.4458C2.33464 63.4889 2.33283 63.5324 2.33384 63.5757C2.32275 63.6167 2.31432 63.6583 2.30859 63.7003C2.30859 63.7294 2.32287 63.7536 2.32521 63.7823C2.33192 63.8546 2.3462 63.9259 2.36781 63.9953C2.38463 64.0585 2.40723 64.1201 2.43534 64.1792C2.50242 64.2961 2.58596 64.4028 2.68339 64.496C2.73477 64.5381 2.78997 64.5753 2.84826 64.6071C2.90942 64.6441 2.97419 64.6747 3.04157 64.6984C3.06915 64.7076 3.08982 64.7276 3.11847 64.7347C3.16092 64.7392 3.20361 64.7409 3.24627 64.7399C3.28813 64.7511 3.33068 64.7597 3.37366 64.7654H56.6268H56.6283C56.7136 64.7653 56.7987 64.7551 56.8816 64.7351C56.9103 64.7279 56.931 64.7079 56.9585 64.6987C57.0259 64.675 57.0907 64.6444 57.1519 64.6075C57.2101 64.5756 57.2653 64.5384 57.3167 64.4963C57.3662 64.4512 57.4113 64.4014 57.4513 64.3478C57.4946 64.2955 57.5326 64.2392 57.5648 64.1795C57.5929 64.1204 57.6155 64.0588 57.6323 63.9956C57.6539 63.9263 57.6682 63.8549 57.6749 63.7826C57.6776 63.7536 57.6918 63.7294 57.6918 63.7003C57.6861 63.6582 57.6777 63.6165 57.6666 63.5754Z" fill="#D5471A"/>
</g>
</svg>
