<svg width="38" height="39" viewBox="0 0 38 39" fill="none" xmlns="http://www.w3.org/2000/svg">
<rect y="0.607422" width="37.4991" height="37.4955" rx="18.7477" fill="#F3F2F2"/>
<g clip-path="url(#clip0_1171_1737)">
<path d="M13.873 16.3362V27.9741H9.99742V16.3362H13.873ZM14.1194 12.7432C14.1202 12.764 14.1209 12.7885 14.1209 12.8136C14.1209 13.3516 13.8924 13.8358 13.5275 14.1748L13.5261 14.1755C13.1346 14.5332 12.6109 14.7523 12.0354 14.7523C12.0002 14.7523 11.9643 14.7516 11.9291 14.7502H11.9342H11.9104C11.881 14.7516 11.8465 14.7523 11.812 14.7523C11.2488 14.7523 10.7373 14.5325 10.3573 14.1748L10.358 14.1755C9.99598 13.825 9.77185 13.3351 9.77185 12.7928C9.77185 12.7755 9.77185 12.7583 9.77257 12.7403V12.7432C9.77185 12.7281 9.77185 12.7109 9.77185 12.6937C9.77185 12.1463 10.0046 11.6535 10.376 11.308L10.3774 11.3073C10.7682 10.9518 11.2905 10.7334 11.863 10.7334C11.8961 10.7334 11.9284 10.7341 11.9615 10.7356H11.9571C11.988 10.7341 12.0232 10.7334 12.0599 10.7334C12.6238 10.7334 13.1374 10.951 13.521 11.3066L13.5196 11.3052C13.8896 11.6622 14.1194 12.1621 14.1194 12.7159V12.7461V12.7447V12.7432ZM27.8131 21.3054V27.9741H23.9497V21.75C23.9532 21.6933 23.9547 21.6272 23.9547 21.5611C23.9547 20.9175 23.7758 20.3163 23.4648 19.8034L23.4734 19.8185C23.1666 19.3904 22.671 19.1153 22.1113 19.1153C22.0682 19.1153 22.0251 19.1167 21.982 19.1203H21.9878C21.9684 19.1196 21.9461 19.1189 21.9238 19.1189C21.4785 19.1189 21.069 19.2719 20.745 19.5283L20.7493 19.5254C20.4239 19.7891 20.1689 20.1259 20.0079 20.5131L20.0022 20.5296C19.9189 20.7846 19.8715 21.0777 19.8715 21.3823C19.8715 21.4167 19.8722 21.4512 19.8736 21.4857V21.4807V27.9756H16.0102C16.026 24.8519 16.0339 22.3192 16.0339 20.3773C16.0339 18.4355 16.0301 17.2769 16.0224 16.9015L16.0109 16.3376H19.8743V18.0285H19.8506C20.0044 17.7807 20.1631 17.5659 20.3377 17.3648L20.3319 17.3712C20.5338 17.1493 20.7507 16.9489 20.9842 16.7693L20.9957 16.7607C21.2859 16.5373 21.6264 16.362 21.9957 16.255L22.0172 16.25C22.4037 16.1343 22.8484 16.0675 23.3082 16.0675H23.3649H23.362C23.413 16.0654 23.4727 16.0639 23.5323 16.0639C24.7399 16.0639 25.8275 16.5768 26.5897 17.3971L26.5918 17.4C27.4069 18.2888 27.8145 19.5903 27.8145 21.3047L27.8131 21.3054Z" fill="#1B1918"/>
</g>
<defs>
<clipPath id="clip0_1171_1737">
<rect width="17.9593" height="17.2393" fill="white" transform="translate(9.7699 10.7354)"/>
</clipPath>
</defs>
</svg>
