<svg width="301" height="249" viewBox="0 0 301 249" fill="none" xmlns="http://www.w3.org/2000/svg">
<path d="M39.3368 168.989C38.7051 168.989 38.1184 169.141 37.5769 169.446C37.0467 169.739 36.5785 170.151 36.1723 170.681C35.7775 171.2 35.4672 171.815 35.2416 172.526C35.016 173.236 34.9032 173.998 34.9032 174.81C34.9032 175.645 35.0893 176.418 35.4616 177.128C35.8452 177.828 36.3698 178.443 37.0354 178.973C37.7123 179.492 38.502 179.898 39.4045 180.191C40.3183 180.485 41.3111 180.631 42.3829 180.631C43.1613 180.631 43.8946 180.564 44.5828 180.428C45.2822 180.282 45.8914 180.09 46.4104 179.853C46.9293 179.616 47.3411 179.34 47.6457 179.024C47.9503 178.697 48.1026 178.353 48.1026 177.992C48.1026 177.71 48.0519 177.478 47.9503 177.298C47.8488 177.106 47.7303 176.937 47.595 176.79C47.4709 176.632 47.358 176.48 47.2565 176.333C47.155 176.175 47.1042 175.978 47.1042 175.741C47.1042 175.515 47.1606 175.301 47.2734 175.098C47.3862 174.895 47.5385 174.714 47.7303 174.556C47.9334 174.398 48.159 174.274 48.4072 174.184C48.6667 174.094 48.9318 174.049 49.2026 174.049C49.5297 174.049 49.8344 174.133 50.1164 174.302C50.4097 174.472 50.6579 174.709 50.861 175.013C51.0753 175.307 51.2389 175.656 51.3517 176.062C51.4758 176.457 51.5379 176.88 51.5379 177.332C51.5379 178.245 51.2953 179.097 50.8102 179.887C50.3251 180.665 49.6538 181.337 48.7964 181.901C47.939 182.465 46.9237 182.91 45.7504 183.237C44.5771 183.553 43.3023 183.711 41.926 183.711C40.4029 183.711 38.9984 183.508 37.7123 183.102C36.4262 182.685 35.3149 182.109 34.3786 181.376C33.4535 180.643 32.7315 179.774 32.2125 178.77C31.6936 177.766 31.4341 176.666 31.4341 175.47C31.4341 174.161 31.6597 172.926 32.111 171.764C32.5735 170.602 33.1997 169.587 33.9894 168.718C34.7791 167.849 35.6985 167.161 36.7477 166.654C37.8082 166.146 38.9363 165.892 40.1322 165.892C40.6624 165.892 41.1475 165.954 41.5875 166.078C42.0388 166.191 42.428 166.355 42.7552 166.569C43.0823 166.783 43.3362 167.037 43.5167 167.33C43.7085 167.612 43.8043 167.923 43.8043 168.261C43.8043 168.532 43.7423 168.791 43.6182 169.04C43.5054 169.277 43.3531 169.491 43.1613 169.683C42.9695 169.863 42.7439 170.01 42.4844 170.123C42.2362 170.235 41.9711 170.292 41.689 170.292C41.3957 170.292 41.1588 170.224 40.9783 170.089C40.8091 169.953 40.6511 169.807 40.5045 169.649C40.3578 169.48 40.1999 169.327 40.0307 169.192C39.8614 169.057 39.6302 168.989 39.3368 168.989Z" fill="#E7663D"/>
<path d="M51.2163 178.127C51.2163 177.935 51.2389 177.721 51.284 177.484C51.3292 177.247 51.3517 176.987 51.3517 176.705C51.3517 176.514 51.2671 176.367 51.0979 176.265C50.9399 176.164 50.7594 176.051 50.5564 175.927C50.3533 175.803 50.1672 175.645 49.9979 175.453C49.84 175.261 49.761 174.985 49.761 174.624C49.761 174.365 49.8287 174.105 49.9641 173.846C50.1108 173.586 50.3195 173.349 50.5902 173.135C51.2558 172.638 51.944 172.193 52.6547 171.798C53.3768 171.403 54.0932 171.07 54.8039 170.8C55.5259 170.529 56.2367 170.32 56.9361 170.173C57.6356 170.027 58.3068 169.953 58.9499 169.953C60.0329 169.953 61.0483 170.156 61.9959 170.563C62.9548 170.957 63.784 171.505 64.4835 172.204C65.1942 172.892 65.7527 173.705 66.1588 174.641C66.5762 175.566 66.7849 176.559 66.7849 177.619C66.7849 178.657 66.5649 179.644 66.125 180.581C65.6963 181.506 65.1153 182.318 64.382 183.017C63.6487 183.717 62.7856 184.27 61.7928 184.676C60.8113 185.093 59.7734 185.302 58.6791 185.302C57.6074 185.302 56.6146 185.122 55.7008 184.76C54.787 184.399 53.9973 183.903 53.3316 183.271C52.666 182.628 52.1471 181.872 51.7748 181.004C51.4025 180.124 51.2163 179.165 51.2163 178.127ZM59.0514 182.256C59.5252 182.256 60.016 182.16 60.5237 181.968C61.0313 181.777 61.4939 181.5 61.9113 181.139C62.34 180.767 62.6897 180.316 62.9605 179.785C63.2425 179.255 63.3835 178.657 63.3835 177.992C63.3835 177.315 63.2594 176.683 63.0112 176.096C62.7631 175.51 62.419 175.002 61.979 174.573C61.5503 174.133 61.037 173.789 60.439 173.541C59.8524 173.293 59.215 173.169 58.5268 173.169C57.2746 173.169 56.3156 173.496 55.65 174.15C54.9844 174.793 54.6516 175.786 54.6516 177.128C54.6516 177.862 54.7588 178.544 54.9731 179.176C55.1987 179.797 55.509 180.338 55.9038 180.801C56.2987 181.252 56.7612 181.607 57.2915 181.867C57.833 182.126 58.4196 182.256 59.0514 182.256Z" fill="#E7663D"/>
<path d="M72.5555 177.755C72.5555 179.266 72.7867 180.434 73.2493 181.258C73.7118 182.081 74.3831 182.493 75.2631 182.493C75.8159 182.493 76.3235 182.329 76.7861 182.002C77.2599 181.675 77.666 181.218 78.0045 180.631C78.3429 180.045 78.6024 179.351 78.7829 178.55C78.9747 177.738 79.0706 176.858 79.0706 175.91C79.0706 175.335 79.048 174.838 79.0029 174.421C78.9578 173.992 78.907 173.614 78.8506 173.287C78.8055 172.949 78.7603 172.65 78.7152 172.39C78.6701 172.131 78.6475 171.883 78.6475 171.646C78.6475 171.285 78.7998 171.025 79.1044 170.867C79.409 170.698 79.8941 170.613 80.5598 170.613C81.4059 170.613 82.0602 170.805 82.5228 171.189C82.9966 171.572 83.2335 172.131 83.2335 172.864C83.2335 174.861 83.0361 176.655 82.6412 178.245C82.2576 179.836 81.6992 181.19 80.9659 182.307C80.2439 183.412 79.3639 184.264 78.326 184.862C77.2881 185.46 76.1261 185.759 74.84 185.759C73.9262 185.759 73.0801 185.567 72.3016 185.184C71.5345 184.811 70.8689 184.287 70.3048 183.61C69.752 182.922 69.3177 182.109 69.0018 181.173C68.6859 180.225 68.5279 179.187 68.5279 178.059C68.5279 177.631 68.5392 177.174 68.5618 176.689C68.5844 176.203 68.6182 175.684 68.6633 175.132C68.7085 174.568 68.7649 173.958 68.8325 173.304C68.9115 172.65 68.9961 171.939 69.0864 171.172C69.1202 170.845 69.2725 170.585 69.5433 170.393C69.8253 170.19 70.1807 170.089 70.6094 170.089C70.993 170.089 71.354 170.128 71.6924 170.207C72.0309 170.286 72.3186 170.393 72.5555 170.529C72.8037 170.664 72.9955 170.822 73.1308 171.003C73.2775 171.183 73.3508 171.375 73.3508 171.578C73.3508 171.781 73.3057 172.103 73.2154 172.543C73.1365 172.971 73.0462 173.468 72.9447 174.032C72.8544 174.585 72.7642 175.188 72.6739 175.842C72.595 176.485 72.5555 177.123 72.5555 177.755Z" fill="#E7663D"/>
<path d="M84.3673 164.471C84.3673 163.884 84.5365 163.466 84.875 163.218C85.2134 162.97 85.7719 162.846 86.5503 162.846C86.821 162.846 87.058 162.874 87.261 162.931C87.4641 162.987 87.6333 163.083 87.7687 163.218C87.9041 163.342 88.0112 163.517 88.0902 163.743C88.1805 163.957 88.2538 164.234 88.3102 164.572C88.4569 165.576 88.6035 166.631 88.7502 167.737C88.9081 168.831 89.0548 169.925 89.1902 171.02C89.3368 172.103 89.4722 173.163 89.5963 174.201C89.7204 175.228 89.8276 176.186 89.9178 177.078C90.0194 177.958 90.0927 178.742 90.1378 179.43C90.1942 180.107 90.2224 180.643 90.2224 181.038C90.2224 181.444 90.183 181.788 90.104 182.07C90.0363 182.352 89.9122 182.578 89.7317 182.747C89.5625 182.916 89.3368 183.04 89.0548 183.119C88.784 183.187 88.4456 183.221 88.0395 183.221C87.6446 183.221 87.3287 183.119 87.0918 182.916C86.8662 182.713 86.7534 182.403 86.7534 181.985C86.7534 181.557 86.7195 180.987 86.6518 180.276C86.5841 179.554 86.4939 178.753 86.3811 177.873C86.2682 176.993 86.1385 176.057 85.9918 175.064C85.8565 174.071 85.7098 173.09 85.5519 172.119C85.4052 171.149 85.2585 170.219 85.1119 169.327C84.9765 168.425 84.8524 167.629 84.7396 166.941C84.6268 166.242 84.5365 165.672 84.4688 165.232C84.4011 164.781 84.3673 164.527 84.3673 164.471Z" fill="#E7663D"/>
<path d="M107.331 180.039C107.658 179.757 107.98 179.616 108.296 179.616C108.476 179.616 108.64 179.661 108.786 179.751C108.933 179.842 109.097 179.983 109.277 180.175C109.446 180.434 109.565 180.648 109.632 180.818C109.711 180.976 109.751 181.133 109.751 181.291C109.751 181.63 109.582 181.951 109.243 182.256C108.702 182.707 108.115 183.113 107.483 183.474C106.852 183.824 106.192 184.123 105.503 184.371C104.815 184.619 104.104 184.806 103.371 184.93C102.638 185.065 101.91 185.133 101.188 185.133C100.274 185.133 99.4169 185.014 98.6159 184.777C97.8149 184.552 97.0986 184.225 96.4668 183.796C95.8463 183.367 95.3217 182.854 94.893 182.256C94.4643 181.647 94.1597 180.964 93.9792 180.208C93.8777 179.892 93.7818 179.689 93.6915 179.599C93.6126 179.498 93.4772 179.447 93.2854 179.447C92.868 179.447 92.5464 179.345 92.3208 179.142C92.0952 178.939 91.9824 178.646 91.9824 178.262C91.9824 178.104 91.9936 178.003 92.0162 177.958L92.0501 177.619C92.1065 177.213 92.2136 176.92 92.3716 176.739C92.5408 176.559 92.8003 176.469 93.15 176.469H93.4038C93.8777 176.469 94.2105 176.249 94.4023 175.809C94.752 175.03 95.1976 174.319 95.7391 173.676C96.2807 173.033 96.8899 172.486 97.5668 172.035C98.2436 171.572 98.9657 171.217 99.7328 170.969C100.511 170.709 101.301 170.58 102.102 170.58C102.937 170.58 103.715 170.704 104.437 170.952C105.171 171.189 105.808 171.522 106.349 171.95C106.891 172.379 107.314 172.881 107.619 173.456C107.935 174.032 108.092 174.652 108.092 175.318C108.092 175.78 108.002 176.203 107.822 176.587C107.641 176.971 107.382 177.309 107.043 177.602C106.705 177.884 106.293 178.116 105.808 178.296C105.334 178.477 104.793 178.595 104.183 178.652L98.3113 179.244C98.0857 179.244 97.8996 179.3 97.7529 179.413C97.6175 179.526 97.5498 179.678 97.5498 179.87C97.5498 180.163 97.657 180.445 97.8714 180.716C98.097 180.987 98.3903 181.229 98.7513 181.444C99.1236 181.647 99.5467 181.81 100.02 181.934C100.506 182.059 101.002 182.121 101.51 182.121C101.995 182.121 102.491 182.075 102.999 181.985C103.518 181.884 104.025 181.743 104.522 181.562C105.03 181.382 105.52 181.167 105.994 180.919C106.468 180.66 106.914 180.366 107.331 180.039ZM103.557 175.673C103.727 175.639 103.873 175.56 103.997 175.436C104.121 175.301 104.183 175.137 104.183 174.946C104.183 174.776 104.121 174.618 103.997 174.472C103.873 174.325 103.704 174.195 103.49 174.082C103.275 173.958 103.027 173.862 102.745 173.795C102.463 173.727 102.164 173.693 101.848 173.693C101.386 173.693 100.912 173.761 100.427 173.896C99.9415 174.032 99.5015 174.212 99.1067 174.438C98.7118 174.652 98.3903 174.895 98.1421 175.166C97.8939 175.425 97.7698 175.684 97.7698 175.944C97.7698 176.203 97.9278 176.333 98.2436 176.333C98.4354 176.333 98.7457 176.311 99.1744 176.265C99.6031 176.22 100.077 176.17 100.596 176.113C101.115 176.045 101.639 175.972 102.17 175.893C102.7 175.814 103.162 175.741 103.557 175.673Z" fill="#E7663D"/>
<path d="M114.388 177.755C114.388 179.266 114.619 180.434 115.081 181.258C115.544 182.081 116.215 182.493 117.095 182.493C117.648 182.493 118.156 182.329 118.618 182.002C119.092 181.675 119.498 181.218 119.837 180.631C120.175 180.045 120.435 179.351 120.615 178.55C120.807 177.738 120.903 176.858 120.903 175.91C120.903 175.335 120.88 174.838 120.835 174.421C120.79 173.992 120.739 173.614 120.683 173.287C120.638 172.949 120.592 172.65 120.547 172.39C120.502 172.131 120.48 171.883 120.48 171.646C120.48 171.285 120.632 171.025 120.937 170.867C121.241 170.698 121.726 170.613 122.392 170.613C123.238 170.613 123.892 170.805 124.355 171.189C124.829 171.572 125.066 172.131 125.066 172.864C125.066 174.861 124.868 176.655 124.473 178.245C124.09 179.836 123.531 181.19 122.798 182.307C122.076 183.412 121.196 184.264 120.158 184.862C119.12 185.46 117.958 185.759 116.672 185.759C115.758 185.759 114.912 185.567 114.134 185.184C113.367 184.811 112.701 184.287 112.137 183.61C111.584 182.922 111.15 182.109 110.834 181.173C110.518 180.225 110.36 179.187 110.36 178.059C110.36 177.631 110.371 177.174 110.394 176.689C110.416 176.203 110.45 175.684 110.495 175.132C110.541 174.568 110.597 173.958 110.665 173.304C110.744 172.65 110.828 171.939 110.919 171.172C110.952 170.845 111.105 170.585 111.375 170.393C111.657 170.19 112.013 170.089 112.442 170.089C112.825 170.089 113.186 170.128 113.525 170.207C113.863 170.286 114.151 170.393 114.388 170.529C114.636 170.664 114.828 170.822 114.963 171.003C115.11 171.183 115.183 171.375 115.183 171.578C115.183 171.781 115.138 172.103 115.048 172.543C114.969 172.971 114.878 173.468 114.777 174.032C114.687 174.585 114.596 175.188 114.506 175.842C114.427 176.485 114.388 177.123 114.388 177.755Z" fill="#E7663D"/>
<path d="M136.285 171.087C135.868 171.087 135.501 171.2 135.185 171.426C134.869 171.64 134.599 171.945 134.373 172.339C134.147 172.723 133.961 173.18 133.814 173.71C133.668 174.229 133.549 174.799 133.459 175.419C133.369 176.04 133.307 176.689 133.273 177.365C133.239 178.042 133.222 178.725 133.222 179.413C133.222 180.316 133.256 181.207 133.324 182.087C133.403 182.955 133.442 183.762 133.442 184.507C133.442 184.992 133.262 185.37 132.901 185.64C132.54 185.922 132.026 186.064 131.361 186.064C131.237 186.064 131.096 186.052 130.938 186.03C130.78 186.007 130.627 185.962 130.481 185.894C130.345 185.827 130.221 185.731 130.108 185.607C130.007 185.494 129.951 185.336 129.939 185.133C129.838 184.14 129.691 183.125 129.499 182.087C129.308 181.049 129.065 180.017 128.772 178.99C128.49 177.952 128.145 176.925 127.739 175.91C127.345 174.895 126.888 173.902 126.369 172.932C126.278 172.763 126.199 172.605 126.132 172.458C126.075 172.311 126.047 172.17 126.047 172.035C126.047 171.866 126.12 171.685 126.267 171.493C126.425 171.29 126.617 171.104 126.842 170.935C127.079 170.766 127.333 170.63 127.604 170.529C127.886 170.416 128.157 170.36 128.416 170.36C128.845 170.36 129.223 170.659 129.55 171.256C129.877 171.843 130.182 172.785 130.464 174.082C130.52 174.308 130.565 174.466 130.599 174.556C130.633 174.647 130.678 174.692 130.735 174.692C130.859 174.692 130.938 174.5 130.972 174.116C131.107 173.045 131.338 172.125 131.665 171.358C131.993 170.58 132.399 169.942 132.884 169.446C133.38 168.938 133.944 168.566 134.576 168.329C135.219 168.092 135.924 167.973 136.691 167.973C137.131 167.973 137.577 168.013 138.028 168.092C138.479 168.171 138.886 168.289 139.247 168.447C139.608 168.605 139.901 168.797 140.127 169.023C140.352 169.248 140.465 169.502 140.465 169.784C140.465 169.987 140.42 170.23 140.33 170.512C140.251 170.783 140.143 171.048 140.008 171.307C139.873 171.555 139.715 171.77 139.534 171.95C139.365 172.119 139.19 172.204 139.01 172.204C138.807 172.204 138.609 172.148 138.417 172.035C138.226 171.911 138.017 171.781 137.791 171.646C137.577 171.51 137.346 171.386 137.097 171.273C136.861 171.149 136.59 171.087 136.285 171.087Z" fill="#E7663D"/>
<path d="M143.613 169.057C144.368 169.057 145.147 169.158 145.948 169.361C146.749 169.553 147.482 169.807 148.148 170.123C148.813 170.427 149.361 170.771 149.789 171.155C150.218 171.538 150.432 171.911 150.432 172.272C150.432 172.452 150.353 172.655 150.195 172.881C150.037 173.095 149.846 173.304 149.62 173.507C149.394 173.699 149.146 173.862 148.875 173.998C148.616 174.122 148.385 174.184 148.182 174.184C147.911 174.184 147.606 174.071 147.268 173.846C146.941 173.62 146.574 173.372 146.168 173.101C145.773 172.819 145.339 172.565 144.865 172.339C144.391 172.114 143.878 172.001 143.325 172.001C142.964 172.001 142.665 172.091 142.428 172.272C142.202 172.441 142.09 172.684 142.09 172.999C142.09 173.281 142.225 173.569 142.496 173.862C142.766 174.145 143.122 174.438 143.562 174.742C144.013 175.047 144.521 175.369 145.085 175.707C145.649 176.045 146.224 176.406 146.811 176.79C147.409 177.174 147.99 177.591 148.554 178.042C149.118 178.494 149.62 178.984 150.06 179.515C150.511 180.045 150.872 180.626 151.143 181.258C151.414 181.878 151.549 182.555 151.549 183.288C151.549 183.92 151.436 184.495 151.211 185.014C150.985 185.533 150.664 185.979 150.246 186.351C149.829 186.723 149.332 187.011 148.757 187.214C148.182 187.417 147.55 187.519 146.862 187.519C145.993 187.519 145.192 187.383 144.459 187.113C143.725 186.853 143.094 186.492 142.563 186.03C142.033 185.567 141.616 185.014 141.311 184.371C141.018 183.728 140.871 183.023 140.871 182.256C140.871 181.263 141.046 180.541 141.396 180.09C141.757 179.639 142.321 179.413 143.088 179.413C143.562 179.413 143.94 179.503 144.222 179.684C144.504 179.864 144.645 180.084 144.645 180.344C144.645 180.479 144.622 180.62 144.577 180.767C144.532 180.902 144.481 181.049 144.425 181.207C144.38 181.353 144.335 181.511 144.289 181.681C144.256 181.85 144.239 182.019 144.239 182.188C144.239 182.482 144.306 182.764 144.442 183.034C144.577 183.305 144.758 183.542 144.983 183.745C145.22 183.96 145.491 184.129 145.796 184.253C146.1 184.377 146.422 184.439 146.76 184.439C147.663 184.439 148.114 184.067 148.114 183.322C148.114 182.735 147.883 182.183 147.42 181.664C146.958 181.133 146.377 180.62 145.677 180.124C144.978 179.616 144.222 179.108 143.409 178.601C142.608 178.093 141.858 177.563 141.159 177.01C140.459 176.457 139.878 175.871 139.416 175.25C138.953 174.618 138.722 173.936 138.722 173.203C138.722 172.593 138.846 172.035 139.094 171.527C139.354 171.02 139.703 170.585 140.143 170.224C140.583 169.852 141.097 169.564 141.683 169.361C142.281 169.158 142.924 169.057 143.613 169.057Z" fill="#E7663D"/>
<path d="M163.767 176.807C163.767 177.484 163.931 178.116 164.258 178.702C164.596 179.278 165.036 179.785 165.578 180.225C166.119 180.654 166.74 180.992 167.439 181.241C168.139 181.478 168.855 181.596 169.588 181.596C169.814 181.596 170.045 181.579 170.282 181.545C170.519 181.5 170.733 181.427 170.925 181.325C171.117 181.224 171.275 181.094 171.399 180.936C171.523 180.767 171.585 180.558 171.585 180.31C171.585 179.836 171.416 179.368 171.078 178.905C170.75 178.443 170.316 177.986 169.775 177.535C169.233 177.072 168.613 176.615 167.913 176.164C167.214 175.701 166.503 175.244 165.781 174.793C165.059 174.342 164.348 173.891 163.649 173.439C162.949 172.977 162.329 172.52 161.787 172.069C161.246 171.606 160.806 171.144 160.467 170.681C160.14 170.207 159.977 169.733 159.977 169.26C159.977 168.808 160.089 168.391 160.315 168.007C160.552 167.612 160.862 167.257 161.246 166.941C161.629 166.625 162.075 166.343 162.583 166.095C163.09 165.847 163.62 165.638 164.173 165.469C164.726 165.3 165.279 165.176 165.832 165.097C166.396 165.006 166.932 164.961 167.439 164.961C167.812 164.961 168.218 164.973 168.658 164.995C169.109 165.006 169.526 165.057 169.91 165.147C170.305 165.226 170.632 165.351 170.891 165.52C171.151 165.689 171.281 165.932 171.281 166.247C171.281 166.349 171.264 166.479 171.23 166.637C171.196 166.783 171.1 167.031 170.942 167.381C170.784 167.708 170.598 167.957 170.384 168.126C170.181 168.284 169.916 168.363 169.588 168.363C169.126 168.363 168.635 168.312 168.116 168.21C167.608 168.098 167.095 168.041 166.576 168.041C166.294 168.041 166.007 168.058 165.713 168.092C165.431 168.115 165.172 168.165 164.935 168.244C164.698 168.312 164.506 168.419 164.359 168.566C164.213 168.701 164.139 168.876 164.139 169.09C164.139 169.305 164.292 169.547 164.596 169.818C164.912 170.089 165.324 170.388 165.832 170.715C166.351 171.042 166.937 171.403 167.592 171.798C168.246 172.182 168.912 172.599 169.588 173.05C170.277 173.49 170.948 173.964 171.602 174.472C172.257 174.968 172.838 175.498 173.345 176.062C173.864 176.615 174.276 177.202 174.581 177.822C174.896 178.443 175.054 179.086 175.054 179.751C175.054 180.564 174.868 181.28 174.496 181.901C174.124 182.521 173.644 183.04 173.058 183.457C172.471 183.875 171.822 184.185 171.111 184.388C170.401 184.603 169.707 184.71 169.03 184.71C168.342 184.71 167.642 184.625 166.932 184.456C166.232 184.298 165.555 184.067 164.901 183.762C164.247 183.469 163.632 183.113 163.056 182.696C162.492 182.267 162.002 181.793 161.584 181.274C161.167 180.744 160.834 180.175 160.586 179.565C160.349 178.956 160.23 178.319 160.23 177.653C160.23 177.371 160.247 177.089 160.281 176.807C160.326 176.514 160.4 176.26 160.501 176.045C160.603 175.82 160.744 175.639 160.924 175.504C161.105 175.357 161.336 175.284 161.618 175.284C161.708 175.284 161.81 175.295 161.923 175.318C162.035 175.329 162.233 175.38 162.515 175.47C162.842 175.572 163.13 175.735 163.378 175.961C163.637 176.175 163.767 176.457 163.767 176.807Z" fill="#E7663D"/>
<path d="M190.86 180.039C191.187 179.757 191.509 179.616 191.824 179.616C192.005 179.616 192.169 179.661 192.315 179.751C192.462 179.842 192.625 179.983 192.806 180.175C192.975 180.434 193.094 180.648 193.161 180.818C193.24 180.976 193.28 181.133 193.28 181.291C193.28 181.63 193.111 181.951 192.772 182.256C192.231 182.707 191.644 183.113 191.012 183.474C190.38 183.824 189.72 184.123 189.032 184.371C188.344 184.619 187.633 184.806 186.9 184.93C186.167 185.065 185.439 185.133 184.717 185.133C183.803 185.133 182.946 185.014 182.145 184.777C181.344 184.552 180.627 184.225 179.996 183.796C179.375 183.367 178.851 182.854 178.422 182.256C177.993 181.647 177.689 180.964 177.508 180.208C177.407 179.892 177.311 179.689 177.22 179.599C177.141 179.498 177.006 179.447 176.814 179.447C176.397 179.447 176.075 179.345 175.85 179.142C175.624 178.939 175.511 178.646 175.511 178.262C175.511 178.104 175.523 178.003 175.545 177.958L175.579 177.619C175.635 177.213 175.743 176.92 175.9 176.739C176.07 176.559 176.329 176.469 176.679 176.469H176.933C177.407 176.469 177.739 176.249 177.931 175.809C178.281 175.03 178.727 174.319 179.268 173.676C179.81 173.033 180.419 172.486 181.096 172.035C181.773 171.572 182.495 171.217 183.262 170.969C184.04 170.709 184.83 170.58 185.631 170.58C186.466 170.58 187.244 170.704 187.966 170.952C188.699 171.189 189.337 171.522 189.878 171.95C190.42 172.379 190.843 172.881 191.148 173.456C191.463 174.032 191.621 174.652 191.621 175.318C191.621 175.78 191.531 176.203 191.351 176.587C191.17 176.971 190.911 177.309 190.572 177.602C190.234 177.884 189.822 178.116 189.337 178.296C188.863 178.477 188.321 178.595 187.712 178.652L181.84 179.244C181.615 179.244 181.428 179.3 181.282 179.413C181.146 179.526 181.079 179.678 181.079 179.87C181.079 180.163 181.186 180.445 181.4 180.716C181.626 180.987 181.919 181.229 182.28 181.444C182.652 181.647 183.076 181.81 183.549 181.934C184.034 182.059 184.531 182.121 185.039 182.121C185.524 182.121 186.02 182.075 186.528 181.985C187.047 181.884 187.554 181.743 188.051 181.562C188.558 181.382 189.049 181.167 189.523 180.919C189.997 180.66 190.442 180.366 190.86 180.039ZM187.086 175.673C187.255 175.639 187.402 175.56 187.526 175.436C187.65 175.301 187.712 175.137 187.712 174.946C187.712 174.776 187.65 174.618 187.526 174.472C187.402 174.325 187.233 174.195 187.018 174.082C186.804 173.958 186.556 173.862 186.274 173.795C185.992 173.727 185.693 173.693 185.377 173.693C184.914 173.693 184.441 173.761 183.956 173.896C183.47 174.032 183.03 174.212 182.636 174.438C182.241 174.652 181.919 174.895 181.671 175.166C181.423 175.425 181.299 175.684 181.299 175.944C181.299 176.203 181.457 176.333 181.773 176.333C181.964 176.333 182.275 176.311 182.703 176.265C183.132 176.22 183.606 176.17 184.125 176.113C184.644 176.045 185.168 175.972 185.699 175.893C186.229 175.814 186.691 175.741 187.086 175.673Z" fill="#E7663D"/>
<path d="M203.535 171.087C203.117 171.087 202.751 171.2 202.435 171.426C202.119 171.64 201.848 171.945 201.622 172.339C201.397 172.723 201.211 173.18 201.064 173.71C200.917 174.229 200.799 174.799 200.709 175.419C200.618 176.04 200.556 176.689 200.523 177.365C200.489 178.042 200.472 178.725 200.472 179.413C200.472 180.316 200.506 181.207 200.573 182.087C200.652 182.955 200.692 183.762 200.692 184.507C200.692 184.992 200.511 185.37 200.15 185.64C199.789 185.922 199.276 186.064 198.61 186.064C198.486 186.064 198.345 186.052 198.187 186.03C198.029 186.007 197.877 185.962 197.73 185.894C197.595 185.827 197.471 185.731 197.358 185.607C197.257 185.494 197.2 185.336 197.189 185.133C197.087 184.14 196.941 183.125 196.749 182.087C196.557 181.049 196.314 180.017 196.021 178.99C195.739 177.952 195.395 176.925 194.989 175.91C194.594 174.895 194.137 173.902 193.618 172.932C193.528 172.763 193.449 172.605 193.381 172.458C193.325 172.311 193.297 172.17 193.297 172.035C193.297 171.866 193.37 171.685 193.517 171.493C193.675 171.29 193.866 171.104 194.092 170.935C194.329 170.766 194.583 170.63 194.854 170.529C195.136 170.416 195.406 170.36 195.666 170.36C196.095 170.36 196.472 170.659 196.8 171.256C197.127 171.843 197.431 172.785 197.713 174.082C197.77 174.308 197.815 174.466 197.849 174.556C197.883 174.647 197.928 174.692 197.984 174.692C198.108 174.692 198.187 174.5 198.221 174.116C198.356 173.045 198.588 172.125 198.915 171.358C199.242 170.58 199.648 169.942 200.133 169.446C200.63 168.938 201.194 168.566 201.826 168.329C202.469 168.092 203.174 167.973 203.941 167.973C204.381 167.973 204.826 168.013 205.278 168.092C205.729 168.171 206.135 168.289 206.496 168.447C206.857 168.605 207.15 168.797 207.376 169.023C207.602 169.248 207.715 169.502 207.715 169.784C207.715 169.987 207.669 170.23 207.579 170.512C207.5 170.783 207.393 171.048 207.258 171.307C207.122 171.555 206.964 171.77 206.784 171.95C206.615 172.119 206.44 172.204 206.259 172.204C206.056 172.204 205.859 172.148 205.667 172.035C205.475 171.911 205.266 171.781 205.041 171.646C204.826 171.51 204.595 171.386 204.347 171.273C204.11 171.149 203.839 171.087 203.535 171.087Z" fill="#E7663D"/>
<path d="M215.702 170.681C215.736 170.365 215.775 170.106 215.82 169.903C215.877 169.688 215.956 169.519 216.057 169.395C216.17 169.26 216.311 169.164 216.48 169.107C216.65 169.051 216.864 169.023 217.123 169.023C217.947 169.023 218.551 169.147 218.934 169.395C219.329 169.632 219.526 170.015 219.526 170.546C219.526 170.647 219.504 170.873 219.459 171.223C219.425 171.561 219.374 171.984 219.306 172.492C219.239 172.988 219.16 173.541 219.069 174.15C218.99 174.748 218.912 175.357 218.833 175.978C218.629 177.422 218.398 179.041 218.139 180.835C217.981 181.895 217.665 182.656 217.191 183.119C216.729 183.582 216.04 183.813 215.127 183.813C214.438 183.813 213.728 183.638 212.994 183.288C212.261 182.939 211.55 182.465 210.862 181.867C210.174 181.269 209.52 180.575 208.899 179.785C208.29 178.984 207.754 178.138 207.291 177.247C206.829 176.344 206.462 175.425 206.192 174.489C205.932 173.552 205.802 172.638 205.802 171.747C205.802 170.743 205.943 169.993 206.225 169.497C206.519 168.989 207.021 168.735 207.731 168.735C208.228 168.735 208.64 168.769 208.967 168.837C209.294 168.893 209.553 169 209.745 169.158C209.948 169.305 210.089 169.502 210.168 169.75C210.259 169.999 210.304 170.309 210.304 170.681C210.304 170.929 210.292 171.177 210.27 171.426C210.247 171.674 210.236 171.922 210.236 172.17C210.236 172.746 210.292 173.349 210.405 173.981C210.529 174.601 210.693 175.211 210.896 175.809C211.099 176.406 211.336 176.976 211.607 177.518C211.877 178.048 212.165 178.516 212.47 178.922C212.774 179.328 213.079 179.65 213.384 179.887C213.699 180.124 214.004 180.242 214.297 180.242C214.5 180.242 214.653 180.175 214.754 180.039C214.867 179.904 214.94 179.672 214.974 179.345L215.702 170.681Z" fill="#E7663D"/>
<path d="M224.485 166.484C224.157 166.484 223.847 166.439 223.554 166.349C223.272 166.247 223.024 166.112 222.809 165.943C222.606 165.762 222.443 165.554 222.319 165.317C222.194 165.08 222.132 164.82 222.132 164.538C222.132 164.064 222.319 163.681 222.691 163.388C223.074 163.094 223.582 162.948 224.214 162.948C224.507 162.948 224.789 163.004 225.06 163.117C225.331 163.218 225.568 163.359 225.771 163.54C225.985 163.72 226.154 163.935 226.278 164.183C226.402 164.42 226.465 164.668 226.465 164.927C226.465 165.413 226.284 165.796 225.923 166.078C225.573 166.349 225.094 166.484 224.485 166.484ZM222.166 171.646C222.166 171.251 222.335 170.929 222.674 170.681C223.024 170.422 223.481 170.292 224.045 170.292C225.06 170.292 225.602 170.642 225.669 171.341C225.714 171.826 225.759 172.373 225.805 172.983C225.861 173.592 225.912 174.24 225.957 174.929C226.013 175.605 226.058 176.311 226.092 177.044C226.137 177.766 226.177 178.482 226.211 179.193C226.245 179.892 226.273 180.569 226.295 181.224C226.318 181.878 226.329 182.476 226.329 183.017C226.329 183.582 226.126 184.005 225.72 184.287C225.325 184.569 224.744 184.71 223.977 184.71C223.627 184.71 223.351 184.625 223.148 184.456C222.956 184.298 222.86 184.061 222.86 183.745C222.86 182.188 222.821 180.733 222.742 179.379C222.674 178.014 222.595 176.801 222.505 175.741C222.426 174.68 222.347 173.8 222.268 173.101C222.2 172.39 222.166 171.905 222.166 171.646Z" fill="#E7663D"/>
<path d="M235.433 169.784C236.02 169.784 236.59 169.869 237.143 170.038C237.695 170.207 238.18 170.439 238.598 170.732C239.027 171.014 239.371 171.341 239.63 171.713C239.89 172.074 240.019 172.447 240.019 172.83C240.019 173.078 239.969 173.321 239.867 173.558C239.766 173.784 239.63 173.987 239.461 174.167C239.292 174.336 239.1 174.477 238.886 174.59C238.671 174.692 238.446 174.742 238.209 174.742C237.949 174.742 237.712 174.647 237.498 174.455C237.284 174.252 237.052 174.032 236.804 173.795C236.567 173.547 236.296 173.327 235.992 173.135C235.699 172.932 235.343 172.83 234.926 172.83C234.52 172.83 234.153 172.926 233.826 173.118C233.499 173.31 233.222 173.58 232.997 173.93C232.782 174.269 232.613 174.675 232.489 175.149C232.376 175.611 232.32 176.119 232.32 176.672C232.32 178.251 232.619 179.458 233.217 180.293C233.814 181.117 234.672 181.528 235.789 181.528C236.319 181.528 236.77 181.444 237.143 181.274C237.526 181.105 237.859 180.919 238.141 180.716C238.434 180.513 238.699 180.327 238.936 180.158C239.173 179.988 239.416 179.904 239.664 179.904C239.799 179.904 239.935 179.949 240.07 180.039C240.206 180.118 240.324 180.225 240.426 180.361C240.538 180.485 240.629 180.626 240.696 180.784C240.775 180.942 240.815 181.1 240.815 181.258C240.815 181.63 240.629 182.013 240.256 182.408C239.895 182.803 239.427 183.164 238.852 183.491C238.276 183.807 237.633 184.067 236.923 184.27C236.223 184.473 235.541 184.574 234.875 184.574C233.984 184.574 233.166 184.399 232.421 184.05C231.677 183.711 231.034 183.237 230.492 182.628C229.951 182.008 229.527 181.269 229.223 180.411C228.93 179.554 228.783 178.606 228.783 177.568C228.783 176.44 228.946 175.402 229.274 174.455C229.612 173.507 230.075 172.689 230.661 172.001C231.259 171.302 231.964 170.76 232.777 170.376C233.589 169.982 234.474 169.784 235.433 169.784Z" fill="#E7663D"/>
<path d="M255.639 180.039C255.966 179.757 256.287 179.616 256.603 179.616C256.784 179.616 256.947 179.661 257.094 179.751C257.241 179.842 257.404 179.983 257.585 180.175C257.754 180.434 257.872 180.648 257.94 180.818C258.019 180.976 258.059 181.133 258.059 181.291C258.059 181.63 257.889 181.951 257.551 182.256C257.009 182.707 256.423 183.113 255.791 183.474C255.159 183.824 254.499 184.123 253.811 184.371C253.123 184.619 252.412 184.806 251.679 184.93C250.946 185.065 250.218 185.133 249.496 185.133C248.582 185.133 247.725 185.014 246.924 184.777C246.123 184.552 245.406 184.225 244.775 183.796C244.154 183.367 243.629 182.854 243.201 182.256C242.772 181.647 242.467 180.964 242.287 180.208C242.185 179.892 242.09 179.689 241.999 179.599C241.92 179.498 241.785 179.447 241.593 179.447C241.176 179.447 240.854 179.345 240.629 179.142C240.403 178.939 240.29 178.646 240.29 178.262C240.29 178.104 240.301 178.003 240.324 177.958L240.358 177.619C240.414 177.213 240.521 176.92 240.679 176.739C240.849 176.559 241.108 176.469 241.458 176.469H241.712C242.185 176.469 242.518 176.249 242.71 175.809C243.06 175.03 243.505 174.319 244.047 173.676C244.588 173.033 245.198 172.486 245.875 172.035C246.551 171.572 247.273 171.217 248.041 170.969C248.819 170.709 249.609 170.58 250.41 170.58C251.245 170.58 252.023 170.704 252.745 170.952C253.478 171.189 254.116 171.522 254.657 171.95C255.199 172.379 255.622 172.881 255.926 173.456C256.242 174.032 256.4 174.652 256.4 175.318C256.4 175.78 256.31 176.203 256.129 176.587C255.949 176.971 255.689 177.309 255.351 177.602C255.013 177.884 254.601 178.116 254.116 178.296C253.642 178.477 253.1 178.595 252.491 178.652L246.619 179.244C246.393 179.244 246.207 179.3 246.061 179.413C245.925 179.526 245.858 179.678 245.858 179.87C245.858 180.163 245.965 180.445 246.179 180.716C246.405 180.987 246.698 181.229 247.059 181.444C247.431 181.647 247.854 181.81 248.328 181.934C248.813 182.059 249.31 182.121 249.817 182.121C250.303 182.121 250.799 182.075 251.307 181.985C251.826 181.884 252.333 181.743 252.83 181.562C253.337 181.382 253.828 181.167 254.302 180.919C254.776 180.66 255.221 180.366 255.639 180.039ZM251.865 175.673C252.034 175.639 252.181 175.56 252.305 175.436C252.429 175.301 252.491 175.137 252.491 174.946C252.491 174.776 252.429 174.618 252.305 174.472C252.181 174.325 252.012 174.195 251.797 174.082C251.583 173.958 251.335 173.862 251.053 173.795C250.771 173.727 250.472 173.693 250.156 173.693C249.693 173.693 249.22 173.761 248.734 173.896C248.249 174.032 247.809 174.212 247.414 174.438C247.02 174.652 246.698 174.895 246.45 175.166C246.202 175.425 246.078 175.684 246.078 175.944C246.078 176.203 246.236 176.333 246.551 176.333C246.743 176.333 247.053 176.311 247.482 176.265C247.911 176.22 248.385 176.17 248.904 176.113C249.423 176.045 249.947 175.972 250.477 175.893C251.008 175.814 251.47 175.741 251.865 175.673Z" fill="#E7663D"/>
<path d="M263.355 169.057C264.111 169.057 264.89 169.158 265.691 169.361C266.492 169.553 267.225 169.807 267.891 170.123C268.556 170.427 269.103 170.771 269.532 171.155C269.961 171.538 270.175 171.911 270.175 172.272C270.175 172.452 270.096 172.655 269.938 172.881C269.78 173.095 269.588 173.304 269.363 173.507C269.137 173.699 268.889 173.862 268.618 173.998C268.359 174.122 268.127 174.184 267.924 174.184C267.654 174.184 267.349 174.071 267.011 173.846C266.683 173.62 266.317 173.372 265.911 173.101C265.516 172.819 265.081 172.565 264.608 172.339C264.134 172.114 263.62 172.001 263.068 172.001C262.707 172.001 262.408 172.091 262.171 172.272C261.945 172.441 261.832 172.684 261.832 172.999C261.832 173.281 261.968 173.569 262.238 173.862C262.509 174.145 262.865 174.438 263.305 174.742C263.756 175.047 264.264 175.369 264.828 175.707C265.392 176.045 265.967 176.406 266.554 176.79C267.152 177.174 267.733 177.591 268.297 178.042C268.861 178.494 269.363 178.984 269.803 179.515C270.254 180.045 270.615 180.626 270.886 181.258C271.157 181.878 271.292 182.555 271.292 183.288C271.292 183.92 271.179 184.495 270.953 185.014C270.728 185.533 270.406 185.979 269.989 186.351C269.571 186.723 269.075 187.011 268.5 187.214C267.924 187.417 267.293 187.519 266.604 187.519C265.736 187.519 264.935 187.383 264.201 187.113C263.468 186.853 262.836 186.492 262.306 186.03C261.776 185.567 261.358 185.014 261.054 184.371C260.761 183.728 260.614 183.023 260.614 182.256C260.614 181.263 260.789 180.541 261.139 180.09C261.5 179.639 262.064 179.413 262.831 179.413C263.305 179.413 263.683 179.503 263.965 179.684C264.247 179.864 264.388 180.084 264.388 180.344C264.388 180.479 264.365 180.62 264.32 180.767C264.275 180.902 264.224 181.049 264.168 181.207C264.122 181.353 264.077 181.511 264.032 181.681C263.998 181.85 263.981 182.019 263.981 182.188C263.981 182.482 264.049 182.764 264.185 183.034C264.32 183.305 264.5 183.542 264.726 183.745C264.963 183.96 265.234 184.129 265.538 184.253C265.843 184.377 266.164 184.439 266.503 184.439C267.405 184.439 267.857 184.067 267.857 183.322C267.857 182.735 267.625 182.183 267.163 181.664C266.7 181.133 266.119 180.62 265.42 180.124C264.72 179.616 263.965 179.108 263.152 178.601C262.351 178.093 261.601 177.563 260.902 177.01C260.202 176.457 259.621 175.871 259.159 175.25C258.696 174.618 258.465 173.936 258.465 173.203C258.465 172.593 258.589 172.035 258.837 171.527C259.097 171.02 259.446 170.585 259.886 170.224C260.326 169.852 260.84 169.564 261.426 169.361C262.024 169.158 262.667 169.057 263.355 169.057Z" fill="#E7663D"/>
<g clip-path="url(#clip0_973_1051)">
<path fill-rule="evenodd" clip-rule="evenodd" d="M165.917 81.4719L165.966 98.094H159.853L159.952 88.5469L160.051 78.9495L146.592 76.6242C139.197 75.3379 125.64 72.9134 116.421 71.2816C107.251 69.5996 99.7085 68.3132 99.6096 68.4125C99.5608 68.5117 95.7639 74.4472 91.2284 81.6704C86.6929 88.8936 81.1709 97.55 79.0027 100.963C68.9452 116.743 68.3042 117.833 73.7775 110.561C75.2559 108.631 79.3483 103.288 82.8485 98.6882C86.3974 94.088 90.3909 88.8433 91.7216 87.0633C98.1298 78.5048 101.434 74.2501 101.581 74.2501C101.63 74.2501 105.13 78.4056 109.271 83.4518C113.461 88.5469 119.329 95.6708 122.286 99.2824C125.293 102.894 131.603 110.66 136.335 116.497L144.963 127.134H188.741C212.799 127.183 231.998 127.139 232.336 127.15C232.336 127.002 228.179 120.405 223.003 112.638C217.778 104.871 211.566 95.6708 209.199 92.1585L204.959 85.8259L196.381 84.4403C191.698 83.6979 186.57 82.8575 185.043 82.5611L182.184 82.0661V64.8512H165.914V81.4733L165.917 81.4719Z" fill="#E7663D"/>
<path d="M129.939 18.4334C129.939 18.4334 118.73 17.4965 106.812 22.4706C106.812 22.4706 106.799 22.4747 106.794 22.4774C105.597 22.9778 104.395 23.5381 103.195 24.1636C103.004 24.2601 102.814 24.3594 102.626 24.4573C102.555 24.4954 102.483 24.5321 102.413 24.5715C83.2303 34.6802 78.1785 51.0942 77.8181 64.6934C77.5552 70.1884 78.1162 76.559 80.0811 83.7659C80.7762 86.427 81.3589 87.9893 81.3589 87.9893L99.1323 60.6426L159.957 72.5326L160.747 59.0571H175.756C175.756 59.0571 169.436 21.8016 129.939 18.4334Z" fill="#FCDB28"/>
</g>
<path d="M32.4464 219.186V208.332H36.5405C37.2611 208.332 37.8115 208.367 38.1915 208.436C38.7246 208.525 39.1713 208.695 39.5316 208.947C39.8919 209.194 40.1806 209.542 40.3978 209.991C40.6199 210.44 40.7309 210.933 40.7309 211.471C40.7309 212.394 40.4373 213.177 39.8499 213.818C39.2626 214.455 38.2014 214.773 36.6664 214.773H33.8827V219.186H32.4464ZM33.8827 213.493H36.6886C37.6165 213.493 38.2754 213.32 38.6653 212.974C39.0553 212.629 39.2502 212.143 39.2502 211.516C39.2502 211.062 39.1342 210.674 38.9023 210.353C38.6752 210.028 38.3741 209.813 37.999 209.709C37.7572 209.645 37.3105 209.613 36.659 209.613H33.8827V213.493ZM44.7046 219.186V208.332H49.5169C50.4843 208.332 51.2197 208.431 51.7231 208.628C52.2266 208.821 52.6288 209.164 52.9299 209.658C53.231 210.151 53.3815 210.697 53.3815 211.294C53.3815 212.064 53.1323 212.713 52.6338 213.241C52.1353 213.769 51.3653 214.105 50.3239 214.248C50.7039 214.43 50.9926 214.611 51.1901 214.788C51.6096 215.173 52.0069 215.654 52.382 216.232L54.2699 219.186H52.4635L51.0272 216.928C50.6077 216.276 50.2622 215.778 49.9907 215.432C49.7192 215.087 49.4749 214.845 49.2577 214.707C49.0455 214.569 48.8283 214.472 48.6062 214.418C48.4434 214.383 48.1768 214.366 47.8066 214.366H46.1408V219.186H44.7046ZM46.1408 213.122H49.2281C49.8846 213.122 50.3979 213.056 50.7681 212.923C51.1382 212.784 51.4196 212.567 51.6121 212.271C51.8046 211.97 51.9008 211.644 51.9008 211.294C51.9008 210.78 51.7132 210.358 51.3381 210.028C50.968 209.697 50.3806 209.532 49.5761 209.532H46.1408V213.122ZM57.792 219.186V208.332H65.6397V209.613H59.2282V212.937H65.2325V214.211H59.2282V217.905H65.8914V219.186H57.792ZM69.5097 215.699L70.8645 215.58C70.9287 216.123 71.0768 216.57 71.3087 216.92C71.5457 217.266 71.9109 217.547 72.4045 217.764C72.898 217.977 73.4533 218.083 74.0703 218.083C74.6181 218.083 75.1018 218.001 75.5214 217.838C75.9409 217.676 76.2518 217.453 76.4542 217.172C76.6615 216.886 76.7652 216.575 76.7652 216.239C76.7652 215.899 76.6664 215.603 76.469 215.351C76.2716 215.094 75.9458 214.88 75.4917 214.707C75.2005 214.593 74.5564 214.418 73.5594 214.181C72.5624 213.939 71.864 213.712 71.4642 213.5C70.946 213.229 70.5585 212.893 70.3019 212.493C70.0501 212.088 69.9243 211.637 69.9243 211.138C69.9243 210.59 70.0798 210.08 70.3907 209.606C70.7017 209.127 71.1557 208.764 71.753 208.517C72.3502 208.271 73.014 208.147 73.7445 208.147C74.549 208.147 75.2573 208.278 75.8693 208.54C76.4863 208.796 76.9601 209.176 77.2908 209.68C77.6215 210.183 77.7992 210.753 77.8239 211.39L76.4468 211.494C76.3728 210.808 76.121 210.289 75.6916 209.939C75.2672 209.588 74.6379 209.413 73.8037 209.413C72.9351 209.413 72.3008 209.574 71.901 209.894C71.5062 210.21 71.3087 210.593 71.3087 211.042C71.3087 211.432 71.4494 211.753 71.7307 212.004C72.0071 212.256 72.7278 212.515 73.8926 212.782C75.0623 213.043 75.8644 213.273 76.2987 213.47C76.9305 213.762 77.3969 214.132 77.698 214.581C77.9991 215.025 78.1496 215.538 78.1496 216.121C78.1496 216.698 77.9843 217.244 77.6536 217.757C77.3229 218.265 76.8466 218.663 76.2247 218.949C75.6077 219.23 74.9118 219.371 74.1369 219.371C73.1547 219.371 72.3304 219.228 71.6641 218.942C71.0027 218.655 70.482 218.226 70.102 217.653C69.7269 217.076 69.5294 216.424 69.5097 215.699ZM84.9958 219.186V209.613H81.4199V208.332H90.0228V209.613H86.4321V219.186H84.9958ZM91.309 219.186L95.4772 208.332H97.0245L101.467 219.186H99.8305L98.5644 215.899H94.0261L92.8341 219.186H91.309ZM94.4407 214.729H98.1202L96.9875 211.723C96.642 210.81 96.3853 210.06 96.2175 209.472C96.0793 210.168 95.8844 210.859 95.6326 211.545L94.4407 214.729ZM106.373 219.186V209.613H102.797V208.332H111.4V209.613H107.809V219.186H106.373ZM112.686 219.186L116.854 208.332H118.402L122.844 219.186H121.208L119.942 215.899H115.403L114.211 219.186H112.686ZM115.818 214.729H119.498L118.365 211.723C118.019 210.81 117.763 210.06 117.595 209.472C117.457 210.168 117.262 210.859 117.01 211.545L115.818 214.729ZM126.359 219.186V208.332H127.795V219.186H126.359ZM132.479 219.186V208.332H137.291C138.259 208.332 138.994 208.431 139.498 208.628C140.001 208.821 140.403 209.164 140.705 209.658C141.006 210.151 141.156 210.697 141.156 211.294C141.156 212.064 140.907 212.713 140.408 213.241C139.91 213.769 139.14 214.105 138.098 214.248C138.479 214.43 138.767 214.611 138.965 214.788C139.384 215.173 139.782 215.654 140.157 216.232L142.045 219.186H140.238L138.802 216.928C138.382 216.276 138.037 215.778 137.765 215.432C137.494 215.087 137.25 214.845 137.032 214.707C136.82 214.569 136.603 214.472 136.381 214.418C136.218 214.383 135.951 214.366 135.581 214.366H133.915V219.186H132.479ZM133.915 213.122H137.003C137.659 213.122 138.173 213.056 138.543 212.923C138.913 212.784 139.194 212.567 139.387 212.271C139.579 211.97 139.675 211.644 139.675 211.294C139.675 210.78 139.488 210.358 139.113 210.028C138.743 209.697 138.155 209.532 137.351 209.532H133.915V213.122ZM145.567 219.186V208.332H153.414V209.613H147.003V212.937H153.007V214.211H147.003V217.905H153.666V219.186H145.567ZM162.924 219.186L167.092 208.332H168.639L173.081 219.186H171.445L170.179 215.899H165.641L164.449 219.186H162.924ZM166.055 214.729H169.735L168.602 211.723C168.257 210.81 168 210.06 167.832 209.472C167.694 210.168 167.499 210.859 167.247 211.545L166.055 214.729ZM169.046 207.666H167.973L166.263 205.593H168.047L169.046 207.666ZM182.694 219.186V208.332H186.433C187.277 208.332 187.921 208.384 188.366 208.488C188.987 208.631 189.518 208.89 189.957 209.265C190.53 209.749 190.957 210.368 191.238 211.123C191.524 211.874 191.668 212.732 191.668 213.7C191.668 214.524 191.571 215.255 191.379 215.891C191.186 216.528 190.94 217.056 190.638 217.476C190.337 217.89 190.007 218.219 189.646 218.46C189.291 218.697 188.859 218.877 188.351 219.001C187.847 219.124 187.267 219.186 186.611 219.186H182.694ZM184.131 217.905H186.448C187.164 217.905 187.724 217.838 188.129 217.705C188.538 217.572 188.864 217.384 189.106 217.143C189.446 216.802 189.711 216.345 189.898 215.773C190.091 215.195 190.187 214.497 190.187 213.678C190.187 212.542 189.999 211.671 189.624 211.064C189.254 210.452 188.802 210.043 188.269 209.835C187.884 209.687 187.265 209.613 186.411 209.613H184.131V217.905ZM195.338 213.9C195.338 212.098 195.821 210.689 196.789 209.672C197.756 208.651 199.005 208.14 200.535 208.14C201.537 208.14 202.44 208.379 203.245 208.858C204.049 209.337 204.661 210.006 205.081 210.864C205.505 211.718 205.717 212.688 205.717 213.774C205.717 214.875 205.495 215.859 205.051 216.728C204.607 217.597 203.978 218.256 203.163 218.705C202.349 219.149 201.47 219.371 200.528 219.371C199.506 219.371 198.593 219.124 197.788 218.631C196.984 218.137 196.374 217.463 195.96 216.609C195.545 215.756 195.338 214.852 195.338 213.9ZM196.818 213.922C196.818 215.23 197.169 216.262 197.87 217.017C198.575 217.767 199.459 218.142 200.52 218.142C201.601 218.142 202.489 217.762 203.185 217.002C203.886 216.242 204.237 215.163 204.237 213.767C204.237 212.883 204.086 212.113 203.785 211.457C203.489 210.795 203.052 210.284 202.475 209.924C201.902 209.559 201.258 209.376 200.542 209.376C199.526 209.376 198.649 209.727 197.914 210.428C197.184 211.123 196.818 212.288 196.818 213.922ZM209.654 219.186V208.332H211.816L214.385 216.017C214.622 216.733 214.795 217.268 214.903 217.624C215.027 217.229 215.219 216.649 215.481 215.884L218.079 208.332H220.012V219.186H218.627V210.102L215.473 219.186H214.178L211.038 209.946V219.186H209.654ZM224.696 219.186V208.332H226.132V219.186H224.696ZM238.538 215.38L239.975 215.743C239.674 216.923 239.131 217.824 238.346 218.446C237.566 219.063 236.611 219.371 235.481 219.371C234.311 219.371 233.358 219.134 232.623 218.66C231.893 218.181 231.335 217.491 230.95 216.587C230.57 215.684 230.38 214.714 230.38 213.678C230.38 212.547 230.594 211.563 231.024 210.724C231.458 209.88 232.073 209.24 232.867 208.806C233.667 208.367 234.546 208.147 235.503 208.147C236.589 208.147 237.502 208.424 238.242 208.976C238.983 209.529 239.498 210.307 239.79 211.309L238.376 211.642C238.124 210.852 237.759 210.277 237.28 209.917C236.801 209.556 236.199 209.376 235.473 209.376C234.639 209.376 233.941 209.576 233.378 209.976C232.82 210.376 232.428 210.914 232.201 211.59C231.974 212.261 231.86 212.955 231.86 213.67C231.86 214.593 231.994 215.4 232.26 216.091C232.532 216.777 232.951 217.291 233.519 217.631C234.086 217.972 234.701 218.142 235.362 218.142C236.167 218.142 236.848 217.91 237.406 217.446C237.963 216.982 238.341 216.294 238.538 215.38ZM244.119 219.186V208.332H245.555V219.186H244.119ZM250.158 219.186V208.332H251.594V217.905H256.94V219.186H250.158ZM260.81 219.186V208.332H268.657V209.613H262.246V212.937H268.25V214.211H262.246V217.905H268.909V219.186H260.81Z" fill="#E7663D"/>
<defs>
<clipPath id="clip0_973_1051">
<rect width="161.981" height="108.794" fill="white" transform="translate(70.356 18.3628)"/>
</clipPath>
</defs>
</svg>
