<svg width="301" height="75" viewBox="0 0 301 75" fill="none" xmlns="http://www.w3.org/2000/svg">
<g clip-path="url(#clip0_973_1060)">
<path fill-rule="evenodd" clip-rule="evenodd" d="M60.2259 42.0013L60.2511 50.5896H57.0928L57.1439 45.6568L57.195 40.6981L50.2412 39.4967C46.4205 38.832 39.4155 37.5794 34.6525 36.7363C29.9146 35.8672 26.0176 35.2026 25.9665 35.2539C25.9413 35.3051 23.9795 38.3719 21.6361 42.1039C19.2927 45.836 16.4396 50.3085 15.3194 52.072C10.1229 60.2253 9.79174 60.7881 12.6196 57.0307C13.3835 56.0338 15.4979 53.2734 17.3064 50.8966C19.1401 48.5198 21.2034 45.81 21.8909 44.8903C25.2019 40.4683 26.9089 38.27 26.9852 38.27C27.0104 38.27 28.8189 40.417 30.9585 43.0243C33.1234 45.6568 36.155 49.3376 37.6827 51.2036C39.2363 53.0696 42.4969 57.082 44.9418 60.0981L49.3996 65.5937H72.0185C84.4488 65.6189 94.3685 65.5965 94.5428 65.6021C94.5428 65.5255 92.3955 62.1173 89.7209 58.1043C87.0212 54.0912 83.8117 49.3376 82.5885 47.5228L80.3978 44.251L75.9659 43.535C73.5462 43.1514 70.8968 42.7173 70.1078 42.5641L68.6305 42.3084V33.4138H60.2245V42.002L60.2259 42.0013Z" fill="#E7663D"/>
<path d="M41.6373 9.4309C41.6373 9.4309 35.8457 8.94683 29.6879 11.5168C29.6879 11.5168 29.6816 11.5189 29.6788 11.5203C29.0606 11.7789 28.4396 12.0683 27.8193 12.3915C27.7205 12.4414 27.6225 12.4927 27.5252 12.5433C27.4888 12.563 27.4517 12.5819 27.4153 12.6023C17.504 17.8252 14.8939 26.3059 14.7076 33.3323C14.5718 36.1714 14.8617 39.463 15.8769 43.1866C16.2361 44.5615 16.5371 45.3688 16.5371 45.3688L25.7202 31.2394L57.1469 37.3827L57.5551 30.4202H65.3099C65.3099 30.4202 62.0444 11.1712 41.6373 9.4309Z" fill="#FCDB28"/>
</g>
<path d="M124.456 27.1743C124.015 27.1743 123.605 27.2807 123.227 27.4934C122.856 27.6983 122.529 27.9859 122.246 28.3562C121.97 28.7187 121.753 29.1481 121.596 29.6445C121.438 30.1409 121.359 30.6727 121.359 31.24C121.359 31.8231 121.489 32.3628 121.749 32.8592C122.017 33.3478 122.384 33.7772 122.849 34.1475C123.321 34.51 123.873 34.7936 124.503 34.9985C125.141 35.2033 125.835 35.3058 126.583 35.3058C127.127 35.3058 127.639 35.2585 128.12 35.1639C128.608 35.0615 129.034 34.9276 129.396 34.7621C129.759 34.5966 130.046 34.4036 130.259 34.183C130.472 33.9545 130.578 33.7141 130.578 33.462C130.578 33.265 130.543 33.1035 130.472 32.9774C130.401 32.8435 130.318 32.7253 130.224 32.6229C130.137 32.5126 130.058 32.4062 129.987 32.3037C129.916 32.1934 129.881 32.0556 129.881 31.8901C129.881 31.7325 129.92 31.5828 129.999 31.441C130.078 31.2991 130.184 31.1731 130.318 31.0628C130.46 30.9524 130.618 30.8658 130.791 30.8027C130.972 30.7397 131.157 30.7082 131.346 30.7082C131.575 30.7082 131.788 30.7673 131.985 30.8855C132.19 31.0037 132.363 31.1691 132.505 31.3819C132.654 31.5867 132.769 31.831 132.847 32.1146C132.934 32.3904 132.977 32.6859 132.977 33.0011C132.977 33.6393 132.808 34.2342 132.469 34.7857C132.13 35.3294 131.662 35.7982 131.063 36.1922C130.464 36.5862 129.755 36.8974 128.935 37.1259C128.116 37.3465 127.226 37.4568 126.264 37.4568C125.201 37.4568 124.22 37.315 123.321 37.0313C122.423 36.7398 121.647 36.338 120.993 35.8258C120.347 35.3136 119.843 34.7069 119.48 34.0057C119.118 33.3044 118.937 32.5362 118.937 31.701C118.937 30.787 119.094 29.9242 119.409 29.1126C119.732 28.3011 120.17 27.5919 120.721 26.9852C121.273 26.3785 121.915 25.8979 122.648 25.5433C123.388 25.1887 124.176 25.0114 125.011 25.0114C125.382 25.0114 125.721 25.0548 126.028 25.1415C126.343 25.2202 126.615 25.3345 126.843 25.4842C127.072 25.6339 127.249 25.8112 127.375 26.0161C127.509 26.213 127.576 26.4297 127.576 26.6661C127.576 26.8552 127.533 27.0364 127.446 27.2098C127.367 27.3752 127.261 27.5249 127.127 27.6589C126.993 27.785 126.836 27.8874 126.654 27.9662C126.481 28.045 126.296 28.0844 126.099 28.0844C125.894 28.0844 125.728 28.0371 125.602 27.9426C125.484 27.848 125.374 27.7456 125.271 27.6353C125.169 27.5171 125.059 27.4107 124.941 27.3161C124.822 27.2216 124.661 27.1743 124.456 27.1743Z" fill="#E7663D"/>
<path d="M132.753 33.5566C132.753 33.4226 132.769 33.2729 132.8 33.1074C132.832 32.942 132.847 32.7607 132.847 32.5638C132.847 32.4298 132.788 32.3274 132.67 32.2565C132.56 32.1856 132.434 32.1068 132.292 32.0201C132.15 31.9334 132.02 31.8231 131.902 31.6892C131.792 31.5552 131.736 31.3622 131.736 31.11C131.736 30.9288 131.784 30.7476 131.878 30.5664C131.981 30.3851 132.126 30.2197 132.316 30.07C132.78 29.7233 133.261 29.412 133.758 29.1363C134.262 28.8605 134.762 28.6281 135.259 28.4389C135.763 28.2498 136.259 28.1041 136.748 28.0016C137.236 27.8992 137.705 27.848 138.154 27.848C138.911 27.848 139.62 27.9898 140.282 28.2735C140.951 28.5493 141.53 28.9314 142.019 29.4199C142.515 29.9006 142.905 30.4679 143.189 31.1219C143.481 31.768 143.626 32.4613 143.626 33.202C143.626 33.9269 143.473 34.6163 143.165 35.2703C142.866 35.9164 142.46 36.4837 141.948 36.9722C141.436 37.4608 140.833 37.8468 140.14 38.1305C139.454 38.422 138.729 38.5678 137.965 38.5678C137.217 38.5678 136.523 38.4417 135.885 38.1896C135.247 37.9375 134.695 37.5908 134.23 37.1495C133.765 36.7004 133.403 36.1725 133.143 35.5658C132.883 34.9512 132.753 34.2815 132.753 33.5566ZM138.225 36.4404C138.556 36.4404 138.899 36.3734 139.253 36.2395C139.608 36.1055 139.931 35.9125 140.222 35.6603C140.522 35.4003 140.766 35.0851 140.955 34.7148C141.152 34.3445 141.251 33.9269 141.251 33.462C141.251 32.9892 141.164 32.548 140.991 32.1383C140.817 31.7286 140.577 31.374 140.27 31.0746C139.97 30.7673 139.612 30.527 139.194 30.3536C138.785 30.1803 138.339 30.0936 137.859 30.0936C136.984 30.0936 136.314 30.3221 135.849 30.7791C135.385 31.2282 135.152 31.9216 135.152 32.8592C135.152 33.3714 135.227 33.8481 135.377 34.2893C135.534 34.7227 135.751 35.1009 136.027 35.424C136.303 35.7391 136.626 35.9873 136.996 36.1686C137.374 36.3498 137.784 36.4404 138.225 36.4404Z" fill="#E7663D"/>
<path d="M147.657 33.2965C147.657 34.3524 147.818 35.1679 148.141 35.7431C148.464 36.3183 148.933 36.6059 149.548 36.6059C149.934 36.6059 150.288 36.4916 150.611 36.2631C150.942 36.0346 151.226 35.7155 151.462 35.3058C151.699 34.896 151.88 34.4115 152.006 33.852C152.14 33.2847 152.207 32.6701 152.207 32.0083C152.207 31.6064 152.191 31.2597 152.16 30.9682C152.128 30.6688 152.093 30.4048 152.053 30.1763C152.022 29.94 151.99 29.7312 151.959 29.5499C151.927 29.3687 151.911 29.1954 151.911 29.0299C151.911 28.7778 152.018 28.5965 152.231 28.4862C152.443 28.368 152.782 28.3089 153.247 28.3089C153.838 28.3089 154.295 28.4429 154.618 28.7108C154.949 28.9787 155.114 29.3687 155.114 29.8809C155.114 31.2755 154.976 32.5283 154.701 33.6393C154.433 34.7503 154.043 35.6958 153.531 36.4758C153.026 37.248 152.412 37.8429 151.687 38.2605C150.962 38.6781 150.15 38.8869 149.252 38.8869C148.614 38.8869 148.023 38.753 147.479 38.4851C146.944 38.2251 146.479 37.8587 146.085 37.3859C145.699 36.9053 145.395 36.338 145.175 35.684C144.954 35.0221 144.844 34.2972 144.844 33.5093C144.844 33.2099 144.852 32.8908 144.867 32.5519C144.883 32.2131 144.907 31.8507 144.938 31.4646C144.97 31.0706 145.009 30.6452 145.056 30.1882C145.112 29.7312 145.171 29.2348 145.234 28.699C145.257 28.4705 145.364 28.2892 145.553 28.1553C145.75 28.0135 145.998 27.9426 146.297 27.9426C146.565 27.9426 146.817 27.9701 147.054 28.0253C147.29 28.0804 147.491 28.1553 147.657 28.2498C147.83 28.3444 147.964 28.4547 148.058 28.5808C148.161 28.7068 148.212 28.8408 148.212 28.9826C148.212 29.1244 148.181 29.349 148.118 29.6563C148.062 29.9557 147.999 30.3024 147.928 30.6964C147.865 31.0825 147.802 31.504 147.739 31.961C147.684 32.4101 147.657 32.8553 147.657 33.2965Z" fill="#E7663D"/>
<path d="M155.906 24.0187C155.906 23.6089 156.024 23.3174 156.261 23.1441C156.497 22.9707 156.887 22.884 157.431 22.884C157.62 22.884 157.785 22.9037 157.927 22.9431C158.069 22.9825 158.187 23.0495 158.282 23.1441C158.376 23.2307 158.451 23.3529 158.506 23.5104C158.569 23.6601 158.621 23.8532 158.66 24.0896C158.763 24.7908 158.865 25.5275 158.967 26.2997C159.078 27.064 159.18 27.8283 159.275 28.5926C159.377 29.349 159.472 30.0897 159.558 30.8146C159.645 31.5316 159.72 32.2013 159.783 32.8238C159.854 33.4384 159.905 33.986 159.937 34.4666C159.976 34.9394 159.996 35.3136 159.996 35.5894C159.996 35.8731 159.968 36.1134 159.913 36.3104C159.866 36.5074 159.779 36.6649 159.653 36.7831C159.535 36.9013 159.377 36.988 159.18 37.0432C158.991 37.0904 158.755 37.1141 158.471 37.1141C158.195 37.1141 157.975 37.0432 157.809 36.9013C157.652 36.7595 157.573 36.5428 157.573 36.2513C157.573 35.9519 157.549 35.554 157.502 35.0576C157.455 34.5533 157.392 33.9939 157.313 33.3793C157.234 32.7647 157.143 32.1107 157.041 31.4173C156.946 30.7239 156.844 30.0384 156.734 29.3608C156.631 28.6832 156.529 28.0332 156.426 27.4107C156.332 26.7804 156.245 26.2249 156.166 25.7442C156.087 25.2557 156.024 24.8578 155.977 24.5505C155.93 24.2353 155.906 24.0581 155.906 24.0187Z" fill="#E7663D"/>
<path d="M171.945 34.8921C172.173 34.6951 172.398 34.5966 172.618 34.5966C172.744 34.5966 172.859 34.6281 172.961 34.6912C173.063 34.7542 173.178 34.8527 173.304 34.9867C173.422 35.1679 173.505 35.3176 173.552 35.4358C173.607 35.5461 173.635 35.6564 173.635 35.7667C173.635 36.0031 173.517 36.2276 173.28 36.4404C172.902 36.7556 172.492 37.0392 172.051 37.2914C171.61 37.5356 171.149 37.7444 170.668 37.9178C170.188 38.0911 169.691 38.2211 169.179 38.3078C168.667 38.4023 168.159 38.4496 167.654 38.4496C167.016 38.4496 166.417 38.3669 165.858 38.2014C165.298 38.0438 164.798 37.8153 164.357 37.5159C163.923 37.2165 163.557 36.858 163.258 36.4404C162.958 36.0149 162.745 35.5382 162.619 35.0103C162.549 34.7897 162.482 34.6478 162.419 34.5848C162.363 34.5139 162.269 34.4784 162.135 34.4784C161.843 34.4784 161.619 34.4075 161.461 34.2657C161.304 34.1239 161.225 33.919 161.225 33.6511C161.225 33.5408 161.233 33.4699 161.248 33.4384L161.272 33.202C161.311 32.9183 161.386 32.7135 161.497 32.5874C161.615 32.4613 161.796 32.3983 162.04 32.3983H162.218C162.549 32.3983 162.781 32.2447 162.915 31.9374C163.159 31.3937 163.47 30.8973 163.849 30.4482C164.227 29.9991 164.652 29.6169 165.125 29.3017C165.598 28.9787 166.102 28.7305 166.638 28.5571C167.182 28.3759 167.733 28.2853 168.293 28.2853C168.876 28.2853 169.419 28.372 169.924 28.5453C170.436 28.7108 170.881 28.9432 171.259 29.2426C171.637 29.5421 171.933 29.8927 172.146 30.2945C172.366 30.6964 172.476 31.1297 172.476 31.5946C172.476 31.9177 172.413 32.2131 172.287 32.481C172.161 32.7489 171.98 32.9853 171.744 33.1902C171.507 33.3872 171.22 33.5487 170.881 33.6747C170.55 33.8008 170.172 33.8836 169.746 33.9229L165.645 34.3366C165.487 34.3366 165.357 34.376 165.255 34.4548C165.161 34.5336 165.113 34.64 165.113 34.7739C165.113 34.9788 165.188 35.1758 165.338 35.3649C165.495 35.554 165.7 35.7234 165.952 35.8731C166.212 36.0149 166.508 36.1292 166.839 36.2158C167.178 36.3025 167.524 36.3458 167.879 36.3458C168.218 36.3458 168.564 36.3143 168.919 36.2513C169.281 36.1804 169.636 36.0819 169.983 35.9558C170.337 35.8297 170.68 35.68 171.011 35.5067C171.342 35.3255 171.653 35.1206 171.945 34.8921ZM169.309 31.8428C169.427 31.8192 169.53 31.764 169.616 31.6773C169.703 31.5828 169.746 31.4685 169.746 31.3346C169.746 31.2164 169.703 31.1061 169.616 31.0037C169.53 30.9012 169.411 30.8106 169.262 30.7318C169.112 30.6452 168.939 30.5782 168.742 30.5309C168.545 30.4836 168.336 30.46 168.115 30.46C167.792 30.46 167.461 30.5073 167.122 30.6018C166.784 30.6964 166.476 30.8224 166.201 30.98C165.925 31.1297 165.7 31.2991 165.527 31.4882C165.354 31.6695 165.267 31.8507 165.267 32.0319C165.267 32.2131 165.377 32.3037 165.598 32.3037C165.732 32.3037 165.948 32.288 166.248 32.2565C166.547 32.225 166.878 32.1895 167.241 32.1501C167.603 32.1028 167.969 32.0516 168.34 31.9965C168.71 31.9413 169.033 31.8901 169.309 31.8428Z" fill="#E7663D"/>
<path d="M176.873 33.2965C176.873 34.3524 177.035 35.1679 177.358 35.7431C177.681 36.3183 178.15 36.6059 178.764 36.6059C179.15 36.6059 179.505 36.4916 179.828 36.2631C180.159 36.0346 180.442 35.7155 180.679 35.3058C180.915 34.896 181.096 34.4115 181.222 33.852C181.356 33.2847 181.423 32.6701 181.423 32.0083C181.423 31.6064 181.408 31.2597 181.376 30.9682C181.345 30.6688 181.309 30.4048 181.27 30.1763C181.238 29.94 181.207 29.7312 181.175 29.5499C181.144 29.3687 181.128 29.1954 181.128 29.0299C181.128 28.7778 181.234 28.5965 181.447 28.4862C181.66 28.368 181.999 28.3089 182.463 28.3089C183.054 28.3089 183.511 28.4429 183.834 28.7108C184.165 28.9787 184.331 29.3687 184.331 29.8809C184.331 31.2755 184.193 32.5283 183.917 33.6393C183.649 34.7503 183.259 35.6958 182.747 36.4758C182.243 37.248 181.628 37.8429 180.903 38.2605C180.178 38.6781 179.367 38.8869 178.469 38.8869C177.83 38.8869 177.239 38.753 176.696 38.4851C176.16 38.2251 175.695 37.8587 175.301 37.3859C174.915 36.9053 174.612 36.338 174.391 35.684C174.17 35.0221 174.06 34.2972 174.06 33.5093C174.06 33.2099 174.068 32.8908 174.084 32.5519C174.1 32.2131 174.123 31.8507 174.155 31.4646C174.186 31.0706 174.226 30.6452 174.273 30.1882C174.328 29.7312 174.387 29.2348 174.45 28.699C174.474 28.4705 174.58 28.2892 174.769 28.1553C174.966 28.0135 175.215 27.9426 175.514 27.9426C175.782 27.9426 176.034 27.9701 176.27 28.0253C176.507 28.0804 176.708 28.1553 176.873 28.2498C177.046 28.3444 177.18 28.4547 177.275 28.5808C177.377 28.7068 177.429 28.8408 177.429 28.9826C177.429 29.1244 177.397 29.349 177.334 29.6563C177.279 29.9557 177.216 30.3024 177.145 30.6964C177.082 31.0825 177.019 31.504 176.956 31.961C176.901 32.4101 176.873 32.8553 176.873 33.2965Z" fill="#E7663D"/>
<path d="M192.167 28.6399C191.875 28.6399 191.619 28.7187 191.399 28.8762C191.178 29.026 190.989 29.2387 190.831 29.5145C190.674 29.7824 190.544 30.1015 190.441 30.4718C190.339 30.8343 190.256 31.2322 190.193 31.6655C190.13 32.0989 190.087 32.5519 190.063 33.0247C190.039 33.4975 190.028 33.9742 190.028 34.4548C190.028 35.0851 190.051 35.7076 190.099 36.3222C190.154 36.9289 190.181 37.4923 190.181 38.0123C190.181 38.3511 190.055 38.6151 189.803 38.8042C189.551 39.0012 189.192 39.0997 188.728 39.0997C188.641 39.0997 188.542 39.0918 188.432 39.076C188.322 39.0603 188.215 39.0287 188.113 38.9815C188.018 38.9342 187.932 38.8672 187.853 38.7805C187.782 38.7018 187.743 38.5914 187.735 38.4496C187.664 37.7562 187.561 37.0471 187.427 36.3222C187.293 35.5973 187.124 34.8763 186.919 34.1593C186.722 33.4344 186.482 32.7174 186.198 32.0083C185.922 31.2991 185.603 30.6058 185.241 29.9281C185.178 29.8099 185.123 29.6996 185.075 29.5972C185.036 29.4948 185.016 29.3963 185.016 29.3017C185.016 29.1835 185.068 29.0575 185.17 28.9235C185.28 28.7817 185.414 28.6517 185.572 28.5335C185.737 28.4153 185.915 28.3208 186.104 28.2498C186.301 28.1711 186.49 28.1317 186.671 28.1317C186.97 28.1317 187.234 28.3405 187.463 28.7581C187.691 29.1678 187.904 29.8257 188.101 30.7318C188.141 30.8894 188.172 30.9997 188.196 31.0628C188.219 31.1258 188.251 31.1573 188.29 31.1573C188.377 31.1573 188.432 31.0234 188.456 30.7555C188.55 30.0069 188.712 29.3648 188.94 28.829C189.169 28.2853 189.452 27.8401 189.791 27.4934C190.138 27.1389 190.532 26.8788 190.973 26.7134C191.422 26.5479 191.915 26.4652 192.451 26.4652C192.758 26.4652 193.069 26.4928 193.384 26.5479C193.699 26.6031 193.983 26.6858 194.235 26.7961C194.487 26.9064 194.692 27.0404 194.85 27.198C195.007 27.3555 195.086 27.5328 195.086 27.7298C195.086 27.8716 195.055 28.041 194.992 28.238C194.936 28.4271 194.862 28.6123 194.767 28.7935C194.672 28.9669 194.562 29.1166 194.436 29.2426C194.318 29.3608 194.196 29.4199 194.07 29.4199C193.928 29.4199 193.79 29.3805 193.656 29.3017C193.522 29.2151 193.376 29.1244 193.219 29.0299C193.069 28.9353 192.908 28.8487 192.734 28.7699C192.569 28.6832 192.38 28.6399 192.167 28.6399Z" fill="#E7663D"/>
<path d="M197.284 27.2216C197.812 27.2216 198.356 27.2925 198.915 27.4343C199.475 27.5683 199.987 27.7456 200.452 27.9662C200.917 28.1789 201.299 28.4192 201.598 28.6871C201.898 28.955 202.048 29.2151 202.048 29.4672C202.048 29.5933 201.992 29.7351 201.882 29.8927C201.772 30.0424 201.638 30.1882 201.48 30.33C201.323 30.4639 201.149 30.5782 200.96 30.6727C200.779 30.7594 200.617 30.8027 200.476 30.8027C200.286 30.8027 200.074 30.7239 199.837 30.5664C199.609 30.4088 199.353 30.2354 199.069 30.0463C198.793 29.8493 198.49 29.6721 198.159 29.5145C197.828 29.3569 197.47 29.2781 197.084 29.2781C196.831 29.2781 196.623 29.3411 196.457 29.4672C196.3 29.5854 196.221 29.7548 196.221 29.9754C196.221 30.1724 196.315 30.3733 196.504 30.5782C196.694 30.7752 196.942 30.98 197.249 31.1928C197.564 31.4055 197.919 31.6301 198.313 31.8664C198.707 32.1028 199.109 32.355 199.518 32.6229C199.936 32.8908 200.342 33.1823 200.736 33.4975C201.13 33.8126 201.48 34.1554 201.787 34.5257C202.103 34.896 202.355 35.3018 202.544 35.7431C202.733 36.1764 202.828 36.6492 202.828 37.1613C202.828 37.6026 202.749 38.0044 202.591 38.3669C202.434 38.7293 202.209 39.0406 201.917 39.3006C201.626 39.5606 201.279 39.7615 200.877 39.9033C200.476 40.0452 200.034 40.1161 199.554 40.1161C198.947 40.1161 198.388 40.0215 197.875 39.8324C197.363 39.6512 196.922 39.3991 196.552 39.076C196.181 38.753 195.89 38.3669 195.677 37.9178C195.472 37.4686 195.37 36.9762 195.37 36.4404C195.37 35.747 195.492 35.2427 195.736 34.9276C195.988 34.6124 196.382 34.4548 196.918 34.4548C197.249 34.4548 197.513 34.5178 197.71 34.6439C197.907 34.77 198.005 34.9236 198.005 35.1048C198.005 35.1994 197.99 35.2979 197.958 35.4003C197.927 35.4949 197.891 35.5973 197.852 35.7076C197.82 35.81 197.789 35.9204 197.757 36.0385C197.734 36.1567 197.722 36.2749 197.722 36.3931C197.722 36.598 197.769 36.795 197.864 36.9841C197.958 37.1732 198.084 37.3386 198.242 37.4805C198.407 37.6302 198.596 37.7484 198.809 37.835C199.022 37.9217 199.246 37.965 199.483 37.965C200.113 37.965 200.428 37.705 200.428 37.185C200.428 36.7753 200.267 36.3892 199.944 36.0267C199.621 35.6564 199.215 35.2979 198.726 34.9512C198.238 34.5966 197.71 34.2421 197.143 33.8875C196.583 33.5329 196.059 33.1626 195.571 32.7765C195.082 32.3904 194.676 31.9807 194.353 31.5473C194.03 31.1061 193.869 30.6294 193.869 30.1172C193.869 29.6918 193.955 29.3017 194.129 28.9472C194.31 28.5926 194.554 28.2892 194.862 28.0371C195.169 27.7771 195.527 27.5762 195.937 27.4343C196.355 27.2925 196.804 27.2216 197.284 27.2216Z" fill="#E7663D"/>
<path d="M211.361 32.6347C211.361 33.1074 211.475 33.5487 211.704 33.9584C211.94 34.3602 212.247 34.7148 212.625 35.0221C213.004 35.3215 213.437 35.5579 213.926 35.7313C214.414 35.8967 214.914 35.9794 215.427 35.9794C215.584 35.9794 215.746 35.9676 215.911 35.944C216.077 35.9125 216.226 35.8613 216.36 35.7903C216.494 35.7194 216.605 35.6288 216.691 35.5185C216.778 35.4003 216.821 35.2546 216.821 35.0812C216.821 34.7503 216.703 34.4233 216.467 34.1002C216.238 33.7772 215.935 33.4581 215.557 33.1429C215.178 32.8198 214.745 32.5007 214.256 32.1856C213.768 31.8625 213.272 31.5434 212.767 31.2282C212.263 30.9131 211.767 30.5979 211.278 30.2827C210.79 29.9597 210.356 29.6405 209.978 29.3254C209.6 29.0023 209.293 28.6793 209.056 28.3562C208.828 28.0253 208.713 27.6944 208.713 27.3634C208.713 27.0482 208.792 26.7567 208.95 26.4888C209.115 26.213 209.332 25.9648 209.6 25.7442C209.868 25.5236 210.179 25.3266 210.534 25.1533C210.888 24.9799 211.258 24.8342 211.645 24.716C212.031 24.5978 212.417 24.5111 212.803 24.456C213.197 24.3929 213.571 24.3614 213.926 24.3614C214.186 24.3614 214.469 24.3693 214.777 24.385C215.092 24.3929 215.383 24.4284 215.651 24.4914C215.927 24.5466 216.155 24.6332 216.337 24.7514C216.518 24.8696 216.608 25.039 216.608 25.2596C216.608 25.3306 216.597 25.4212 216.573 25.5315C216.549 25.6339 216.482 25.8073 216.372 26.0515C216.262 26.28 216.132 26.4534 215.982 26.5716C215.84 26.6819 215.655 26.737 215.427 26.737C215.104 26.737 214.761 26.7016 214.398 26.6306C214.044 26.5519 213.685 26.5125 213.323 26.5125C213.126 26.5125 212.925 26.5243 212.72 26.5479C212.523 26.5637 212.342 26.5991 212.176 26.6543C212.011 26.7016 211.877 26.7764 211.775 26.8788C211.672 26.9734 211.621 27.0955 211.621 27.2452C211.621 27.3949 211.727 27.5643 211.94 27.7534C212.161 27.9426 212.448 28.1514 212.803 28.3799C213.165 28.6084 213.575 28.8605 214.032 29.1363C214.489 29.4042 214.954 29.6957 215.427 30.0109C215.907 30.3182 216.376 30.6491 216.833 31.0037C217.29 31.3504 217.696 31.7207 218.05 32.1146C218.413 32.5007 218.7 32.9105 218.913 33.3438C219.134 33.7772 219.244 34.2263 219.244 34.6912C219.244 35.2585 219.114 35.7588 218.854 36.1922C218.594 36.6256 218.259 36.988 217.849 37.2795C217.44 37.5711 216.987 37.7878 216.49 37.9296C215.994 38.0793 215.509 38.1541 215.037 38.1541C214.556 38.1541 214.067 38.095 213.571 37.9769C213.082 37.8665 212.61 37.705 212.153 37.4923C211.696 37.2874 211.266 37.0392 210.864 36.7477C210.47 36.4483 210.128 36.1173 209.836 35.7549C209.545 35.3846 209.312 34.9867 209.139 34.5612C208.973 34.1357 208.891 33.6905 208.891 33.2256C208.891 33.0286 208.903 32.8317 208.926 32.6347C208.958 32.4298 209.009 32.2525 209.08 32.1028C209.151 31.9452 209.249 31.8192 209.375 31.7246C209.501 31.6222 209.663 31.571 209.86 31.571C209.923 31.571 209.994 31.5789 210.073 31.5946C210.151 31.6025 210.289 31.6379 210.486 31.701C210.715 31.7719 210.916 31.8861 211.089 32.0437C211.27 32.1934 211.361 32.3904 211.361 32.6347Z" fill="#E7663D"/>
<path d="M230.283 34.8921C230.512 34.6951 230.736 34.5966 230.957 34.5966C231.083 34.5966 231.197 34.6281 231.299 34.6912C231.402 34.7542 231.516 34.8527 231.642 34.9867C231.76 35.1679 231.843 35.3176 231.89 35.4358C231.946 35.5461 231.973 35.6564 231.973 35.7667C231.973 36.0031 231.855 36.2276 231.619 36.4404C231.24 36.7556 230.831 37.0392 230.389 37.2914C229.948 37.5356 229.487 37.7444 229.007 37.9178C228.526 38.0911 228.03 38.2211 227.517 38.3078C227.005 38.4023 226.497 38.4496 225.993 38.4496C225.355 38.4496 224.756 38.3669 224.196 38.2014C223.637 38.0438 223.136 37.8153 222.695 37.5159C222.262 37.2165 221.895 36.858 221.596 36.4404C221.297 36.0149 221.084 35.5382 220.958 35.0103C220.887 34.7897 220.82 34.6478 220.757 34.5848C220.702 34.5139 220.607 34.4784 220.473 34.4784C220.182 34.4784 219.957 34.4075 219.8 34.2657C219.642 34.1239 219.563 33.919 219.563 33.6511C219.563 33.5408 219.571 33.4699 219.587 33.4384L219.61 33.202C219.65 32.9183 219.725 32.7135 219.835 32.5874C219.953 32.4613 220.134 32.3983 220.379 32.3983H220.556C220.887 32.3983 221.119 32.2447 221.253 31.9374C221.498 31.3937 221.809 30.8973 222.187 30.4482C222.565 29.9991 222.991 29.6169 223.463 29.3017C223.936 28.9787 224.441 28.7305 224.976 28.5571C225.52 28.3759 226.072 28.2853 226.631 28.2853C227.214 28.2853 227.758 28.372 228.262 28.5453C228.774 28.7108 229.219 28.9432 229.598 29.2426C229.976 29.5421 230.271 29.8927 230.484 30.2945C230.705 30.6964 230.815 31.1297 230.815 31.5946C230.815 31.9177 230.752 32.2131 230.626 32.481C230.5 32.7489 230.318 32.9853 230.082 33.1902C229.846 33.3872 229.558 33.5487 229.219 33.6747C228.888 33.8008 228.51 33.8836 228.085 33.9229L223.984 34.3366C223.826 34.3366 223.696 34.376 223.593 34.4548C223.499 34.5336 223.452 34.64 223.452 34.7739C223.452 34.9788 223.527 35.1758 223.676 35.3649C223.834 35.554 224.039 35.7234 224.291 35.8731C224.551 36.0149 224.846 36.1292 225.177 36.2158C225.516 36.3025 225.863 36.3458 226.217 36.3458C226.556 36.3458 226.903 36.3143 227.257 36.2513C227.62 36.1804 227.974 36.0819 228.321 35.9558C228.676 35.8297 229.018 35.68 229.349 35.5067C229.68 35.3255 229.991 35.1206 230.283 34.8921ZM227.647 31.8428C227.766 31.8192 227.868 31.764 227.955 31.6773C228.041 31.5828 228.085 31.4685 228.085 31.3346C228.085 31.2164 228.041 31.1061 227.955 31.0037C227.868 30.9012 227.75 30.8106 227.6 30.7318C227.45 30.6452 227.277 30.5782 227.08 30.5309C226.883 30.4836 226.674 30.46 226.454 30.46C226.131 30.46 225.8 30.5073 225.461 30.6018C225.122 30.6964 224.815 30.8224 224.539 30.98C224.263 31.1297 224.039 31.2991 223.865 31.4882C223.692 31.6695 223.605 31.8507 223.605 32.0319C223.605 32.2131 223.716 32.3037 223.936 32.3037C224.07 32.3037 224.287 32.288 224.586 32.2565C224.886 32.225 225.217 32.1895 225.579 32.1501C225.942 32.1028 226.308 32.0516 226.678 31.9965C227.049 31.9413 227.372 31.8901 227.647 31.8428Z" fill="#E7663D"/>
<path d="M239.135 28.6399C238.844 28.6399 238.588 28.7187 238.367 28.8762C238.147 29.026 237.957 29.2387 237.8 29.5145C237.642 29.7824 237.512 30.1015 237.41 30.4718C237.307 30.8343 237.225 31.2322 237.162 31.6655C237.099 32.0989 237.055 32.5519 237.032 33.0247C237.008 33.4975 236.996 33.9742 236.996 34.4548C236.996 35.0851 237.02 35.7076 237.067 36.3222C237.122 36.9289 237.15 37.4923 237.15 38.0123C237.15 38.3511 237.024 38.6151 236.772 38.8042C236.519 39.0012 236.161 39.0997 235.696 39.0997C235.609 39.0997 235.511 39.0918 235.401 39.076C235.29 39.0603 235.184 39.0287 235.082 38.9815C234.987 38.9342 234.9 38.8672 234.822 38.7805C234.751 38.7018 234.711 38.5914 234.703 38.4496C234.632 37.7562 234.53 37.0471 234.396 36.3222C234.262 35.5973 234.093 34.8763 233.888 34.1593C233.691 33.4344 233.451 32.7174 233.167 32.0083C232.891 31.2991 232.572 30.6058 232.21 29.9281C232.146 29.8099 232.091 29.6996 232.044 29.5972C232.005 29.4948 231.985 29.3963 231.985 29.3017C231.985 29.1835 232.036 29.0575 232.139 28.9235C232.249 28.7817 232.383 28.6517 232.54 28.5335C232.706 28.4153 232.883 28.3208 233.072 28.2498C233.269 28.1711 233.458 28.1317 233.64 28.1317C233.939 28.1317 234.203 28.3405 234.431 28.7581C234.66 29.1678 234.873 29.8257 235.07 30.7318C235.109 30.8894 235.141 30.9997 235.164 31.0628C235.188 31.1258 235.219 31.1573 235.259 31.1573C235.345 31.1573 235.401 31.0234 235.424 30.7555C235.519 30.0069 235.68 29.3648 235.909 28.829C236.137 28.2853 236.421 27.8401 236.76 27.4934C237.107 27.1389 237.5 26.8788 237.942 26.7134C238.391 26.5479 238.883 26.4652 239.419 26.4652C239.726 26.4652 240.038 26.4928 240.353 26.5479C240.668 26.6031 240.952 26.6858 241.204 26.7961C241.456 26.9064 241.661 27.0404 241.818 27.198C241.976 27.3555 242.055 27.5328 242.055 27.7298C242.055 27.8716 242.023 28.041 241.96 28.238C241.905 28.4271 241.83 28.6123 241.736 28.7935C241.641 28.9669 241.531 29.1166 241.405 29.2426C241.286 29.3608 241.164 29.4199 241.038 29.4199C240.896 29.4199 240.759 29.3805 240.625 29.3017C240.491 29.2151 240.345 29.1244 240.187 29.0299C240.038 28.9353 239.876 28.8487 239.703 28.7699C239.537 28.6832 239.348 28.6399 239.135 28.6399Z" fill="#E7663D"/>
<path d="M247.633 28.3562C247.657 28.1356 247.684 27.9544 247.716 27.8125C247.755 27.6628 247.811 27.5446 247.881 27.458C247.96 27.3634 248.059 27.2964 248.177 27.2571C248.295 27.2177 248.445 27.198 248.626 27.198C249.201 27.198 249.623 27.2846 249.891 27.458C250.166 27.6234 250.304 27.8913 250.304 28.2617C250.304 28.3326 250.289 28.4902 250.257 28.7344C250.233 28.9708 250.198 29.2663 250.151 29.6208C250.103 29.9675 250.048 30.3536 249.985 30.7791C249.93 31.1967 249.875 31.6222 249.82 32.0556C249.678 33.0641 249.516 34.1948 249.335 35.4476C249.225 36.1883 249.004 36.7201 248.673 37.0432C248.35 37.3662 247.87 37.5277 247.231 37.5277C246.751 37.5277 246.254 37.4056 245.742 37.1613C245.23 36.9171 244.734 36.5862 244.253 36.1686C243.772 35.7509 243.315 35.2664 242.882 34.7148C242.457 34.1554 242.082 33.5644 241.759 32.942C241.436 32.3116 241.18 31.6695 240.991 31.0155C240.81 30.3615 240.719 29.7233 240.719 29.1008C240.719 28.3996 240.818 27.8756 241.015 27.5289C241.22 27.1743 241.57 26.997 242.067 26.997C242.413 26.997 242.701 27.0207 242.929 27.0679C243.158 27.1073 243.339 27.1822 243.473 27.2925C243.615 27.3949 243.713 27.5328 243.768 27.7062C243.831 27.8795 243.863 28.0962 243.863 28.3562C243.863 28.5296 243.855 28.7029 243.839 28.8762C243.824 29.0496 243.816 29.2229 243.816 29.3963C243.816 29.7981 243.855 30.2197 243.934 30.6609C244.021 31.0943 244.135 31.5198 244.277 31.9374C244.419 32.355 244.584 32.7529 244.773 33.1311C244.962 33.5014 245.163 33.8284 245.376 34.1121C245.589 34.3957 245.801 34.6203 246.014 34.7857C246.235 34.9512 246.447 35.0339 246.652 35.0339C246.794 35.0339 246.9 34.9867 246.971 34.8921C247.05 34.7976 247.101 34.636 247.125 34.4075L247.633 28.3562Z" fill="#E7663D"/>
<path d="M253.767 25.4251C253.539 25.4251 253.322 25.3936 253.117 25.3306C252.92 25.2596 252.747 25.1651 252.597 25.0469C252.455 24.9208 252.341 24.7751 252.254 24.6096C252.168 24.4441 252.124 24.2629 252.124 24.0659C252.124 23.735 252.254 23.4671 252.514 23.2622C252.782 23.0574 253.137 22.9549 253.578 22.9549C253.783 22.9549 253.98 22.9943 254.169 23.0731C254.358 23.1441 254.524 23.2425 254.666 23.3686C254.815 23.4947 254.933 23.6444 255.02 23.8177C255.107 23.9832 255.15 24.1565 255.15 24.3378C255.15 24.6766 255.024 24.9445 254.772 25.1415C254.528 25.3306 254.193 25.4251 253.767 25.4251ZM252.148 29.0299C252.148 28.7541 252.266 28.5296 252.503 28.3562C252.747 28.175 253.066 28.0844 253.46 28.0844C254.169 28.0844 254.547 28.3286 254.595 28.8172C254.626 29.156 254.658 29.5381 254.689 29.9636C254.729 30.3891 254.764 30.8421 254.796 31.3228C254.835 31.7955 254.866 32.288 254.89 32.8001C254.922 33.3044 254.949 33.8048 254.973 34.3012C254.996 34.7897 255.016 35.2624 255.032 35.7194C255.048 36.1764 255.056 36.594 255.056 36.9722C255.056 37.3662 254.914 37.6617 254.63 37.8587C254.354 38.0556 253.949 38.1541 253.413 38.1541C253.168 38.1541 252.975 38.095 252.834 37.9769C252.7 37.8665 252.633 37.7011 252.633 37.4805C252.633 36.3931 252.605 35.3767 252.55 34.4312C252.503 33.4778 252.448 32.6307 252.384 31.8901C252.329 31.1494 252.274 30.5348 252.219 30.0463C252.172 29.5499 252.148 29.2111 252.148 29.0299Z" fill="#E7663D"/>
<path d="M261.414 27.7298C261.824 27.7298 262.222 27.7889 262.608 27.9071C262.994 28.0253 263.333 28.1868 263.624 28.3917C263.924 28.5887 264.164 28.8172 264.345 29.0772C264.527 29.3293 264.617 29.5893 264.617 29.8572C264.617 30.0306 264.582 30.2 264.511 30.3654C264.44 30.523 264.345 30.6649 264.227 30.7909C264.109 30.9091 263.975 31.0076 263.825 31.0864C263.676 31.1573 263.518 31.1928 263.352 31.1928C263.171 31.1928 263.006 31.1258 262.856 30.9918C262.706 30.85 262.545 30.6964 262.372 30.5309C262.206 30.3576 262.017 30.2039 261.804 30.07C261.599 29.9281 261.351 29.8572 261.06 29.8572C260.776 29.8572 260.52 29.9242 260.291 30.0581C260.063 30.1921 259.87 30.3812 259.712 30.6255C259.563 30.8618 259.444 31.1455 259.358 31.4764C259.279 31.7995 259.239 32.154 259.239 32.5401C259.239 33.6432 259.448 34.4863 259.866 35.0694C260.283 35.6446 260.882 35.9322 261.662 35.9322C262.033 35.9322 262.348 35.8731 262.608 35.7549C262.876 35.6367 263.108 35.5067 263.305 35.3649C263.51 35.223 263.695 35.093 263.861 34.9748C264.026 34.8566 264.196 34.7976 264.369 34.7976C264.463 34.7976 264.558 34.8291 264.653 34.8921C264.747 34.9473 264.83 35.0221 264.901 35.1167C264.98 35.2033 265.043 35.3018 265.09 35.4121C265.145 35.5224 265.173 35.6328 265.173 35.7431C265.173 36.0031 265.043 36.271 264.783 36.5468C264.53 36.8225 264.203 37.0747 263.802 37.3032C263.4 37.5238 262.951 37.705 262.454 37.8468C261.966 37.9887 261.489 38.0596 261.024 38.0596C260.402 38.0596 259.83 37.9375 259.31 37.6932C258.79 37.4568 258.341 37.1259 257.963 36.7004C257.585 36.267 257.289 35.7509 257.077 35.1521C256.872 34.5533 256.769 33.8914 256.769 33.1665C256.769 32.3786 256.884 31.6537 257.112 30.9918C257.348 30.33 257.672 29.7587 258.081 29.2781C258.499 28.7896 258.991 28.4114 259.559 28.1435C260.126 27.8677 260.744 27.7298 261.414 27.7298Z" fill="#E7663D"/>
<path d="M275.526 34.8921C275.755 34.6951 275.979 34.5966 276.2 34.5966C276.326 34.5966 276.44 34.6281 276.542 34.6912C276.645 34.7542 276.759 34.8527 276.885 34.9867C277.003 35.1679 277.086 35.3176 277.133 35.4358C277.189 35.5461 277.216 35.6564 277.216 35.7667C277.216 36.0031 277.098 36.2276 276.862 36.4404C276.483 36.7556 276.074 37.0392 275.632 37.2914C275.191 37.5356 274.73 37.7444 274.25 37.9178C273.769 38.0911 273.273 38.2211 272.76 38.3078C272.248 38.4023 271.74 38.4496 271.236 38.4496C270.598 38.4496 269.999 38.3669 269.439 38.2014C268.88 38.0438 268.379 37.8153 267.938 37.5159C267.505 37.2165 267.138 36.858 266.839 36.4404C266.54 36.0149 266.327 35.5382 266.201 35.0103C266.13 34.7897 266.063 34.6478 266 34.5848C265.945 34.5139 265.85 34.4784 265.716 34.4784C265.425 34.4784 265.2 34.4075 265.043 34.2657C264.885 34.1239 264.806 33.919 264.806 33.6511C264.806 33.5408 264.814 33.4699 264.83 33.4384L264.853 33.202C264.893 32.9183 264.968 32.7135 265.078 32.5874C265.196 32.4613 265.377 32.3983 265.622 32.3983H265.799C266.13 32.3983 266.362 32.2447 266.496 31.9374C266.741 31.3937 267.052 30.8973 267.43 30.4482C267.808 29.9991 268.234 29.6169 268.706 29.3017C269.179 28.9787 269.684 28.7305 270.219 28.5571C270.763 28.3759 271.315 28.2853 271.874 28.2853C272.457 28.2853 273.001 28.372 273.505 28.5453C274.017 28.7108 274.462 28.9432 274.841 29.2426C275.219 29.5421 275.514 29.8927 275.727 30.2945C275.948 30.6964 276.058 31.1297 276.058 31.5946C276.058 31.9177 275.995 32.2131 275.869 32.481C275.743 32.7489 275.561 32.9853 275.325 33.1902C275.089 33.3872 274.801 33.5487 274.462 33.6747C274.131 33.8008 273.753 33.8836 273.328 33.9229L269.227 34.3366C269.069 34.3366 268.939 34.376 268.836 34.4548C268.742 34.5336 268.695 34.64 268.695 34.7739C268.695 34.9788 268.77 35.1758 268.919 35.3649C269.077 35.554 269.282 35.7234 269.534 35.8731C269.794 36.0149 270.089 36.1292 270.42 36.2158C270.759 36.3025 271.106 36.3458 271.46 36.3458C271.799 36.3458 272.146 36.3143 272.5 36.2513C272.863 36.1804 273.217 36.0819 273.564 35.9558C273.919 35.8297 274.261 35.68 274.592 35.5067C274.923 35.3255 275.234 35.1206 275.526 34.8921ZM272.89 31.8428C273.009 31.8192 273.111 31.764 273.198 31.6773C273.284 31.5828 273.328 31.4685 273.328 31.3346C273.328 31.2164 273.284 31.1061 273.198 31.0037C273.111 30.9012 272.993 30.8106 272.843 30.7318C272.693 30.6452 272.52 30.5782 272.323 30.5309C272.126 30.4836 271.917 30.46 271.697 30.46C271.374 30.46 271.043 30.5073 270.704 30.6018C270.365 30.6964 270.058 30.8224 269.782 30.98C269.506 31.1297 269.282 31.2991 269.108 31.4882C268.935 31.6695 268.848 31.8507 268.848 32.0319C268.848 32.2131 268.959 32.3037 269.179 32.3037C269.313 32.3037 269.53 32.288 269.829 32.2565C270.129 32.225 270.46 32.1895 270.822 32.1501C271.185 32.1028 271.551 32.0516 271.921 31.9965C272.292 31.9413 272.615 31.8901 272.89 31.8428Z" fill="#E7663D"/>
<path d="M280.915 27.2216C281.443 27.2216 281.987 27.2925 282.546 27.4343C283.106 27.5683 283.618 27.7456 284.083 27.9662C284.548 28.1789 284.93 28.4192 285.229 28.6871C285.529 28.955 285.679 29.2151 285.679 29.4672C285.679 29.5933 285.623 29.7351 285.513 29.8927C285.403 30.0424 285.269 30.1882 285.111 30.33C284.954 30.4639 284.78 30.5782 284.591 30.6727C284.41 30.7594 284.248 30.8027 284.107 30.8027C283.917 30.8027 283.705 30.7239 283.468 30.5664C283.24 30.4088 282.984 30.2354 282.7 30.0463C282.424 29.8493 282.121 29.6721 281.79 29.5145C281.459 29.3569 281.101 29.2781 280.715 29.2781C280.462 29.2781 280.254 29.3411 280.088 29.4672C279.931 29.5854 279.852 29.7548 279.852 29.9754C279.852 30.1724 279.946 30.3733 280.135 30.5782C280.325 30.7752 280.573 30.98 280.88 31.1928C281.195 31.4055 281.55 31.6301 281.944 31.8664C282.338 32.1028 282.74 32.355 283.149 32.6229C283.567 32.8908 283.973 33.1823 284.367 33.4975C284.761 33.8126 285.111 34.1554 285.419 34.5257C285.734 34.896 285.986 35.3018 286.175 35.7431C286.364 36.1764 286.459 36.6492 286.459 37.1613C286.459 37.6026 286.38 38.0044 286.222 38.3669C286.065 38.7293 285.84 39.0406 285.549 39.3006C285.257 39.5606 284.91 39.7615 284.508 39.9033C284.107 40.0452 283.665 40.1161 283.185 40.1161C282.578 40.1161 282.019 40.0215 281.506 39.8324C280.994 39.6512 280.553 39.3991 280.183 39.076C279.812 38.753 279.521 38.3669 279.308 37.9178C279.103 37.4686 279.001 36.9762 279.001 36.4404C279.001 35.747 279.123 35.2427 279.367 34.9276C279.619 34.6124 280.013 34.4548 280.549 34.4548C280.88 34.4548 281.144 34.5178 281.341 34.6439C281.538 34.77 281.636 34.9236 281.636 35.1048C281.636 35.1994 281.621 35.2979 281.589 35.4003C281.558 35.4949 281.522 35.5973 281.483 35.7076C281.451 35.81 281.42 35.9204 281.388 36.0385C281.365 36.1567 281.353 36.2749 281.353 36.3931C281.353 36.598 281.4 36.795 281.495 36.9841C281.589 37.1732 281.715 37.3386 281.873 37.4805C282.038 37.6302 282.227 37.7484 282.44 37.835C282.653 37.9217 282.877 37.965 283.114 37.965C283.744 37.965 284.059 37.705 284.059 37.185C284.059 36.7753 283.898 36.3892 283.575 36.0267C283.252 35.6564 282.846 35.2979 282.357 34.9512C281.869 34.5966 281.341 34.2421 280.774 33.8875C280.214 33.5329 279.69 33.1626 279.202 32.7765C278.713 32.3904 278.307 31.9807 277.984 31.5473C277.661 31.1061 277.5 30.6294 277.5 30.1172C277.5 29.6918 277.586 29.3017 277.76 28.9472C277.941 28.5926 278.185 28.2892 278.493 28.0371C278.8 27.7771 279.158 27.5762 279.568 27.4343C279.986 27.2925 280.435 27.2216 280.915 27.2216Z" fill="#E7663D"/>
<path d="M119.047 62.5615V54.8708H121.948C122.458 54.8708 122.848 54.8953 123.118 54.9442C123.495 55.0072 123.812 55.1278 124.067 55.3062C124.323 55.4811 124.527 55.7276 124.681 56.0459C124.838 56.3641 124.917 56.7139 124.917 57.0951C124.917 57.7491 124.709 58.3034 124.293 58.7581C123.877 59.2092 123.125 59.4348 122.037 59.4348H120.065V62.5615H119.047ZM120.065 58.5273H122.053C122.71 58.5273 123.177 58.4049 123.453 58.16C123.73 57.9152 123.868 57.5707 123.868 57.1266C123.868 56.8048 123.786 56.5303 123.621 56.3029C123.46 56.0721 123.247 55.92 122.981 55.8465C122.81 55.8011 122.493 55.7783 122.032 55.7783H120.065V58.5273ZM127.733 62.5615V54.8708H131.143C131.828 54.8708 132.349 54.9407 132.706 55.0806C133.063 55.217 133.348 55.4601 133.561 55.8098C133.774 56.1596 133.881 56.546 133.881 56.9692C133.881 57.5148 133.704 57.9747 133.351 58.3489C132.998 58.7231 132.452 58.9609 131.714 59.0624C131.984 59.1918 132.188 59.3194 132.328 59.4453C132.626 59.7181 132.907 60.0591 133.173 60.4683L134.511 62.5615H133.231L132.213 60.9614C131.916 60.4998 131.671 60.1465 131.478 59.9017C131.286 59.6569 131.113 59.4855 130.959 59.3876C130.809 59.2897 130.655 59.2215 130.497 59.183C130.382 59.1585 130.193 59.1463 129.931 59.1463H128.75V62.5615H127.733ZM128.75 58.265H130.938C131.403 58.265 131.767 58.2177 132.029 58.1233C132.292 58.0254 132.491 57.8715 132.627 57.6617C132.764 57.4483 132.832 57.2175 132.832 56.9692C132.832 56.6055 132.699 56.3064 132.433 56.0721C132.171 55.8378 131.755 55.7206 131.185 55.7206H128.75V58.265ZM137.006 62.5615V54.8708H142.567V55.7783H138.024V58.1338H142.279V59.0361H138.024V61.6539H142.745V62.5615H137.006ZM145.309 60.0906L146.269 60.0066C146.315 60.3914 146.42 60.7079 146.584 60.9562C146.752 61.201 147.011 61.4003 147.36 61.5542C147.71 61.7046 148.104 61.7798 148.541 61.7798C148.929 61.7798 149.272 61.7221 149.569 61.6067C149.866 61.4913 150.087 61.3339 150.23 61.1345C150.377 60.9317 150.45 60.7114 150.45 60.4735C150.45 60.2322 150.38 60.0224 150.241 59.844C150.101 59.6622 149.87 59.51 149.548 59.3876C149.342 59.3072 148.885 59.183 148.179 59.0151C147.472 58.8438 146.978 58.6829 146.694 58.5325C146.327 58.3402 146.052 58.1023 145.871 57.819C145.692 57.5323 145.603 57.2123 145.603 56.859C145.603 56.4708 145.713 56.1088 145.934 55.7731C146.154 55.4338 146.476 55.1768 146.899 55.0019C147.322 54.8271 147.792 54.7396 148.31 54.7396C148.88 54.7396 149.382 54.8323 149.816 55.0177C150.253 55.1995 150.589 55.4688 150.823 55.8256C151.057 56.1823 151.183 56.5862 151.201 57.0374L150.225 57.1108C150.172 56.6247 149.994 56.2575 149.69 56.0092C149.389 55.7609 148.943 55.6367 148.352 55.6367C147.736 55.6367 147.287 55.7504 147.004 55.9777C146.724 56.2015 146.584 56.4726 146.584 56.7908C146.584 57.0671 146.684 57.2944 146.883 57.4728C147.079 57.6512 147.59 57.8348 148.415 58.0236C149.244 58.209 149.812 58.3716 150.12 58.5115C150.568 58.7179 150.898 58.9802 151.111 59.2984C151.325 59.6132 151.431 59.9769 151.431 60.3896C151.431 60.7988 151.314 61.1853 151.08 61.549C150.846 61.9092 150.508 62.1907 150.067 62.3936C149.63 62.5929 149.137 62.6926 148.588 62.6926C147.892 62.6926 147.308 62.5912 146.836 62.3883C146.367 62.1855 145.998 61.8812 145.729 61.4755C145.463 61.0663 145.323 60.6047 145.309 60.0906ZM156.283 62.5615V55.7783H153.749V54.8708H159.845V55.7783H157.3V62.5615H156.283ZM160.756 62.5615L163.709 54.8708H164.806L167.953 62.5615H166.794L165.897 60.2322H162.681L161.837 62.5615H160.756ZM162.975 59.4033H165.582L164.78 57.2735C164.535 56.6264 164.353 56.0948 164.234 55.6787C164.136 56.1718 163.998 56.6614 163.82 57.1476L162.975 59.4033ZM171.43 62.5615V55.7783H168.896V54.8708H174.992V55.7783H172.448V62.5615H171.43ZM175.904 62.5615L178.857 54.8708H179.953L183.101 62.5615H181.942L181.045 60.2322H177.829L176.984 62.5615H175.904ZM178.123 59.4033H180.73L179.927 57.2735C179.682 56.6264 179.501 56.0948 179.382 55.6787C179.284 56.1718 179.146 56.6614 178.967 57.1476L178.123 59.4033ZM185.591 62.5615V54.8708H186.609V62.5615H185.591ZM189.928 62.5615V54.8708H193.338C194.024 54.8708 194.545 54.9407 194.902 55.0806C195.258 55.217 195.543 55.4601 195.757 55.8098C195.97 56.1596 196.077 56.546 196.077 56.9692C196.077 57.5148 195.9 57.9747 195.547 58.3489C195.194 58.7231 194.648 58.9609 193.91 59.0624C194.18 59.1918 194.384 59.3194 194.524 59.4453C194.821 59.7181 195.103 60.0591 195.369 60.4683L196.706 62.5615H195.426L194.409 60.9614C194.111 60.4998 193.867 60.1465 193.674 59.9017C193.482 59.6569 193.309 59.4855 193.155 59.3876C193.004 59.2897 192.851 59.2215 192.693 59.183C192.578 59.1585 192.389 59.1463 192.127 59.1463H190.946V62.5615H189.928ZM190.946 58.265H193.134C193.599 58.265 193.963 58.2177 194.225 58.1233C194.487 58.0254 194.687 57.8715 194.823 57.6617C194.959 57.4483 195.028 57.2175 195.028 56.9692C195.028 56.6055 194.895 56.3064 194.629 56.0721C194.367 55.8378 193.95 55.7206 193.38 55.7206H190.946V58.265ZM199.202 62.5615V54.8708H204.763V55.7783H200.22V58.1338H204.474V59.0361H200.22V61.6539H204.941V62.5615H199.202ZM211.501 62.5615L214.455 54.8708H215.551L218.699 62.5615H217.539L216.642 60.2322H213.426L212.582 62.5615H211.501ZM213.72 59.4033H216.327L215.525 57.2735C215.28 56.6264 215.098 56.0948 214.979 55.6787C214.881 56.1718 214.743 56.6614 214.565 57.1476L213.72 59.4033ZM215.839 54.3986H215.079L213.867 52.9297H215.131L215.839 54.3986ZM225.51 62.5615V54.8708H228.159C228.758 54.8708 229.214 54.9075 229.529 54.9809C229.969 55.0824 230.345 55.266 230.657 55.5318C231.062 55.8745 231.365 56.3134 231.564 56.8485C231.767 57.3801 231.868 57.9887 231.868 58.6741C231.868 59.2582 231.8 59.7758 231.664 60.227C231.527 60.6781 231.353 61.0524 231.139 61.3496C230.926 61.6434 230.692 61.876 230.436 62.0474C230.184 62.2152 229.878 62.3429 229.518 62.4303C229.161 62.5177 228.751 62.5615 228.285 62.5615H225.51ZM226.528 61.6539H228.17C228.677 61.6539 229.074 61.6067 229.361 61.5123C229.651 61.4178 229.882 61.2849 230.053 61.1136C230.295 60.8722 230.482 60.5487 230.615 60.143C230.751 59.7338 230.819 59.239 230.819 58.6584C230.819 57.854 230.686 57.2367 230.421 56.8066C230.158 56.3729 229.838 56.0826 229.461 55.9357C229.188 55.8308 228.749 55.7783 228.144 55.7783H226.528V61.6539ZM234.469 58.8158C234.469 57.5393 234.812 56.5408 235.497 55.8203C236.183 55.0964 237.068 54.7344 238.152 54.7344C238.862 54.7344 239.502 54.904 240.072 55.2432C240.642 55.5825 241.076 56.0564 241.373 56.6649C241.674 57.27 241.824 57.9572 241.824 58.7266C241.824 59.5065 241.667 60.2042 241.352 60.8198C241.037 61.4353 240.591 61.9022 240.014 62.2205C239.437 62.5352 238.814 62.6926 238.146 62.6926C237.423 62.6926 236.776 62.5177 236.205 62.168C235.635 61.8183 235.203 61.3409 234.91 60.7358C234.616 60.1308 234.469 59.4908 234.469 58.8158ZM235.518 58.8315C235.518 59.7583 235.767 60.4893 236.263 61.0244C236.763 61.556 237.389 61.8218 238.141 61.8218C238.907 61.8218 239.537 61.5525 240.03 61.0139C240.526 60.4753 240.775 59.7111 240.775 58.7214C240.775 58.0953 240.668 57.5497 240.455 57.0846C240.245 56.616 239.935 56.254 239.526 55.9987C239.12 55.7399 238.664 55.6105 238.157 55.6105C237.437 55.6105 236.816 55.8588 236.295 56.3554C235.777 56.8485 235.518 57.6739 235.518 58.8315ZM244.613 62.5615V54.8708H246.145L247.966 60.3162C248.133 60.8233 248.256 61.2027 248.333 61.4545C248.42 61.1748 248.557 60.7638 248.742 60.2217L250.583 54.8708H251.953V62.5615H250.972V56.1246L248.737 62.5615H247.819L245.594 56.0144V62.5615H244.613ZM255.272 62.5615V54.8708H256.29V62.5615H255.272ZM265.08 59.865L266.098 60.1221C265.885 60.9579 265.5 61.5962 264.944 62.0369C264.391 62.474 263.715 62.6926 262.914 62.6926C262.085 62.6926 261.41 62.5247 260.889 62.189C260.371 61.8498 259.976 61.3601 259.703 60.7201C259.434 60.0801 259.299 59.3929 259.299 58.6584C259.299 57.8575 259.451 57.1598 259.756 56.5652C260.063 55.9672 260.499 55.5143 261.062 55.2065C261.629 54.8953 262.251 54.7396 262.93 54.7396C263.699 54.7396 264.346 54.9355 264.871 55.3272C265.395 55.7189 265.761 56.2697 265.967 56.9797L264.965 57.2158C264.787 56.6562 264.528 56.2487 264.189 55.9934C263.849 55.7381 263.423 55.6105 262.909 55.6105C262.318 55.6105 261.823 55.7521 261.424 56.0354C261.029 56.3187 260.751 56.6999 260.59 57.179C260.429 57.6547 260.349 58.146 260.349 58.6532C260.349 59.3072 260.443 59.879 260.632 60.3686C260.824 60.8548 261.121 61.2185 261.524 61.4598C261.926 61.7011 262.361 61.8218 262.83 61.8218C263.4 61.8218 263.883 61.6574 264.278 61.3286C264.673 60.9999 264.941 60.512 265.08 59.865ZM269.034 62.5615V54.8708H270.052V62.5615H269.034ZM273.314 62.5615V54.8708H274.332V61.6539H278.119V62.5615H273.314ZM280.861 62.5615V54.8708H286.422V55.7783H281.879V58.1338H286.134V59.0361H281.879V61.6539H286.601V62.5615H280.861Z" fill="#E7663D"/>
<defs>
<clipPath id="clip0_973_1060">
<rect width="83.6917" height="56.2113" fill="white" transform="translate(10.8521 9.39435)"/>
</clipPath>
</defs>
</svg>
