<svg width="301" height="215" viewBox="0 0 301 215" fill="none" xmlns="http://www.w3.org/2000/svg">
<g clip-path="url(#clip0_973_1030)">
<path fill-rule="evenodd" clip-rule="evenodd" d="M172.787 119.937L172.86 144.506H163.793L163.94 130.395L164.087 116.209L144.125 112.772C133.157 110.871 113.049 107.287 99.3756 104.875C85.775 102.389 74.5882 100.488 74.4414 100.635C74.3691 100.781 68.7375 109.554 62.0105 120.231C55.2836 130.907 47.0934 143.702 43.8777 148.746C28.9606 172.071 28.0099 173.681 36.1277 162.932C38.3204 160.08 44.3902 152.183 49.5816 145.384C54.8454 138.585 60.7684 130.833 62.7421 128.202C72.2467 115.552 77.1467 109.263 77.3658 109.263C77.4381 109.263 82.6296 115.405 88.7717 122.864C94.9861 130.395 103.689 140.924 108.074 146.262C112.534 151.6 121.894 163.079 128.912 171.707L141.709 187.428H206.639C242.322 187.5 270.798 187.436 271.298 187.452C271.298 187.233 265.134 177.483 257.456 166.003C249.706 154.523 240.493 140.924 236.982 135.733L230.693 126.373L217.971 124.325C211.025 123.227 203.42 121.985 201.154 121.547L196.914 120.816V95.3709H172.783V119.939L172.787 119.937Z" fill="#E7663D"/>
<path d="M119.426 26.7626C119.426 26.7626 102.8 25.3778 85.1236 32.7299C85.1236 32.7299 85.1055 32.7359 85.0974 32.7399C83.3227 33.4795 81.54 34.3076 79.7593 35.2321C79.4759 35.3748 79.1945 35.5215 78.9152 35.6663C78.8106 35.7225 78.7041 35.7768 78.5996 35.8351C50.1482 50.7763 42.6555 75.0372 42.1208 95.1377C41.7309 103.259 42.563 112.676 45.4773 123.328C46.5083 127.261 47.3726 129.57 47.3726 129.57L73.7338 89.1503L163.948 106.724L165.12 86.8069H187.381C187.381 86.8069 178.007 31.741 119.426 26.7626Z" fill="#FCDB28"/>
</g>
<defs>
<clipPath id="clip0_973_1030">
<rect width="240.247" height="160.804" fill="white" transform="translate(31.0527 26.6582)"/>
</clipPath>
</defs>
</svg>
