<svg width="56" height="56" viewBox="0 0 56 56" fill="none" xmlns="http://www.w3.org/2000/svg">
<rect x="0.5" y="0.5" width="55" height="55" rx="27.5" fill="#E7663D"/>
<path fill-rule="evenodd" clip-rule="evenodd" d="M23.6446 17.8068C23.8122 17.6098 24.0345 17.5 24.2657 17.5C24.4968 17.5 24.7192 17.6098 24.8868 17.8068L32.1522 26.484C32.3149 26.6752 32.4444 26.9054 32.5329 27.1606C32.6214 27.4157 32.667 27.6905 32.667 27.9681C32.667 28.2458 32.6214 28.5205 32.5329 28.7757C32.4444 29.0308 32.3149 29.261 32.1522 29.4523L24.8342 38.1935C24.4948 38.5978 23.945 38.603 23.6005 38.204C23.5171 38.1089 23.4504 37.9937 23.4045 37.8654C23.3586 37.7371 23.3345 37.5985 23.3337 37.4582C23.3329 37.3179 23.3554 37.1788 23.3998 37.0498C23.4443 36.9207 23.5097 36.8043 23.592 36.7078L30.289 28.7099C30.3704 28.6143 30.4352 28.4992 30.4795 28.3715C30.5238 28.2439 30.5466 28.1065 30.5466 27.9676C30.5466 27.8287 30.5238 27.6913 30.4795 27.5637C30.4352 27.436 30.3704 27.3209 30.289 27.2253L23.6455 19.2904C23.5641 19.1949 23.4993 19.0798 23.455 18.9523C23.4108 18.8248 23.3879 18.6874 23.3879 18.5486C23.3879 18.4098 23.4108 18.2725 23.455 18.1449C23.4993 18.0174 23.5632 17.9024 23.6446 17.8068Z" fill="#F3F2F2"/>
</svg>
