<svg width="64" height="65" viewBox="0 0 64 65" fill="none" xmlns="http://www.w3.org/2000/svg">
<g id="Layer 2">
<path id="Vector" d="M28.812 51.5864H35.1885V64.3394H28.812V51.5864Z" fill="#EC8969"/>
<path id="Vector_2" d="M51.1296 7.97113L32.0001 0.319336L12.8707 7.97113V19.7039H0.117676V64.3393H22.4354V45.2099H41.5649V64.3393H63.8826V19.7039H51.1296V7.97113ZM16.0589 51.5863H9.68242V45.2099H16.0589V51.5863ZM16.0589 38.8334H9.68242V32.4569H16.0589V38.8334ZM28.8119 38.8334H22.4354V32.4569H28.8119V38.8334ZM28.8119 13.3274H35.1884V26.0804H28.8119V13.3274ZM41.5649 38.8334H35.1884V32.4569H41.5649V38.8334ZM54.3179 51.5863H47.9414V45.2099H54.3179V51.5863ZM54.3179 32.4569V38.8334H47.9414V32.4569H54.3179Z" fill="#EC8969"/>
</g>
</svg>
