<svg width="83" height="65" viewBox="0 0 83 65" fill="none" xmlns="http://www.w3.org/2000/svg">
<path id="Vector" fill-rule="evenodd" clip-rule="evenodd" d="M12.2006 15.0418H78.5497C80.7222 15.0418 82.5032 16.8228 82.5032 18.9953C82.5032 21.1678 80.7222 22.9489 78.5497 22.9489H70.7992V53.9901C70.7992 59.5877 66.2193 64.1479 60.6413 64.1479H22.3585C16.7609 64.1479 12.2006 59.5681 12.2006 53.9901V22.9489H4.45012C2.27763 22.9489 0.496582 21.1678 0.496582 18.9953C0.496582 16.8228 2.27763 15.0418 4.45012 15.0418H12.2006ZM41.4999 0.12793C45.3947 0.12793 48.585 3.10287 48.9177 6.89984H73.1674C74.8506 6.89984 76.2206 8.26988 76.2206 9.95307C76.2206 10.5207 75.7705 10.9708 75.2029 10.9708H7.77736C7.20978 10.9708 6.75962 10.5207 6.75962 9.95307C6.75962 8.26988 8.12966 6.89984 9.81285 6.89984H34.0626C34.4148 3.10287 37.6051 0.12793 41.4803 0.12793H41.4999Z" fill="#EC8969"/>
</svg>
