<svg width="87" height="65" viewBox="0 0 87 65" fill="none" xmlns="http://www.w3.org/2000/svg">
<path d="M13.6238 0.641113C13.2465 0.641113 12.8846 0.791001 12.6178 1.0578C12.351 1.3246 12.2012 1.68647 12.2012 2.06378V18.8797C11.7449 19.0453 11.2638 19.1319 10.7785 19.1358H9.35582V2.06378C9.35582 1.68647 9.20594 1.3246 8.93913 1.0578C8.67233 0.791001 8.31047 0.641113 7.93316 0.641113C7.55584 0.641113 7.19398 0.791001 6.92718 1.0578C6.66038 1.3246 6.51049 1.68647 6.51049 2.06378V19.1358H5.08782C4.60249 19.1319 4.12137 19.0453 3.66516 18.8797V2.06378C3.66516 1.68647 3.51527 1.3246 3.24847 1.0578C2.98167 0.791001 2.61981 0.641113 2.24249 0.641113C1.86518 0.641113 1.50332 0.791001 1.23651 1.0578C0.969712 1.3246 0.819824 1.68647 0.819824 2.06378V20.5584C0.819824 21.6904 1.26949 22.776 2.06989 23.5764C2.8703 24.3768 3.95588 24.8264 5.08782 24.8264V61.8158C5.08782 62.5704 5.3876 63.2941 5.9212 63.8277C6.45481 64.3613 7.17853 64.6611 7.93316 64.6611C8.68779 64.6611 9.41151 64.3613 9.94511 63.8277C10.4787 63.2941 10.7785 62.5704 10.7785 61.8158V24.8264C11.9104 24.8264 12.996 24.3768 13.7964 23.5764C14.5968 22.776 15.0465 21.6904 15.0465 20.5584V2.06378C15.0465 1.68647 14.8966 1.3246 14.6298 1.0578C14.363 0.791001 14.0011 0.641113 13.6238 0.641113ZM76.2212 17.1725V31.9398C76.2212 32.6944 76.5209 33.4181 77.0545 33.9517C77.5881 34.4853 78.3119 34.7851 79.0665 34.7851C79.4438 34.7851 79.8057 34.935 80.0725 35.2018C80.3393 35.4686 80.4892 35.8305 80.4892 36.2078V61.8158C80.4892 62.5704 80.7889 63.2941 81.3225 63.8277C81.8561 64.3613 82.5799 64.6611 83.3345 64.6611C84.0891 64.6611 84.8128 64.3613 85.3465 63.8277C85.8801 63.2941 86.1798 62.5704 86.1798 61.8158V2.06378C83.2233 3.33096 80.7036 5.43805 78.9334 8.1238C77.1631 10.8095 76.2201 13.9558 76.2212 17.1725Z" fill="#A83815"/>
<path d="M44.9223 49.0118C53.5652 49.0118 60.5716 42.0054 60.5716 33.3625C60.5716 24.7196 53.5652 17.7131 44.9223 17.7131C36.2794 17.7131 29.2729 24.7196 29.2729 33.3625C29.2729 42.0054 36.2794 49.0118 44.9223 49.0118Z" fill="#A83815"/>
<path d="M44.9223 6.33179C39.5761 6.33179 34.35 7.91711 29.9048 10.8873C25.4597 13.8574 21.9951 18.0791 19.9492 23.0183C17.9033 27.9575 17.368 33.3924 18.411 38.6359C19.454 43.8793 22.0284 48.6957 25.8087 52.476C29.589 56.2563 34.4054 58.8308 39.6489 59.8737C44.8923 60.9167 50.3273 60.3814 55.2665 58.3355C60.2057 56.2896 64.4273 52.8251 67.3975 48.3799C70.3676 43.9347 71.9529 38.7086 71.9529 33.3625C71.9529 26.1935 69.1051 19.3181 64.0358 14.2489C58.9666 9.17965 52.0913 6.33179 44.9223 6.33179ZM44.9223 51.8571C41.2644 51.8571 37.6886 50.7724 34.6472 48.7402C31.6058 46.708 29.2353 43.8195 27.8354 40.4401C26.4356 37.0606 26.0694 33.3419 26.783 29.7543C27.4966 26.1667 29.258 22.8713 31.8446 20.2847C34.4311 17.6982 37.7265 15.9368 41.3141 15.2232C44.9018 14.5095 48.6204 14.8758 51.9999 16.2756C55.3793 17.6754 58.2678 20.0459 60.3 23.0874C62.3323 26.1288 63.4169 29.7046 63.4169 33.3625C63.4169 38.2675 61.4684 42.9717 58 46.4402C54.5316 49.9086 49.8274 51.8571 44.9223 51.8571Z" fill="#A83815"/>
</svg>
