<svg width="17" height="10" viewBox="0 0 17 10" fill="none" xmlns="http://www.w3.org/2000/svg">
<path id="Vector" fill-rule="evenodd" clip-rule="evenodd" d="M16.3385 9.41681C16.6618 9.08106 16.6618 8.53806 16.3385 8.20314L9.48756 1.10437C9.33655 0.945466 9.15479 0.818937 8.95335 0.732477C8.7519 0.646016 8.53498 0.601431 8.31576 0.601431C8.09654 0.601431 7.87962 0.646016 7.67817 0.732477C7.47673 0.818937 7.29497 0.945466 7.14396 1.10437L0.242491 8.25454C0.0882528 8.41682 0.00156054 8.63171 2.08273e-05 8.85559C-0.00151889 9.07946 0.0822094 9.29553 0.234201 9.45991C0.30926 9.54135 0.400236 9.6065 0.501497 9.65135C0.602758 9.69619 0.712147 9.71977 0.82289 9.72063C0.933634 9.72148 1.04337 9.69959 1.14532 9.65632C1.24726 9.61304 1.33923 9.5493 1.41553 9.46903L7.73007 2.92486C7.80558 2.84535 7.89648 2.78203 7.99724 2.73876C8.098 2.69549 8.20652 2.67318 8.31618 2.67318C8.42583 2.67318 8.53434 2.69549 8.63511 2.73876C8.73587 2.78203 8.82677 2.84535 8.90228 2.92486L15.1671 9.41681C15.2425 9.4963 15.3333 9.5596 15.434 9.60286C15.5347 9.64612 15.6432 9.66843 15.7528 9.66843C15.8624 9.66843 15.9708 9.64612 16.0715 9.60286C16.1722 9.5596 16.263 9.4963 16.3385 9.41681Z" fill="#1B1918"/>
</svg>
