<svg width="44" height="65" viewBox="0 0 44 65" fill="none" xmlns="http://www.w3.org/2000/svg">
<g id="Group 218">
<path id="Vector" d="M26.6265 16.5706V17.1332C26.639 17.1332 26.6515 17.1332 26.664 17.1332H32.8284C32.8409 17.1332 32.8659 17.1332 32.8784 17.1332V16.5706C32.8784 7.50523 25.5011 0.12793 16.4358 0.12793C7.37047 0.12793 -0.00683594 7.50523 -0.00683594 16.5706V63.5227C-0.00683594 63.8728 0.26825 64.1479 0.618359 64.1479H5.61992C5.97003 64.1479 6.24512 63.8728 6.24512 63.5227V16.5706C6.24512 10.9563 10.8215 6.37988 16.4358 6.37988C22.0501 6.37988 26.6265 10.9563 26.6265 16.5706Z" fill="#EC8969"/>
<path id="Vector_2" d="M40.1679 25.1359H19.3364C19.6615 21.3722 22.825 18.3838 26.6762 18.3838H32.8406C36.6793 18.3838 39.8428 21.3722 40.1679 25.1359Z" fill="#EC8969"/>
<path id="Vector_3" d="M44.007 26.3862H15.498V30.5125H44.007V26.3862Z" fill="#EC8969"/>
<path id="Vector_4" d="M19.2494 60.6469H17.999V56.8957H19.2494V60.6469ZM19.2494 53.1445H17.999V49.3934H19.2494V53.1445ZM19.2494 45.6422H17.999V41.891H19.2494V45.6422ZM19.2494 38.1398H17.999V34.3887H19.2494V38.1398ZM24.7511 63.5228H23.5007V59.8966H24.7511V63.5228ZM24.7511 55.6453H23.5007V51.394H24.7511V55.6453ZM24.7511 47.1427H23.5007V42.8913H24.7511V47.1427ZM24.7511 38.64H23.5007V34.3887H24.7511V38.64ZM30.3779 60.6469H29.1275V56.8957H30.3779V60.6469ZM30.3779 53.1445H29.1275V49.3934H30.3779V53.1445ZM30.3779 45.6422H29.1275V41.891H30.3779V45.6422ZM30.3779 38.1398H29.1275V34.3887H30.3779V38.1398ZM35.8796 63.5228H34.6292V59.8966H35.8796V63.5228ZM35.8796 55.6453H34.6292V51.394H35.8796V55.6453ZM35.8796 47.1427H34.6292V42.8913H35.8796V47.1427ZM35.8796 38.64H34.6292V34.3887H35.8796V38.64ZM41.3813 60.6469H40.1309V56.8957H41.3813V60.6469ZM41.3813 53.1445H40.1309V49.3934H41.3813V53.1445ZM41.3813 45.6422H40.1309V41.891H41.3813V45.6422ZM41.3813 38.1398H40.1309V34.3887H41.3813V38.1398Z" fill="#EC8969"/>
</g>
</svg>
