<svg width="70" height="70" viewBox="0 0 70 70" fill="none" xmlns="http://www.w3.org/2000/svg">
<path fill-rule="evenodd" clip-rule="evenodd" d="M35 70C54.33 70 70 54.33 70 35C70 15.67 54.33 0 35 0C15.67 0 0 15.67 0 35C0 54.33 15.67 70 35 70ZM18.2778 40.9478C18.2778 41.3159 18.4527 41.67 18.7664 41.9369C18.9186 42.0665 19.1018 42.1683 19.3049 42.2388C19.5081 42.3093 19.7268 42.3457 19.9479 42.3457C20.1689 42.3457 20.3877 42.3093 20.5908 42.2388C20.7939 42.1683 20.9771 42.0651 21.1293 41.9356L33.7663 31.3551C33.9186 31.2255 34.1019 31.1222 34.3052 31.0517C34.5084 30.9812 34.7273 30.9448 34.9485 30.9448C35.1697 30.9448 35.3886 30.9812 35.5918 31.0517C35.7951 31.1222 35.9785 31.2255 36.1308 31.3551L48.8681 42.0207C49.0217 42.1518 49.2071 42.2559 49.4127 42.3267C49.6183 42.3975 49.8397 42.4333 50.0632 42.4321C50.2866 42.4308 50.5074 42.3924 50.7117 42.3193C50.916 42.2463 51.0996 42.14 51.251 42.0072C51.8864 41.4586 51.8781 40.5829 51.2343 40.0424L37.313 28.3877C37.0084 28.1286 36.6418 27.9224 36.2354 27.7815C35.8291 27.6405 35.3915 27.5679 34.9493 27.5679C34.5072 27.5679 34.0696 27.6405 33.6632 27.7815C33.2569 27.9224 32.8903 28.1286 32.5857 28.3877L18.7664 39.9586C18.4527 40.2256 18.2778 40.5796 18.2778 40.9478Z" fill="#E7663D" fill-opacity="0.5"/>
</svg>
