<svg width="59" height="65" viewBox="0 0 59 65" fill="none" xmlns="http://www.w3.org/2000/svg">
<path d="M13.2948 42.9373V34.0345H45.6049V42.9373H13.2948ZM14.8953 16.6291C14.5952 12.4278 13.6949 8.32652 12.0944 4.4253C11.6943 3.42499 11.7943 2.32464 12.3945 1.42436C12.9947 0.524082 13.895 0.0239258 14.9953 0.0239258H43.9044C45.0047 0.0239258 46.005 0.524082 46.6052 1.42436C47.2054 2.32464 47.3054 3.42499 46.9053 4.4253C45.5049 7.92639 44.6046 11.5275 44.2044 15.3287C43.9044 18.2296 44.8046 21.0305 46.6052 23.3312C46.005 24.1315 45.6049 25.1318 45.6049 26.2321V31.9339H13.2948V26.2321C13.2948 25.3318 13.0947 24.5316 12.6946 23.8314L12.8947 23.4312C14.2951 21.4306 14.9953 19.0299 14.8953 16.6291ZM6.19257 39.7363V30.8335C6.19257 28.933 4.59207 27.3325 2.59145 27.3325C2.09129 27.3325 1.59113 27.1324 1.19101 26.7323C0.790883 26.3321 0.59082 25.832 0.59082 25.3318C0.59082 24.8317 0.790883 24.3315 1.19101 23.9314C1.4911 23.6313 1.89123 23.3312 2.59145 23.3312H8.39326C9.89373 23.3312 11.1941 24.6316 11.1941 26.1321V42.9373H9.39357C7.59301 42.9373 6.19257 41.5369 6.19257 39.7363ZM11.2942 64.0439H6.79276L10.5939 45.138H12.1944H14.9953L11.2942 64.0439ZM47.8056 64.0439L44.0044 45.138H46.8053H48.4058L52.2069 64.0439H47.8056ZM57.8087 26.8323C57.4086 27.2324 57.0084 27.4325 56.4083 27.4325C54.4076 27.4325 52.8071 29.033 52.8071 30.9336V39.8364C52.8071 41.6369 51.4067 43.0374 49.6061 43.0374H47.8056V26.2321C47.8056 24.7316 49.106 23.4312 50.6064 23.4312H56.4083C57.1085 23.4312 57.5086 23.7313 57.8087 24.0314C58.2088 24.4315 58.4089 24.9317 58.4089 25.4319C58.3089 25.932 58.1088 26.4322 57.8087 26.8323Z" fill="#A83815"/>
</svg>
