<svg width="256" height="333" viewBox="0 0 256 333" fill="none" xmlns="http://www.w3.org/2000/svg">
<g clip-path="url(#clip0_2802_3400)">
<path d="M75.5037 124.692L4.04718 109.277L3.11854 109.078C2.64563 108.975 2.15334 109.008 1.69828 109.172C1.24321 109.337 0.843846 109.627 0.546114 110.008C0.248383 110.39 0.0643647 110.848 0.0152362 111.329C-0.0338924 111.81 0.0538673 112.296 0.268402 112.73L28.6395 170.345C28.8231 170.715 29.093 171.036 29.4264 171.28C29.7598 171.524 30.147 171.684 30.5553 171.747C30.9649 171.811 31.3839 171.774 31.776 171.64C32.1681 171.505 32.5216 171.277 32.806 170.976L52.5119 150.198C52.6521 150.046 52.8221 149.925 53.0113 149.842C53.2004 149.76 53.4047 149.717 53.6111 149.717C53.8917 149.713 54.1681 149.786 54.4107 149.927C54.6533 150.068 54.853 150.272 54.9883 150.518L59.0247 157.984C59.2823 158.482 59.6991 158.879 60.2087 159.113C60.7183 159.346 61.2913 159.402 61.8366 159.273L61.8567 159.268C62.4086 159.151 62.9052 158.852 63.2666 158.419C63.628 157.986 63.8333 157.444 63.8493 156.88L64.6579 139.646C64.6675 139.431 64.7212 139.22 64.8157 139.027C64.9171 138.835 65.0547 138.665 65.2208 138.526L76.5893 129.194C76.963 128.888 77.2427 128.482 77.3964 128.023C77.55 127.565 77.5714 127.073 77.4581 126.603C77.3448 126.133 77.1013 125.704 76.7557 125.366C76.41 125.028 75.9761 124.794 75.5037 124.692ZM75.9401 128.401L64.5716 137.733C64.4235 137.852 64.2893 137.988 64.1715 138.137L3.91803 110.811C3.86489 110.787 3.80945 110.767 3.75251 110.753C3.5201 110.693 3.27407 110.717 3.05696 110.819C2.83985 110.921 2.66531 111.096 2.56354 111.314C2.46176 111.531 2.43915 111.777 2.49961 112.009C2.56006 112.242 2.69979 112.445 2.89462 112.586L52.4364 148.977C52.185 149.108 51.958 149.281 51.7655 149.489L32.0598 170.267C31.8888 170.447 31.6769 170.583 31.4421 170.663C31.2073 170.744 30.9565 170.767 30.7111 170.729C30.4657 170.692 30.2328 170.596 30.0324 170.45C29.8319 170.304 29.6698 170.111 29.5597 169.888L1.1886 112.273C1.06177 112.013 1.0106 111.722 1.04093 111.434C1.07127 111.146 1.18188 110.873 1.36016 110.645C1.53845 110.416 1.77725 110.243 2.04935 110.144C2.32144 110.045 2.6159 110.024 2.89917 110.084L3.84986 110.29L75.2841 125.698C75.5677 125.76 75.8283 125.9 76.036 126.102C76.2438 126.305 76.3903 126.562 76.4587 126.844C76.5272 127.126 76.5149 127.422 76.4231 127.697C76.3314 127.972 76.164 128.216 75.9401 128.401Z" fill="#E7663D"/>
<path d="M90.7329 330.223C84.3233 328.492 76.5228 321.292 78.1928 311.395C79.021 306.487 82.1999 303.309 85.496 301.255C90.0552 298.413 95.2477 297.342 100.252 297.072C106.023 296.76 111.788 297.547 117.517 298.379C123.172 299.2 128.828 299.936 134.508 300.385C156.737 302.128 179.1 300.468 200.827 295.46C206.19 294.223 211.52 292.771 216.818 291.105C221.839 289.627 226.747 287.793 231.506 285.615C237.805 282.591 248.049 276.707 247.213 265.808C246.771 260.03 243.367 255.414 239.935 252.199C235.785 248.311 230.982 245.753 226.278 243.269C204.399 231.714 182.477 220.297 160.576 208.812C155.465 206.132 150.32 203.523 145.359 200.382C140.715 197.441 136.092 194.025 132.355 189.301C129.09 185.176 126.173 179.637 126.276 173.446C126.361 168.312 128.698 163.955 131.559 160.698C138.645 152.636 148.667 149.367 157.725 147.655C168.979 145.528 180.396 145.539 191.657 143.485C200.75 141.826 210.465 138.624 217.86 131.121C220.989 128.069 223.201 124.204 224.248 119.961C225.193 115.517 224.734 110.889 222.935 106.717C220.932 101.933 217.736 98.121 214.376 94.9999C210.517 91.4646 206.139 88.5401 201.396 86.3278C191.408 81.5684 180.906 79.0904 170.675 75.438C165.658 73.6468 160.59 71.6826 155.931 68.6059C151.984 65.9993 147.684 62.4858 145.488 57.261C140.957 46.4809 151.766 40.0561 157.891 37.6225C162.054 36.0436 166.342 34.8161 170.709 33.9529C171.633 33.7546 171.241 31.9112 170.322 32.1085C165.724 33.0048 161.218 34.3205 156.861 36.039C153.168 37.5735 149.357 39.5902 146.456 43.0604C145.135 44.6273 144.158 46.4543 143.589 48.4231C143.02 50.3918 142.872 52.4581 143.153 54.488C143.922 59.6604 147.262 63.6459 150.399 66.5326C154.547 70.35 159.277 72.8431 164.073 74.8753C169.124 77.0156 174.282 78.6836 179.438 80.3197C189.741 83.5891 200.506 86.5026 209.807 93.4595C216.314 98.3262 225.152 107.451 222.988 118.761C222.027 123.782 219.11 127.707 215.962 130.594C212.264 133.885 208.001 136.477 203.378 138.246C182.767 146.54 160.083 140.609 140.004 151.875C133.176 155.705 124.884 162.679 124.817 173.653C124.782 179.353 127.067 184.581 129.892 188.713C133.276 193.663 137.657 197.323 142.115 200.382C146.809 203.485 151.682 206.307 156.71 208.832C162.203 211.717 167.697 214.599 173.192 217.476L206.54 234.964L223.108 243.652C228.165 246.304 233.352 248.848 237.95 252.741C241.715 255.928 246.162 261.157 245.778 267.651C245.473 272.807 242.048 276.528 238.917 279.016C234.864 282.238 230.311 284.322 225.78 286.053C220.555 288.051 215.243 289.707 209.921 291.197C199.02 294.244 187.895 296.421 176.65 297.709C165.432 299.001 154.132 299.422 142.849 298.969C137.149 298.74 131.457 298.284 125.774 297.601C119.916 296.896 114.084 295.809 108.211 295.327C102.899 294.89 97.5352 294.991 92.3038 296.393C87.9356 297.564 83.3208 299.651 80.005 303.722C77.561 306.83 76.3372 310.724 76.5638 314.672C76.7883 318.611 78.1928 322.391 80.5947 325.522C83.0344 328.719 86.4625 331.02 90.3455 332.068C91.2612 332.315 91.6527 330.472 90.7329 330.223Z" fill="#E6E6E6"/>
<path d="M256.001 331.097H89.4629V332.248H256.001V331.097Z" fill="#3F3D56"/>
<path d="M242.657 276.847C248.665 276.847 253.536 271.976 253.536 265.967C253.536 259.959 248.665 255.088 242.657 255.088C236.648 255.088 231.777 259.959 231.777 265.967C231.777 271.976 236.648 276.847 242.657 276.847Z" fill="#E6E6E6"/>
<path d="M222.809 123.506C228.818 123.506 233.689 118.636 233.689 112.627C233.689 106.618 228.818 101.748 222.809 101.748C216.801 101.748 211.93 106.618 211.93 112.627C211.93 118.636 216.801 123.506 222.809 123.506Z" fill="#E6E6E6"/>
<path d="M198.211 0.449806L168.002 13.5822C166.668 14.164 165.619 15.2513 165.086 16.6055C164.552 17.9597 164.578 19.4702 165.156 20.8057L174.537 42.3833C175.118 43.7175 176.206 44.7665 177.56 45.3C178.914 45.8336 180.425 45.8082 181.76 45.2294L211.969 32.097C213.303 31.5152 214.352 30.4279 214.886 29.0737C215.419 27.7195 215.394 26.2089 214.815 24.8734L205.435 3.29585C204.853 1.96166 203.766 0.912717 202.411 0.379166C201.057 -0.154385 199.547 -0.12898 198.211 0.449806ZM199.462 3.32682C199.642 3.24913 199.832 3.1945 200.026 3.16422L189.813 22.4335L168.836 16.6931C168.967 16.6012 169.107 16.5229 169.253 16.4592L199.462 3.32682ZM210.718 29.2199L180.509 42.3524C179.937 42.6004 179.29 42.6113 178.709 42.3826C178.129 42.1539 177.663 41.7044 177.414 41.1326L168.118 19.7488L190.197 25.791C190.541 25.8851 190.906 25.8593 191.234 25.7178C191.561 25.5763 191.83 25.3276 191.997 25.0126L202.687 4.84371L211.938 26.1241C212.186 26.6965 212.197 27.3439 211.968 27.9242C211.739 28.5046 211.29 28.9706 210.718 29.2199Z" fill="#E6E6E6"/>
<path d="M164.329 187.617C179.52 187.617 191.835 175.302 191.835 160.111C191.835 144.92 179.52 132.604 164.329 132.604C149.137 132.604 136.822 144.92 136.822 160.111C136.822 175.302 149.137 187.617 164.329 187.617Z" fill="#E7663D"/>
<path d="M159.995 331.435H152.409C151.523 331.434 150.674 331.082 150.048 330.455C149.422 329.829 149.069 328.98 149.068 328.094V264.871C149.069 263.985 149.422 263.136 150.048 262.51C150.674 261.884 151.523 261.531 152.409 261.53H159.995C160.881 261.531 161.73 261.884 162.356 262.51C162.982 263.136 163.335 263.985 163.336 264.871V328.094C163.335 328.98 162.982 329.829 162.356 330.455C161.73 331.082 160.881 331.434 159.995 331.435Z" fill="#FEEB8B"/>
<path d="M174.997 331.435H167.411C166.525 331.434 165.676 331.082 165.05 330.455C164.424 329.829 164.071 328.98 164.07 328.094V264.871C164.071 263.985 164.424 263.136 165.05 262.51C165.676 261.884 166.525 261.531 167.411 261.53H174.997C175.883 261.531 176.732 261.884 177.358 262.51C177.984 263.136 178.337 263.985 178.338 264.871V328.094C178.337 328.98 177.984 329.829 177.358 330.455C176.732 331.082 175.883 331.434 174.997 331.435Z" fill="#FEEB8B"/>
<path d="M206.433 258.26C206.1 258.259 205.768 258.21 205.45 258.112C205.03 257.984 204.639 257.775 204.301 257.495C203.963 257.216 203.683 256.872 203.478 256.484L173.841 200.637C173.635 200.249 173.508 199.825 173.466 199.388C173.425 198.952 173.469 198.511 173.598 198.092C173.726 197.672 173.936 197.282 174.216 196.944C174.495 196.606 174.838 196.326 175.226 196.12L181.926 192.564C182.314 192.358 182.738 192.231 183.175 192.189C183.612 192.147 184.052 192.192 184.472 192.321C184.891 192.449 185.281 192.659 185.62 192.938C185.958 193.218 186.238 193.561 186.443 193.949L216.08 249.796C216.286 250.183 216.413 250.607 216.455 251.044C216.497 251.481 216.452 251.921 216.324 252.341C216.195 252.76 215.985 253.15 215.706 253.489C215.426 253.827 215.083 254.107 214.695 254.312L207.995 257.868C207.514 258.125 206.978 258.259 206.433 258.26Z" fill="#E7663D"/>
<path d="M144.736 206.784C144.335 206.784 143.937 206.711 143.562 206.569L84.4171 184.226C84.0068 184.071 83.6311 183.836 83.3115 183.536C82.992 183.236 82.7347 182.875 82.5545 182.475C82.3743 182.076 82.2747 181.644 82.2613 181.206C82.248 180.767 82.3211 180.331 82.4767 179.92L85.1524 172.824C85.4682 171.996 86.0989 171.327 86.9066 170.964C87.7144 170.6 88.6334 170.571 89.4625 170.883L148.606 193.221C149.433 193.536 150.102 194.165 150.467 194.972C150.831 195.778 150.862 196.696 150.552 197.525L147.871 204.623C147.629 205.258 147.199 205.805 146.64 206.191C146.08 206.577 145.416 206.784 144.736 206.784Z" fill="#E7663D"/>
<path d="M181.25 192.396H146.783C145.08 192.396 143.699 193.777 143.699 195.48V268.706C143.699 270.409 145.08 271.789 146.783 271.789H181.25C182.953 271.789 184.334 270.409 184.334 268.706V195.48C184.334 193.777 182.953 192.396 181.25 192.396Z" fill="#FEEB8B"/>
<path d="M184.645 133.174C186.261 136.721 187.808 141.007 186.069 144.801C185.43 146.334 184.233 147.566 182.72 148.249C180.927 148.964 178.972 148.556 177.311 147.691C173.813 145.87 171.558 142.488 168.435 140.17C167.013 139.063 165.332 138.338 163.55 138.065C161.498 137.798 159.461 138.282 157.453 138.656C155.319 139.053 153.112 139.263 151.136 138.18C149.398 137.164 148.038 135.61 147.261 133.752C146.854 132.849 145.525 133.632 145.929 134.531C147.609 138.26 151.084 140.802 155.259 140.508C157.468 140.352 159.601 139.639 161.814 139.537C163.833 139.47 165.812 140.103 167.418 141.328C170.847 143.773 173.174 147.526 177.108 149.302C178.964 150.139 181.09 150.489 183.047 149.767C184.735 149.111 186.141 147.886 187.023 146.304C189.605 141.859 187.947 136.72 185.976 132.396C185.565 131.494 184.236 132.277 184.645 133.174Z" fill="#FEEB8B"/>
<path d="M143.653 206.329L119.346 198.917C118.588 198.686 117.948 198.172 117.559 197.481C117.17 196.791 117.062 195.977 117.257 195.209L120.094 184.028C120.207 183.587 120.415 183.175 120.705 182.824C120.995 182.472 121.36 182.19 121.772 181.996C122.184 181.802 122.635 181.702 123.09 181.703C123.546 181.704 123.996 181.806 124.407 182.002L148.516 193.461C149.28 193.751 149.898 194.332 150.235 195.077C150.571 195.822 150.599 196.669 150.312 197.434L147.631 204.532C147.341 205.297 146.76 205.917 146.014 206.253C145.268 206.59 144.419 206.617 143.653 206.329Z" fill="#FEEB8B"/>
<path d="M174.277 200.004L184.701 223.179C185.027 223.902 185.618 224.472 186.352 224.771C187.086 225.07 187.907 225.074 188.644 224.784L199.376 220.556C199.8 220.389 200.182 220.13 200.494 219.798C200.806 219.465 201.04 219.068 201.181 218.635C201.321 218.201 201.363 217.742 201.304 217.29C201.246 216.838 201.088 216.405 200.842 216.021L186.427 193.554C186.043 192.833 185.388 192.293 184.607 192.054C183.826 191.814 182.982 191.893 182.259 192.274L175.557 195.831C174.834 196.215 174.294 196.871 174.054 197.653C173.814 198.436 173.894 199.281 174.277 200.004Z" fill="#FEEB8B"/>
<path d="M75.5037 124.692L4.04718 109.277L3.11854 109.078C2.64563 108.975 2.15334 109.008 1.69828 109.172C1.24321 109.337 0.843846 109.627 0.546114 110.008C0.248383 110.39 0.0643647 110.848 0.0152362 111.329C-0.0338924 111.81 0.0538673 112.296 0.268402 112.73L28.6395 170.345C28.8231 170.715 29.093 171.036 29.4264 171.28C29.7598 171.524 30.147 171.684 30.5553 171.747C30.9649 171.811 31.3839 171.774 31.776 171.64C32.1681 171.505 32.5216 171.277 32.806 170.976L52.5119 150.198C52.6521 150.046 52.8221 149.925 53.0113 149.842C53.2004 149.76 53.4047 149.717 53.6111 149.717C53.8917 149.713 54.1681 149.786 54.4107 149.927C54.6533 150.068 54.853 150.272 54.9883 150.518L59.0247 157.984C59.2823 158.482 59.6991 158.879 60.2087 159.113C60.7183 159.346 61.2913 159.402 61.8366 159.273L61.8567 159.268C62.4086 159.151 62.9052 158.852 63.2666 158.419C63.628 157.986 63.8333 157.444 63.8493 156.88L64.6579 139.646C64.6675 139.431 64.7212 139.22 64.8157 139.027C64.9171 138.835 65.0547 138.665 65.2208 138.526L76.5893 129.194C76.963 128.888 77.2427 128.482 77.3964 128.023C77.55 127.565 77.5714 127.073 77.4581 126.603C77.3448 126.133 77.1013 125.704 76.7557 125.366C76.41 125.028 75.9761 124.794 75.5037 124.692ZM75.9401 128.401L64.5716 137.733C64.4235 137.852 64.2893 137.988 64.1715 138.137C64.0652 138.27 63.9735 138.414 63.8978 138.567C63.8185 138.722 63.756 138.886 63.7114 139.055L63.7125 139.06C63.6654 139.236 63.6383 139.417 63.6316 139.599L62.8232 156.833C62.8165 157.172 62.6946 157.498 62.4776 157.759C62.2606 158.019 61.9615 158.198 61.6295 158.266L61.6194 158.268C61.2922 158.349 60.9471 158.318 60.6401 158.178C60.3332 158.039 60.0823 157.8 59.9281 157.5L55.8907 150.029C55.6827 149.645 55.3799 149.32 55.0112 149.086C54.6424 148.851 54.2199 148.715 53.7836 148.69L53.7787 148.691C53.72 148.688 53.6615 148.685 53.6042 148.687C53.1972 148.687 52.7963 148.787 52.4365 148.977C52.185 149.108 51.9581 149.281 51.7655 149.489L32.0598 170.267C31.8888 170.447 31.6769 170.583 31.4421 170.663C31.2073 170.744 30.9565 170.767 30.7111 170.729C30.4657 170.692 30.2328 170.596 30.0324 170.45C29.832 170.304 29.6698 170.111 29.5597 169.888L1.1886 112.273C1.06177 112.013 1.0106 111.722 1.04093 111.434C1.07127 111.146 1.18188 110.873 1.36016 110.645C1.53845 110.416 1.77725 110.243 2.04935 110.144C2.32144 110.045 2.6159 110.024 2.89917 110.084L3.84986 110.29L75.2841 125.698C75.5677 125.76 75.8283 125.9 76.036 126.102C76.2438 126.305 76.3903 126.562 76.4587 126.844C76.5272 127.126 76.5149 127.422 76.4231 127.697C76.3314 127.972 76.164 128.216 75.9401 128.401Z" fill="#3F3D56"/>
<path d="M64.3979 138.24L63.9733 139.176L63.7109 139.06L63.7098 139.055L3.50413 111.755L53.7771 148.691L53.782 148.69L53.9152 148.792L53.309 149.621L52.4349 148.977L2.89305 112.585C2.69822 112.445 2.55849 112.241 2.49803 112.009C2.43758 111.777 2.46019 111.531 2.56196 111.313C2.66374 111.096 2.83828 110.921 3.05539 110.819C3.2725 110.717 3.51853 110.693 3.75094 110.753C3.80788 110.767 3.86332 110.787 3.91646 110.811L64.1699 138.137L64.3979 138.24Z" fill="#3F3D56"/>
</g>
<defs>
<clipPath id="clip0_2802_3400">
<rect width="256" height="332.254" fill="white" transform="translate(0 -0.00537109)"/>
</clipPath>
</defs>
</svg>
